<?xml version="1.0" encoding="utf-8"?>
<!-- Generator: Adobe Illustrator 18.1.1, SVG Export Plug-In . SVG Version: 6.00 Build 0)  -->
<svg version="1.1" xmlns="http://www.w3.org/2000/svg" xmlns:xlink="http://www.w3.org/1999/xlink" x="0px" y="0px"
	 viewBox="0 0 800 800" enable-background="new 0 0 800 800" xml:space="preserve">
<g id="Background">
	<g id="Capa_3">
		<g opacity="0.3">
			<path fill="#0F859E" d="M700.5,623.9c4.8-5.8,7.7-13.3,7.7-21.4c0-18.5-15-33.6-33.6-33.6c-4.2,0-8.2,0.8-11.9,2.2
				c-6.1-34.4-37.6-60.5-75.6-60.5c-37.1,0-68,25-75.1,58.2c-12-20.5-34.3-34.3-59.8-34.3c-26.2,0-48.9,14.5-60.7,36
				c-14.5-26.7-42.7-44.8-75.2-44.8c-47.2,0-85.5,38.3-85.5,85.5c0,0.7,0,1.4,0.1,2.2c-11.6-6.1-24.9-9.6-38.9-9.6
				c-46.3,0-83.8,37.5-83.8,83.8c0,2.2,0.1,4.3,0.3,6.4c-9.1-4.1-19.3-6.4-29.9-6.4c-40.4,0-73.1,32.7-73.1,73.1
				c0,14.3,4.1,27.6,11.2,38.9h750.2C766.8,799.6,828.5,655.1,700.5,623.9z"/>
			<path fill="#FFFFFF" d="M734,729.2c-10.3-61.8-42.7-61.1-72.9-59.2c9.2-6.2,12.9-13.2,13.6-20c2.4-23.5-16.3-38.7-30.9-37.2
				c-7.6,0.8-13.4,4.1-13.4,4.1c-1-7.9-4.1-15.4-9.8-21.4c-7.4-7.7-17.4-12.4-27.8-14.4c-19.3-3.7-43,0.1-56.6,15.3l-4.4,9.9
				c-9.3-17.7-27.1-29.7-47.5-29.7c-25.2,0-46.4,18.3-52.6,43.1c-5.1-2.9-11-4.6-17.2-4.6c-18.7,0-34.1,15.1-36.2,34.4
				c-3.8,0.6-7.7,1.3-11.7,2.1c-11.5-10.5-26.4-16.8-42.8-16.8c-36.5,0-66,31.6-66,70.5c0,1.8,0.1,3.6,0.2,5.4
				c-7.2-3.4-15.2-5.4-23.5-5.4c-31.8,0-57.6,27.5-57.6,61.5c0,12,3.2,23.2,8.8,32.7l527.8-1.3C713.3,798.3,742.7,781.5,734,729.2z"
				/>
			<path fill="#0F859E" d="M779.5,511c4.7-6,7.6-13.6,7.6-21.9c0-19.6-15.9-35.5-35.5-35.5c-19.6,0-35.5,15.9-35.5,35.5
				c0,11.4,5.4,21.4,13.7,27.9c-2,2.7-3.2,6-3.2,9.7c0,9,7.3,16.2,16.2,16.2c5.9,0,11-3.1,13.8-7.8c2.3,8.1,9.7,14.1,18.6,14.1
				c10.7,0,19.3-8.7,19.3-19.3C794.5,520.7,788.1,513,779.5,511z"/>
			<path fill="#0F859E" d="M587.7,451.3c-0.2-12-9.9-21.6-22-21.6c-12.1,0-22,9.8-22,22c0,1.1,0.1,2.1,0.2,3.1
				c-6.8,2.5-11.7,9-11.7,16.6c0,9.8,7.9,17.7,17.7,17.7c1.9,0,3.7-0.3,5.4-0.8c3.3,12.8,14.9,22.2,28.7,22.2
				c16.4,0,29.7-13.3,29.7-29.7C613.9,465.6,602.5,453,587.7,451.3z"/>
			<circle fill="#0F859E" cx="573.1" cy="390.6" r="15.1"/>
			<path fill="#0F859E" d="M550.5,409.3c0,4.9-4,8.9-8.9,8.9c-4.9,0-8.9-4-8.9-8.9c0-4.9,4-8.9,8.9-8.9
				C546.5,400.4,550.5,404.4,550.5,409.3z"/>
			<path fill="#80BECB" d="M698.1,740.2c-1.6,0-3.1,0.2-4.6,0.4c-1.6-13.4-9.1-33-37.8-40.9c2.7-3.3,4.4-7.5,4.4-12.2
				c0-10.5-8.5-19.1-19.1-19.1c-2.4,0-4.6,0.4-6.7,1.2c-3.5-19.5-21.4-34.4-42.9-34.4c-21.1,0-38.7,14.2-42.7,33.1
				c-6.8-11.7-19.5-19.5-34-19.5c-14.9,0-27.8,8.3-34.5,20.4c-8.2-15.2-24.3-25.5-42.7-25.5c-26.8,0-48.6,21.8-48.6,48.6
				c0,0.4,0,0.8,0,1.2c-6.6-3.5-14.1-5.5-22.1-5.5c-26.3,0-47.7,21.3-47.7,47.7c0,1.2,0.1,2.4,0.2,3.6c-5.2-2.3-10.9-3.6-17-3.6
				c-22.9,0-41.5,18.6-41.5,41.5c0,8.1,2.3,15.7,6.4,22.1h426.3c1.5,0.2,3.1,0.4,4.7,0.4c16.5,0,29.9-13.4,29.9-29.9
				C728,753.6,714.6,740.2,698.1,740.2z"/>
			<path fill="#0F859E" d="M534.2,665.8c-3.4,0-6.7,0.6-9.8,1.7c-3.4-25.8-25.5-45.7-52.2-45.7c-29.1,0-52.7,23.6-52.7,52.7
				c0,8,1.8,15.7,5,22.5c-14,4.9-24,18.2-24,33.8c0,19.8,16.1,35.9,35.9,35.9c19.8,0,35.9-16.1,35.9-35.9c0-1.2-0.1-2.4-0.2-3.6
				c0.1,0,0.1,0,0.2,0c14.8,0,28.2-6.1,37.8-16c5.2,7.8,14.1,12.9,24.2,12.9c16.1,0,29.2-13.1,29.2-29.2
				C563.4,678.8,550.3,665.8,534.2,665.8z"/>
		</g>
	</g>
</g>
<g id="Objects">
	<g>
		<g>
			<g>
				<path fill="#80BECB" d="M555.9,393.8l-9-15.9l-7.5,4.3c-4.6-5.5-10.2-9.7-16.4-12.7l2.3-8.3l-17.6-4.8l-2.3,8.3
					c-5-0.4-10.2-0.1-15.2,1.1c-1.8,0.4-3.6,0.9-5.4,1.5l-4.3-7.5l-15.9,9l4.3,7.5c-5.5,4.6-9.7,10.2-12.7,16.4l-8.3-2.3L443,408
					l8.3,2.3c-0.6,6.8,0.2,13.9,2.6,20.6l-7.5,4.3l9,15.9l7.5-4.3c4.6,5.5,10.2,9.7,16.4,12.7l-2.3,8.3l17.6,4.8l2.3-8.3
					c5,0.4,10.2,0.1,15.2-1.1c1.8-0.4,3.6-0.9,5.4-1.5l4.3,7.5l15.9-9l-4.3-7.5c5.5-4.6,9.7-10.2,12.7-16.4l8.3,2.3l4.8-17.6
					l-8.3-2.3c0.6-6.8-0.2-13.9-2.6-20.6L555.9,393.8z M519.4,446.6c-3.2,1.8-6.6,3.1-10.1,3.9c-15.4,3.5-32-3.3-40.2-17.7
					c-10.1-17.7-3.9-40.2,13.8-50.3c3.2-1.9,6.7-3.2,10.1-3.9c15.4-3.5,32,3.3,40.2,17.7C543.3,413.9,537.2,436.5,519.4,446.6z"/>
				<path fill="#0F859E" d="M616.7,459.8c-1.4-3.8-3.4-7.3-6-10.3l3.6-4.7l-11.7-8.9l-3.6,4.7c-3.7-1.7-7.6-2.7-11.6-3l-0.8-5.9
					l-10.6,1.5l-3.9,0.5l0.8,5.9c-3.8,1.4-7.3,3.4-10.3,6l-4.7-3.6l-8.9,11.7l4.7,3.6c-1.7,3.7-2.7,7.6-3,11.6l-5.9,0.8l2,14.5
					l5.9-0.8c1.4,3.8,3.4,7.3,6,10.3l-3.6,4.7l11.7,8.9l3.6-4.7c3.7,1.7,7.5,2.7,11.6,3l0.8,5.9l10.6-1.5l3.9-0.5l-0.8-5.9
					c3.8-1.4,7.3-3.4,10.3-6l4.7,3.6l8.9-11.7l-4.7-3.6c1.7-3.7,2.7-7.6,3-11.6l5.9-0.8l-2-14.5L616.7,459.8z M602.9,485.4
					c-1.9,2.5-4.2,4.5-6.9,6c-2,1.1-4.1,2-6.3,2.4c-6.5,1.5-13.4,0.1-18.9-4.1c-10-7.6-12-22-4.4-32c1.9-2.5,4.2-4.5,6.9-6
					c2-1.1,4.1-2,6.3-2.4c6.5-1.5,13.4-0.1,18.9,4.1C608.6,461,610.5,475.4,602.9,485.4z"/>
			</g>
			<path fill="#D0E2FA" d="M641.9,463.9c0.3,1.8,0.5,3.5,0.6,5.3l-3.9,0.3c-0.2-3.3-0.8-6.7-1.6-9.9l3.8-1
				C641.2,460.3,641.6,462.1,641.9,463.9z M642.3,480c-0.4,3.6-1.2,7.1-2.2,10.6l-3.8-1.2c1-3.2,1.7-6.5,2.1-9.9L642.3,480z
				 M637.1,448.4l-3.6,1.7c-1.4-3-3.1-5.9-5.1-8.7l3.2-2.3C633.7,442,635.6,445.2,637.1,448.4z M635.9,500.5c-1.7,3.2-3.6,6.2-5.9,9
				l-3.1-2.4c2.1-2.6,3.9-5.5,5.5-8.4L635.9,500.5z M622.6,517.4c-2.7,2.4-5.7,4.5-8.7,6.3l-2-3.4c2.9-1.7,5.6-3.7,8.2-5.9
				L622.6,517.4z M604.1,528.4c-3.4,1.2-6.9,2.1-10.4,2.7l-0.6-3.9c3.3-0.6,6.6-1.4,9.7-2.5L604.1,528.4z M583,527.9l-0.1,3.9
				c-3.6-0.1-7.2-0.5-10.7-1.2l0.8-3.8C576.3,527.5,579.7,527.9,583,527.9z M563.4,523.9l-1.5,3.6c-3.3-1.4-6.5-3.1-9.6-5l2.1-3.3
				C557.3,521,560.3,522.6,563.4,523.9z M546.6,513l-2.7,2.9c-2.6-2.5-5-5.2-7.1-8.1l3.2-2.3C541.9,508.1,544.1,510.6,546.6,513z
				 M535.7,448.1c-1.6,3-2.8,6.1-3.8,9.3l-3.8-1.2c1.1-3.4,2.4-6.8,4.1-10L535.7,448.1z M534.8,496.7l-3.6,1.7
				c-1.5-3.2-2.8-6.7-3.7-10.1l3.8-1C532.2,490.5,533.4,493.7,534.8,496.7z M529.9,467.3c-0.4,3.3-0.4,6.7-0.2,10.1l-3.9,0.3
				c-0.3-3.6-0.2-7.2,0.2-10.8L529.9,467.3z M636.1,427.3l-27.5-10.7l5.6,29L636.1,427.3z"/>
		</g>
		<g id="nube_2_">
			<g>
				<path fill-rule="evenodd" clip-rule="evenodd" fill="#BCDFE2" d="M588.3,150.1c-13.9,0-27.7,0-41.6,0c-10.4,0-20.7-0.1-31.1-0.1
					c-5.9,0-11.5-4.3-13.3-10.2c-0.7-2.5-0.9-5.2-0.8-7.8c0.2-6.1,1.7-11.8,4.9-17c2.6-4.2,6.2-7.4,10.2-9.9
					c4.6-2.9,9.5-4.5,14.7-5.5c3.7-0.7,7.5-1.2,11.2-1.7c0.6-0.1,0.7-0.3,0.8-0.8c2.2-11.9,7.7-21.9,16.3-29.8
					c5.3-4.9,11.4-8.3,18.3-9.9c4.4-1,8.9-1.2,13.4-1c5.3,0.3,10.5,1.3,15.4,3.6c7,3.2,12.6,8.2,17,14.7c0.9,1.3,1.8,2.7,2.6,4
					c0.2,0.4,0.4,0.5,0.9,0.4c3.6-0.5,7.2-0.8,10.9-0.5c4.4,0.3,8.5,1.5,12,4.5c4.1,3.5,6,8.1,6.3,13.5c0.2,3.8-0.2,7.5-0.7,11.2
					c-0.1,0.5,0.1,0.8,0.5,1c1.7,1.1,3.6,1.7,5.5,2.1c3.8,0.8,7.3,2.4,10.3,5.1c3.9,3.6,6.1,8.2,6.9,13.6c0.5,3,0.3,6-0.3,8.9
					c-0.9,4.5-3.5,7.4-7.3,9.3c-3.7,1.8-7.6,2.3-11.6,2.4c-15,0-30,0-45,0C606,150.1,597.2,150.1,588.3,150.1
					C588.3,150.1,588.3,150.1,588.3,150.1z"/>
			</g>
		</g>
		<g id="nube_3_">
			<g>
				<path fill-rule="evenodd" clip-rule="evenodd" fill="#BCDFE2" d="M673.5,200.3c-11.1,0-22.3,0-33.4,0c-8.3,0-16.7,0-25-0.1
					c-4.8,0-9.3-3.4-10.7-8.2c-0.6-2-0.7-4.2-0.7-6.3c0.1-4.9,1.4-9.5,3.9-13.7c2.1-3.4,5-5.9,8.2-8c3.7-2.3,7.7-3.7,11.9-4.4
					c3-0.6,6-1,9-1.4c0.5-0.1,0.6-0.3,0.6-0.7c1.8-9.6,6.2-17.6,13.2-24c4.3-3.9,9.2-6.7,14.8-8c3.5-0.8,7.1-1,10.8-0.8
					c4.3,0.2,8.4,1.1,12.4,2.9c5.6,2.6,10.1,6.6,13.6,11.9c0.7,1.1,1.4,2.1,2.1,3.2c0.2,0.3,0.4,0.4,0.7,0.3
					c2.9-0.4,5.8-0.7,8.7-0.4c3.5,0.3,6.8,1.2,9.6,3.6c3.3,2.8,4.9,6.5,5.1,10.9c0.1,3-0.2,6-0.5,9c-0.1,0.4,0.1,0.6,0.4,0.8
					c1.4,0.9,2.9,1.4,4.5,1.7c3.1,0.6,5.9,1.9,8.3,4.1c3.2,2.9,4.9,6.6,5.6,10.9c0.4,2.4,0.3,4.8-0.2,7.2c-0.7,3.6-2.8,5.9-5.9,7.4
					c-3,1.5-6.1,1.9-9.4,1.9c-12.1,0-24.1,0-36.2,0C687.7,200.2,680.6,200.2,673.5,200.3C673.5,200.2,673.5,200.2,673.5,200.3z"/>
			</g>
		</g>
		<g>
			<g>
				<g>
					<g>
						
							<line fill="none" stroke="#D0E2FA" stroke-width="3.7865" stroke-linecap="round" stroke-miterlimit="10" x1="539.7" y1="729.9" x2="535.9" y2="729.9"/>
						
							<line fill="none" stroke="#D0E2FA" stroke-width="3.7865" stroke-linecap="round" stroke-miterlimit="10" stroke-dasharray="7.6578,7.6578" x1="528.2" y1="729.9" x2="149.2" y2="729.9"/>
						<polyline fill="none" stroke="#D0E2FA" stroke-width="3.7865" stroke-linecap="round" stroke-miterlimit="10" points="
							145.3,729.9 141.5,729.9 141.5,726.2 						"/>
						
							<line fill="none" stroke="#D0E2FA" stroke-width="3.7865" stroke-linecap="round" stroke-miterlimit="10" stroke-dasharray="7.6764,7.6764" x1="141.5" y1="718.5" x2="141.5" y2="568.8"/>
						<path fill="none" stroke="#D0E2FA" stroke-width="3.7865" stroke-linecap="round" stroke-miterlimit="10" d="M141.5,564.9
							v-3.8c1,0,2.3,0,3.8,0"/>
						
							<path fill="none" stroke="#D0E2FA" stroke-width="3.7865" stroke-linecap="round" stroke-miterlimit="10" stroke-dasharray="7.6114,7.6114" d="
							M152.9,561.2c69.7,0,370.7,0,422.4,0"/>
						<path fill="none" stroke="#D0E2FA" stroke-width="3.7865" stroke-linecap="round" stroke-miterlimit="10" d="M579.2,561.2
							c2.5,0,3.8,0,3.8,0v-3.8"/>
						
							<line fill="none" stroke="#D0E2FA" stroke-width="3.7865" stroke-linecap="round" stroke-miterlimit="10" stroke-dasharray="7.8213,7.8213" x1="583" y1="549.6" x2="583" y2="397"/>
						<polyline fill="none" stroke="#D0E2FA" stroke-width="3.7865" stroke-linecap="round" stroke-miterlimit="10" points="
							583,393.1 583,389.3 579.2,389.3 						"/>
						
							<line fill="none" stroke="#D0E2FA" stroke-width="3.7865" stroke-linecap="round" stroke-miterlimit="10" stroke-dasharray="7.5181,7.5181" x1="571.7" y1="389.3" x2="304.8" y2="389.3"/>
						<polyline fill="none" stroke="#D0E2FA" stroke-width="3.7865" stroke-linecap="round" stroke-miterlimit="10" points="
							301,389.3 297.2,389.3 297.2,385.6 						"/>
						
							<line fill="none" stroke="#D0E2FA" stroke-width="3.7865" stroke-linecap="round" stroke-miterlimit="10" stroke-dasharray="7.5831,7.5831" x1="297.2" y1="378" x2="297.2" y2="63.3"/>
						
							<line fill="none" stroke="#D0E2FA" stroke-width="3.7865" stroke-linecap="round" stroke-miterlimit="10" x1="297.2" y1="59.5" x2="297.2" y2="55.7"/>
					</g>
				</g>
				<circle fill="#D70929" cx="578.2" cy="726.9" r="40"/>
				<g>
					<path fill="#D0E2FA" d="M581.8,698.5v-7.2h-7.3v7.2c-14.2,1.8-25.2,14-25.2,28.6c0,15.9,13,28.9,28.9,28.9
						c15.9,0,28.9-13,28.9-28.9C607,712.5,596,700.3,581.8,698.5z M578.2,748.7c-11.9,0-21.5-9.7-21.5-21.5
						c0-10.6,7.7-19.5,17.9-21.2v19.6h7.3V706c10.1,1.8,17.9,10.6,17.9,21.2C599.7,739,590,748.7,578.2,748.7z"/>
				</g>
				<path opacity="0.2" fill="#D0E2FA" d="M559.6,762.3c12.8-14.4,32-42.5,40.5-68.9c-6.3-4.1-13.8-6.6-22-6.6
					c-22.1,0-40,17.9-40,40C538.1,742.2,546.9,755.6,559.6,762.3z"/>
				<g>
					<path fill="#D70929" d="M634.1,752.6c0-1.2,0.5-1.8,1.5-1.8c0.5,0,1.2,0.2,2,0.5s1.6,0.5,2.2,0.5c0.6,0,1.3-0.4,2-1.2
						s1.3-1.8,1.7-2.9c0.8-2.4,1.2-4.5,1.2-6.4c0-1.9-0.3-4-1-6.2c-0.7-2.2-1.5-4.2-2.4-6.2c-1-1.9-1.9-3.8-2.9-5.8
						c-2.3-4.6-3.5-8.8-3.5-12.5c0-3.6,1.1-6.4,3.4-8.4c1.2-1.1,2.6-1.6,4.3-1.6c0.8,0,1.6,0.2,2.4,0.7c0.8,0.5,1.3,1.1,1.6,1.8
						l-1.2,1.5c-1.1,0-2-0.2-2.7-0.7c-0.9,0.1-1.6,0.5-2.2,1.2c-1.1,1.3-1.7,2.9-1.7,4.9s0.2,3.8,0.7,5.7s1.1,3.5,1.8,4.9
						c0.7,1.5,1.5,3,2.4,4.7c0.9,1.7,1.7,3.3,2.4,4.9c1.7,3.6,2.6,7.5,2.6,11.7c0,3-0.7,5.8-2.2,8.5c-0.7,1.3-1.7,2.4-3,3.2
						c-1.3,0.8-2.7,1.3-4.2,1.3c-1.7,0-3-0.2-3.9-0.7C634.6,753.7,634.1,753.1,634.1,752.6z"/>
					<path fill="#D70929" d="M661.1,713.5l-0.1,8.9l0.6,15.8l0.6,12.3c0,2.2-0.7,3.4-2,3.4c-0.8,0-1.3-0.4-1.7-1.1
						c-0.4-0.7-0.5-1.5-0.5-2.4l0.5-11c0-2.4-0.2-5.9-0.5-10.7c-0.3-4.8-0.5-8.3-0.5-10.7l0.1-6c0-3.3-0.2-5.4-0.6-6.4l-3.7,0.4
						c-0.6,0-1.1-0.2-1.6-0.5c-0.5-0.3-0.7-0.8-0.7-1.3c0-0.5,0.5-1,1.6-1.4c1.1-0.4,2.5-0.7,4-0.9c2.8-0.3,5.1-0.5,6.9-0.5
						c0.6,0,1.1,0.2,1.5,0.6c0.5,0.4,0.7,0.8,0.7,1.4c0,0.6-0.2,1-0.6,1.3s-0.9,0.5-1.5,0.5l-2.4-0.1c-0.3,0-0.5,0-0.7,0
						C661,707.7,661.1,710.5,661.1,713.5z"/>
					<path fill="#D70929" d="M682.5,753.3c-1.4,0-2.1-0.6-2.1-1.8v-9c-0.6-0.4-1.8-0.8-3.5-1.1c-1.7-0.3-3.2-0.5-4.5-0.6
						c-0.5,0.8-0.9,2-1.2,3.5c-0.3,1.5-0.6,3.1-0.9,4.6c-0.3,1.5-0.8,2.8-1.3,3.7c-1.8,0-2.8-0.5-3-1.4c0.6-0.9,1.6-5.5,3.1-13.7
						s2.6-14.7,3.5-19.4c0.9-4.7,1.9-8.6,2.9-11.8c1.1-3.2,2.1-4.8,3-4.8s1.7,0.2,2.2,0.6c0,1.6,0.4,6.1,1.3,13.3
						c0.9,7.2,1.3,11.9,1.3,14c0,2.1,0.2,5.6,0.7,10.5c0.5,4.9,0.7,8.6,0.7,11.1C684.8,752.6,684.1,753.3,682.5,753.3z M679.6,730.9
						c-0.4-4.1-0.8-7.9-1.1-11.6s-0.5-5.9-0.5-6.7s0-1.2,0-1.3c-0.7,0.7-1.8,4.8-3.1,12.3c-1.4,7.5-2.1,12.2-2.2,14.2
						c1.9,0.5,3.5,0.8,4.8,0.8s2.2-0.1,2.7-0.2C680.3,737.5,680.1,735,679.6,730.9z"/>
					<path fill="#D70929" d="M689.5,751.4l0.3-40.3v-8.5c0-0.5,0.1-0.9,0.3-1.1s0.8-0.3,1.8-0.3c1,0,1.9,0.2,2.9,0.7
						c1,0.5,1.8,1.1,2.5,1.8c0.6,0.8,1.2,1.7,1.7,2.7c0.9,1.9,1.3,4,1.3,6.2s-0.6,4.8-1.7,7.7c-0.1,0.3-0.4,1-0.8,2
						c-0.4,1-0.6,1.6-0.7,1.8c0,3.4,0.9,7.8,2.6,13.3c0.6,1.8,1.4,4.3,2.5,7.5c1.1,3.2,1.7,5.2,2,6.1v0.2c0,1.5-0.2,2.4-0.5,2.7
						c-0.4,0.3-0.7,0.4-1.1,0.4c-0.9,0-1.7-0.6-2.5-1.8V752c-0.2-4.2-1.7-10.5-4.3-18.9c-1.2-3.8-2-6.7-2.5-8.6v27.1
						c0,0.7-0.1,1.2-0.4,1.6c-0.2,0.4-0.7,0.6-1.3,0.6c-0.6,0-1.1-0.2-1.5-0.6c-0.3-0.4-0.5-0.8-0.5-1.4V751.4z M693.3,704.3
						l-0.4,14c0,1.4,0,2.5,0.1,3.2c0.8-0.7,1.6-1.6,2.3-2.7l1.1-5.9c0.1-0.3,0.1-0.7,0.1-1.1c0-1.1-0.2-2.4-0.7-4
						C695.2,705.7,694.3,704.5,693.3,704.3z"/>
					<path fill="#D70929" d="M712.3,713.5l-0.1,8.9l0.6,15.8l0.6,12.3c0,2.2-0.7,3.4-2,3.4c-0.8,0-1.3-0.4-1.7-1.1
						c-0.4-0.7-0.5-1.5-0.5-2.4l0.5-11c0-2.4-0.2-5.9-0.5-10.7c-0.3-4.8-0.5-8.3-0.5-10.7l0.1-6c0-3.3-0.2-5.4-0.6-6.4l-3.7,0.4
						c-0.6,0-1.1-0.2-1.6-0.5c-0.5-0.3-0.7-0.8-0.7-1.3c0-0.5,0.5-1,1.6-1.4c1.1-0.4,2.5-0.7,4-0.9c2.8-0.3,5.1-0.5,6.9-0.5
						c0.6,0,1.1,0.2,1.5,0.6c0.5,0.4,0.7,0.8,0.7,1.4c0,0.6-0.2,1-0.6,1.3s-0.9,0.5-1.5,0.5l-2.4-0.1c-0.3,0-0.5,0-0.7,0
						C712.2,707.7,712.3,710.5,712.3,713.5z"/>
					<path fill="#D70929" d="M725.1,752.5c0,1.6-1.1,2.4-3.4,2.4c-0.5,0-1-0.2-1.5-0.7c-0.5-0.5-0.8-1.1-0.8-1.9s0.3-1.5,0.8-2.1
						s1.3-1,2.1-1s1.5,0.3,2,1C724.9,750.8,725.1,751.6,725.1,752.5z M724.2,735.2l0.1,3.3c0,3.1-0.4,4.7-1.3,4.7
						c-0.5,0-0.9-0.6-1.3-1.7c-0.4-1.1-0.6-2.5-0.6-4.2l0.3-11.4l-0.3-22.5c0-0.7,0.3-1.3,0.9-1.9c0.6-0.5,1.2-0.8,1.8-0.8
						c0.6,0,1.1,0.2,1.4,0.5s0.5,0.7,0.5,1.2c0,3.7-0.2,9.1-0.7,16.4C724.4,726.1,724.2,731.5,724.2,735.2z"/>
					<path fill="#D70929" d="M734.7,752.5c0,1.6-1.1,2.4-3.4,2.4c-0.5,0-1-0.2-1.5-0.7c-0.5-0.5-0.8-1.1-0.8-1.9s0.3-1.5,0.8-2.1
						s1.3-1,2.1-1s1.5,0.3,2,1C734.4,750.8,734.7,751.6,734.7,752.5z M733.8,735.2l0.1,3.3c0,3.1-0.4,4.7-1.3,4.7
						c-0.5,0-0.9-0.6-1.3-1.7c-0.4-1.1-0.6-2.5-0.6-4.2l0.3-11.4l-0.3-22.5c0-0.7,0.3-1.3,0.9-1.9c0.6-0.5,1.2-0.8,1.8-0.8
						c0.6,0,1.1,0.2,1.4,0.5s0.5,0.7,0.5,1.2c0,3.7-0.2,9.1-0.7,16.4C734,726.1,733.8,731.5,733.8,735.2z"/>
				</g>
			</g>
			<path fill="#D0E2FA" d="M589.3,388.7c0,4.6-3.7,8.3-8.3,8.3c-4.6,0-8.3-3.7-8.3-8.3c0-4.6,3.7-8.3,8.3-8.3
				C585.6,380.4,589.3,384.1,589.3,388.7z"/>
			<path fill="#D0E2FA" d="M589.3,561.6c0,4.6-3.7,8.3-8.3,8.3c-4.6,0-8.3-3.7-8.3-8.3c0-4.6,3.7-8.3,8.3-8.3
				C585.6,553.3,589.3,557,589.3,561.6z"/>
			<path fill="#D0E2FA" d="M149.8,561.6c0,4.6-3.7,8.3-8.3,8.3s-8.3-3.7-8.3-8.3c0-4.6,3.7-8.3,8.3-8.3S149.8,557,149.8,561.6z"/>
			<path fill="#D0E2FA" d="M149.8,726.9c0,4.6-3.7,8.3-8.3,8.3s-8.3-3.7-8.3-8.3c0-4.6,3.7-8.3,8.3-8.3S149.8,722.4,149.8,726.9z"/>
			<path fill="#D0E2FA" d="M306.2,388.7c0,4.6-3.7,8.3-8.3,8.3c-4.6,0-8.3-3.7-8.3-8.3c0-4.6,3.7-8.3,8.3-8.3
				C302.5,380.4,306.2,384.1,306.2,388.7z"/>
			<path fill="#D0E2FA" d="M312.7,80.9L297,52.3l-15.7,28.6H312.7z"/>
			<g>
				<path fill="#D70929" d="M213.7,157.7l-3.8,0.4c-2.2,0-3.3-0.9-3.3-2.7c0-1.6,2.1-2.6,6.2-3.1c0.8-0.1,1.7-0.1,2.7-0.1
					c1,0,1.8,0.5,2.5,1.5c0.7,1,1,2.4,1,4c0,1.7,0.3,4.4,1,8.2c0.6,3.8,1,6.4,1,7.7c0,2.4-0.8,3.5-2.4,3.5c-1.6,0-2.7-0.7-3.2-2
					v-0.1c-0.4,0.2-1.1,0.5-2.1,1.1c-2,1.1-3.9,1.6-5.8,1.6c-1.4,0-2.8-0.3-4.2-0.9c-3-1.2-5.2-3.1-6.8-5.9
					c-1.7-2.9-2.8-5.7-3.4-8.4c-0.5-2.7-0.9-4.8-1.1-6.3c-0.2-1.6-0.4-3.4-0.5-5.4c-0.2-2.5-0.2-5.6-0.2-9.2l0-7.1
					c0-6.2,0.2-10.7,0.6-13.4c0.4-2.7,0.8-4.9,1.3-6.7c0.4-1.7,0.9-3.3,1.5-4.6c0.6-1.3,1.3-2.6,2.1-3.9c0.8-1.3,1.8-2.3,2.8-3.2
					c2.3-1.8,4.9-2.7,7.9-2.7c3,0,4.4,0.9,4.4,2.8c0,0.7-0.3,1.2-0.8,1.7c-0.5,0.4-1.1,0.6-1.8,0.6l-2.8-0.5c-2.4,0-4.3,1.5-5.7,4.4
					c-1.5,3.2-2.4,6.2-2.8,9.1c-0.4,2.9-0.7,5.2-0.9,6.9c-0.3,1.7-0.4,3.7-0.5,5.9c-0.1,3.1-0.2,6.1-0.1,9.2l0,6
					c0,6.2,0.3,10.6,0.8,13.2c0.6,2.6,1.1,4.7,1.7,6.2c0.6,1.6,1.3,2.9,2.1,3.9c2.7,2,5,3.2,7,3.4c2.9,0,5.2-1.4,7.1-4.1
					C215.2,163.1,214.7,159.4,213.7,157.7z"/>
				<path fill="#D70929" d="M250.8,146.1l-0.9,12.2v0.4c-0.4,1.8-0.6,3.7-0.6,5.8s-0.4,4.1-1.1,6c-0.7,1.9-1.8,3.7-3.3,5.1
					c-1.5,1.5-3.1,2.2-4.9,2.2c-1.8,0-3.4-0.6-4.8-1.8c-1.4-1.2-2.6-2.7-3.6-4.6c-0.9-1.9-1.8-4.1-2.5-6.7c-0.7-2.6-1.3-5.1-1.7-7.6
					c-0.4-2.5-0.7-5.1-1-7.8c-0.4-4.2-0.6-7.4-0.5-9.8c0-2.3,0-4.3,0-5.9c0-1.7-0.1-3.1-0.1-4.5c0-0.7,0-1.4,0-2.2s0-1.7,0-2.6
					c0-1.9,0.1-3.5,0.2-5c0.1-1.5,0.2-3.1,0.4-4.8c0.2-1.7,0.5-3.2,0.8-4.5c0.3-1.3,0.7-2.6,1.3-3.8c0.6-1.3,1.2-2.3,1.9-3.2
					c1.6-1.8,3.4-2.7,5.4-2.7c2,0,3.8,0.4,5.2,1.1c1.4,0.7,2.7,1.9,3.7,3.6c1,1.6,1.9,3.2,2.6,4.8c0.7,1.5,1.3,3.7,1.7,6.4
					c0.4,2.8,0.8,5,1,6.7c0.3,1.7,0.4,4.2,0.5,7.4c0.1,4.3,0.2,7.7,0.2,10.1V146.1z M242.2,110.7c-0.6-1.7-1.4-2.9-2.4-3.8
					c-1-0.9-1.9-1.3-2.9-1.3s-1.7,0.3-2.3,1s-1.1,1.6-1.6,2.8c-0.4,1.2-0.8,2.5-1.1,3.9c-0.3,1.4-0.6,3-0.8,4.8
					c-0.2,1.8-0.3,3.5-0.4,4.9c-0.1,1.4-0.2,3.1-0.2,4.8c-0.1,2.9-0.1,5.2-0.1,6.8v0.4c0,4.3,0.3,9,1,14c0.7,5,1.3,9.1,2.1,12.3
					c0.7,3.2,1.7,5.9,2.9,8.1c1.2,2.2,2.5,3.3,4,3.3c1.3,0,2.4-1.2,3.3-3.6c0.9-2.5,1.5-5.5,1.9-9.1c0.6-6.4,1-10.9,1-13.5
					c0-2.6,0-4.5,0-5.7c0-1.2-0.1-2.9-0.1-5.2c-0.1-2.3-0.2-4.4-0.4-6.4c-0.2-2-0.4-4.2-0.7-6.6c-0.3-2.4-0.7-4.6-1.2-6.5
					C243.4,114.1,242.8,112.3,242.2,110.7z"/>
				<path fill="#D70929" d="M263.9,174c0,2.3-1.6,3.4-4.8,3.4c-0.7,0-1.4-0.3-2.1-1c-0.7-0.7-1.1-1.6-1.1-2.7c0-1.1,0.4-2.1,1.2-3
					c0.8-0.9,1.8-1.3,2.9-1.3c1.2,0,2.1,0.5,2.8,1.4C263.5,171.6,263.9,172.7,263.9,174z M262.6,149.6l0.1,4.6
					c0,4.4-0.6,6.6-1.8,6.6c-0.7,0-1.3-0.8-1.8-2.4c-0.6-1.6-0.8-3.6-0.8-5.9l0.4-16l-0.5-31.7c0-1,0.4-1.9,1.3-2.6
					c0.8-0.7,1.7-1.1,2.5-1.1s1.5,0.2,2,0.7c0.5,0.5,0.7,1,0.7,1.7c0,5.2-0.3,12.9-1,23.1C262.9,136.8,262.6,144.5,262.6,149.6z"/>
				<path fill="#D70929" d="M277.4,174c0,2.3-1.6,3.4-4.8,3.4c-0.7,0-1.4-0.3-2.1-1c-0.7-0.7-1.1-1.6-1.1-2.7c0-1.1,0.4-2.1,1.2-3
					c0.8-0.9,1.8-1.3,2.9-1.3c1.2,0,2.1,0.5,2.8,1.4C277,171.6,277.4,172.7,277.4,174z M276.1,149.6l0.1,4.6c0,4.4-0.6,6.6-1.8,6.6
					c-0.7,0-1.3-0.8-1.8-2.4c-0.6-1.6-0.8-3.6-0.8-5.9l0.4-16l-0.5-31.7c0-1,0.4-1.9,1.3-2.6c0.8-0.7,1.7-1.1,2.5-1.1s1.5,0.2,2,0.7
					c0.5,0.5,0.7,1,0.7,1.7c0,5.2-0.3,12.9-1,23.1C276.4,136.8,276.1,144.5,276.1,149.6z"/>
			</g>
		</g>
		<g>
			<g>
				<path fill="#80BECB" d="M244.1,389.2l-1.1-16.6l-7.9,0.5c-1.6-6.3-4.5-12.1-8.4-17l5.2-5.9l-12.5-11l-5.2,5.9
					c-4-2.4-8.3-4.1-12.9-5.2c-1.6-0.4-3.3-0.7-5-0.9l-0.5-7.9l-16.6,1.1l0.5,7.9c-6.3,1.6-12.1,4.5-17,8.4l-5.9-5.2l-11,12.5
					l5.9,5.2c-3.2,5.4-5.3,11.5-6.1,17.9l-7.9,0.5l1.1,16.6l7.9-0.5c1.6,6.3,4.5,12.1,8.4,17l-5.2,5.9l12.5,11l5.2-5.9
					c4,2.4,8.3,4.1,12.9,5.2c1.6,0.4,3.3,0.7,5,0.9l0.5,7.9l16.6-1.1l-0.5-7.9c6.3-1.6,12.1-4.5,17-8.4l5.9,5.2l11-12.5l-5.9-5.2
					c3.2-5.4,5.3-11.5,6.1-17.9L244.1,389.2z M193.2,417.9c-3.4,0.2-6.7-0.1-9.9-0.8c-14.1-3.3-24.9-15.4-25.9-30.6
					c-1.2-18.6,12.8-34.6,31.4-35.8c3.4-0.2,6.7,0.1,9.9,0.8c14.1,3.3,24.9,15.4,25.9,30.6C225.8,400.7,211.8,416.7,193.2,417.9z"/>
				<path fill="#0F859E" d="M268.3,468c0.3-3.3,0.1-6.5-0.7-9.7l4.3-2.2l-5.4-10.6l-4.3,2.2c-2.1-2.5-4.6-4.7-7.4-6.3l1.5-4.6
					L248,434l-3-1l-1.5,4.6c-3.2-0.3-6.5-0.1-9.7,0.7l-2.2-4.3l-10.6,5.4l2.2,4.3c-2.5,2.1-4.7,4.6-6.3,7.4l-4.6-1.5l-3.7,11.3
					l4.6,1.5c-0.3,3.3-0.1,6.5,0.7,9.7l-4.3,2.2l5.4,10.6l4.3-2.2c2.1,2.5,4.5,4.7,7.4,6.3l-1.5,4.6l8.3,2.7l3,1l1.5-4.6
					c3.2,0.3,6.5,0.1,9.7-0.7l2.2,4.3l10.6-5.4l-2.2-4.3c2.5-2.1,4.7-4.6,6.3-7.4l4.6,1.5l3.7-11.3L268.3,468z M249.1,481.7
					c-2.3,1.1-4.7,1.8-7.2,2c-1.9,0.1-3.7,0-5.5-0.4c-5.3-1.2-9.8-4.7-12.3-9.7c-4.6-9.1-1-20.3,8.2-25c2.3-1.1,4.7-1.8,7.2-2
					c1.9-0.1,3.7,0,5.5,0.4c5.3,1.2,9.8,4.7,12.3,9.7C261.9,465.9,258.2,477.1,249.1,481.7z"/>
			</g>
			<g id="nube_1_">
				<g>
					<path fill-rule="evenodd" clip-rule="evenodd" fill="#BCDFE2" d="M135.3,489.6c-13.9,0-27.7,0-41.6,0
						c-10.4,0-20.7-0.1-31.1-0.1c-5.9,0-11.5-4.3-13.3-10.2c-0.7-2.5-0.9-5.2-0.8-7.8c0.2-6.1,1.7-11.8,4.9-17
						c2.6-4.2,6.2-7.4,10.2-9.9c4.6-2.9,9.5-4.5,14.7-5.5c3.7-0.7,7.5-1.2,11.2-1.7c0.6-0.1,0.7-0.3,0.8-0.8
						c2.2-11.9,7.7-21.9,16.3-29.8c5.3-4.9,11.4-8.3,18.3-9.9c4.4-1,8.9-1.2,13.4-1c5.3,0.3,10.5,1.3,15.4,3.6
						c7,3.2,12.6,8.2,17,14.7c0.9,1.3,1.8,2.7,2.6,4c0.2,0.4,0.5,0.5,0.9,0.4c3.6-0.5,7.2-0.8,10.9-0.5c4.4,0.3,8.5,1.5,12,4.5
						c4.1,3.5,6,8.1,6.3,13.5c0.2,3.8-0.2,7.5-0.7,11.2c-0.1,0.5,0.1,0.8,0.5,1c1.7,1.1,3.6,1.7,5.5,2.1c3.8,0.8,7.3,2.4,10.3,5.1
						c3.9,3.6,6.1,8.2,6.9,13.6c0.5,3,0.3,6-0.3,8.9c-0.9,4.5-3.5,7.4-7.3,9.3c-3.7,1.8-7.6,2.3-11.6,2.4c-15,0-30,0-45,0
						C152.9,489.5,144.1,489.5,135.3,489.6C135.3,489.6,135.3,489.6,135.3,489.6z"/>
				</g>
			</g>
			<path fill="#D0E2FA" d="M250,511l-0.9-3.1c2.7-0.8,5.3-1.8,7.8-3l1.5,2.9C255.7,509.1,252.9,510.2,250,511z M265.9,503.1l-2-2.6
				c2.2-1.7,4.3-3.6,6.1-5.6l2.4,2.2C270.5,499.2,268.3,501.3,265.9,503.1z M277.9,489.9l-2.8-1.7c1.5-2.4,2.7-4.9,3.7-7.4l3,1.2
				C280.8,484.7,279.5,487.4,277.9,489.9z M284.3,473.4l-3.2-0.6c0.5-2.7,0.8-5.5,0.8-8.3v-0.2h3.2v0.2
				C285.1,467.5,284.8,470.4,284.3,473.4z M281.1,456c-0.5-2.7-1.3-5.4-2.3-8l3-1.2c1.1,2.8,1.9,5.7,2.5,8.6L281.1,456z M275,440.6
				c-1.5-2.4-3.2-4.6-5-6.6l2.4-2.2c2,2.2,3.8,4.6,5.4,7.1L275,440.6z M263.8,428.4c-2.2-1.7-4.6-3.1-7.1-4.4l1.4-2.9
				c2.7,1.3,5.2,2.9,7.6,4.7L263.8,428.4z M254.4,417.6c0,4.6-3.7,8.3-8.3,8.3c-4.6,0-8.3-3.7-8.3-8.3c0-4.6,3.7-8.3,8.3-8.3
				C250.7,409.3,254.4,413,254.4,417.6z M246.1,514.1c0,4.6-3.7,8.3-8.3,8.3c-4.6,0-8.3-3.7-8.3-8.3c0-4.6,3.7-8.3,8.3-8.3
				C242.4,505.7,246.1,509.5,246.1,514.1z"/>
			<path fill="#D0E2FA" d="M246.2,603.7c-1.3,0.8-2.6,1.5-3.9,2.1l-1.4-2.9c2.5-1.2,4.9-2.7,7.1-4.3l1.9,2.6
				C248.8,602.1,247.5,603,246.2,603.7z M234,609c-2.9,0.8-5.8,1.3-8.8,1.6l-0.3-3.2c2.8-0.2,5.5-0.7,8.2-1.5L234,609z M256.6,595.3
				l-2.4-2.2c1.9-2,3.6-4.3,5.1-6.6l2.7,1.7C260.4,590.7,258.6,593.1,256.6,595.3z M216.3,610.5c-3-0.3-5.9-0.9-8.8-1.7l0.9-3.1
				c2.7,0.8,5.4,1.3,8.2,1.6L216.3,610.5z M199.3,605.6c-2.7-1.3-5.2-2.9-7.6-4.7l2-2.6c2.2,1.7,4.6,3.2,7,4.4L199.3,605.6z
				 M185.1,594.8c-2-2.2-3.8-4.6-5.3-7.2l2.8-1.7c1.5,2.4,3.1,4.6,5,6.7L185.1,594.8z M178.9,578.5l-3,1.2c-1.1-2.8-1.9-5.7-2.4-8.6
				l3.2-0.6C177.2,573.2,177.9,575.9,178.9,578.5z M176,562.2l-3.2,0c0-3,0.3-6,0.9-8.9l3.2,0.6C176.3,556.6,176,559.4,176,562.2z
				 M179.1,545.9l-3-1.2c1.1-2.8,2.4-5.4,4-8l2.8,1.7C181.4,540.8,180.1,543.3,179.1,545.9z M225.5,517.5c-2.8-0.3-5.6-0.3-8.3,0
				l-0.3-3.2c3-0.3,6-0.2,8.9,0.1L225.5,517.5z M187.9,531.8l-2.4-2.2c2-2.2,4.2-4.2,6.6-6l1.9,2.6
				C191.9,527.9,189.8,529.8,187.9,531.8z M209,519c-2.7,0.7-5.3,1.7-7.8,3l-1.4-2.9c2.7-1.3,5.5-2.4,8.3-3.2L209,519z M272.5,588
				l-0.3-24.4l-20.4,13.3L272.5,588z"/>
		</g>
		<g>
			<g>
				<path fill="#FAB600" d="M383.5,281.1l-35.6-0.2c0,0.1-0.1,0.1-0.1,0.2c-36.1,41.6,12.4,85.1,12.4,85.1l6.6-6l-0.1,15.6
					c0,0,50.7-48.7,16.8-94.5C383.5,281.3,383.5,281.2,383.5,281.1z"/>
				<path fill="#FFD047" d="M377.2,281.2l-23.5-0.2c0,0,0,0.1-0.1,0.1c-23.9,31.8,8.2,65,8.2,65l4.3-4.6l-0.1,11.9
					c0,0,33.6-37.2,11.2-72.2C377.2,281.3,377.2,281.3,377.2,281.2z"/>
				<g>
					<g>
						<path fill="#E65E09" d="M408.6,218.8C387.4,231.3,387,258,387,258c39.6,2.4,54,54.6,54,54.6s0.4-1.7,1-4.5
							C444.4,271.1,441.7,241.7,408.6,218.8z"/>
						<path fill="#E9742C" d="M446.4,251.1c-7.4-18-29.8-34.4-29.8-34.4c-2.8,1-5.3,2.1-7.5,3.4c0.2,0,0.5,0,0.7,0
							c-0.2,0-0.5,0-0.7,0c-0.2,0.1-0.3,0.2-0.5,0.3c33.1,22.9,35.8,50.7,33.4,87.7C444.9,294.8,452.5,265.9,446.4,251.1z"/>
					</g>
					<g>
						<path fill="#E65E09" d="M324.1,218.3c21,12.7,21,39.5,21,39.5c-39.6,1.9-54.7,53.9-54.7,53.9s-0.4-1.7-1-4.5
							C287.5,270,290.7,240.7,324.1,218.3z"/>
						<path fill="#E9742C" d="M285.8,250.1c7.6-17.9,31.7-35.5,31.7-35.5c2.7,1,3.9,3.7,6.1,5c-0.2,0-0.5,0-0.7,0c0.2,0,0.5,0,0.7,0
							c0.2,0.1,0.3,0.2,0.5,0.3c-33.4,22.5-36.5,50.2-34.6,87.2C286.7,293.7,279.5,264.8,285.8,250.1z"/>
					</g>
					<path fill="#E65E09" d="M360.7,61.2c-8.5,10-22.1,27.7-32.6,48c9.3,9.8,25.8,12.4,40.6,12.8c-1.4-14.7-3.2-29.4-4.8-44.3
						C363,72.6,362.2,66.3,360.7,61.2z"/>
					<path fill="#FFE494" d="M368.6,122c-14.7-0.4-31.2-3.3-40.5-12.8c-5.6,10.9-10,22.9-13.3,35.4c-3.6,13.6-4.5,27.9-3.7,42.3
						c3.1,51,30.4,73.1,36.9,75.8c9.6-19.5,18.3-38.9,21.1-60.8C372.6,175.3,371.1,148.2,368.6,122z"/>
					<path fill="#FFD968" d="M420,149.3c-2.8-13.3-7.2-26.3-12.5-38.4c-11,7.1-24.5,11.2-38.9,11.1c-0.4,0-0.9,0-1.3,0
						c2.5,26.2,3.9,52.3,0.3,78.8c-2.8,21.9-10,42.4-19.6,61.8c1,0.4,1.6,0.6,1.6,0.6l35.7,0.2c0,0,32.7-14.4,37.6-76.4
						C423.8,174.4,422.6,161.7,420,149.3z"/>
					<g>
						<polygon fill="#E65E09" points="385.1,281.2 346.4,280.9 336.1,253 398.4,253 						"/>
						<polygon opacity="0.3" fill="#FFFFFF" points="359.2,281.1 353.5,281 350.6,252.9 356.4,253 						"/>
					</g>
				</g>
			</g>
			<path fill="#E9742C" d="M372.4,55.7l-2.3-30.4L366.1,55c-1.6,1.7-3.7,4.1-6.3,7.2c1.6,5.1,1.9,10.4,2.7,15.5
				c1.6,14.9,3.4,29.6,4.8,44.3c0.4,0,0.9,0,1.3,0c14.4,0.1,27.8-4,38.9-11.1C397.5,88.4,384.3,68.9,372.4,55.7z"/>
		</g>
		<g>
			<g>
				<path fill-rule="evenodd" clip-rule="evenodd" fill="#FFFFFF" d="M209.2,537.5c11.3-4,23.7,1.9,27.7,13.3
					c2.6,7.4,1,15.2-3.6,20.9l3.8,17.6l-17.2,6.1l-8.1-16.1c-7.1-1.5-13.3-6.6-15.9-14C191.9,553.9,197.8,541.5,209.2,537.5z"/>
				<g>
					<linearGradient id="SVGID_1_" gradientUnits="userSpaceOnUse" x1="208.3411" y1="572.9092" x2="229.6981" y2="572.9092">
						<stop  offset="0" style="stop-color:#BC6119"/>
						<stop  offset="0.1582" style="stop-color:#BE6520"/>
						<stop  offset="0.5549" style="stop-color:#C16D2A"/>
						<stop  offset="1" style="stop-color:#C26F2E"/>
					</linearGradient>
					<path fill="url(#SVGID_1_)" d="M222.1,584.8c0.3,0.4,0.1,0.9-0.3,1.2c-0.4,0.3-0.9,0.1-1.2-0.3l-8.5-13l-2.4-6.7l0.1,0.1
						c0-0.1-0.1-0.1-0.2-0.2l0,0c0.4,0.2,0.8,0.4,1.3,0.5c2.6,0.9,5.5,0.8,8.1-0.1c2.6-0.9,4.9-2.6,6.1-5c0.2-0.4,0.4-0.8,0.5-1.2
						c0.2-0.4,0.7-0.7,1.1-0.5c0.3,0.1,0.6,0.4,0.6,0.8l2.2,22c0,0.5-0.3,0.9-0.8,0.9c-0.5,0-0.9-0.3-0.9-0.8l-1.9-19.2
						c-1.5,2.2-3.8,3.7-6.3,4.6c-2.7,0.9-5.6,1.1-8.3,0.4L222.1,584.8z M212.1,572.8l-3.7-5.6c-0.3-0.4-0.1-0.9,0.3-1.2
						c0.3-0.2,0.6-0.2,0.9,0l0.1,0.1l0,0c0,0-0.1-0.1-0.1-0.1l0.1,0.1L212.1,572.8z"/>
				</g>
				<linearGradient id="SVGID_2_" gradientUnits="userSpaceOnUse" x1="213.2275" y1="588.2772" x2="239.4563" y2="588.2772">
					<stop  offset="0" style="stop-color:#BC6119"/>
					<stop  offset="0.1582" style="stop-color:#BE6520"/>
					<stop  offset="0.5549" style="stop-color:#C16D2A"/>
					<stop  offset="1" style="stop-color:#C26F2E"/>
				</linearGradient>
				<path fill-rule="evenodd" clip-rule="evenodd" fill="url(#SVGID_2_)" d="M213.2,586.1l23.3-8.2l2.7,11.2c0.5,2,0.7,3-1.9,3.9
					l-15.1,5.3c-2.6,0.9-3,0-3.9-1.9L213.2,586.1z"/>
			</g>
			<g>
				<path fill="#FBCFA9" d="M223,636.1h3.9v-3H223V615h-31.3v10.9h-2.6v7.2h2.6v17.2c10.6-0.6,20.8-0.9,31.3-2V636.1z"/>
				<path fill="#E65E09" d="M191.7,650.2v47H223v-48.9C212.5,649.4,202.3,649.7,191.7,650.2z"/>
				<rect x="191.7" y="697.2" fill="#D70929" width="31.3" height="14.3"/>
				<g>
					<path fill="#E65E09" d="M210.2,665.9l4.6,5.4l33.5-28.5c-1.6-1.9-3-3.8-4.1-5.9L210.2,665.9z"/>
					<path fill="#FBCFA9" d="M252.6,629.9l-8.4,7.1c1.1,2,2.5,4,4.1,5.9l8.9-7.5L252.6,629.9z"/>
				</g>
				<g>
					<path fill="#FBCFA9" d="M164.6,627.6l-5.1,5l6.9,7.1c0,0,3.4-3.4,4.6-5.6L164.6,627.6z"/>
					<path fill="#E65E09" d="M202.9,667.6l-32-33.4c-1.2,2.2-4.6,5.6-4.6,5.6l31.5,32.8L202.9,667.6z"/>
				</g>
				<g>
					<polygon fill="#D70929" points="191.7,696.5 176.3,731.9 179.6,738.5 207.3,711.7 					"/>
					<polygon fill="#D70929" points="223,696.5 238.5,731.9 235.1,738.5 207.4,711.7 					"/>
					<polygon fill="#383838" points="176.3,731.9 164.8,725.8 176.3,745.1 179.6,738.5 					"/>
					<polygon fill="#383838" points="238.3,731.9 249.8,725.8 238.3,745.1 234.9,738.5 					"/>
				</g>
				<g>
					<path fill="#A10E2F" d="M190.7,649.6c0,0,28.5-2,33.2-2.2v7.6c0,0-20.4,4-32.6,1.6L190.7,649.6z"/>
					<path fill="#A10E2F" d="M235.1,676.1c-0.2-0.3-0.5-0.3-0.8-0.5c-0.4-0.2-0.8-0.4-1.2-0.6c-0.5-0.2-0.9-0.3-1.4-0.4
						c-0.9-0.5-13-7.4-8.5-21.7h-5.3c0,0-7.5,22.4,8.4,29.6l0.2-0.2c0.3,0.2,0.6,0.3,0.8,0.4c0.5,0.3,0.9,0.6,1.3,0.9
						c0.8,0.6,2.7-0.4,1.7-1.2c-0.7-0.5-1.4-1-2.3-1.3c-0.2-0.1-0.4-0.1-0.6-0.2l1.1-1.7c0.2,0.1,0.4,0.2,0.5,0.3
						c0.5,0.4,1,0.7,1.5,1.1c0.7,0.5,2.5-0.6,1.5-1.3c-0.7-0.5-1.7-1.3-2.6-1.5l1.4-2.1c0.4,0.2,0.7,0.4,1.1,0.5
						c0.7,0.4,1.4,0.8,2.3,0.7C234.7,677.1,235.5,676.7,235.1,676.1z"/>
				</g>
				<path fill="#A10E2F" d="M223,637l-22.9-2.8c0,0-2.1,8.4,6.7,11.8C215.7,649.4,222,642.5,223,637z"/>
				<rect x="209.6" y="624.2" fill="#8D3807" width="2.1" height="5.2"/>
				<rect x="218.3" y="625.9" fill="#8D3807" width="2.1" height="3.5"/>
				<path fill="#8D3807" d="M206.3,618c0,0,14.3,4,22.1-3.1c7.8-7.1-1.2-14.6-6.5-13.1c0,0,3.8,0.7,2.1,3.8
					c-1.7,3.1-14.7,1.3-19.2,0.3c-4.5-0.9-14.9,0-15.7,6.4c-0.8,6.4,2.6,13.4,2.6,13.4S196,615.1,206.3,618z"/>
			</g>
		</g>
		<g>
			<g>
				<g>
					<path fill="#0F859E" d="M417.7,545.3c-29.9-8.5-59.8,4.2-66.8,28.6c-6.9,24.3,11.7,50.9,41.6,59.5c2.9,0.8,5.7,1.4,8.6,1.9
						c8.3,15,21.6,21,35,25.2l0.8-2.8c-6.2-5.6-10.7-13.9-8.6-21.3c0.3-1,0.7-2,1.1-3c14.6-4.6,25.9-14.7,29.9-28.5
						C466.3,580.5,447.6,553.9,417.7,545.3z"/>
				</g>
				<path fill="#E9742C" d="M428,579.4c-4.4-3.3-11.6-4.3-13.3-4.5c-0.8-2.7-1.9-5.8-3.6-9.1c-1.8-3.6-4.3-6.9-7-9.8
					c-3-3.2-6.3-6-9.7-8.4c-6.4-4.5-13.1-7.7-18.5-9.4l-5.7-7.9l3.9,8.7c-0.1,0.7-0.3,1.7-0.5,3c0,0,0,0,0,0
					c-0.5,4.1-1.1,10.9-0.5,17.9c0.3,3.9,1.2,7.8,2.4,11.8c1.3,4.3,3.5,8.3,6.1,12.1c2,2.9,4.1,5.2,6.1,7.1c-0.7,2-3,9-2.2,14.2
					c0.8,5,7.5,11.7,10.5,14.9c-1-1.5-2-3-2.9-4.5c0.9,1.5,1.9,3,2.9,4.5c0.6,0.7,1,1.1,1,1.1s-4.1-14.6,3.8-22.1l5.9,4.7l0.4-0.2
					c0,0,0,0,0,0.1c-2.6,17.1,17.5,21.2,17.5,21.2l0.7-2.7l2.6,4.3c0,0,5.3-21.4-11.3-28.5c0,0,0,0,0,0l0.4-0.3l-0.9-7.6
					c10.2-3,20.9,7.2,20.9,7.2s-0.2-0.5-0.5-1.4c-0.9-1.6-1.7-3.2-2.6-4.7c0.9,1.5,1.7,3,2.6,4.7C434.8,591.5,432,582.4,428,579.4z
					 M385.6,557C385.6,557,385.6,557,385.6,557c-0.6,0.3-1.2,0.7-1.9,1C384.3,557.6,385,557.3,385.6,557z"/>
			</g>
			<g>
				<path fill="#FBCFA9" d="M472.4,622.6h-3.9v-3h3.9v-18.1h31.3v10.9h2.6v7.2h-2.6v15.2c-10.6-0.6-20.8,1.1-31.3,0V622.6z"/>
				<path fill="#C6E5E2" d="M503.7,634.8v48.9h-31.3v-48.9C482.9,635.9,493.1,634.2,503.7,634.8z"/>
				<g>
					<path fill="#C6E5E2" d="M485.2,652.5l-4.6,5.4L447,629.4c1.6-1.9,3-3.8,4.1-5.9L485.2,652.5z"/>
					<path fill="#FBCFA9" d="M442.8,616.4l8.4,7.1c-1.1,2-2.5,4-4.1,5.9l-8.9-7.5L442.8,616.4z"/>
				</g>
				<g>
					<path fill="#FBCFA9" d="M527.7,684.3l-6.4,3.1l-4.4-8.9c0,0,4.3-2,6.8-2.4L527.7,684.3z"/>
					<path fill="#C6E5E2" d="M503.1,634.7l20.6,41.4c-2.4,0.4-6.8,2.4-6.8,2.4l-20.2-40.7L503.1,634.7z"/>
				</g>
				<rect x="483.8" y="610.7" fill="#009E8F" width="2.1" height="5.2"/>
				<rect x="475" y="612.4" fill="#009E8F" width="2.1" height="3.5"/>
				<path fill="#393B41" d="M489.1,604.6c0,0-14.3,4-22.1-3.1c-7.8-7.1,1.2-14.6,6.5-13.1c0,0-3.8,0.7-2.1,3.8
					c1.7,3.1,14.7,1.3,19.2,0.3c4.5-0.9,14.9,0,15.7,6.4c0.8,6.4-2.6,13.4-2.6,13.4S499.4,601.6,489.1,604.6z"/>
				<path fill="#FFFFFF" d="M475,626.3c0,0,10.2-0.4,17.5-9.9C492.5,616.4,488.2,639.2,475,626.3z"/>
				<g>
					<polygon fill="#383838" points="471.6,732.6 458.3,739.3 480.7,739.3 476.8,733 					"/>
					<polygon fill="#383838" points="506.4,732.6 519.7,739.3 497.3,739.3 501.2,733 					"/>
					<polygon fill="#383838" points="472.4,683.7 471.4,733.8 477.1,733.8 488.1,696.7 501,733.8 506.2,733.8 503.7,683.7 					"/>
				</g>
				<polygon fill="#FFFFFF" points="482.2,635.2 476.1,644.2 472.4,634.8 503.7,634.7 490,644.2 				"/>
				<polygon fill="#383838" points="480.7,637.4 477.1,671.3 480.7,678.5 485.8,669.4 484.1,637.4 482.2,635.2 				"/>
			</g>
		</g>
		<g>
			<g>
				<path fill="#EAAB28" d="M427.8,438.7l-0.7-11.2l-5.3,0.3c-1.1-4.2-3-8.1-5.6-11.4l3.5-4l-8.4-7.4l-3.5,4
					c-2.7-1.6-5.6-2.8-8.7-3.5c-1.1-0.3-2.2-0.5-3.4-0.6l-0.3-5.3l-11.2,0.7l0.3,5.3c-4.2,1.1-8.1,3-11.4,5.6l-4-3.5l-7.4,8.4l4,3.5
					c-2.2,3.6-3.6,7.7-4.1,12.1l-5.3,0.3l0.7,11.2l5.3-0.3c1.1,4.3,3,8.1,5.6,11.4l-3.5,4l8.4,7.4l3.5-4c2.7,1.6,5.6,2.8,8.7,3.5
					c1.1,0.3,2.2,0.5,3.4,0.6l0.3,5.3l11.2-0.7l-0.3-5.3c4.3-1.1,8.1-3,11.4-5.6l4,3.5l7.4-8.4l-4-3.5c2.2-3.6,3.6-7.7,4.1-12.1
					L427.8,438.7z M393.5,458.1c-2.3,0.2-4.5,0-6.7-0.5c-9.5-2.2-16.8-10.4-17.5-20.6c-0.8-12.5,8.7-23.3,21.2-24.1
					c2.3-0.2,4.5,0,6.6,0.5c9.5,2.2,16.8,10.4,17.5,20.6C415.5,446.4,406,457.2,393.5,458.1z"/>
				<linearGradient id="SVGID_3_" gradientUnits="userSpaceOnUse" x1="398.5327" y1="489.4328" x2="447.1719" y2="489.4328">
					<stop  offset="0" style="stop-color:#BC6119"/>
					<stop  offset="0.1582" style="stop-color:#BE6520"/>
					<stop  offset="0.5549" style="stop-color:#C16D2A"/>
					<stop  offset="1" style="stop-color:#C26F2E"/>
				</linearGradient>
				<path fill="url(#SVGID_3_)" d="M443.7,491.5c0.3-2.5,0.1-4.9-0.6-7.3l3.2-1.6l-4.1-8l-3.2,1.6c-1.6-1.9-3.4-3.5-5.6-4.8l1.1-3.5
					l-6.3-2.1l-2.3-0.7l-1.1,3.5c-2.5-0.2-5-0.1-7.3,0.6l-1.6-3.2l-8,4.1l1.6,3.2c-1.9,1.6-3.5,3.4-4.8,5.6l-3.5-1.1l-2.8,8.6
					l3.5,1.1c-0.3,2.5-0.1,4.9,0.6,7.3l-3.2,1.6l4.1,8l3.2-1.6c1.6,1.9,3.4,3.5,5.6,4.8l-1.1,3.5l6.3,2.1l2.3,0.7l1.1-3.5
					c2.5,0.2,4.9,0.1,7.3-0.6l1.6,3.2l8-4.1l-1.6-3.2c1.9-1.6,3.5-3.4,4.8-5.6l3.5,1.1l2.8-8.6L443.7,491.5z M429.2,502
					c-1.7,0.9-3.5,1.4-5.4,1.5c-1.4,0.1-2.8,0-4.1-0.3c-4-0.9-7.4-3.6-9.3-7.3c-3.5-6.9-0.7-15.4,6.2-18.9c1.7-0.9,3.5-1.4,5.4-1.5
					c1.4-0.1,2.8,0,4.1,0.3c4,0.9,7.4,3.6,9.3,7.3C438.9,490,436.1,498.5,429.2,502z"/>
			</g>
			<g>
				<g>
					<path fill="#0071B9" d="M332.8,504.1v-3.7v-43.5c-10.4,1.1-20.7,1.4-31.3,2v41.5v8.9l10.3,46.3l5.3,1.2l3.4-44.7l21.2,35l3-6.6
						L332.8,504.1z"/>
					<polygon fill="#383838" points="344.9,540.5 355.1,534.4 344.9,553.7 341.9,547.1 					"/>
					<polygon fill="#383838" points="318.5,554.5 328.2,563.2 306.2,559.1 311.2,553.7 					"/>
				</g>
				<polygon fill="#FFFFFF" points="326,475.5 309.2,475.5 309.2,457.8 326,456.7 				"/>
				<path fill="#FBCFA9" d="M332.8,444.7h3.9v-3h-3.9v-18.1h-31.3v10.9h-2.6v7.2h2.6v17.2c10.6-0.6,20.8-0.9,31.3-2V444.7z"/>
				<g>
					<path fill="#0071B9" d="M330.2,471.2l29-24.6c-1.6-1.9-3-3.8-4.1-5.9l-25.8,22C329.7,465.5,329.9,468.4,330.2,471.2z"/>
					<path fill="#FBCFA9" d="M363.4,433.6l-8.4,7.1c1.1,2,2.5,4,4.1,5.9l8.9-7.5L363.4,433.6z"/>
				</g>
				<rect x="319.5" y="432.8" fill="#009E8F" width="2.1" height="5.2"/>
				<rect x="328.2" y="434.5" fill="#009E8F" width="2.1" height="3.5"/>
				<rect x="302.4" y="473.2" fill="#E65E09" width="5.7" height="5.7"/>
				<rect x="326.4" y="472.2" fill="#E65E09" width="5.7" height="5.7"/>
				<g>
					<path fill="#0071B9" d="M302.4,467.6l52,10.6c0.5-2.4,1.2-4.7,2.1-6.9l-48.8-9.9C304.4,461.4,302.4,464.1,302.4,467.6z"/>
					<path fill="#FBCFA9" d="M367.3,473.6l-10.7-2.2c-0.9,2.1-1.6,4.5-2.1,6.9l11.4,2.4L367.3,473.6z"/>
				</g>
				<path fill="#8D3807" d="M301.6,434.5c0,0,7.2-1.8,9.7-7.6c2.5-5.8,21.5,0,21.5,0l3.9-9h-33.4
					C303.3,417.9,296.5,429.4,301.6,434.5z"/>
				<path fill="#A10E2F" d="M317.2,446.6c0,0,6,12.2,14.9,1.9C332.1,448.5,326,452.6,317.2,446.6z"/>
			</g>
			<g>
				<g>
					<path fill="#0071B9" d="M458.8,503v-3.7v-43.5c10.4,1.1,20.7,1.4,31.3,2v41.5v8.9l-10.3,46.3l-5.3,1.2L471,511l-21.2,35l-3-6.6
						L458.8,503z"/>
					<polygon fill="#383838" points="446.7,539.4 436.5,533.3 446.7,552.6 449.8,546 					"/>
					<polygon fill="#383838" points="473.1,553.4 463.4,562.1 485.5,558 480.5,552.6 					"/>
				</g>
				<polygon fill="#FFFFFF" points="465.6,474.4 482.5,474.4 482.5,456.7 465.6,455.6 				"/>
				<path fill="#FBCFA9" d="M458.8,443.6h-3.9v-3h3.9v-18.1H490v10.9h2.6v7.2H490v17.2c-10.6-0.6-20.8-0.9-31.3-2V443.6z"/>
				<g>
					<path fill="#0071B9" d="M461.4,470.1l-29-24.6c1.6-1.9,3-3.8,4.1-5.9l25.8,22C461.9,464.4,461.7,467.3,461.4,470.1z"/>
					<path fill="#FBCFA9" d="M428.2,432.5l8.4,7.1c-1.1,2-2.5,4-4.1,5.9l-8.9-7.5L428.2,432.5z"/>
				</g>
				<rect x="470.1" y="431.7" fill="#8D3807" width="2.1" height="5.2"/>
				<rect x="461.4" y="433.4" fill="#8D3807" width="2.1" height="3.5"/>
				<rect x="483.6" y="472.1" fill="#E65E09" width="5.7" height="5.7"/>
				<rect x="459.6" y="471.1" fill="#E65E09" width="5.7" height="5.7"/>
				<g>
					<path fill="#0071B9" d="M489.2,466.5l-52,10.6c-0.5-2.4-1.2-4.7-2.1-6.9l48.8-9.9C487.3,460.3,489.2,463,489.2,466.5z"/>
					<path fill="#FBCFA9" d="M424.4,472.5l10.7-2.2c0.9,2.1,1.6,4.5,2.1,6.9l-11.4,2.4L424.4,472.5z"/>
				</g>
				<path fill="#A10E2F" d="M474.4,445.5c0,0-6,12.2-14.9,1.9C459.6,447.4,465.6,451.5,474.4,445.5z"/>
				<path fill="#383838" d="M464.6,418.7c-0.7,0.1-1.4,1.2-0.3,1.2c2.6,0.1,5,0.1,7.5,1.1c2.3,0.9,3.7,2.7,5,4.7
					c0.3,0.5,1.4,0,1.3-0.6C476.8,419.9,469.3,417.8,464.6,418.7z"/>
				<path fill="#383838" d="M474.3,415.6c-0.4,0-1.6,0.7-0.8,1c2.2,1.1,4.3,1.6,6.2,3.3c1.8,1.6,3,3.8,3.5,6.1
					c0.1,0.5,1.3,0.2,1.3-0.3C484.1,420.8,479.6,415.7,474.3,415.6z"/>
				<path fill="#383838" d="M465,454.6c-0.1-0.6-1.2-0.1-1.3,0.3c-0.1,0.4-0.1,0.9,0,1.3c0.1,0.6,1.3,0.1,1.4-0.3
					C465.1,455.4,465,455,465,454.6z"/>
				<path fill="#383838" d="M469.8,455.9c-0.4-0.6-0.6-1.1-0.7-1.8c-0.1-0.5-1.2-0.1-1.2,0.3c-0.1,0.8,0.1,1.7,0.7,2.2
					C469,456.9,470.2,456.5,469.8,455.9z"/>
				<path fill="#383838" d="M474,454.8c-0.3-0.5-0.7-1-1.1-1.5c-0.3-0.4-1.2,0-1.1,0.5c0.2,0.6,0.5,1.3,1,1.7
					C473.1,455.6,474.3,455.3,474,454.8z"/>
				<path fill="#383838" d="M477.7,451.5c-0.5-0.3-1-0.2-1.5-0.4c-0.3-0.1-0.6-0.1-0.8,0.1c-0.2,0.1-0.3,0.4,0,0.6
					c0.5,0.3,1,0.4,1.5,0.6C477.3,452.4,478.3,451.8,477.7,451.5z"/>
				<path fill="#383838" d="M480.3,447.5c-0.5,0-0.9,0-1.4,0.1c-0.5,0-0.9,0.7-0.2,0.8c0.4,0,0.8,0.1,1.2,0c0.3,0,0.7-0.1,0.8-0.4
					C480.8,447.7,480.6,447.5,480.3,447.5z"/>
				<path fill="#383838" d="M481.7,443.4c-0.7-0.1-1.3,0-1.8,0.6c-0.1,0.1-0.1,0.4,0.1,0.5c0.3,0.1,0.6,0,0.8-0.1
					c-0.1,0.1,0.4,0,0.5,0c0.2,0,0.5-0.2,0.6-0.4C482,443.7,481.9,443.4,481.7,443.4z"/>
				<path fill="#383838" d="M461.1,454.5c-0.1-0.6-1.3-0.1-1.4,0.3c-0.1,0.3-0.1,0.8-0.4,1c-0.2,0.1-0.5,0.4-0.3,0.7
					c0.2,0.3,0.7,0.1,1,0C460.9,456.2,461.3,455.4,461.1,454.5z"/>
				<path fill="#383838" d="M459.7,451.4c-0.1-0.3-0.6-0.3-0.8-0.2c-0.7,0.2-1.3,0.7-2,0.9c-0.3,0.1-0.7,0.4-0.6,0.7
					c0.1,0.3,0.6,0.3,0.9,0.2c0.8-0.2,1.4-0.7,2.1-1.1C459.5,451.9,459.7,451.6,459.7,451.4z"/>
			</g>
		</g>
		<g>
			<g>
				<path fill="#FBCFA9" d="M478.1,270.4h-3.9v-3h3.9v-18.1h31.3v10.9h2.6v7.2h-2.6v15.2c-10.6-0.6-20.8,1.1-31.3,0V270.4z"/>
				<path fill="#FFFFFF" d="M509.3,282.6v48.9h-31.3v-48.9C488.5,283.7,498.8,282,509.3,282.6z"/>
				<g>
					<path fill="#EAEAEA" d="M490.9,300.3l-4.6,5.4l-33.5-28.5c1.6-1.9,3-3.8,4.1-5.9L490.9,300.3z"/>
					<path fill="#FBCFA9" d="M448.5,264.2l8.4,7.1c-1.1,2-2.5,4-4.1,5.9l-8.9-7.5L448.5,264.2z"/>
				</g>
				<g>
					<path fill="#FBCFA9" d="M533.4,332.1l-6.4,3.1l-4.4-8.9c0,0,4.3-2,6.8-2.4L533.4,332.1z"/>
					<path fill="#EAEAEA" d="M508.7,282.5l20.6,41.4c-2.4,0.4-6.8,2.4-6.8,2.4l-20.2-40.7L508.7,282.5z"/>
				</g>
				<rect x="489.4" y="258.6" fill="#009E8F" width="2.1" height="5.2"/>
				<rect x="480.7" y="260.2" fill="#009E8F" width="2.1" height="3.5"/>
				<path fill="#FFFFFF" d="M480.7,274.1c0,0,10.2-0.4,17.5-9.9C498.1,264.2,493.8,287,480.7,274.1z"/>
				<g>
					<polygon fill="#92959C" points="477.2,380.4 463.9,387.1 486.3,387.1 482.4,380.9 					"/>
					<polygon fill="#92959C" points="512.1,380.4 525.3,387.1 502.9,387.1 506.9,380.9 					"/>
				</g>
				<polygon fill="#FFFFFF" points="487.8,283 481.7,292.1 478.1,282.6 509.3,282.5 495.6,292.1 				"/>
			</g>
			<path fill="#A10E2F" d="M527.9,263.7c0-4.2-0.8-8.2-2.3-11.9c-1.8-0.2-3.5,0.4-5.1,1.4c-10.8,5.4-12.4,21.8-4.3,31.4
				c0.6,0.8,1.4,1.4,2.1,2C524.2,280.7,527.9,272.7,527.9,263.7z"/>
			<path fill="#EAEAEA" d="M516.2,284.6c-6.5-9.7-6.5-26,4.3-31.4c1.5-1,3.3-1.5,5.1-1.4c-1.8-4.5-4.6-8.4-8-11.6
				c-11.9,9.7-32.6,9.7-48.1,5.6c-3.5,5.1-5.5,11.3-5.5,17.9c0,17.7,14.3,32,32,32c8.7,0,16.6-3.5,22.4-9.1
				C517.5,286,516.8,285.4,516.2,284.6z M495.9,283.8c-23,8.2-30.6-17.1-24.1-28.7c0,0,14.9,3.4,36.5-1.5
				C508.3,253.7,512.2,278,495.9,283.8z"/>
			<path fill="#EAEAEA" d="M514.1,329.6c0-2.6-1.2-4.9-3.1-6.4c0.6-1.5,0.9-3,0.9-4.7v-19c0-7.2-5.8-13-13-13h-10.9
				c-7.2,0-13,5.8-13,13v19c0,2,1.9,63,1.9,63h5.7l11-37.1l12.9,37.1h5.2l-2.2-44.7C512.3,335.6,514.1,332.8,514.1,329.6z"/>
			<path fill="#92959C" d="M500.5,316.2c0,6.2-5,11.1-11.1,11.1l0,0c-6.2,0-11.1-5-11.1-11.1v-8.3c0-6.2,5-11.1,11.1-11.1l0,0
				c6.2,0,11.1,5,11.1,11.1V316.2z"/>
			<circle fill="#A10E2F" cx="502.4" cy="306.5" r="4.3"/>
			<circle fill="#A10E2F" cx="502.3" cy="319.2" r="3.1"/>
			<g>
				<path fill="#A10E2F" d="M515.7,238.7c-5.4-4.3-12.3-6.9-19.8-6.9c-9.6,0-18.3,4.3-24.1,11C493.2,250.2,511.2,241.2,515.7,238.7z
					"/>
				<path fill="#92959C" d="M515.9,238.5c-0.1,0-0.1,0.1-0.2,0.1c-4.5,2.6-22.4,11.6-43.9,4.1c-1.4,1.4-2.6,3-3.6,4.7
					c5.7,2.5,28.6,11.2,51.4-5.2C519,241.4,515.9,238.5,515.9,238.5z"/>
			</g>
		</g>
	</g>
</g>
</svg>
