<?xml version="1.0" encoding="utf-8"?>
<!-- Generator: Adobe Illustrator 22.0.1, SVG Export Plug-In . SVG Version: 6.00 Build 0)  -->
<svg version="1.1" id="Camada_1" xmlns="http://www.w3.org/2000/svg" xmlns:xlink="http://www.w3.org/1999/xlink" x="0px" y="0px"
	 viewBox="0 0 1920 1408" style="enable-background:new 0 0 1920 1408;" xml:space="preserve">
<style type="text/css">
	.st0{fill:#FFFFFF;}
</style>
<path class="st0" d="M1920,1024c0,106-37.5,196.5-112.5,271.5S1642,1408,1536,1408H448c-123.3,0-228.8-43.8-316.5-131.5
	S0,1083.3,0,960c0-88,23.7-168.5,71-241.5S180.7,591,258,555c-1.3-18.7-2-33-2-43c0-141.3,50-262,150-362S626.7,0,768,0
	c105.3,0,200.8,29.3,286.5,88s148.2,135.3,187.5,230c46.7-41.3,102-62,166-62c70.7,0,131,25,181,75s75,110.3,75,181
	c0,50-13.7,96-41,138c86,20,157,64.8,213,134.5S1920,934,1920,1024z"/>
</svg>
