<?xml version="1.0" encoding="utf-8"?>
<!-- Generator: Adobe Illustrator 22.0.1, SVG Export Plug-In . SVG Version: 6.00 Build 0)  -->
<svg version="1.1" id="Camada_1" xmlns="http://www.w3.org/2000/svg" xmlns:xlink="http://www.w3.org/1999/xlink" x="0px" y="0px"
	 viewBox="0 0 1536 1536" style="enable-background:new 0 0 1536 1536;" xml:space="preserve">
<style type="text/css">
	.st0{fill:#FFFFFF;}
</style>
<path class="st0" d="M768,128c-86.7,0-169.5,17-248.5,51s-147,79.5-204,136.5S213,440.5,179,519.5S128,681.3,128,768
	s17,169.5,51,248.5s79.5,147,136.5,204s125,102.5,204,136.5s161.8,51,248.5,51s169.5-17,248.5-51s147-79.5,204-136.5
	s102.5-125,136.5-204s51-161.8,51-248.5s-17-169.5-51-248.5s-79.5-147-136.5-204s-125-102.5-204-136.5S854.7,128,768,128z M1536,768
	c0,139.3-34.3,267.8-103,385.5s-161.8,210.8-279.5,279.5S907.3,1536,768,1536s-267.8-34.3-385.5-103S171.7,1271.2,103,1153.5
	S0,907.3,0,768s34.3-267.8,103-385.5S264.8,171.7,382.5,103S628.7,0,768,0s267.8,34.3,385.5,103s210.8,161.8,279.5,279.5
	S1536,628.7,1536,768z"/>
</svg>
