<?xml version="1.0" encoding="utf-8"?>
<!-- Generator: Adobe Illustrator 22.0.1, SVG Export Plug-In . SVG Version: 6.00 Build 0)  -->
<svg version="1.1" id="Camada_1" xmlns="http://www.w3.org/2000/svg" xmlns:xlink="http://www.w3.org/1999/xlink" x="0px" y="0px"
	 viewBox="0 0 1536 1536" style="enable-background:new 0 0 1536 1536;" xml:space="preserve">
<style type="text/css">
	.st0{fill:#FFFFFF;}
</style>
<path class="st0" d="M1280,800V320c0-17.3-6.3-32.3-19-45s-27.7-19-45-19H736c-28,0-47.7,13-59,39c-11.3,27.3-6.7,50.7,14,70
	l144,144l-534,534c-12.7,12.7-19,27.7-19,45s6.3,32.3,19,45l102,102c12.7,12.7,27.7,19,45,19s32.3-6.3,45-19l534-534l144,144
	c12,12.7,27,19,45,19c8,0,16.3-1.7,25-5C1267,847.7,1280,828,1280,800z M1536,288v960c0,79.3-28.2,147.2-84.5,203.5
	S1327.3,1536,1248,1536H288c-79.3,0-147.2-28.2-203.5-84.5S0,1327.3,0,1248V288c0-79.3,28.2-147.2,84.5-203.5S208.7,0,288,0h960
	c79.3,0,147.2,28.2,203.5,84.5S1536,208.7,1536,288z"/>
</svg>
