<?xml version="1.0" encoding="utf-8"?>
<!-- Generator: Adobe Illustrator 22.0.1, SVG Export Plug-In . SVG Version: 6.00 Build 0)  -->
<svg version="1.1" id="Camada_1_1553279423014" xmlns="http://www.w3.org/2000/svg" xmlns:xlink="http://www.w3.org/1999/xlink"
	 x="0px" y="0px" viewBox="0 0 91.1 67.5" style="enable-background:new 0 0 91.1 67.5;" xml:space="preserve">
<style type="text/css">
	.st0{fill:#FFFFFF;}
</style>
<g transform="translate(1, 1)">
	<g>
		<rect x="504.9" y="-164.4" vector-effect="non-scaling-stroke" width="321.4" height="160.4"/>
		<rect x="503.9" y="-166.8" vector-effect="non-scaling-stroke" width="324" height="173.7"/>
		<path vector-effect="non-scaling-stroke" d="M636.9-132.5c0,0,63.9-63.3,146-48.6c73.4,13.2,74.7,57.1,71.8,78.2
			c-3,21.1-33.4,57.4-80.1,49.3c-51.9-8.9-92.3,10-92.3,10"/>
		<path vector-effect="non-scaling-stroke" d="M485.4-44c0,0,31.6,63,96.2,72.5c57.8,8.5,69.8-23.8,72.9-40.2
			c3-16.4-10.4-50.9-47.1-56.6c-40.7-6.3-66-30.4-66-30.4"/>
	</g>
	<g>
		<path vector-effect="non-scaling-stroke" d="M704.7-112.9v-5.1h-34.3l-4.8,4.7l-4.3-4.2c-0.3-0.3-0.7-0.4-1.1-0.4h-32
			c-0.9,0-1.6,0.7-1.6,1.6v3.5H620v62.3h91.1v-62.4C711.1-112.9,704.7-112.9,704.7-112.9z M671.7-114.8h29.8v53.1h-30.9l-3.3,3
			v-51.4v-0.3L671.7-114.8z M629.7-114.8h29.8l4.5,4.4v0.3v51.4l-2.9-2.6c-0.3-0.3-0.7-0.4-1.1-0.4h-30.3V-114.8L629.7-114.8z
			 M623.2-109.7h3.2v49.6c0,0.9,0.7,1.6,1.6,1.6h31.3l5.1,4.6c0.1,0.1,0.1,0.1,0.2,0.1h-41.5L623.2-109.7L623.2-109.7z M707.9-53.7
			h-41.5c0.1,0,0.1-0.1,0.2-0.2l0,0l5.1-4.6h32.9v-51.2h3.2L707.9-53.7L707.9-53.7z"/>
		<rect x="634.6" y="-106.3" vector-effect="non-scaling-stroke" width="23" height="3.2"/>
		<rect x="634.6" y="-96.6" vector-effect="non-scaling-stroke" width="15.5" height="3.2"/>
	</g>
</g>
<path class="st0" d="M84.7,5.1V0H50.4l-4.6,4.5v59.7h-0.6V4.4l-4-3.9C40.9,0.2,40.5,0,40.1,0h-32C7.2,0,6.5,0.7,6.5,1.6v3.5H0v62.3
	h91.1V5.1H84.7z M14.6,11.7h23v3.2h-23V11.7z M3.2,64.2V8.3h3.2v49.6c0,0.9,0.7,1.6,1.6,1.6h31.3l5.1,4.6c0.1,0.1,0.1,0.1,0.2,0.1
	H3.2z M88,64.3H46.5c0.1,0,0.1-0.1,0.2-0.2l5.1-4.6h32.9V8.3H88V64.3z"/>
</svg>
