<?xml version="1.0" standalone="no"?>
<svg version="1.2" overflow="visible" preserveAspectRatio="none" viewBox="0 0 257 139" xml:space="preserve" y="0px" x="0px" xmlns:xlink="http://www.w3.org/1999/xlink" xmlns="http://www.w3.org/2000/svg" id="Camada_1_1548245953673" width="255" height="137"><g transform="translate(1, 1)"><style type="text/css">
	.st0{fill:url(#SVGID_1__1548245953673);}
	.st1{fill:url(#SVGID_2__1548245953673);}
	.st2{fill:#C85E76;}
	.st3{opacity:0.5;}
	.st4{fill:none;stroke:#FFFFFF;stroke-width:0.25;stroke-miterlimit:10;}
	.st5_1548245953673{fill:url(#SVGID_3__1548245953673);}
	.st6{opacity:0.9;fill:url(#SVGID_4__1548245953673);enable-background:new    ;}
	.st7{fill:#E7E6D0;}
	.st8{fill:url(#SVGID_5_);}
	.st9{fill:url(#SVGID_6_);}
	.st10{fill:url(#SVGID_7_);}
	.st11{fill:url(#SVGID_8_);}
	.st12{fill:#BE4CE4;}
	.st13{fill:#943AB9;}
	.st14{fill:#998CF6;}
	.st15{fill:#7958EC;}
	.st16_1548245953673{fill:#FFFFFF;}
	.st17{fill:#F7F7F7;}
	.st18{fill:#5B3CCD;}
	.st19{fill:url(#SVGID_9_);}
	.st20{opacity:0.9;fill:url(#SVGID_10_);enable-background:new    ;}
	.st21{fill:url(#SVGID_11_);}
	.st22{fill:url(#SVGID_12_);}
	.st23{fill:url(#SVGID_13_);}
	.st24{fill:url(#SVGID_14_);}
	.st25{fill:url(#SVGID_15_);}
	.st26{fill:url(#SVGID_16_);}
	.st27{fill:url(#SVGID_17_);}
	.st28{opacity:0.9;fill:url(#SVGID_18_);enable-background:new    ;}
	.st29{fill:url(#SVGID_19_);}
	.st30{fill:url(#SVGID_20_);}
	.st31{fill:url(#SVGID_21_);}
	.st32{fill:url(#SVGID_22_);}
	.st33{clip-path:url(#SVGID_24_);}
	.st34{opacity:0.6;fill:#57CEB7;}
	.st35{opacity:0.9;fill:#57CEB7;}
	.st36{opacity:0.1;fill:#020202;}
	.st37{fill:#FDFFFF;}
	.st38{fill:#FF4C06;}
	.st39{fill:#564039;}
	.st40{fill:#EAEAEA;}
	.st41{fill:#DCDEE2;}
	.st42{fill:none;stroke:#DCDEE2;stroke-width:3;stroke-miterlimit:10;}
	.st43{fill:#988BF5;}
	.st44{fill:#7958EB;}
	.st45{opacity:0.5;fill:#CACAF9;}
	.st46{fill:#E5E5E5;}
	.st47{fill:#DB825E;}
	.st48{fill:#B75B42;}
	.st49{fill:#E29874;}
	.st50{fill:#919191;}
	.st51{opacity:0.1;fill-rule:evenodd;clip-rule:evenodd;fill:#020202;}
	.st52{clip-path:url(#SVGID_26_);fill:url(#SVGID_27_);}
	.st53{clip-path:url(#SVGID_26_);}
	.st54{fill:url(#SVGID_28_);}
	.st55{opacity:0.2;clip-path:url(#SVGID_26_);}
	.st56{fill:url(#SVGID_29_);}
	.st57_1548245953673{fill:#9A8DF7;}
	.st58_1548245953673{fill:#7958ED;}
	.st59_1548245953673{fill:#F8F8F8;}
	.st60_1548245953673{fill:#5B3CCE;}
</style><g>
	<defs>
		<rect height="137" width="255" id="SVGID_25__1548245953673" vector-effect="non-scaling-stroke"/>
	</defs>
	<clipPath id="SVGID_1__1548245953673" vector-effect="non-scaling-stroke">
		<use style="overflow:visible;" xmlns:xlink="http://www.w3.org/1999/xlink" xlink:href="#SVGID_25__1548245953673" vector-effect="non-scaling-stroke"/>
	</clipPath>
	<linearGradient y2="68.5" x2="255" y1="68.5" x1="0" gradientUnits="userSpaceOnUse" id="SVGID_2__1548245953673" vector-effect="non-scaling-stroke">
		<stop style="stop-color:#000B8E" offset="0" vector-effect="non-scaling-stroke"/>
		<stop style="stop-color:#1C2096" offset="0.2097" vector-effect="non-scaling-stroke"/>
		<stop style="stop-color:#443EA2" offset="0.5569" vector-effect="non-scaling-stroke"/>
		<stop style="stop-color:#5D50AA" offset="0.8323" vector-effect="non-scaling-stroke"/>
		<stop style="stop-color:#6657AC" offset="0.9996" vector-effect="non-scaling-stroke"/>
	</linearGradient>
	<rect height="137" width="255" style="clip-path:url(#SVGID_1__1548245953673);fill:url(#SVGID_2__1548245953673);" vector-effect="non-scaling-stroke"/>
	<g style="clip-path:url(#SVGID_1__1548245953673);">
		<radialGradient gradientUnits="userSpaceOnUse" r="121.8068" cy="68.5" cx="127.5" id="SVGID_3__1548245953673" vector-effect="non-scaling-stroke">
			<stop style="stop-color:#211915;stop-opacity:0" offset="0.4608" vector-effect="non-scaling-stroke"/>
			<stop style="stop-color:#FFFFFF;stop-opacity:0.2" offset="0.9992" vector-effect="non-scaling-stroke"/>
		</radialGradient>
		<path d="M125.8-53.3c-67.2,1-121,56.4-120,123.5c1,67.2,56.4,121,123.5,120c67.2-1,121-56.4,120-123.5&#10;&#9;&#9;&#9;C248.3-0.4,192.9-54.3,125.8-53.3z" class="st5_1548245953673" vector-effect="non-scaling-stroke"/>
	</g>
	<g style="opacity:0.2;clip-path:url(#SVGID_1__1548245953673);">
		<radialGradient gradientUnits="userSpaceOnUse" r="84.5954" cy="68.5" cx="127.5" id="SVGID_4__1548245953673" vector-effect="non-scaling-stroke">
			<stop style="stop-color:#211915;stop-opacity:0" offset="0.4608" vector-effect="non-scaling-stroke"/>
			<stop style="stop-color:#FFFFFF;stop-opacity:0.8" offset="0.9992" vector-effect="non-scaling-stroke"/>
		</radialGradient>
		<path d="M126.3-16.1c-46.6,0.7-84,39.2-83.4,85.8c0.7,46.6,39.2,84,85.8,83.4s84-39.2,83.4-85.8&#10;&#9;&#9;&#9;C211.4,20.6,172.9-16.8,126.3-16.1z" style="fill:url(#SVGID_4__1548245953673);" vector-effect="non-scaling-stroke"/>
	</g>
	<g style="clip-path:url(#SVGID_1__1548245953673);">
		<g>
			<circle r="50.4" cy="68.5" cx="127.5" class="st57_1548245953673" vector-effect="non-scaling-stroke"/>
			<path d="M94.9,105.9c0,0-6.5-58.9,16.5-69.3c24.4-10.9,49.7,3.7,48,32.1c-1.4,23.4-5.5,27.7-1.9,32.9l-4.6,11.4&#10;&#9;&#9;&#9;&#9;l-19.2,5.8l-21.5-1.6l-13.8-7L94.9,105.9z" class="st58_1548245953673" vector-effect="non-scaling-stroke"/>
			<path d="M160.6,105.9c0,0,6.5-58.9-16.5-69.3c-24.4-10.9-49.7,3.7-48,32.1c1.4,23.4,3.5,29.4-0.1,34.5l6.7,9.8&#10;&#9;&#9;&#9;&#9;l19.2,5.8l21.5-1.6l13.8-7L160.6,105.9z" class="st58_1548245953673" vector-effect="non-scaling-stroke"/>
			<g>
				<path d="M127.5,121.4c-13.8,0-26.9-5.3-36.8-15c-10.1-9.8-15.8-23-16-37.2c-0.2-14.1,5.1-27.5,15-37.6&#10;&#9;&#9;&#9;&#9;&#9;c9.8-10.1,23-15.8,37.2-16c14.1-0.2,27.5,5.1,37.6,15c10.1,9.8,15.8,23,16,37.2l0,0c0.4,29.2-23,53.2-52.1,53.6&#10;&#9;&#9;&#9;&#9;&#9;C128,121.4,127.7,121.4,127.5,121.4z M127.5,20.6c-0.2,0-0.5,0-0.7,0c-12.8,0.2-24.7,5.3-33.7,14.5&#10;&#9;&#9;&#9;&#9;&#9;c-8.9,9.2-13.7,21.3-13.5,34.1c0.2,12.8,5.3,24.7,14.5,33.7c9,8.8,20.8,13.5,33.4,13.5c0.2,0,0.5,0,0.7,0&#10;&#9;&#9;&#9;&#9;&#9;c26.4-0.4,47.6-22.2,47.2-48.6l0,0c-0.2-12.8-5.3-24.7-14.5-33.7C151.9,25.4,140,20.6,127.5,20.6z" class="st16_1548245953673" vector-effect="non-scaling-stroke"/>
			</g>
			<g>
				<path d="M127.2,47.5c-11.6,0.2-20.9,9.7-20.7,21.3c0.2,11.6,9.7,20.9,21.3,20.7c11.6-0.2,20.9-9.7,20.7-21.3&#10;&#9;&#9;&#9;&#9;&#9;C148.4,56.6,138.8,47.3,127.2,47.5z" class="st59_1548245953673" vector-effect="non-scaling-stroke"/>
			</g>
			<ellipse ry="6.1" rx="12.2" cy="45.9" cx="98.7" class="st16_1548245953673" transform="matrix(0.5666 -0.824 0.824 0.5666 4.9133 101.202)" vector-effect="non-scaling-stroke"/>
			<circle r="2.8" cy="94" cx="146.4" class="st60_1548245953673" vector-effect="non-scaling-stroke"/>
			<circle r="1.4" cy="101.9" cx="152.3" class="st60_1548245953673" vector-effect="non-scaling-stroke"/>
			<circle r="1.4" cy="40.1" cx="136" class="st60_1548245953673" vector-effect="non-scaling-stroke"/>
			<circle r="1.4" cy="105.8" cx="117" class="st60_1548245953673" vector-effect="non-scaling-stroke"/>
			<circle r="1.4" cy="87.2" cx="100.6" class="st60_1548245953673" vector-effect="non-scaling-stroke"/>
			<path d="M137.9,65.5h-7.4v-7.4c0-1.7-1.4-3-3-3c-1.7,0-3,1.4-3,3v7.4h-7.4c-1.7,0-3,1.4-3,3s1.4,3,3,3h7.4v7.4&#10;&#9;&#9;&#9;&#9;c0,1.7,1.4,3,3,3c1.7,0,3-1.4,3-3v-7.4h7.4c1.7,0,3-1.4,3-3S139.6,65.5,137.9,65.5z" class="st60_1548245953673" vector-effect="non-scaling-stroke"/>
		</g>
	</g>
</g></g></svg>