<?xml version="1.0" encoding="utf-8"?>
<!-- Generator: Adobe Illustrator 23.0.1, SVG Export Plug-In . SVG Version: 6.00 Build 0)  -->
<svg version="1.1" id="Camada_1" xmlns="http://www.w3.org/2000/svg" xmlns:xlink="http://www.w3.org/1999/xlink" x="0px" y="0px"
	 viewBox="0 0 255 137" style="enable-background:new 0 0 255 137;" xml:space="preserve">
<style type="text/css">
	.st0{fill:url(#SVGID_1_);}
	.st1{fill:url(#SVGID_2_);}
	.st2{fill:#C85E76;}
	.st3{opacity:0.5;}
	.st4{fill:none;stroke:#FFFFFF;stroke-width:0.25;stroke-miterlimit:10;}
	.st5{fill:url(#SVGID_3_);}
	.st6{opacity:0.9;fill:url(#SVGID_4_);enable-background:new    ;}
	.st7{fill:#E7E6D0;}
	.st8{fill:url(#SVGID_5_);}
	.st9{fill:url(#SVGID_6_);}
	.st10{fill:url(#SVGID_7_);}
	.st11{fill:url(#SVGID_8_);}
	.st12{fill:#BE4CE4;}
	.st13{fill:#943AB9;}
	.st14{fill:#998CF6;}
	.st15{fill:#7958EC;}
	.st16{fill:#FFFFFF;}
	.st17{fill:#F7F7F7;}
	.st18{fill:#5B3CCD;}
	.st19{fill:url(#SVGID_9_);}
	.st20{opacity:0.9;fill:url(#SVGID_10_);enable-background:new    ;}
	.st21{fill:url(#SVGID_11_);}
	.st22{fill:url(#SVGID_12_);}
	.st23{fill:url(#SVGID_13_);}
	.st24{fill:url(#SVGID_14_);}
	.st25{fill:url(#SVGID_15_);}
	.st26{fill:url(#SVGID_16_);}
	.st27{fill:url(#SVGID_17_);}
	.st28{opacity:0.9;fill:url(#SVGID_18_);enable-background:new    ;}
	.st29{fill:url(#SVGID_19_);}
	.st30{fill:url(#SVGID_20_);}
	.st31{fill:url(#SVGID_21_);}
	.st32{fill:url(#SVGID_22_);}
	.st33{fill:url(#SVGID_23_);}
	.st34{fill:#9A8DF7;}
	.st35{fill:#7958ED;}
	.st36{fill:#F8F8F8;}
	.st37{fill:#5B3CCE;}
	.st38{clip-path:url(#SVGID_25_);}
	.st39{opacity:0.6;fill:#57CEB7;}
	.st40{opacity:0.9;fill:#57CEB7;}
	.st41{opacity:0.1;fill:#020202;}
	.st42{fill:#FDFFFF;}
	.st43{fill:#FF4C06;}
	.st44{fill:#564039;}
	.st45{fill:#EAEAEA;}
	.st46{fill:#DCDEE2;}
	.st47{fill:none;stroke:#DCDEE2;stroke-width:3;stroke-miterlimit:10;}
	.st48{fill:#988BF5;}
	.st49{fill:#7958EB;}
	.st50{opacity:0.5;fill:#CACAF9;}
	.st51{fill:#E5E5E5;}
	.st52{fill:#DB825E;}
	.st53{fill:#B75B42;}
	.st54{fill:#E29874;}
	.st55{fill:#919191;}
	.st56{opacity:0.1;fill-rule:evenodd;clip-rule:evenodd;fill:#020202;}
</style>
<linearGradient id="SVGID_1_" gradientUnits="userSpaceOnUse" x1="0" y1="68.5" x2="255" y2="68.5">
	<stop  offset="0" style="stop-color:#003E88"/>
	<stop  offset="0.1421" style="stop-color:#11418E"/>
	<stop  offset="0.5191" style="stop-color:#39479B"/>
	<stop  offset="0.818" style="stop-color:#524AA4"/>
	<stop  offset="0.9996" style="stop-color:#5B4CA7"/>
</linearGradient>
<rect class="st0" width="255" height="137"/>
<g>
	<defs>
		<rect id="SVGID_24_" width="255" height="137"/>
	</defs>
	<clipPath id="SVGID_2_">
		<use xlink:href="#SVGID_24_"  style="overflow:visible;"/>
	</clipPath>
	<g style="clip-path:url(#SVGID_2_);">
		<g>
			<path class="st39" d="M234.2,138c39-34.5-12.2-76.5-34.9-94.7c-11.7-9.4-19.8-21.2-34.5-43.1c-18.1-27-61.7-26.2-95.7,22.9
				C27.4,83.4,51.4,127,70.2,144.2C100,171.5,178.4,187.3,234.2,138z"/>
			<path class="st40" d="M189,111.5c29.3-5.1,58.1-27.7,67.6-46.4c6.7-13.3,20-49.6,4.4-62.1c-15.8-12.7-50.4,20.5-104.7,10.8
				c-43-7.7-44.3,42.2-40.5,52.7C124.1,89.7,147.1,118.8,189,111.5z"/>
		</g>
		<g>
			<path class="st41" d="M217.1,116.4h-31c-0.6,0-1.1-0.5-1.1-1.1l0,0c0-0.6,0.5-1.1,1.1-1.1h31c0.6,0,1.1,0.5,1.1,1.1l0,0
				C218.2,116,217.7,116.4,217.1,116.4z"/>
			<rect x="185.6" y="72.3" class="st42" width="31.9" height="22.1"/>
			<path class="st43" d="M207.7,75.4c-0.4,0-0.8,0.4-0.8,0.8c0,0.4,0.4,0.7,0.8,0.7h4l-10.5,9.8c-1.3-1.1-2.6-2.2-3.8-3.1
				c-0.1-0.2-0.4-0.2-0.6-0.2c-0.2,0-0.3,0.1-0.4,0.2l-7.2,6.5c-0.3,0.3-0.3,0.7,0,1c0.3,0.3,0.7,0.3,1,0l6.7-6.1l3.8,3.2
				c0.3,0.3,0.7,0.3,1,0l11-10.4v4.1c0,0.4,0.3,0.7,0.7,0.7c0.4,0,0.7-0.4,0.7-0.7v-5.8c0-0.4-0.3-0.7-0.7-0.7H207.7z"/>
			<rect x="183.1" y="70.3" class="st44" width="37.1" height="2.1"/>
			<rect x="183.1" y="94.3" class="st44" width="37.1" height="2.1"/>
			<g>
				<path class="st44" d="M189,115.8L189,115.8c-0.8-0.1-1.3-0.8-1.2-1.6l2.7-18.7l2.8,0.4l-2.7,18.7
					C190.4,115.4,189.7,115.9,189,115.8z"/>
				<path class="st44" d="M214.3,115.8L214.3,115.8c0.8-0.1,1.3-0.8,1.2-1.6l-2.7-18.7l-2.8,0.4l2.7,18.7
					C212.8,115.4,213.5,115.9,214.3,115.8z"/>
			</g>
		</g>
		<g>
			<g>
				<path class="st12" d="M154.2,89l1.5-1.3h1.1L154.2,89l-2.7-1.3c0,0,7.4-4.7,1.5,0.7l-1.5,0.4c0.1,0,1,3.5,1.1,3.5
					c0.2,0.1-0.2-0.1,0,0c0.4,0.2,0.9-0.2,1.3,0c0.8,0.4,2.8-2.3,3.5-1.8c1.5,1,0.4,4.1,1.8,5.3c2.8,2.4,2.1,9,4.2,12.1
					c2.1,3,3.7,6.4,4.9,10c0,0,0,0.1,0,0.1c0.9,2.9,6.4,2.3,7.2-0.9c0,0,0-0.1,0-0.1c1.1-4.3,1.7-8.8,1.6-13.2c0-4.4-0.7-8.9-2-13.3
					c-0.6-2.2-1.4-4.3-2.4-6.5c-0.5-1.1-1-2.1-1.6-3.2c-0.3-0.5-0.6-1.1-1-1.6c-0.2-0.3-0.4-0.5-0.6-0.8c-0.1-0.1-0.2-0.3-0.3-0.4
					l-0.1-0.1l-0.1-0.1l-0.1-0.1l0,0l-0.1-0.1l-0.1-0.1L154.2,89z"/>
				<circle class="st13" cx="174.5" cy="100.2" r="1.2"/>
				<circle class="st13" cx="164.5" cy="101.6" r="0.7"/>
			</g>
			<path class="st16" d="M158.5,96.3c0,0,4.8,13.9,5.2,16.8l16.2-4.1c0,0-3.9-26-12.6-37.3L158.5,96.3z"/>
			<path class="st16" d="M160.5,119.3l-6.2,2.1c-3.9,1.3-8.2,1.3-12.1-0.1l-5.8-2.1l-5.5,1.7c-5,1.6-10.4,0.9-14.9-1.7l0,0l1.4-20.6
				l-6.5-29.2h55.6V74l-7.7,23L160.5,119.3z"/>
			<path class="st12" d="M164,77c0,0-16.6,16.1-28,19.5c0,0-12.8-5-21.7-14.5C111.1,78.6,164,77,164,77z"/>
			<path class="st45" d="M166.6,74.1c0,0-23.3,20.1-30.5,22.4l0.1,12.1l6.7-7.9l-3.7-4.3l6.5,3.9L166.6,74.1z"/>
			<path class="st46" d="M160.2,81.5l-1.1-1.3c-7.5,6.1-18.5,14.7-23.1,16.2l0,5.8l4.6-4l-1.6-1.9l2.2,1.4L160.2,81.5z"/>
			<path class="st45" d="M114.5,82c0,0,14.5,12.2,21.7,14.5l-0.1,12.1l-6.7-7.9l3.7-4.3l-6.5,3.9L114.5,82z"/>
			<path class="st46" d="M112.1,81.5l1.1-1.3c7.5,6.1,18.5,14.7,23.1,16.2l0,5.8l-4.6-4l1.6-1.9l-2.2,1.4L112.1,81.5z"/>
			<path class="st47" d="M136.2,96.5c0,0-0.3,8.3,0.1,22.7"/>
			<polygon class="st16" points="112.7,77.5 104,95.6 96.3,93.8 93.6,107 115.7,107 117.7,98.2 			"/>
			<g>
				<g>
					<circle class="st48" cx="135.9" cy="47.2" r="41.2"/>
					<path class="st49" d="M163.7,37.3c-0.9-5.1-2.9-9.4-5.6-12.9c-2.5-3.8-5.6-6.7-9.5-8c-4.3-1.5-8.6-2.1-12.6-1.9
						c-0.1,0-0.2,0-0.3,0c-0.2,0-0.3,0-0.5,0c-0.2,0-0.3,0-0.5,0c-0.2,0-0.3,0-0.5,0s-0.3,0-0.5,0c-0.2,0-0.3,0-0.5,0.1
						c-0.2,0-0.3,0-0.5,0.1c-0.1,0-0.2,0-0.3,0c-4,0.6-8.1,2-12,4.2c-3.6,2-6.1,5.4-7.9,9.6c-2,3.9-3.2,8.5-3.2,13.6
						c-1.8,17.4,2.3,37.4,2.3,37.4l3.3,3.5l3.4,1.3l0.6,0.7l2.5,0.5l5.9,2.3l5.1-0.1l3.5,0.7l5-0.8l5.1-0.1l3.3-1.3l5-0.8l5.3-3.4
						l2.4-1l0.2-0.7l3.3-2.1l2.6-4C168.3,74.5,168.6,54.1,163.7,37.3z"/>
					<g>
						<path class="st16" d="M139.8,90.2c-11.3,1-22.3-2.3-31.1-9.5c-9-7.3-14.6-17.6-15.8-29.1c-1.2-11.5,2.1-22.8,9.4-31.7
							c7.3-9,17.6-14.6,29.1-15.8c11.5-1.2,22.8,2.1,31.7,9.4c9,7.3,14.6,17.6,15.8,29.1l0,0c2.5,23.7-14.8,45-38.5,47.5
							C140.2,90.2,140,90.2,139.8,90.2z M132.4,8.1c-0.2,0-0.4,0-0.6,0.1c-10.4,1.1-19.8,6.2-26.3,14.3c-6.6,8.1-9.6,18.3-8.5,28.7
							c1.1,10.4,6.2,19.8,14.3,26.3c8,6.5,18,9.5,28.2,8.6c0.2,0,0.4,0,0.6-0.1c21.5-2.3,37.1-21.6,34.8-43.1l0,0
							c-1.1-10.4-6.2-19.8-14.3-26.3C152.6,10.2,142.6,7.2,132.4,8.1z"/>
					</g>
					<g>
						<path class="st17" d="M129.8,27.5c-8.8,0.9-15.1,9.8-14.1,19.7c1,9.9,9.1,17.2,17.9,16.3c8.8-0.9,15.1-9.8,14.1-19.7
							C146.6,33.9,138.6,26.6,129.8,27.5z"/>
					</g>
					
						<ellipse transform="matrix(0.2506 -0.9681 0.9681 0.2506 43.8293 132.3774)" class="st16" cx="107.4" cy="37.9" rx="10" ry="5"/>
					<circle class="st18" cx="155.2" cy="65.4" r="2.4"/>
					<circle class="st18" cx="160.9" cy="71.7" r="1.2"/>
					<circle class="st18" cx="142" cy="20.1" r="1.2"/>
					<circle class="st18" cx="130.8" cy="77.8" r="1.2"/>
					<circle class="st18" cx="115.4" cy="63.1" r="1.2"/>
					<g>
						<path class="st18" d="M130.5,34.6c-5.4,0.6-9.2,6-8.6,12c0.6,6.1,5.5,10.5,10.9,10s9.2-6,8.6-12
							C140.8,38.5,135.9,34,130.5,34.6z"/>
					</g>
				</g>
			</g>
			<g>
				<g>
					<g>
						<path class="st44" d="M119.1,57.6c0-1.5,0.4-3,1.4-4.1c1-1.1,2.3-1.8,3.7-1.8c1.4-0.1,2.8,0.5,3.8,1.6c1,1,1.6,2.5,1.6,4
							l-1.8,0c0-1-0.6-1.8-1.3-2.5c-0.6-0.6-1.4-1-2.3-0.9c-0.8,0-1.6,0.4-2.2,1.1c-0.6,0.7-1.1,1.6-1.1,2.6L119.1,57.6z"/>
					</g>
					
						<ellipse transform="matrix(0.9999 -1.305411e-02 1.305411e-02 0.9999 -0.7211 1.9399)" class="st50" cx="148.2" cy="56.2" rx="19.7" ry="21.5"/>
					<g>
						<path class="st44" d="M147.4,78.7c-5-0.2-9.6-2.4-13.3-6.1c-4-4.1-6.3-9.7-6.5-15.7c-0.2-6,1.8-11.7,5.5-16.1
							c3.8-4.4,8.9-7,14.4-7.1c5.5-0.2,10.8,2,14.9,6.1c4,4.1,6.3,9.7,6.5,15.7l0,0c0.2,6-1.8,11.7-5.5,16.1
							c-3.8,4.4-8.9,7-14.4,7.1C148.4,78.8,147.9,78.8,147.4,78.7z M149,35.8c-0.5,0-0.9,0-1.4,0c-5,0.2-9.6,2.5-13,6.4
							c-3.4,4-5.2,9.2-5,14.7c0.2,5.5,2.3,10.5,5.9,14.3c3.6,3.7,8.4,5.7,13.3,5.5c5-0.2,9.6-2.5,13-6.4c3.4-4,5.2-9.2,5-14.7l0,0
							c-0.2-5.5-2.3-10.5-5.9-14.3C157.6,37.9,153.4,36,149,35.8z"/>
					</g>
					
						<ellipse transform="matrix(0.9999 -1.305411e-02 1.305411e-02 0.9999 -0.7474 1.3154)" class="st50" cx="100.4" cy="57.9" rx="19.7" ry="21.5"/>
					<g>
						<path class="st44" d="M99.6,80.4C88.9,80,80.1,70.5,79.7,58.6c-0.4-12.4,8.6-22.9,20-23.3c11.4-0.4,21,9.4,21.4,21.8l0,0
							c0.2,6-1.8,11.7-5.5,16.1c-3.8,4.4-8.9,7-14.4,7.1C100.6,80.5,100.1,80.5,99.6,80.4z M101.1,37.5c-0.5,0-0.9,0-1.4,0
							c-10.3,0.4-18.3,9.8-18,21.1c0.4,11.3,9,20.1,19.3,19.8c5-0.2,9.6-2.5,13-6.4c3.4-4,5.2-9.2,5-14.7l0,0
							C118.7,46.5,110.8,37.9,101.1,37.5z"/>
					</g>
				</g>
				<path class="st44" d="M165.1,44.8l5-3.1l2.5-1.5l0.3-0.2l0.2-0.1c0.1,0,0.1-0.1,0.2-0.1c0.1-0.1,0.3-0.1,0.4-0.2l0.4-0.2
					c0.6-0.2,1.2-0.4,1.8-0.4c0.6-0.1,1.2,0,1.8,0.1c0.6,0.1,1.2,0.3,1.8,0.6c0.6,0.3,1.1,0.6,1.5,1l0.3,0.3
					c0.1,0.1,0.2,0.2,0.3,0.3l0.1,0.2l0.1,0.1l0.2,0.3l3.7,4.6l-2.7,2l-3.4-4.7l-0.2-0.3l-0.1-0.1l-0.1-0.1
					c-0.1-0.1-0.1-0.1-0.2-0.2l-0.2-0.2c-0.3-0.2-0.5-0.5-0.8-0.6c-0.3-0.2-0.6-0.3-1-0.4c-0.3-0.1-0.7-0.1-1.1-0.1
					c-0.4,0-0.7,0.1-1.1,0.2l-0.3,0.1c-0.1,0-0.2,0.1-0.2,0.1c0,0-0.1,0-0.1,0.1l-0.2,0.1l-0.3,0.2l-2.6,1.4l-5.1,2.8L165.1,44.8z"
					/>
			</g>
			<g>
				<g>
					<path class="st51" d="M111.6,101.5H90.4c-1.3,0-2.5-1-2.7-2.3l-5-30.4c-0.3-1.7,1-3.2,2.7-3.2h21.3c1.3,0,2.5,1,2.7,2.3l5,30.4
						C114.6,100,113.3,101.5,111.6,101.5z"/>
				</g>
				<polygon class="st52" points="83.2,66.7 82,68.1 83.9,68.1 				"/>
				<polygon class="st51" points="113.7,100.5 112.4,102.1 112.3,100.1 				"/>
				<g>
					<path class="st53" d="M110.9,102.2H89.6c-1.3,0-2.5-1-2.7-2.3l-5-30.4c-0.3-1.7,1-3.2,2.7-3.2h21.2c1.3,0,2.5,1,2.7,2.3l5,30.4
						C113.8,100.6,112.5,102.2,110.9,102.2z"/>
				</g>
			</g>
			<path class="st54" d="M110.5,102.9H89.2c-1.3,0-2.5-1-2.7-2.3l-5-30.4c-0.3-1.7,1-3.2,2.7-3.2h21.3c1.3,0,2.5,1,2.7,2.3l5,30.4
				C113.4,101.4,112.2,102.9,110.5,102.9z"/>
			<path class="st12" d="M92.8,110.8c0,0,2.4,4.1,8.3,4.7c5.9,0.6,13.7-2.8,14.4-8.5l-0.8-0.3c-2.7-0.9-5.7-0.9-8.4,0.2L106,107
				C106,107,95.3,110.8,92.8,110.8z"/>
			<g>
				<path class="st12" d="M110.1,108.1c0.2-0.1,0.5-0.3-1.7-2.2c-4.6-4.4-9.5-15.2-10.3-18c0,0,0-0.1,0-0.1
					c-0.6-2.3-4.8-1.9-5.6,0.5c0,0,0,0.1,0,0.1c-0.9,3.3-1.8,6.7-1.9,10.1c-0.1,3.4-0.2,4.8,0.6,8.6c0.7,2.4,1.8,4.2,3.4,5.6
					c4.7,2,3.7,1,3.6,1L110.1,108.1z"/>
				<circle class="st13" cx="95" cy="110.4" r="0.9"/>
				<circle class="st13" cx="97.3" cy="102.5" r="1.7"/>
			</g>
			<rect x="147.7" y="111.4" class="st45" width="9.9" height="2.5"/>
			<rect x="118.2" y="111.4" class="st45" width="9.9" height="2.5"/>
			<polygon class="st55" points="97.2,67 89.8,67 90.8,65.6 98.3,65.6 			"/>
			<polygon class="st51" points="97.4,69.1 90.2,69.1 89.8,67 97.2,67 			"/>
		</g>
		<ellipse class="st56" cx="136.7" cy="127.6" rx="11.4" ry="2.8"/>
	</g>
</g>
</svg>
