<?xml version="1.0" standalone="no"?>
<svg version="1.2" overflow="visible" preserveAspectRatio="none" viewBox="0 0 222 222" xml:space="preserve" y="0px" x="0px" xmlns:xlink="http://www.w3.org/1999/xlink" xmlns="http://www.w3.org/2000/svg" id="Camada_1_1548958899477" width="220" height="220"><g transform="translate(1, 1)"><style type="text/css">
	.st0_1548958899477{clip-path:url(#SVGID_2__1548958899477);fill:url(#SVGID_3__1548958899477);}
	.st1_1548958899477{clip-path:url(#SVGID_2__1548958899477);}
	.st2{fill:#C85E76;}
	.st3{opacity:0.5;}
	.st4{fill:none;stroke:#FFFFFF;stroke-width:0.25;stroke-miterlimit:10;}
	.st5{fill:url(#SVGID_4__1548958899477);}
	.st6{opacity:0.9;fill:url(#SVGID_5_);enable-background:new    ;}
	.st7{fill:#E7E6D0;}
	.st8{fill:url(#SVGID_6_);}
	.st9{fill:url(#SVGID_7_);}
	.st10{fill:url(#SVGID_8_);}
	.st11{fill:url(#SVGID_9_);}
	.st12_1548958899477{fill:#BE4CE4;}
	.st13_1548958899477{fill:#943AB9;}
	.st14{fill:#998CF6;}
	.st15{fill:#7958EC;}
	.st16_1548958899477{fill:#FFFFFF;}
	.st17_1548958899477{fill:#F7F7F7;}
	.st18_1548958899477{fill:#5B3CCD;}
	.st19{clip-path:url(#SVGID_11_);}
	.st20{clip-path:url(#SVGID_13_);fill:url(#SVGID_14_);}
	.st21{opacity:0.8;clip-path:url(#SVGID_16_);fill:url(#SVGID_17_);enable-background:new    ;}
	.st22{clip-path:url(#SVGID_19_);fill:url(#SVGID_20_);}
	.st23{clip-path:url(#SVGID_24_);}
	.st24{fill:#BF4CE5;}
	.st25{fill:#953ABA;}
	.st26{fill:#9A8DF7;}
	.st27{fill:#7958ED;}
	.st28{fill:#F8F8F8;}
	.st29{fill:#5B3CCE;}
	.st30{clip-path:url(#SVGID_26_);}
	.st31{fill:#2886F7;}
	.st32{fill:#0C5ED7;}
	.st33{fill:#164F93;}
	.st34{fill:url(#SVGID_27_);}
	.st35{clip-path:url(#SVGID_29_);}
	.st36{fill:url(#SVGID_30_);}
	.st37{fill:url(#SVGID_31_);}
	.st38{clip-path:url(#SVGID_33_);}
	.st39{fill:url(#SVGID_34_);}
	.st40{fill:url(#SVGID_35_);}
	.st41{clip-path:url(#SVGID_37_);}
	.st42{fill:url(#SVGID_38_);}
	.st43{clip-path:url(#SVGID_40_);fill:url(#SVGID_41_);}
	.st44{clip-path:url(#SVGID_40_);}
	.st45{clip-path:url(#SVGID_43_);}
	.st46_1548958899477{opacity:0.6;fill:#57CEB7;enable-background:new    ;}
	.st47_1548958899477{opacity:0.9;fill:#57CEB7;enable-background:new    ;}
	.st48_1548958899477{opacity:0.1;fill:#020202;enable-background:new    ;}
	.st49_1548958899477{fill:#FDFFFF;}
	.st50_1548958899477{fill:#FF4C06;}
	.st51_1548958899477{fill:#564039;}
	.st52_1548958899477{fill:#EAEAEA;}
	.st53_1548958899477{fill:#DCDEE2;}
	.st54_1548958899477{fill:none;stroke:#DCDEE2;stroke-width:3;stroke-miterlimit:10;}
	.st55_1548958899477{fill:#988BF5;}
	.st56_1548958899477{fill:#7958EB;}
	.st57_1548958899477{opacity:0.5;fill:#CACAF9;enable-background:new    ;}
	.st58_1548958899477{fill:#E5E5E5;}
	.st59_1548958899477{fill:#DB825E;}
	.st60_1548958899477{fill:#B75B42;}
	.st61_1548958899477{fill:#E29874;}
	.st62_1548958899477{fill:#919191;}
	.st63_1548958899477{opacity:0.1;fill-rule:evenodd;clip-rule:evenodd;fill:#020202;enable-background:new    ;}
</style><g>
	<defs>
		<rect height="220" width="220" id="SVGID_39__1548958899477" vector-effect="non-scaling-stroke"/>
	</defs>
	<clipPath id="SVGID_2__1548958899477" vector-effect="non-scaling-stroke">
		<use style="overflow:visible;" xmlns:xlink="http://www.w3.org/1999/xlink" xlink:href="#SVGID_39__1548958899477" vector-effect="non-scaling-stroke"/>
	</clipPath>
	
		<linearGradient gradientTransform="matrix(1 0 0 -1 0 222)" y2="112.2795" x2="356.1705" y1="112.2795" x1="-60.5291" gradientUnits="userSpaceOnUse" id="SVGID_3__1548958899477" vector-effect="non-scaling-stroke">
		<stop style="stop-color:#003E88" offset="0" vector-effect="non-scaling-stroke"/>
		<stop style="stop-color:#11418E" offset="0.1421" vector-effect="non-scaling-stroke"/>
		<stop style="stop-color:#39479B" offset="0.5191" vector-effect="non-scaling-stroke"/>
		<stop style="stop-color:#524AA4" offset="0.818" vector-effect="non-scaling-stroke"/>
		<stop style="stop-color:#5B4CA7" offset="0.9996" vector-effect="non-scaling-stroke"/>
	</linearGradient>
	<rect height="223.9" width="416.7" class="st0_1548958899477" y="-2.2" x="-60.5" vector-effect="non-scaling-stroke"/>
	<g class="st1_1548958899477">
		<g>
			<defs>
				<rect height="223.9" width="416.7" y="-2.2" x="-60.5" id="SVGID_42__1548958899477" vector-effect="non-scaling-stroke"/>
			</defs>
			<clipPath id="SVGID_4__1548958899477" vector-effect="non-scaling-stroke">
				<use style="overflow:visible;" xmlns:xlink="http://www.w3.org/1999/xlink" xlink:href="#SVGID_42__1548958899477" vector-effect="non-scaling-stroke"/>
			</clipPath>
			<g style="clip-path:url(#SVGID_4__1548958899477);">
				<g>
					<path d="M262.3,184.7c47.6-42.1-14.9-93.4-42.6-115.6c-14.3-11.5-24.2-25.9-42.1-52.6&#10;&#9;&#9;&#9;&#9;&#9;&#9;c-22.1-33-75.3-32-116.8,27.9c-50.9,73.6-21.6,126.8,1.3,147.8C98.5,225.6,194.2,244.9,262.3,184.7z" class="st46_1548958899477" vector-effect="non-scaling-stroke"/>
					<path d="M207.2,152.4c35.8-6.2,70.9-33.8,82.5-56.6c8.2-16.2,24.4-60.5,5.4-75.8c-19.3-15.5-61.5,25-127.8,13.2&#10;&#9;&#9;&#9;&#9;&#9;&#9;c-52.5-9.4-54.1,51.5-49.4,64.3C127.9,125.8,156,161.3,207.2,152.4z" class="st47_1548958899477" vector-effect="non-scaling-stroke"/>
				</g>
				<g>
					<path d="M209.6,173.6H168c-0.8,0-1.5-0.7-1.5-1.5l0,0c0-0.8,0.7-1.5,1.5-1.5h41.6c0.8,0,1.5,0.7,1.5,1.5l0,0&#10;&#9;&#9;&#9;&#9;&#9;&#9;C211.1,173.1,210.4,173.6,209.6,173.6z" class="st48_1548958899477" vector-effect="non-scaling-stroke"/>
					<rect height="29.7" width="42.8" class="st49_1548958899477" y="114.4" x="167.3" vector-effect="non-scaling-stroke"/>
					<path d="M197,118.6c-0.5,0-1.1,0.5-1.1,1.1c0,0.5,0.5,0.9,1.1,0.9h5.4l-14.1,13.2c-1.7-1.5-3.5-3-5.1-4.2&#10;&#9;&#9;&#9;&#9;&#9;&#9;c-0.1-0.3-0.5-0.3-0.8-0.3c-0.3,0-0.4,0.1-0.5,0.3l-9.7,8.7c-0.4,0.4-0.4,0.9,0,1.3c0.4,0.4,0.9,0.4,1.3,0l9-8.2l5.1,4.3&#10;&#9;&#9;&#9;&#9;&#9;&#9;c0.4,0.4,0.9,0.4,1.3,0l14.8-14v5.5c0,0.5,0.4,0.9,0.9,0.9s0.9-0.5,0.9-0.9v-7.8c0-0.5-0.4-0.9-0.9-0.9H197z" class="st50_1548958899477" vector-effect="non-scaling-stroke"/>
					<rect height="2.8" width="49.8" class="st51_1548958899477" y="111.7" x="164" vector-effect="non-scaling-stroke"/>
					<rect height="2.8" width="49.8" class="st51_1548958899477" y="143.9" x="164" vector-effect="non-scaling-stroke"/>
					<g>
						<path d="M171.9,172.8L171.9,172.8c-1.1-0.1-1.7-1.1-1.6-2.1l3.6-25.1l3.8,0.5l-3.6,25.1&#10;&#9;&#9;&#9;&#9;&#9;&#9;&#9;C173.8,172.3,172.8,172.9,171.9,172.8z" class="st51_1548958899477" vector-effect="non-scaling-stroke"/>
						<path d="M205.9,172.8L205.9,172.8c1.1-0.1,1.7-1.1,1.6-2.1l-3.6-25.1l-3.8,0.5l3.6,25.1&#10;&#9;&#9;&#9;&#9;&#9;&#9;&#9;C203.8,172.3,204.8,172.9,205.9,172.8z" class="st51_1548958899477" vector-effect="non-scaling-stroke"/>
					</g>
				</g>
				<g>
					<g>
						<path d="M125.2,136.8l2-1.7h1.5L125.2,136.8l-3.6-1.7c0,0,9.9-6.3,2,0.9l-2,0.5c0.1,0,1.3,4.7,1.5,4.7&#10;&#9;&#9;&#9;&#9;&#9;&#9;&#9;c0.3,0.1-0.3-0.1,0,0c0.5,0.3,1.2-0.3,1.7,0c1.1,0.5,3.8-3.1,4.7-2.4c2,1.3,0.5,5.5,2.4,7.1c3.8,3.2,2.8,12.1,5.6,16.2&#10;&#9;&#9;&#9;&#9;&#9;&#9;&#9;c2.8,4,5,8.6,6.6,13.4v0.1c1.2,3.9,8.6,3.1,9.7-1.2v-0.1c1.5-5.8,2.3-11.8,2.1-17.7c0-5.9-0.9-11.9-2.7-17.9&#10;&#9;&#9;&#9;&#9;&#9;&#9;&#9;c-0.8-3-1.9-5.8-3.2-8.7c-0.7-1.5-1.3-2.8-2.1-4.3c-0.4-0.7-0.8-1.5-1.3-2.1c-0.3-0.4-0.5-0.7-0.8-1.1&#10;&#9;&#9;&#9;&#9;&#9;&#9;&#9;c-0.1-0.1-0.3-0.4-0.4-0.5l-0.1-0.1l-0.1-0.1l-0.1-0.1l0,0l-0.1-0.1l-0.1-0.1L125.2,136.8z" class="st12_1548958899477" vector-effect="non-scaling-stroke"/>
						<circle r="1.6" cy="151.9" cx="152.4" class="st13_1548958899477" vector-effect="non-scaling-stroke"/>
						<circle r="0.9" cy="153.7" cx="139" class="st13_1548958899477" vector-effect="non-scaling-stroke"/>
					</g>
					<path d="M131,146.6c0,0,6.4,18.7,7,22.5l21.7-5.5c0,0-5.2-34.9-16.9-50.1L131,146.6z" class="st16_1548958899477" vector-effect="non-scaling-stroke"/>
					<path d="M133.7,177.5l-8.3,2.8c-5.2,1.7-11,1.7-16.2-0.1l-7.8-2.8l-7.4,2.3c-6.7,2.1-14,1.2-20-2.3l0,0l1.9-27.6&#10;&#9;&#9;&#9;&#9;&#9;&#9;l-8.7-39.2h74.6v6.2l-10.3,30.9L133.7,177.5z" class="st16_1548958899477" vector-effect="non-scaling-stroke"/>
					<path d="M138.4,120.7c0,0-22.3,21.6-37.6,26.2c0,0-17.2-6.7-29.1-19.5C67.3,122.9,138.4,120.7,138.4,120.7z" class="st12_1548958899477" vector-effect="non-scaling-stroke"/>
					<path d="M141.8,116.8c0,0-31.3,27-40.9,30.1l0.1,16.2l9-10.6l-5-5.8l8.7,5.2L141.8,116.8z" class="st52_1548958899477" vector-effect="non-scaling-stroke"/>
					<path d="M133.3,126.8l-1.5-1.7c-10.1,8.2-24.8,19.7-31,21.7v7.8l6.2-5.4l-2.1-2.6l3,1.9L133.3,126.8z" class="st53_1548958899477" vector-effect="non-scaling-stroke"/>
					<path d="M71.9,127.4c0,0,19.5,16.4,29.1,19.5l-0.1,16.2l-9-10.6l5-5.8l-8.7,5.2L71.9,127.4z" class="st52_1548958899477" vector-effect="non-scaling-stroke"/>
					<path d="M68.7,126.8l1.5-1.7c10.1,8.2,24.8,19.7,31,21.7v7.8l-6.2-5.4l2.1-2.6l-3,1.9L68.7,126.8z" class="st53_1548958899477" vector-effect="non-scaling-stroke"/>
					<path d="M101,146.9c0,0-0.4,11.1,0.1,30.5" class="st54_1548958899477" vector-effect="non-scaling-stroke"/>
					<polygon points="69.5,121.4 57.8,145.7 47.5,143.3 43.9,161 73.5,161 76.2,149.2" class="st16_1548958899477" vector-effect="non-scaling-stroke"/>
					<g>
						<g>
							<circle r="55.3" cy="80.7" cx="100.6" class="st55_1548958899477" vector-effect="non-scaling-stroke"/>
							<path d="M137.9,67.4c-1.2-6.8-3.9-12.6-7.5-17.3c-3.4-5.1-7.5-9-12.8-10.7c-5.8-2-11.5-2.8-16.9-2.6&#10;&#9;&#9;&#9;&#9;&#9;&#9;&#9;&#9;c-0.1,0-0.3,0-0.4,0c-0.3,0-0.4,0-0.7,0s-0.4,0-0.7,0s-0.4,0-0.7,0s-0.4,0-0.7,0s-0.4,0-0.7,0.1c-0.3,0-0.4,0-0.7,0.1&#10;&#9;&#9;&#9;&#9;&#9;&#9;&#9;&#9;c-0.1,0-0.3,0-0.4,0c-5.4,0.8-10.9,2.7-16.1,5.6C75,45.4,71.6,50,69.2,55.6c-2.7,5.2-4.3,11.4-4.3,18.3&#10;&#9;&#9;&#9;&#9;&#9;&#9;&#9;&#9;c-2.4,23.4,3.1,50.2,3.1,50.2l4.4,4.7l4.6,1.7l0.8,0.9l3.4,0.7l7.9,3.1l6.8-0.1l4.7,0.9l6.7-1.1l6.8-0.1l4.4-1.7l6.7-1.1&#10;&#9;&#9;&#9;&#9;&#9;&#9;&#9;&#9;l7.1-4.6l3.2-1.3l0.3-0.9l4.4-2.8l3.5-5.4C144.1,117.4,144.5,90,137.9,67.4z" class="st56_1548958899477" vector-effect="non-scaling-stroke"/>
							<g>
								<path d="M105.9,138.4c-15.2,1.3-29.9-3.1-41.7-12.8c-12.1-9.8-19.6-23.6-21.2-39.1&#10;&#9;&#9;&#9;&#9;&#9;&#9;&#9;&#9;&#9;C41.3,71.2,45.7,56,55.5,44.1C65.3,32,79.2,24.5,94.6,22.9c15.4-1.6,30.6,2.8,42.5,12.6c12.1,9.8,19.6,23.6,21.2,39.1l0,0&#10;&#9;&#9;&#9;&#9;&#9;&#9;&#9;&#9;&#9;c3.4,31.8-19.9,60.4-51.7,63.8C106.4,138.4,106.1,138.4,105.9,138.4z M95.9,28.3c-0.3,0-0.5,0-0.8,0.1&#10;&#9;&#9;&#9;&#9;&#9;&#9;&#9;&#9;&#9;c-14,1.5-26.6,8.3-35.3,19.2C51,58.5,46.9,72.1,48.4,86.1s8.3,26.6,19.2,35.3c10.7,8.7,24.2,12.8,37.8,11.5&#10;&#9;&#9;&#9;&#9;&#9;&#9;&#9;&#9;&#9;c0.3,0,0.5,0,0.8-0.1c28.9-3.1,49.8-29,46.7-57.8l0,0c-1.5-14-8.3-26.6-19.2-35.3C123.1,31.1,109.6,27,95.9,28.3z" class="st16_1548958899477" vector-effect="non-scaling-stroke"/>
							</g>
							<g>
								<path d="M92.4,54.3c-11.8,1.2-20.3,13.2-18.9,26.4c1.3,13.3,12.2,23.1,24,21.9c11.8-1.2,20.3-13.2,18.9-26.4&#10;&#9;&#9;&#9;&#9;&#9;&#9;&#9;&#9;&#9;C115,62.9,104.3,53.1,92.4,54.3z" class="st17_1548958899477" vector-effect="non-scaling-stroke"/>
							</g>
							
								<ellipse ry="6.7" rx="13.4" cy="68.3" cx="62.4" class="st16_1548958899477" transform="matrix(0.2506 -0.9681 0.9681 0.2506 -19.2881 111.5858)" vector-effect="non-scaling-stroke"/>
							<circle r="3.2" cy="105.2" cx="126.5" class="st18_1548958899477" vector-effect="non-scaling-stroke"/>
							<circle r="1.6" cy="113.6" cx="134.2" class="st18_1548958899477" vector-effect="non-scaling-stroke"/>
							<circle r="1.6" cy="44.4" cx="108.8" class="st18_1548958899477" vector-effect="non-scaling-stroke"/>
							<circle r="1.6" cy="121.8" cx="93.8" class="st18_1548958899477" vector-effect="non-scaling-stroke"/>
							<circle r="1.6" cy="102.1" cx="73.1" class="st18_1548958899477" vector-effect="non-scaling-stroke"/>
							<g>
								<path d="M93.4,63.8c-7.2,0.8-12.3,8.1-11.5,16.1c0.8,8.2,7.4,14.1,14.6,13.4c7.2-0.7,12.3-8.1,11.5-16.1&#10;&#9;&#9;&#9;&#9;&#9;&#9;&#9;&#9;&#9;C107.2,69.1,100.6,63,93.4,63.8z" class="st18_1548958899477" vector-effect="non-scaling-stroke"/>
							</g>
						</g>
					</g>
					<g>
						<g>
							<g>
								<path d="M78.1,94.7c0-2,0.5-4,1.9-5.5c1.3-1.5,3.1-2.4,5-2.4c1.9-0.1,3.8,0.7,5.1,2.1c1.3,1.3,2.1,3.4,2.1,5.4&#10;&#9;&#9;&#9;&#9;&#9;&#9;&#9;&#9;&#9;h-2.4c0-1.3-0.8-2.4-1.7-3.4c-0.8-0.8-1.9-1.3-3.1-1.2c-1.1,0-2.1,0.5-3,1.5c-0.8,0.9-1.5,2.1-1.5,3.5L78.1,94.7z" class="st51_1548958899477" vector-effect="non-scaling-stroke"/>
							</g>
							
								<ellipse ry="28.9" rx="26.4" cy="92.8" cx="117.1" class="st57_1548958899477" transform="matrix(0.9999 -1.305430e-02 1.305430e-02 0.9999 -1.2016 1.5371)" vector-effect="non-scaling-stroke"/>
							<g>
								<path d="M116.1,123c-6.7-0.3-12.9-3.2-17.9-8.2c-5.4-5.5-8.5-13-8.7-21.1s2.4-15.7,7.4-21.6&#10;&#9;&#9;&#9;&#9;&#9;&#9;&#9;&#9;&#9;c5.1-5.9,11.9-9.4,19.3-9.5c7.4-0.3,14.5,2.7,20,8.2c5.4,5.5,8.5,13,8.7,21.1l0,0c0.3,8.1-2.4,15.7-7.4,21.6&#10;&#9;&#9;&#9;&#9;&#9;&#9;&#9;&#9;&#9;c-5.1,5.9-11.9,9.4-19.3,9.5C117.4,123.1,116.7,123.1,116.1,123z M118.2,65.4c-0.7,0-1.2,0-1.9,0&#10;&#9;&#9;&#9;&#9;&#9;&#9;&#9;&#9;&#9;c-6.7,0.3-12.9,3.4-17.4,8.6c-4.6,5.4-7,12.3-6.7,19.7s3.1,14.1,7.9,19.2c4.8,5,11.3,7.7,17.9,7.4&#10;&#9;&#9;&#9;&#9;&#9;&#9;&#9;&#9;&#9;c6.7-0.3,12.9-3.4,17.4-8.6c4.6-5.4,7-12.3,6.7-19.7l0,0c-0.3-7.4-3.1-14.1-7.9-19.2C129.8,68.2,124.1,65.7,118.2,65.4z" class="st51_1548958899477" vector-effect="non-scaling-stroke"/>
							</g>
							
								<ellipse ry="28.9" rx="26.4" cy="95.1" cx="53" class="st57_1548958899477" transform="matrix(0.9999 -1.305430e-02 1.305430e-02 0.9999 -1.2368 0.6998)" vector-effect="non-scaling-stroke"/>
							<g>
								<path d="M51.9,125.3C37.6,124.8,25.7,112,25.2,96C24.7,79.4,36.7,65.3,52,64.8C67.3,64.2,80.2,77.4,80.8,94&#10;&#9;&#9;&#9;&#9;&#9;&#9;&#9;&#9;&#9;l0,0c0.3,8.1-2.4,15.7-7.4,21.6c-5.1,5.9-11.9,9.4-19.3,9.5C53.3,125.4,52.6,125.4,51.9,125.3z M53.9,67.7&#10;&#9;&#9;&#9;&#9;&#9;&#9;&#9;&#9;&#9;c-0.7,0-1.2,0-1.9,0C38.2,68.2,27.5,80.9,27.9,96c0.5,15.2,12.1,27,25.9,26.6c6.7-0.3,12.9-3.4,17.4-8.6&#10;&#9;&#9;&#9;&#9;&#9;&#9;&#9;&#9;&#9;c4.6-5.4,7-12.3,6.7-19.7l0,0C77.6,79.8,66.9,68.2,53.9,67.7z" class="st51_1548958899477" vector-effect="non-scaling-stroke"/>
							</g>
						</g>
						<path d="M139.8,77.5l6.7-4.2l3.4-2l0.4-0.3l0.3-0.1c0.1,0,0.1-0.1,0.3-0.1c0.1-0.1,0.4-0.1,0.5-0.3l0.5-0.3&#10;&#9;&#9;&#9;&#9;&#9;&#9;&#9;c0.8-0.3,1.6-0.5,2.4-0.5c0.8-0.1,1.6,0,2.4,0.1c0.8,0.1,1.6,0.4,2.4,0.8s1.5,0.8,2,1.3l0.4,0.4c0.1,0.1,0.3,0.3,0.4,0.4&#10;&#9;&#9;&#9;&#9;&#9;&#9;&#9;l0.1,0.3l0.1,0.1l0.3,0.4l5,6.2l-3.6,2.7l-4.6-6.3l-0.3-0.4l-0.1-0.1l-0.1-0.1c-0.1-0.1-0.1-0.1-0.3-0.3l-0.3-0.3&#10;&#9;&#9;&#9;&#9;&#9;&#9;&#9;c-0.4-0.3-0.7-0.7-1.1-0.8c-0.4-0.3-0.8-0.4-1.3-0.5c-0.4-0.1-0.9-0.1-1.5-0.1c-0.5,0-0.9,0.1-1.5,0.3l-0.4,0.1&#10;&#9;&#9;&#9;&#9;&#9;&#9;&#9;c-0.1,0-0.3,0.1-0.3,0.1s-0.1,0-0.1,0.1l-0.3,0.1l-0.4,0.3l-3.5,1.9l-6.8,3.8L139.8,77.5z" class="st51_1548958899477" vector-effect="non-scaling-stroke"/>
					</g>
					<g>
						<g>
							<path d="M68,153.6H39.6c-1.7,0-3.4-1.3-3.6-3.1l-6.7-40.8c-0.4-2.3,1.3-4.3,3.6-4.3h28.6c1.7,0,3.4,1.3,3.6,3.1&#10;&#9;&#9;&#9;&#9;&#9;&#9;&#9;&#9;l6.7,40.8C72,151.6,70.3,153.6,68,153.6z" class="st58_1548958899477" vector-effect="non-scaling-stroke"/>
						</g>
						<polygon points="29.9,106.9 28.3,108.8 30.8,108.8" class="st59_1548958899477" vector-effect="non-scaling-stroke"/>
						<polygon points="70.8,152.3 69.1,154.4 69,151.7" class="st58_1548958899477" vector-effect="non-scaling-stroke"/>
						<g>
							<path d="M67.1,154.6H38.5c-1.7,0-3.4-1.3-3.6-3.1l-6.7-40.8c-0.4-2.3,1.3-4.3,3.6-4.3h28.5&#10;&#9;&#9;&#9;&#9;&#9;&#9;&#9;&#9;c1.7,0,3.4,1.3,3.6,3.1l6.7,40.8C71,152.4,69.2,154.6,67.1,154.6z" class="st60_1548958899477" vector-effect="non-scaling-stroke"/>
						</g>
					</g>
					<path d="M66.5,155.5H38c-1.7,0-3.4-1.3-3.6-3.1l-6.7-40.8c-0.4-2.3,1.3-4.3,3.6-4.3h28.6c1.7,0,3.4,1.3,3.6,3.1&#10;&#9;&#9;&#9;&#9;&#9;&#9;l6.7,40.8C70.4,153.5,68.8,155.5,66.5,155.5z" class="st61_1548958899477" vector-effect="non-scaling-stroke"/>
					<path d="M42.8,166.1c0,0,3.2,5.5,11.1,6.3c7.9,0.8,18.4-3.8,19.3-11.4l-1.1-0.4c-3.6-1.2-7.7-1.2-11.3,0.3&#10;&#9;&#9;&#9;&#9;&#9;&#9;l-0.4,0.1C60.5,161,46.1,166.1,42.8,166.1z" class="st12_1548958899477" vector-effect="non-scaling-stroke"/>
					<g>
						<path d="M66,162.5c0.3-0.1,0.7-0.4-2.3-3c-6.2-5.9-12.8-20.4-13.8-24.2v-0.1c-0.8-3.1-6.4-2.6-7.5,0.7v0.1&#10;&#9;&#9;&#9;&#9;&#9;&#9;&#9;c-1.2,4.4-2.4,9-2.6,13.6s-0.3,6.4,0.8,11.5c0.9,3.2,2.4,5.6,4.6,7.5c6.3,2.7,5,1.3,4.8,1.3L66,162.5z" class="st12_1548958899477" vector-effect="non-scaling-stroke"/>
						<circle r="1.2" cy="165.6" cx="45.7" class="st13_1548958899477" vector-effect="non-scaling-stroke"/>
						<circle r="2.3" cy="155" cx="48.8" class="st13_1548958899477" vector-effect="non-scaling-stroke"/>
					</g>
					<rect height="3.4" width="13.3" class="st52_1548958899477" y="166.9" x="116.5" vector-effect="non-scaling-stroke"/>
					<rect height="3.4" width="13.3" class="st52_1548958899477" y="166.9" x="76.9" vector-effect="non-scaling-stroke"/>
					<polygon points="48.7,107.3 38.8,107.3 40.1,105.4 50.2,105.4" class="st62_1548958899477" vector-effect="non-scaling-stroke"/>
					<polygon points="49,110.1 39.3,110.1 38.8,107.3 48.7,107.3" class="st58_1548958899477" vector-effect="non-scaling-stroke"/>
				</g>
				<ellipse ry="3.8" rx="15.3" cy="188.6" cx="101.7" class="st63_1548958899477" vector-effect="non-scaling-stroke"/>
			</g>
		</g>
	</g>
</g></g></svg>