<?xml version="1.0" encoding="utf-8"?>
<!-- Generator: Adobe Illustrator 23.0.1, SVG Export Plug-In . SVG Version: 6.00 Build 0)  -->
<svg version="1.1" id="Camada_1" xmlns="http://www.w3.org/2000/svg" xmlns:xlink="http://www.w3.org/1999/xlink" x="0px" y="0px"
	 viewBox="0 0 255 255" style="enable-background:new 0 0 255 255;" xml:space="preserve">
<style type="text/css">
	.st0{fill:#9A8DF7;}
	.st1{fill:#7958ED;}
	.st2{fill:#FFFFFF;}
	.st3{fill:#F8F8F8;}
	.st4{fill:#5B3CCE;}
</style>
<g>
	<circle class="st0" cx="127.5" cy="127.5" r="119.7"/>
	<path class="st1" d="M50,216.3c0,0-15.5-140,39.3-164.6c58-26,118.1,8.7,114,76.4c-3.4,55.6-13.2,65.8-4.6,78.1l-11,27.1L142,247.3
		l-51.1-3.9l-32.8-16.7L50,216.3z"/>
	<path class="st1" d="M206.2,216.3c0,0,15.5-140-39.3-164.6c-58-26-118.1,8.7-114,76.4c3.4,55.6,8.3,69.8-0.3,82.1l15.9,23.2
		l45.6,13.9l51.1-3.9l32.8-16.7L206.2,216.3z"/>
	<g>
		<path class="st2" d="M127.4,253.2c-32.9,0-63.9-12.6-87.5-35.5c-24.1-23.4-37.6-54.8-38.1-88.3C1.4,95.7,14,64,37.4,39.9
			C60.8,15.9,92.1,2.3,125.7,1.8C159.2,1.3,191,14,215.1,37.4c24.1,23.4,37.6,54.8,38.1,88.3l0,0c1,69.3-54.6,126.5-123.9,127.5
			C128.7,253.2,128.1,253.2,127.4,253.2z M127.5,13.7c-0.6,0-1.1,0-1.7,0c-30.4,0.4-58.8,12.7-80,34.5c-21.2,21.8-32.6,50.6-32.2,81
			c0.4,30.4,12.7,58.8,34.5,80c21.4,20.8,49.5,32.2,79.3,32.2c0.6,0,1.1,0,1.7,0c62.8-0.9,113.1-52.7,112.2-115.4l0,0
			c-0.4-30.4-12.7-58.8-34.5-80C185.4,25.1,157.3,13.7,127.5,13.7z"/>
	</g>
	<g>
		<path class="st3" d="M126.8,77.5c-27.6,0.4-49.7,23.1-49.3,50.7c0.4,27.6,23.1,49.7,50.7,49.3c27.6-0.4,49.7-23.1,49.3-50.7
			C177.1,99.2,154.3,77.1,126.8,77.5z"/>
	</g>
	<ellipse transform="matrix(0.5666 -0.824 0.824 0.5666 -35.3153 80.6)" class="st2" cx="59" cy="73.9" rx="28.9" ry="14.5"/>
	<circle class="st4" cx="172.5" cy="188.1" r="6.6"/>
	<circle class="st4" cx="186.5" cy="206.9" r="3.3"/>
	<circle class="st4" cx="147.6" cy="60.1" r="3.3"/>
	<circle class="st4" cx="102.4" cy="216" r="3.3"/>
	<circle class="st4" cx="63.7" cy="171.8" r="3.3"/>
	<g>
		<path class="st4" d="M127.2,107.3c-11.1,0.2-20.1,9.3-19.9,20.5c0.2,11.1,9.3,20.1,20.5,19.9c11.1-0.2,20.1-9.3,19.9-20.5
			C147.5,116.1,138.3,107.2,127.2,107.3z"/>
	</g>
</g>
</svg>
