<?xml version="1.0" standalone="no"?>
<svg version="1.2" overflow="visible" preserveAspectRatio="none" viewBox="0 0 257 257" xml:space="preserve" y="0px" x="0px" xmlns:xlink="http://www.w3.org/1999/xlink" xmlns="http://www.w3.org/2000/svg" id="Camada_1_1548182070856" width="36" height="36"><g transform="translate(1, 1)"><style type="text/css">
	.st0_1548182070856{fill:#9A8DF7;}
	.st1_1548182070856{fill:#7958ED;}
	.st2_1548182070856{fill:#FFFFFF;}
	.st3_1548182070856{fill:#F8F8F8;}
	.st4_1548182070856{fill:#5B3CCE;}
</style><g>
	<circle r="119.7" cy="127.5" cx="127.5" class="st0_1548182070856" vector-effect="non-scaling-stroke"/>
	<path d="M50,216.3c0,0-15.5-140,39.3-164.6c58-26,118.1,8.7,114,76.4c-3.4,55.6-13.2,65.8-4.6,78.1l-11,27.1L142,247.3&#10;&#9;&#9;l-51.1-3.9l-32.8-16.7L50,216.3z" class="st1_1548182070856" vector-effect="non-scaling-stroke"/>
	<path d="M206.2,216.3c0,0,15.5-140-39.3-164.6c-58-26-118.1,8.7-114,76.4c3.4,55.6,8.3,69.8-0.3,82.1l15.9,23.2&#10;&#9;&#9;l45.6,13.9l51.1-3.9l32.8-16.7L206.2,216.3z" class="st1_1548182070856" vector-effect="non-scaling-stroke"/>
	<g>
		<path d="M127.4,253.2c-32.9,0-63.9-12.6-87.5-35.5c-24.1-23.4-37.6-54.8-38.1-88.3C1.4,95.7,14,64,37.4,39.9&#10;&#9;&#9;&#9;C60.8,15.9,92.1,2.3,125.7,1.8C159.2,1.3,191,14,215.1,37.4c24.1,23.4,37.6,54.8,38.1,88.3l0,0c1,69.3-54.6,126.5-123.9,127.5&#10;&#9;&#9;&#9;C128.7,253.2,128.1,253.2,127.4,253.2z M127.5,13.7c-0.6,0-1.1,0-1.7,0c-30.4,0.4-58.8,12.7-80,34.5c-21.2,21.8-32.6,50.6-32.2,81&#10;&#9;&#9;&#9;c0.4,30.4,12.7,58.8,34.5,80c21.4,20.8,49.5,32.2,79.3,32.2c0.6,0,1.1,0,1.7,0c62.8-0.9,113.1-52.7,112.2-115.4l0,0&#10;&#9;&#9;&#9;c-0.4-30.4-12.7-58.8-34.5-80C185.4,25.1,157.3,13.7,127.5,13.7z" class="st2_1548182070856" vector-effect="non-scaling-stroke"/>
	</g>
	<g>
		<path d="M126.8,77.5c-27.6,0.4-49.7,23.1-49.3,50.7c0.4,27.6,23.1,49.7,50.7,49.3c27.6-0.4,49.7-23.1,49.3-50.7&#10;&#9;&#9;&#9;C177.1,99.2,154.3,77.1,126.8,77.5z" class="st3_1548182070856" vector-effect="non-scaling-stroke"/>
	</g>
	<ellipse ry="14.5" rx="28.9" cy="73.9" cx="59" class="st2_1548182070856" transform="matrix(0.5666 -0.824 0.824 0.5666 -35.3153 80.6)" vector-effect="non-scaling-stroke"/>
	<circle r="6.6" cy="188.1" cx="172.5" class="st4_1548182070856" vector-effect="non-scaling-stroke"/>
	<circle r="3.3" cy="206.9" cx="186.5" class="st4_1548182070856" vector-effect="non-scaling-stroke"/>
	<circle r="3.3" cy="60.1" cx="147.6" class="st4_1548182070856" vector-effect="non-scaling-stroke"/>
	<circle r="3.3" cy="216" cx="102.4" class="st4_1548182070856" vector-effect="non-scaling-stroke"/>
	<circle r="3.3" cy="171.8" cx="63.7" class="st4_1548182070856" vector-effect="non-scaling-stroke"/>
	<g>
		<path d="M127.2,107.3c-11.1,0.2-20.1,9.3-19.9,20.5c0.2,11.1,9.3,20.1,20.5,19.9c11.1-0.2,20.1-9.3,19.9-20.5&#10;&#9;&#9;&#9;C147.5,116.1,138.3,107.2,127.2,107.3z" class="st4_1548182070856" vector-effect="non-scaling-stroke"/>
	</g>
</g></g></svg>