<?xml version="1.0" encoding="utf-8"?>
<!-- Generator: Adobe Illustrator 23.0.1, SVG Export Plug-In . SVG Version: 6.00 Build 0)  -->
<svg version="1.1" id="Camada_1" xmlns="http://www.w3.org/2000/svg" xmlns:xlink="http://www.w3.org/1999/xlink" x="0px" y="0px"
	 viewBox="0 0 500 500" style="enable-background:new 0 0 500 500;" xml:space="preserve">
<style type="text/css">
	.st0{fill:#9A8DF7;}
	.st1{fill:#7958ED;}
	.st2{fill:#F8F8F8;}
	.st3{fill:#5B3CCE;}
	.st4{fill:#FFFFFF;}
	.st5{fill:#D1D0DD;}
	.st6{fill:#868499;}
	.st7{fill:#5D5C70;}
	.st8{fill:#35343F;}
	.st9{fill:#E5E0AA;}
</style>
<rect x="0" class="st5" width="500" height="500"/>
<g>
	<path class="st6" d="M415.3,208.8C385.9,59.3,247.7,66,247.7,66S109.4,59.3,80,208.8C58.6,318.1,73.9,500,73.9,500h347.6
		C421.5,500,436.8,318.1,415.3,208.8z"/>
	<circle class="st7" cx="348.1" cy="394" r="14.7"/>
	<circle class="st7" cx="379.5" cy="436.2" r="7.3"/>
	<circle class="st7" cx="292.5" cy="108.3" r="7.3"/>
	<circle class="st7" cx="191.7" cy="456.5" r="7.3"/>
	<circle class="st7" cx="105.1" cy="357.9" r="7.3"/>
</g>
<path class="st8" d="M415.3,208.8c-1.2-5.9-2.5-11.5-4-17L379.5,54.2l-46.2,33.6l0,0c-43-23.8-85.7-21.8-85.7-21.8
	s-42.7-2.1-85.6,21.7l-46.1-33.5L84.3,190.9c-1.6,5.7-3,11.7-4.2,17.9c-9.4,48-11.8,110-11.4,164.5l130.8,40.9l50.6,37.7l50.6-37.7
	l126.1-40C427.1,319.5,424.8,257.1,415.3,208.8z"/>
<path class="st9" d="M359.1,251.7l-109.1,20l-113.6-20.9c-0.2,3.2-0.3,6.4-0.3,9.6c0.9,61.5,51.7,110.9,113.2,110
	c61.5-0.9,110.9-51.7,110-113.2C359.3,255.4,359.2,253.5,359.1,251.7z"/>
<path class="st7" d="M399.7,244.2c-0.7-4.1-4.7-6.8-8.7-6l-141,25.9l-141-25.9c-4.1-0.8-8,1.9-8.7,6s1.9,8,6,8.7l96.3,17.7
	c1,24.3,21.2,43.6,45.7,43.3c23.7-0.3,43-19.1,44.3-42.4l101-18.6C397.7,252.2,400.4,248.3,399.7,244.2z"/>
</svg>
