<?xml version="1.0" encoding="utf-8"?>
<!-- Generator: Adobe Illustrator 23.0.2, SVG Export Plug-In . SVG Version: 6.00 Build 0)  -->
<svg version="1.1" xmlns="http://www.w3.org/2000/svg" xmlns:xlink="http://www.w3.org/1999/xlink" x="0px" y="0px"
	 viewBox="0 0 712.3 199" style="enable-background:new 0 0 712.3 199;" xml:space="preserve">
<style type="text/css">
	.st0{fill:url(#SVGID_1_);}
	.st1{fill:url(#SVGID_2_);}
	.st2{display:none;fill:#303380;}
	.st3{fill:#303380;}
	.st4{fill:url(#SVGID_3_);}
	.st5{fill:url(#SVGID_4_);}
	.st6{opacity:0.6;}
	.st7{opacity:0.2;}
	.st8{fill:#FFFFFF;}
	.st9{opacity:0.15;}
	.st10{fill:none;}
	.st11{clip-path:url(#SVGID_6_);}
	.st12{fill:url(#SVGID_7_);}
	.st13{fill:url(#SVGID_8_);}
	.st14{fill:url(#SVGID_9_);}
	.st15{fill:url(#SVGID_10_);}
	.st16{fill:url(#SVGID_11_);}
	.st17{fill:#CF9F84;}
	.st18{fill:url(#SVGID_12_);}
	.st19{opacity:0.22;}
	.st20{opacity:7.000000e-02;}
	.st21{fill:#3737DC;}
	.st22{fill:#BE4CE4;}
	.st23{fill:#943AB9;}
	.st24{fill:#988BF5;}
	.st25{fill:#7958EB;}
	.st26{fill:#F7F7F7;}
	.st27{fill:#5B3CCD;}
	.st28{fill:#BEBEBE;}
	.st29{fill:url(#SVGID_13_);}
	.st30{fill:url(#SVGID_14_);}
	.st31{fill:url(#SVGID_15_);}
	.st32{fill:url(#SVGID_16_);}
	.st33{fill:url(#SVGID_17_);}
	.st34{fill:url(#SVGID_18_);}
	.st35{fill:url(#SVGID_19_);}
	.st36{fill:url(#SVGID_20_);}
	.st37{fill:url(#SVGID_21_);}
	.st38{fill:url(#SVGID_22_);}
	.st39{fill:url(#SVGID_23_);}
	.st40{fill:url(#SVGID_24_);}
	.st41{fill:url(#SVGID_25_);}
	.st42{fill:url(#SVGID_26_);}
	.st43{fill:url(#SVGID_27_);}
	.st44{fill:url(#SVGID_28_);}
	.st45{fill:url(#SVGID_29_);}
	.st46{fill:url(#SVGID_30_);}
	.st47{opacity:0.1;}
	.st48{fill:#1E31B6;}
	.st49{fill:#7637B6;}
	.st50{fill:#253AA5;}
	.st51{fill:#C85E76;}
	.st52{fill:#E7E6D0;}
	.st53{fill:#E4902F;}
	.st54{fill:#C67824;}
	.st55{fill:#E0E3EA;}
	.st56{fill:#2637C5;}
	.st57{fill:#253AA4;}
	.st58{fill:none;stroke:#2637C7;stroke-width:4;stroke-linecap:round;stroke-miterlimit:10;}
	.st59{fill:#15297A;}
	.st60{fill:none;stroke:#2637C7;stroke-width:7;stroke-linecap:round;stroke-miterlimit:10;}
	.st61{fill:#8F7DEE;}
	.st62{fill:#7447EC;}
	.st63{fill:none;stroke:#FFFFFF;stroke-width:9;stroke-miterlimit:10;}
	.st64{fill:#9D96F6;}
	.st65{fill:#7958EC;}
	.st66{fill:#998CF6;}
	.st67{fill:none;stroke:#FFFFFF;stroke-miterlimit:10;}
	.st68{opacity:0.3;}
	.st69{fill:url(#SVGID_31_);}
	.st70{opacity:0.9;fill:url(#SVGID_32_);enable-background:new    ;}
	.st71{fill:url(#SVGID_33_);}
	.st72{fill:url(#SVGID_34_);}
	.st73{fill:url(#SVGID_35_);}
	.st74{fill:url(#SVGID_36_);}
	.st75{opacity:0.15;fill:url(#SVGID_37_);}
	.st76{opacity:0.13;fill:url(#SVGID_38_);}
	.st77{opacity:0.15;fill:url(#SVGID_39_);}
	.st78{opacity:0.15;fill:url(#SVGID_40_);}
	.st79{opacity:0.13;fill:url(#SVGID_41_);}
	.st80{opacity:0.15;fill:url(#SVGID_42_);}
	.st81{opacity:0.15;fill:url(#SVGID_43_);}
	.st82{fill:#C729A6;}
	.st83{fill-rule:evenodd;clip-rule:evenodd;fill:#5FA5EB;}
	.st84{fill-rule:evenodd;clip-rule:evenodd;fill:#FCFCFC;}
	.st85{fill:#3C5A99;}
	.st86{fill-rule:evenodd;clip-rule:evenodd;fill:#25D266;}
	.st87{fill-rule:evenodd;clip-rule:evenodd;fill:#FFFFFF;}
	.st88{fill-rule:evenodd;clip-rule:evenodd;fill:#0560E1;}
	.st89{fill:#FCFCFC;}
	.st90{fill:#F8F8F8;}
	.st91{fill:#4693F6;}
	.st92{fill:#294EA1;}
	.st93{fill:#DDEDF9;}
	.st94{fill:#CDCDCD;}
	.st95{fill:#C5C5C5;}
	.st96{fill:#EEF4F8;}
	.st97{fill:#E0E0F8;}
	.st98{fill:#E9D80C;}
	.st99{clip-path:url(#SVGID_45_);}
	.st100{opacity:0.25;fill:#57CEB7;enable-background:new    ;}
	.st101{opacity:0.6;fill:#57CEB7;enable-background:new    ;}
	.st102{clip-path:url(#SVGID_47_);}
	.st103{opacity:0.1;fill:#020202;enable-background:new    ;}
	.st104{fill:#FDFFFF;}
	.st105{fill:#FF4C06;}
	.st106{fill:#564039;}
	.st107{clip-path:url(#SVGID_49_);}
	.st108{fill:#EAEAEA;}
	.st109{fill:#DCDEE2;}
	.st110{fill:none;stroke:#DCDEE2;stroke-width:3;stroke-miterlimit:10;}
	.st111{opacity:0.5;fill:#CACAF9;enable-background:new    ;}
	.st112{fill:#E5E5E5;}
	.st113{fill:#DB825E;}
	.st114{fill:#B75B42;}
	.st115{fill:#E29874;}
	.st116{fill:#919191;}
	.st117{opacity:0.1;clip-path:url(#SVGID_51_);fill-rule:evenodd;clip-rule:evenodd;fill:#020202;enable-background:new    ;}
	.st118{opacity:0.2;clip-path:url(#SVGID_53_);fill:url(#SVGID_54_);enable-background:new    ;}
	.st119{clip-path:url(#SVGID_56_);}
	.st120{opacity:0.8;fill:url(#SVGID_57_);enable-background:new    ;}
	.st121{opacity:0.2;fill:url(#SVGID_58_);enable-background:new    ;}
	.st122{opacity:0.7;fill:url(#SVGID_59_);enable-background:new    ;}
	.st123{fill:url(#SVGID_60_);}
	.st124{opacity:0.9;fill:url(#SVGID_61_);enable-background:new    ;}
	.st125{opacity:0.5;fill:url(#SVGID_62_);enable-background:new    ;}
	.st126{fill-rule:evenodd;clip-rule:evenodd;fill:#5FA6EC;}
	.st127{fill-rule:evenodd;clip-rule:evenodd;fill:#FDFDFD;}
	.st128{fill:url(#SVGID_63_);}
	.st129{fill:url(#SVGID_64_);}
	.st130{fill:url(#SVGID_65_);}
	.st131{fill:url(#SVGID_66_);}
	.st132{opacity:0.3;fill:url(#SVGID_67_);enable-background:new    ;}
	.st133{opacity:0.3;fill:url(#SVGID_68_);enable-background:new    ;}
	.st134{fill:#25D366;}
	.st135{fill:#444444;}
</style>
<g id="Camada_1">
</g>
<g id="Camada_2">
	<g>
		<g>
			<g>
				<path class="st22" d="M89.2,138.4L89.2,138.4l0-0.1l0,0L89.2,138.4c-0.1-0.1-0.1-0.1-0.1-0.1l0,0.1c-0.1,0.1-0.1,0.2-0.2,0.4
					c-0.1,0.3-0.2,0.6-0.4,0.9c-0.2,0.6-0.5,1.3-0.7,2c-0.4,1.4-0.8,2.8-1.1,4.3c-0.6,2.9-1.1,6-1.3,9c-0.5,6.1-0.2,12.2,0.9,18.2
					c1.1,6,3.1,11.9,5.9,17.6c0,0.1,0.1,0.1,0.1,0.2c2.3,4.5-4.9,10.1-9.6,7.3c-0.1,0-0.1-0.1-0.2-0.1c-6.3-3.8-12.2-8.4-17.3-13.7
					c-5.1-5.3-9.5-11.3-13.1-17.9c-1.8-3.3-3.4-6.8-4.7-10.4c-0.7-1.8-1.3-3.7-1.8-5.7c-0.3-1-0.5-2-0.7-3.1
					c-0.1-0.5-0.2-1.1-0.3-1.6c0-0.3-0.1-0.6-0.1-0.9l0-0.2l0-0.3l0-0.3l0-0.1l0-0.1l0-0.3L89.2,138.4z"/>
				<path class="st22" d="M61.8,132.5L61.8,132.5l0-0.1l0,0l-0.1,0c0,0,0,0-0.1,0l-0.1,0.1c-0.1,0.1-0.2,0.1-0.3,0.2
					c-0.2,0.2-0.5,0.4-0.7,0.6c-0.5,0.5-1,1-1.5,1.5c-1,1.1-2,2.2-2.9,3.4c-1.9,2.3-3.6,4.9-5.2,7.5c-3.2,5.2-5.7,10.8-7.4,16.7
					c-1.7,5.9-2.6,12-2.7,18.3c0,0.1,0,0.1,0,0.2c0,5.1-8.9,6.8-11.8,2.3c0-0.1-0.1-0.1-0.1-0.2c-3.9-6.2-7.1-12.9-9.3-20
					c-2.2-7-3.4-14.4-3.6-21.9c-0.1-3.8,0-7.6,0.5-11.4c0.2-1.9,0.5-3.9,0.9-5.9c0.2-1,0.4-2,0.7-3.1c0.1-0.5,0.3-1.1,0.5-1.6
					c0.1-0.3,0.2-0.6,0.3-0.9L19,118l0.1-0.3l0.1-0.3l0-0.1l0.1-0.1l0.1-0.2L61.8,132.5z"/>
				<path class="st22" d="M113.9,124.9L113.9,124.9l-0.1-0.1l0,0l0,0.1c0,0,0,0,0,0.1l0,0.1c0,0.1,0,0.3,0,0.4c0,0.3,0,0.6,0,1
					c0,0.7,0.1,1.4,0.2,2.1c0.2,1.4,0.4,2.9,0.7,4.4c0.6,3,1.4,5.9,2.4,8.8c2,5.8,4.7,11.3,8.1,16.4c3.4,5.1,7.6,9.7,12.4,13.8
					c0,0,0.1,0.1,0.1,0.1c3.9,3.2-0.5,11.2-5.8,10.5c-0.1,0-0.2,0-0.2,0c-7.3-1-14.5-2.8-21.3-5.7c-6.8-2.8-13.2-6.6-19.1-11.2
					c-3-2.3-5.8-4.9-8.5-7.7c-1.3-1.4-2.6-2.9-3.9-4.5c-0.6-0.8-1.3-1.6-1.9-2.5c-0.3-0.4-0.6-0.9-0.9-1.4c-0.2-0.2-0.3-0.5-0.5-0.8
					l-0.1-0.2l-0.1-0.2l-0.1-0.3l0-0.1l-0.1-0.1l-0.1-0.2L113.9,124.9z"/>
				<circle class="st23" cx="115.1" cy="162.5" r="2"/>
				<circle class="st23" cx="98.5" cy="161.5" r="1.2"/>
				<circle class="st23" cx="35.6" cy="159.9" r="2"/>
				<circle class="st23" cx="54.2" cy="159.8" r="2"/>
				<circle class="st23" cx="69.5" cy="168.9" r="3.7"/>
			</g>
			<g>
				<g>
					<circle class="st64" cx="81.4" cy="81.4" r="77.3"/>
				</g>
				<g>
					<path class="st65" d="M17.7,122.9c0,0,14.9-89.7,53.3-95.3c40.6-6,71.8,26.1,57.4,67.4c-11.9,33.9-12,43.4-8.9,52.6l-19.3,10.1
						l-30.8,0.6l-31-11.4l-17.5-16.1L17.7,122.9z"/>
				</g>
				<g>
					<path class="st8" d="M81.4,162.7c-6.9,0-14-0.9-21-2.8c-21-5.6-38.5-19-49.4-37.8C0.1,103.3-2.8,81.4,2.8,60.4
						c5.6-21,19-38.5,37.8-49.4C59.4,0.1,81.4-2.8,102.3,2.8c43.3,11.6,69.2,56.2,57.6,99.6l0,0C150.3,138.7,117.3,162.7,81.4,162.7
						z M81.3,8.1C68.5,8.1,56,11.5,44.7,18c-16.9,9.8-29,25.6-34.1,44.5c-5,18.9-2.4,38.6,7.4,55.5c9.8,16.9,25.6,29,44.5,34.1
						c39,10.4,79.2-12.9,89.6-51.9c10.4-39-12.9-79.2-51.9-89.6C94,9,87.6,8.1,81.3,8.1z"/>
				</g>
				<g>
					<g>
						<path class="st26" d="M89.7,50.2c-17.2-4.6-34.9,5.7-39.5,22.8c-4.6,17.2,5.7,34.9,22.8,39.5s34.9-5.7,39.5-22.8
							C117.1,72.5,106.9,54.8,89.7,50.2z"/>
					</g>
					<g>
						<g>
							<path class="st27" d="M91.5,89.5c-0.2,0-0.4,0-0.7-0.1c-1.4-0.4-2.2-1.8-1.8-3.1c0.6-2.2,0.3-4.6-0.9-6.6
								c-1.2-2-3-3.5-5.3-4.1c-2.2-0.6-4.6-0.3-6.6,0.9c-2,1.2-3.5,3-4.1,5.3c-0.4,1.4-1.8,2.2-3.1,1.8c-1.4-0.4-2.2-1.8-1.8-3.1
								c0.9-3.6,3.2-6.5,6.4-8.4s6.9-2.3,10.5-1.4c7.4,2,11.7,9.5,9.8,16.9C93.7,88.8,92.7,89.5,91.5,89.5z"/>
						</g>
					</g>
				</g>
				<g>
					
						<ellipse transform="matrix(0.7691 -0.6391 0.6391 0.7691 -11.9063 39.1293)" class="st8" cx="48.2" cy="36" rx="18.7" ry="9.3"/>
				</g>
				<g>
					<circle class="st27" cx="98.7" cy="126.9" r="4.2"/>
				</g>
				<g>
					<circle class="st27" cx="104.1" cy="141.1" r="2.1"/>
				</g>
				<g>
					<circle class="st27" cx="105.7" cy="43" r="2.1"/>
				</g>
				<g>
					<circle class="st27" cx="50.3" cy="132" r="2.1"/>
				</g>
				<g>
					<circle class="st27" cx="33.9" cy="97.7" r="2.1"/>
				</g>
			</g>
		</g>
		<g>
			<g>
				<path class="st8" d="M214.4,115.7V46.2h23.8c17.1,0,29.7,4.4,29.7,17.9c0,5.7-2.9,11.3-8.8,14.3c8,2.4,12.4,8.1,12.4,16.3
					c0,14.5-12.6,21-31.1,21H214.4z M229.9,73.4h7.2c10.7,0,14.2-2.9,14.2-7.8c0-4.6-3.7-6.7-14-6.7h-7.4V73.4z M229.9,102.9h8.9
					c11.7,0,17-3.1,17-9.2c0-5.4-5-8.3-17-8.3h-8.9V102.9z"/>
				<path class="st8" d="M277.6,89.6c0-17.2,12.5-27.4,28-27.4c15.5,0,28.1,10.2,28.1,27.4c0,17.1-12.5,27.3-28.1,27.3
					C290.2,116.9,277.6,106.7,277.6,89.6z M293.7,89.6c0,9,4.8,14.1,11.9,14.1s12-5.1,12-14.1c0-9.1-4.9-14.2-12-14.2
					S293.7,80.5,293.7,89.6z"/>
				<path class="st8" d="M345.4,97.9V76.3H338V64.1l8.2-0.5l1.5-14.3h15.8v14.2h13.9v12.9h-13.9v20.8c0,5.1,2.2,6.8,6.4,6.8
					c1.5,0,3.5-0.5,4.8-1.1l1.8-0.7l2.9,12.3l-1.4,0.4c-3,1-6.8,2-11.2,2C350.4,116.9,345.4,108.8,345.4,97.9z"/>
				<path class="st8" d="M382.5,105.3l9.2-10.8l1.3,1.2c5,4.5,12.1,7.4,18.6,7.4c8.3,0,11.7-2.9,11.7-6.9c0-4.4-3.6-5.6-10.8-8.3
					l-10.6-3.9c-7.7-2.8-15.6-8.4-15.6-18.9c0-11.5,10.8-20.1,26.7-20.1c9.5,0,18.2,3.5,23.9,9.2l1.1,1.1l-8.2,10.2l-1.3-1
					c-4.6-3.6-9.4-5.6-15.5-5.6c-6.9,0-10.4,2.6-10.4,6.3c0,3.9,4.6,5.5,11.3,7.9l10.5,3.7c8.7,3.4,15.3,8.9,15.3,19.2
					c0,11.7-10.3,21-28.2,21c-10.8,0-20.9-3.8-27.8-10.6L382.5,105.3z"/>
				<path class="st8" d="M445,89.6c0-17.3,13.1-27.4,30.1-27.4c8,0,13.5,2.9,17.2,6.5l1.1,1L485.6,80l-1.3-1.2
					c-2.6-2.3-5.2-3.4-8.5-3.4c-8.5,0-14.7,5.3-14.7,14.2c0,8.8,6.1,14.1,14.2,14.1c4.2,0,7.9-1.9,10.6-4.1l1.3-1.1l6.9,10.4
					l-1.1,0.8c-5.2,4.6-11.8,7.1-19.1,7.1C456.7,116.9,445,106.7,445,89.6z"/>
				<path class="st8" d="M501.8,115.7v-75h15.4v20.9l-0.3,6.4c4.8-3.3,10.4-5.7,17.7-5.7c12.6,0,18.1,8.3,18.1,21v32.4h-15.4V85.4
					c0-7.7-2.3-9.5-7.9-9.5c-4.5,0-7.4,1.5-12.2,5.1v34.6H501.8z"/>
				<path class="st8" d="M561.9,89.6c0-17.2,12.5-27.4,28-27.4c15.5,0,28.1,10.2,28.1,27.4c0,17.1-12.5,27.3-28.1,27.3
					C574.5,116.9,561.9,106.7,561.9,89.6z M578,89.6c0,9,4.8,14.1,11.9,14.1s12-5.1,12-14.1c0-9.1-4.9-14.2-12-14.2
					S578,80.5,578,89.6z"/>
				<path class="st8" d="M624.5,89.6c0-17.2,12.5-27.4,28-27.4c15.5,0,28.1,10.2,28.1,27.4c0,17.1-12.5,27.3-28.1,27.3
					C637.1,116.9,624.5,106.7,624.5,89.6z M640.6,89.6c0,9,4.8,14.1,11.9,14.1c7.1,0,12-5.1,12-14.1c0-9.1-4.9-14.2-12-14.2
					C645.3,75.4,640.6,80.5,640.6,89.6z"/>
				<path class="st8" d="M690.5,101.3V40.6h15.4v60.8c0,2.3,1,2.3,1.1,2.3c0.5,0,0.7,0,1.6-0.2l1.6-0.3l2.1,12l-1.2,0.5
					c-1.8,0.7-4.1,1.2-7.1,1.2C694.2,116.9,690.5,110.4,690.5,101.3z"/>
			</g>
		</g>
		<g>
			<g>
				<path class="st8" d="M231.3,144.7l-8.7,21.3h-3.4l-8.7-21.3h3c0.3,0,0.6,0.1,0.8,0.2c0.2,0.2,0.3,0.3,0.4,0.5l5.4,13.7
					c0.2,0.5,0.3,1,0.4,1.5c0.1,0.5,0.2,1,0.4,1.5c0.1-0.5,0.2-1,0.4-1.5s0.3-1,0.5-1.5l5.5-13.7c0.1-0.2,0.2-0.4,0.4-0.6
					c0.2-0.1,0.4-0.2,0.7-0.2H231.3z"/>
				<path class="st8" d="M239.5,138c0,0.4-0.1,0.7-0.2,1c-0.1,0.3-0.3,0.6-0.6,0.8s-0.5,0.4-0.9,0.6c-0.3,0.1-0.7,0.2-1,0.2
					c-0.4,0-0.7-0.1-1-0.2c-0.3-0.1-0.6-0.3-0.8-0.6s-0.4-0.5-0.6-0.8s-0.2-0.7-0.2-1s0.1-0.7,0.2-1s0.3-0.6,0.6-0.9
					s0.5-0.4,0.8-0.6s0.7-0.2,1-0.2c0.4,0,0.7,0.1,1,0.2s0.6,0.3,0.9,0.6s0.4,0.5,0.6,0.9C239.4,137.3,239.5,137.6,239.5,138z
					 M238.7,144.7V166H235v-21.3H238.7z"/>
				<path class="st8" d="M248.4,149c0.7-1.5,1.5-2.6,2.5-3.4c1-0.8,2.2-1.2,3.6-1.2c0.4,0,0.9,0,1.3,0.1s0.8,0.3,1.1,0.5l-0.3,2.8
					c-0.1,0.4-0.3,0.5-0.6,0.5c-0.2,0-0.5,0-0.9-0.1s-0.8-0.1-1.3-0.1c-0.7,0-1.3,0.1-1.8,0.3c-0.5,0.2-1,0.5-1.4,0.9
					c-0.4,0.4-0.8,0.9-1.1,1.4c-0.3,0.6-0.6,1.2-0.9,1.9V166h-3.8v-21.3h2.1c0.4,0,0.7,0.1,0.8,0.2c0.2,0.2,0.3,0.4,0.3,0.8
					L248.4,149z"/>
				<path class="st8" d="M266.7,166.3c-1.7,0-3-0.5-3.9-1.4c-0.9-0.9-1.4-2.3-1.4-4.1v-13h-2.6c-0.2,0-0.4-0.1-0.6-0.2
					c-0.2-0.1-0.2-0.3-0.2-0.6v-1.5l3.5-0.4l0.9-6.6c0-0.2,0.1-0.4,0.3-0.5s0.3-0.2,0.6-0.2h1.9v7.3h6.2v2.7h-6.2v12.8
					c0,0.9,0.2,1.6,0.7,2c0.4,0.4,1,0.7,1.7,0.7c0.4,0,0.7-0.1,1-0.2c0.3-0.1,0.5-0.2,0.7-0.3s0.4-0.2,0.5-0.3
					c0.1-0.1,0.3-0.2,0.4-0.2c0.2,0,0.4,0.1,0.5,0.4l1.1,1.8c-0.6,0.6-1.4,1.1-2.3,1.4S267.7,166.3,266.7,166.3z"/>
				<path class="st8" d="M292.7,144.7V166h-2.2c-0.5,0-0.9-0.3-1-0.8l-0.3-2.3c-0.9,1-2,1.8-3.1,2.5c-1.1,0.6-2.5,0.9-4,0.9
					c-1.2,0-2.2-0.2-3.1-0.6c-0.9-0.4-1.6-0.9-2.2-1.6c-0.6-0.7-1.1-1.5-1.4-2.5s-0.5-2.1-0.5-3.3v-13.6h3.7v13.6
					c0,1.6,0.4,2.9,1.1,3.7c0.7,0.9,1.9,1.3,3.4,1.3c1.1,0,2.1-0.3,3.1-0.8c1-0.5,1.8-1.3,2.7-2.2v-15.7H292.7z"/>
				<path class="st8" d="M298.1,147.7c1.2-1.1,2.4-2,3.8-2.5s2.9-0.8,4.5-0.8c1.2,0,2.2,0.2,3.2,0.6c0.9,0.4,1.7,0.9,2.3,1.6
					c0.6,0.7,1.1,1.5,1.4,2.5c0.3,1,0.5,2.1,0.5,3.3V166h-1.7c-0.4,0-0.6-0.1-0.8-0.2c-0.2-0.1-0.3-0.4-0.5-0.7l-0.4-2
					c-0.6,0.5-1.1,1-1.6,1.4s-1.1,0.7-1.7,1c-0.6,0.3-1.2,0.5-1.9,0.6c-0.7,0.1-1.4,0.2-2.2,0.2c-0.8,0-1.6-0.1-2.3-0.3
					c-0.7-0.2-1.4-0.6-1.9-1s-1-1-1.3-1.8c-0.3-0.7-0.5-1.5-0.5-2.5c0-0.8,0.2-1.7,0.7-2.4c0.5-0.8,1.2-1.5,2.2-2.1
					c1-0.6,2.4-1.1,4.1-1.5c1.7-0.4,3.7-0.6,6.1-0.7v-1.7c0-1.7-0.4-2.9-1.1-3.8s-1.8-1.3-3.1-1.3c-0.9,0-1.7,0.1-2.3,0.3
					c-0.6,0.2-1.2,0.5-1.6,0.8c-0.5,0.3-0.8,0.5-1.2,0.8c-0.3,0.2-0.7,0.3-1,0.3c-0.3,0-0.5-0.1-0.7-0.2c-0.2-0.1-0.3-0.3-0.5-0.5
					L298.1,147.7z M310.2,156.4c-1.7,0.1-3.2,0.2-4.4,0.4c-1.2,0.2-2.2,0.5-3,0.9c-0.8,0.4-1.3,0.8-1.7,1.2s-0.5,1-0.5,1.6
					c0,0.6,0.1,1,0.3,1.5c0.2,0.4,0.4,0.7,0.7,1c0.3,0.3,0.7,0.4,1.1,0.6c0.4,0.1,0.9,0.2,1.4,0.2c0.7,0,1.3-0.1,1.8-0.2
					s1.1-0.3,1.5-0.6c0.5-0.3,0.9-0.6,1.4-0.9s0.9-0.8,1.3-1.2V156.4z"/>
				<path class="st8" d="M323.4,135v31h-3.7v-31H323.4z"/>
				<path class="st8" d="M339.7,147.7c1.2-1.1,2.4-2,3.8-2.5s2.9-0.8,4.5-0.8c1.2,0,2.2,0.2,3.2,0.6c0.9,0.4,1.7,0.9,2.3,1.6
					c0.6,0.7,1.1,1.5,1.4,2.5c0.3,1,0.5,2.1,0.5,3.3V166h-1.7c-0.4,0-0.6-0.1-0.8-0.2c-0.2-0.1-0.3-0.4-0.5-0.7l-0.4-2
					c-0.6,0.5-1.1,1-1.6,1.4s-1.1,0.7-1.7,1c-0.6,0.3-1.2,0.5-1.9,0.6c-0.7,0.1-1.4,0.2-2.2,0.2c-0.8,0-1.6-0.1-2.3-0.3
					c-0.7-0.2-1.4-0.6-1.9-1s-1-1-1.3-1.8c-0.3-0.7-0.5-1.5-0.5-2.5c0-0.8,0.2-1.7,0.7-2.4c0.5-0.8,1.2-1.5,2.2-2.1
					c1-0.6,2.4-1.1,4.1-1.5c1.7-0.4,3.7-0.6,6.1-0.7v-1.7c0-1.7-0.4-2.9-1.1-3.8s-1.8-1.3-3.1-1.3c-0.9,0-1.7,0.1-2.3,0.3
					c-0.6,0.2-1.2,0.5-1.6,0.8c-0.5,0.3-0.8,0.5-1.2,0.8c-0.3,0.2-0.7,0.3-1,0.3c-0.3,0-0.5-0.1-0.7-0.2c-0.2-0.1-0.3-0.3-0.5-0.5
					L339.7,147.7z M351.8,156.4c-1.7,0.1-3.2,0.2-4.4,0.4c-1.2,0.2-2.2,0.5-3,0.9c-0.8,0.4-1.3,0.8-1.7,1.2s-0.5,1-0.5,1.6
					c0,0.6,0.1,1,0.3,1.5c0.2,0.4,0.4,0.7,0.7,1c0.3,0.3,0.7,0.4,1.1,0.6c0.4,0.1,0.9,0.2,1.4,0.2c0.7,0,1.3-0.1,1.8-0.2
					s1.1-0.3,1.5-0.6c0.5-0.3,0.9-0.6,1.4-0.9s0.9-0.8,1.3-1.2V156.4z"/>
				<path class="st8" d="M373.5,148.2c-0.2,0.3-0.4,0.5-0.8,0.5c-0.2,0-0.4-0.1-0.7-0.2c-0.3-0.2-0.6-0.3-1-0.5
					c-0.4-0.2-0.8-0.4-1.4-0.5c-0.5-0.2-1.2-0.2-1.9-0.2c-0.6,0-1.2,0.1-1.7,0.2c-0.5,0.2-0.9,0.4-1.3,0.7s-0.6,0.6-0.8,1
					c-0.2,0.4-0.3,0.8-0.3,1.2c0,0.5,0.2,1,0.5,1.4c0.3,0.4,0.7,0.7,1.2,0.9c0.5,0.3,1.1,0.5,1.8,0.7s1.3,0.4,2,0.7
					c0.7,0.2,1.4,0.5,2,0.8c0.7,0.3,1.2,0.6,1.8,1.1c0.5,0.4,0.9,0.9,1.2,1.5s0.5,1.3,0.5,2.2c0,1-0.2,1.9-0.5,2.7
					c-0.3,0.8-0.9,1.6-1.6,2.2c-0.7,0.6-1.5,1.1-2.5,1.4c-1,0.4-2.1,0.5-3.4,0.5c-1.5,0-2.8-0.2-4-0.7s-2.2-1.1-3.1-1.9l0.9-1.4
					c0.1-0.2,0.2-0.3,0.4-0.4c0.2-0.1,0.3-0.1,0.6-0.1c0.3,0,0.5,0.1,0.8,0.3c0.3,0.2,0.6,0.4,1,0.7c0.4,0.2,0.9,0.5,1.5,0.7
					s1.3,0.3,2.1,0.3c0.7,0,1.4-0.1,1.9-0.3c0.5-0.2,1-0.4,1.4-0.8c0.4-0.3,0.6-0.7,0.8-1.1c0.2-0.4,0.3-0.9,0.3-1.3
					c0-0.6-0.2-1.1-0.5-1.5c-0.3-0.4-0.7-0.7-1.2-1c-0.5-0.3-1.1-0.5-1.8-0.7c-0.7-0.2-1.3-0.4-2-0.6c-0.7-0.2-1.4-0.5-2-0.8
					c-0.7-0.3-1.3-0.6-1.8-1.1c-0.5-0.4-0.9-1-1.2-1.6c-0.3-0.6-0.5-1.4-0.5-2.3c0-0.8,0.2-1.6,0.5-2.3c0.3-0.8,0.8-1.4,1.5-2
					s1.4-1,2.4-1.4c0.9-0.3,2-0.5,3.2-0.5c1.4,0,2.7,0.2,3.8,0.7c1.1,0.4,2.1,1,2.9,1.8L373.5,148.2z"/>
				<path class="st8" d="M391.7,148.2c-0.2,0.3-0.4,0.5-0.8,0.5c-0.2,0-0.4-0.1-0.7-0.2c-0.3-0.2-0.6-0.3-1-0.5
					c-0.4-0.2-0.8-0.4-1.4-0.5c-0.5-0.2-1.2-0.2-1.9-0.2c-0.6,0-1.2,0.1-1.7,0.2c-0.5,0.2-0.9,0.4-1.3,0.7s-0.6,0.6-0.8,1
					c-0.2,0.4-0.3,0.8-0.3,1.2c0,0.5,0.2,1,0.5,1.4c0.3,0.4,0.7,0.7,1.2,0.9c0.5,0.3,1.1,0.5,1.8,0.7s1.3,0.4,2,0.7
					c0.7,0.2,1.4,0.5,2,0.8c0.7,0.3,1.2,0.6,1.8,1.1c0.5,0.4,0.9,0.9,1.2,1.5s0.5,1.3,0.5,2.2c0,1-0.2,1.9-0.5,2.7
					c-0.3,0.8-0.9,1.6-1.6,2.2c-0.7,0.6-1.5,1.1-2.5,1.4c-1,0.4-2.1,0.5-3.4,0.5c-1.5,0-2.8-0.2-4-0.7s-2.2-1.1-3.1-1.9l0.9-1.4
					c0.1-0.2,0.2-0.3,0.4-0.4c0.2-0.1,0.3-0.1,0.6-0.1c0.3,0,0.5,0.1,0.8,0.3c0.3,0.2,0.6,0.4,1,0.7c0.4,0.2,0.9,0.5,1.5,0.7
					s1.3,0.3,2.1,0.3c0.7,0,1.4-0.1,1.9-0.3c0.5-0.2,1-0.4,1.4-0.8c0.4-0.3,0.6-0.7,0.8-1.1c0.2-0.4,0.3-0.9,0.3-1.3
					c0-0.6-0.2-1.1-0.5-1.5c-0.3-0.4-0.7-0.7-1.2-1c-0.5-0.3-1.1-0.5-1.8-0.7c-0.7-0.2-1.3-0.4-2-0.6c-0.7-0.2-1.4-0.5-2-0.8
					c-0.7-0.3-1.3-0.6-1.8-1.1c-0.5-0.4-0.9-1-1.2-1.6c-0.3-0.6-0.5-1.4-0.5-2.3c0-0.8,0.2-1.6,0.5-2.3c0.3-0.8,0.8-1.4,1.5-2
					s1.4-1,2.4-1.4c0.9-0.3,2-0.5,3.2-0.5c1.4,0,2.7,0.2,3.8,0.7c1.1,0.4,2.1,1,2.9,1.8L391.7,148.2z"/>
				<path class="st8" d="M402.3,138c0,0.4-0.1,0.7-0.2,1s-0.3,0.6-0.6,0.8c-0.2,0.2-0.5,0.4-0.9,0.6c-0.3,0.1-0.7,0.2-1,0.2
					s-0.7-0.1-1-0.2c-0.3-0.1-0.6-0.3-0.8-0.6s-0.4-0.5-0.6-0.8c-0.1-0.3-0.2-0.7-0.2-1s0.1-0.7,0.2-1c0.1-0.3,0.3-0.6,0.6-0.9
					s0.5-0.4,0.8-0.6c0.3-0.1,0.7-0.2,1-0.2s0.7,0.1,1,0.2c0.3,0.1,0.6,0.3,0.9,0.6c0.2,0.2,0.4,0.5,0.6,0.9S402.3,137.6,402.3,138z
					 M401.5,144.7V166h-3.7v-21.3H401.5z"/>
				<path class="st8" d="M420,148.2c-0.2,0.3-0.4,0.5-0.8,0.5c-0.2,0-0.4-0.1-0.7-0.2s-0.6-0.3-1-0.5c-0.4-0.2-0.8-0.4-1.4-0.5
					s-1.2-0.2-1.9-0.2c-0.6,0-1.2,0.1-1.7,0.2s-0.9,0.4-1.3,0.7c-0.4,0.3-0.6,0.6-0.8,1c-0.2,0.4-0.3,0.8-0.3,1.2
					c0,0.5,0.2,1,0.5,1.4c0.3,0.4,0.7,0.7,1.2,0.9c0.5,0.3,1.1,0.5,1.8,0.7c0.7,0.2,1.3,0.4,2,0.7s1.4,0.5,2,0.8
					c0.7,0.3,1.2,0.6,1.8,1.1c0.5,0.4,0.9,0.9,1.2,1.5c0.3,0.6,0.5,1.3,0.5,2.2c0,1-0.2,1.9-0.5,2.7c-0.4,0.8-0.9,1.6-1.6,2.2
					c-0.7,0.6-1.5,1.1-2.5,1.4c-1,0.4-2.1,0.5-3.4,0.5c-1.5,0-2.8-0.2-4-0.7c-1.2-0.5-2.2-1.1-3.1-1.9l0.9-1.4
					c0.1-0.2,0.2-0.3,0.4-0.4c0.2-0.1,0.3-0.1,0.6-0.1c0.3,0,0.5,0.1,0.8,0.3c0.3,0.2,0.6,0.4,1,0.7c0.4,0.2,0.9,0.5,1.5,0.7
					s1.3,0.3,2.1,0.3c0.7,0,1.4-0.1,1.9-0.3c0.5-0.2,1-0.4,1.4-0.8c0.4-0.3,0.6-0.7,0.8-1.1c0.2-0.4,0.3-0.9,0.3-1.3
					c0-0.6-0.2-1.1-0.5-1.5c-0.3-0.4-0.7-0.7-1.3-1c-0.5-0.3-1.1-0.5-1.8-0.7s-1.3-0.4-2-0.6c-0.7-0.2-1.4-0.5-2-0.8
					c-0.7-0.3-1.3-0.6-1.8-1.1c-0.5-0.4-0.9-1-1.2-1.6c-0.3-0.6-0.5-1.4-0.5-2.3c0-0.8,0.2-1.6,0.5-2.3c0.3-0.8,0.8-1.4,1.5-2
					c0.6-0.6,1.4-1,2.4-1.4c0.9-0.3,2-0.5,3.2-0.5c1.4,0,2.7,0.2,3.8,0.7s2.1,1,2.9,1.8L420,148.2z"/>
				<path class="st8" d="M432.3,166.3c-1.7,0-3-0.5-3.9-1.4c-0.9-0.9-1.4-2.3-1.4-4.1v-13h-2.6c-0.2,0-0.4-0.1-0.6-0.2
					c-0.2-0.1-0.2-0.3-0.2-0.6v-1.5l3.5-0.4l0.9-6.6c0-0.2,0.1-0.4,0.3-0.5s0.3-0.2,0.6-0.2h1.9v7.3h6.2v2.7h-6.2v12.8
					c0,0.9,0.2,1.6,0.7,2c0.4,0.4,1,0.7,1.7,0.7c0.4,0,0.7-0.1,1-0.2s0.5-0.2,0.7-0.3c0.2-0.1,0.4-0.2,0.5-0.3
					c0.1-0.1,0.3-0.2,0.4-0.2c0.2,0,0.4,0.1,0.5,0.4l1.1,1.8c-0.6,0.6-1.4,1.1-2.3,1.4S433.3,166.3,432.3,166.3z"/>
				<path class="st8" d="M440.3,147.7c1.2-1.1,2.4-2,3.8-2.5c1.4-0.6,2.9-0.8,4.5-0.8c1.2,0,2.2,0.2,3.2,0.6
					c0.9,0.4,1.7,0.9,2.3,1.6c0.6,0.7,1.1,1.5,1.4,2.5c0.3,1,0.5,2.1,0.5,3.3V166h-1.7c-0.4,0-0.6-0.1-0.8-0.2
					c-0.2-0.1-0.4-0.4-0.5-0.7l-0.4-2c-0.6,0.5-1.1,1-1.6,1.4c-0.5,0.4-1.1,0.7-1.7,1s-1.2,0.5-1.9,0.6c-0.7,0.1-1.4,0.2-2.2,0.2
					c-0.8,0-1.6-0.1-2.3-0.3c-0.7-0.2-1.4-0.6-1.9-1c-0.5-0.5-1-1-1.3-1.8c-0.3-0.7-0.5-1.5-0.5-2.5c0-0.8,0.2-1.7,0.7-2.4
					c0.5-0.8,1.2-1.5,2.2-2.1c1-0.6,2.4-1.1,4.1-1.5c1.7-0.4,3.7-0.6,6.1-0.7v-1.7c0-1.7-0.4-2.9-1.1-3.8s-1.8-1.3-3.1-1.3
					c-0.9,0-1.7,0.1-2.3,0.3s-1.2,0.5-1.6,0.8c-0.5,0.3-0.8,0.5-1.2,0.8c-0.3,0.2-0.7,0.3-1,0.3c-0.3,0-0.5-0.1-0.7-0.2
					c-0.2-0.1-0.3-0.3-0.5-0.5L440.3,147.7z M452.4,156.4c-1.7,0.1-3.2,0.2-4.4,0.4c-1.2,0.2-2.2,0.5-3,0.9
					c-0.8,0.4-1.3,0.8-1.7,1.2c-0.3,0.5-0.5,1-0.5,1.6c0,0.6,0.1,1,0.3,1.5s0.4,0.7,0.7,1c0.3,0.3,0.7,0.4,1.1,0.6
					c0.4,0.1,0.9,0.2,1.4,0.2c0.7,0,1.3-0.1,1.8-0.2c0.5-0.1,1.1-0.3,1.5-0.6c0.5-0.3,0.9-0.6,1.4-0.9s0.9-0.8,1.3-1.2V156.4z"/>
				<path class="st8" d="M465.3,147.8c0.5-0.5,1-1,1.5-1.4c0.5-0.4,1.1-0.8,1.6-1.1c0.6-0.3,1.2-0.5,1.8-0.7
					c0.7-0.2,1.4-0.2,2.1-0.2c1.2,0,2.2,0.2,3.1,0.6c0.9,0.4,1.6,0.9,2.2,1.6c0.6,0.7,1,1.6,1.4,2.6c0.3,1,0.5,2.1,0.5,3.3V166h-3.8
					v-13.6c0-1.6-0.4-2.9-1.1-3.8c-0.7-0.9-1.9-1.3-3.4-1.3c-1.1,0-2.1,0.3-3.1,0.8s-1.8,1.3-2.7,2.2V166h-3.8v-21.3h2.2
					c0.5,0,0.9,0.3,1,0.8L465.3,147.8z"/>
				<path class="st8" d="M491.4,166.3c-1.7,0-3-0.5-3.9-1.4c-0.9-0.9-1.4-2.3-1.4-4.1v-13h-2.6c-0.2,0-0.4-0.1-0.6-0.2
					c-0.2-0.1-0.2-0.3-0.2-0.6v-1.5l3.5-0.4l0.9-6.6c0-0.2,0.1-0.4,0.3-0.5c0.1-0.1,0.3-0.2,0.6-0.2h1.9v7.3h6.2v2.7H490v12.8
					c0,0.9,0.2,1.6,0.7,2c0.4,0.4,1,0.7,1.7,0.7c0.4,0,0.7-0.1,1-0.2s0.5-0.2,0.7-0.3s0.4-0.2,0.5-0.3c0.1-0.1,0.3-0.2,0.4-0.2
					c0.2,0,0.4,0.1,0.5,0.4l1.1,1.8c-0.6,0.6-1.4,1.1-2.3,1.4C493.4,166.1,492.4,166.3,491.4,166.3z"/>
				<path class="st8" d="M514.3,148c0.9-1.1,1.9-2,3.1-2.7c1.2-0.7,2.5-1,4-1c1.2,0,2.3,0.2,3.3,0.7c1,0.5,1.8,1.2,2.5,2.1
					c0.7,0.9,1.2,2.1,1.6,3.4c0.4,1.4,0.6,2.9,0.6,4.7c0,1.6-0.2,3-0.6,4.4c-0.4,1.4-1,2.5-1.8,3.5c-0.8,1-1.8,1.8-2.9,2.3
					c-1.1,0.6-2.4,0.9-3.9,0.9c-1.3,0-2.4-0.2-3.4-0.7s-1.8-1.1-2.5-1.8v9.4h-3.8v-28.5h2.2c0.5,0,0.9,0.3,1,0.8L514.3,148z
					 M514.5,160.9c0.7,0.9,1.4,1.6,2.2,2c0.8,0.4,1.7,0.6,2.7,0.6c2,0,3.5-0.7,4.6-2.1c1.1-1.4,1.6-3.4,1.6-6.1
					c0-1.4-0.1-2.6-0.4-3.6c-0.2-1-0.6-1.8-1.1-2.4c-0.5-0.6-1-1.1-1.7-1.4c-0.7-0.3-1.4-0.4-2.3-0.4c-1.2,0-2.3,0.3-3.2,0.8
					c-0.9,0.6-1.8,1.4-2.5,2.4V160.9z"/>
				<path class="st8" d="M538.2,135v31h-3.7v-31H538.2z"/>
				<path class="st8" d="M543.7,147.7c1.2-1.1,2.4-2,3.8-2.5c1.4-0.6,2.9-0.8,4.5-0.8c1.2,0,2.2,0.2,3.2,0.6
					c0.9,0.4,1.7,0.9,2.3,1.6c0.6,0.7,1.1,1.5,1.4,2.5c0.3,1,0.5,2.1,0.5,3.3V166h-1.7c-0.4,0-0.6-0.1-0.8-0.2
					c-0.2-0.1-0.4-0.4-0.5-0.7l-0.4-2c-0.6,0.5-1.1,1-1.6,1.4c-0.5,0.4-1.1,0.7-1.7,1s-1.2,0.5-1.9,0.6c-0.7,0.1-1.4,0.2-2.2,0.2
					c-0.8,0-1.6-0.1-2.3-0.3c-0.7-0.2-1.4-0.6-1.9-1c-0.5-0.5-1-1-1.3-1.8c-0.3-0.7-0.5-1.5-0.5-2.5c0-0.8,0.2-1.7,0.7-2.4
					c0.5-0.8,1.2-1.5,2.2-2.1c1-0.6,2.4-1.1,4.1-1.5c1.7-0.4,3.7-0.6,6.1-0.7v-1.7c0-1.7-0.4-2.9-1.1-3.8s-1.8-1.3-3.1-1.3
					c-0.9,0-1.7,0.1-2.3,0.3s-1.2,0.5-1.6,0.8c-0.5,0.3-0.8,0.5-1.2,0.8c-0.3,0.2-0.7,0.3-1,0.3c-0.3,0-0.5-0.1-0.7-0.2
					c-0.2-0.1-0.3-0.3-0.5-0.5L543.7,147.7z M555.8,156.4c-1.7,0.1-3.2,0.2-4.4,0.4c-1.2,0.2-2.2,0.5-3,0.9
					c-0.8,0.4-1.3,0.8-1.7,1.2c-0.3,0.5-0.5,1-0.5,1.6c0,0.6,0.1,1,0.3,1.5s0.4,0.7,0.7,1c0.3,0.3,0.7,0.4,1.1,0.6
					c0.4,0.1,0.9,0.2,1.4,0.2c0.7,0,1.3-0.1,1.8-0.2c0.5-0.1,1.1-0.3,1.5-0.6c0.5-0.3,0.9-0.6,1.4-0.9s0.9-0.8,1.3-1.2V156.4z"/>
				<path class="st8" d="M580.4,166v-18.2h-10.5v12.8c0,0.9,0.2,1.6,0.7,2c0.4,0.4,1,0.7,1.7,0.7c0.4,0,0.7-0.1,1-0.2
					s0.5-0.2,0.7-0.3c0.2-0.1,0.4-0.2,0.5-0.3c0.1-0.1,0.3-0.2,0.4-0.2c0.2,0,0.4,0.1,0.5,0.4l1.1,1.8c-0.6,0.6-1.4,1.1-2.3,1.4
					s-1.8,0.5-2.8,0.5c-1.7,0-3-0.5-3.9-1.4c-0.9-0.9-1.4-2.3-1.4-4.1v-13h-2.6c-0.2,0-0.4-0.1-0.6-0.2c-0.2-0.1-0.2-0.3-0.2-0.6
					v-1.5l3.5-0.4l0.9-6.6c0-0.2,0.1-0.4,0.3-0.5s0.3-0.2,0.6-0.2h1.9v7.3h10.5v-2.1c0-1.2,0.2-2.3,0.5-3.2c0.3-0.9,0.8-1.7,1.5-2.4
					s1.4-1.1,2.3-1.5c0.9-0.3,1.9-0.5,3-0.5c0.9,0,1.8,0.1,2.6,0.4l-0.1,1.9c0,0.3-0.2,0.5-0.6,0.5c-0.3,0-0.8,0-1.4,0
					c-0.6,0-1.2,0.1-1.8,0.3s-1,0.4-1.4,0.8c-0.4,0.4-0.7,0.9-0.9,1.5s-0.3,1.4-0.3,2.3v2h6.1v2.7h-6V166H580.4z"/>
				<path class="st8" d="M602,144.4c1.6,0,3,0.3,4.2,0.8c1.2,0.5,2.3,1.3,3.2,2.2c0.9,1,1.6,2.1,2,3.5c0.5,1.4,0.7,2.9,0.7,4.5
					c0,1.7-0.2,3.2-0.7,4.5c-0.5,1.3-1.1,2.5-2,3.4c-0.9,1-1.9,1.7-3.2,2.2c-1.2,0.5-2.6,0.8-4.2,0.8c-1.6,0-3-0.3-4.2-0.8
					c-1.3-0.5-2.3-1.2-3.2-2.2c-0.9-1-1.6-2.1-2-3.4c-0.5-1.3-0.7-2.9-0.7-4.5c0-1.7,0.2-3.2,0.7-4.5c0.5-1.4,1.1-2.5,2-3.5
					c0.9-1,2-1.7,3.2-2.2C599,144.6,600.4,144.4,602,144.4z M602,163.4c2.1,0,3.7-0.7,4.7-2.1s1.6-3.4,1.6-5.9
					c0-2.5-0.5-4.5-1.6-5.9c-1-1.4-2.6-2.1-4.7-2.1c-1.1,0-2,0.2-2.8,0.5c-0.8,0.4-1.4,0.9-2,1.6c-0.5,0.7-0.9,1.5-1.2,2.5
					c-0.3,1-0.4,2.1-0.4,3.4c0,2.5,0.5,4.5,1.6,5.9C598.3,162.6,599.9,163.4,602,163.4z"/>
				<path class="st8" d="M620.4,149c0.7-1.5,1.5-2.6,2.5-3.4s2.2-1.2,3.6-1.2c0.4,0,0.9,0,1.3,0.1c0.4,0.1,0.8,0.3,1.1,0.5l-0.3,2.8
					c-0.1,0.4-0.3,0.5-0.6,0.5c-0.2,0-0.5,0-0.9-0.1c-0.4-0.1-0.8-0.1-1.3-0.1c-0.7,0-1.3,0.1-1.8,0.3c-0.5,0.2-1,0.5-1.4,0.9
					c-0.4,0.4-0.8,0.9-1.1,1.4c-0.3,0.6-0.6,1.2-0.9,1.9V166h-3.8v-21.3h2.1c0.4,0,0.7,0.1,0.8,0.2c0.2,0.2,0.3,0.4,0.3,0.8
					L620.4,149z"/>
				<path class="st8" d="M632.2,166v-21.3h2.2c0.5,0,0.9,0.3,1,0.8l0.3,2.2c0.8-1,1.7-1.8,2.6-2.4c1-0.6,2.1-0.9,3.4-0.9
					c1.4,0,2.6,0.4,3.5,1.2c0.9,0.8,1.5,1.9,1.9,3.2c0.3-0.8,0.7-1.4,1.2-2c0.5-0.6,1-1,1.6-1.4c0.6-0.4,1.2-0.6,1.9-0.8
					c0.7-0.2,1.4-0.3,2.1-0.3c1.1,0,2.1,0.2,3,0.5s1.6,0.9,2.2,1.6s1.1,1.5,1.4,2.5c0.3,1,0.5,2.1,0.5,3.4V166h-3.8v-13.6
					c0-1.7-0.4-2.9-1.1-3.8c-0.7-0.9-1.8-1.3-3.2-1.3c-0.6,0-1.2,0.1-1.8,0.3c-0.6,0.2-1,0.5-1.5,1c-0.4,0.4-0.8,0.9-1,1.6
					c-0.2,0.6-0.4,1.4-0.4,2.2V166h-3.8v-13.6c0-1.7-0.3-3-1-3.8c-0.7-0.8-1.7-1.3-3-1.3c-0.9,0-1.8,0.2-2.6,0.7
					c-0.8,0.5-1.5,1.2-2.2,2V166H632.2z"/>
			</g>
		</g>
	</g>
</g>
</svg>
