<?xml version="1.0" encoding="utf-8"?>
<!-- Generator: Adobe Illustrator 23.0.1, SVG Export Plug-In . SVG Version: 6.00 Build 0)  -->
<svg version="1.1" id="Camada_1" xmlns="http://www.w3.org/2000/svg" xmlns:xlink="http://www.w3.org/1999/xlink" x="0px" y="0px"
	 viewBox="0 0 500 500" style="enable-background:new 0 0 500 500;" xml:space="preserve">
<style type="text/css">
	.st0{fill:#B6CCAC;}
	.st1{fill:#4C9936;}
	.st2{fill:#F8F8F8;}
	.st3{fill:#3C662D;}
	.st4{fill:#EDECD6;}
	.st5{fill:#EDC4B9;}
	.st6{fill:#C98B83;}
	.st7{fill:#DDB1AB;}
	.st8{fill:#9A8DF7;}
	.st9{fill:#7958ED;}
	.st10{fill:#5B3CCE;}
	.st11{fill:#FFFFFF;}
	.st12{fill:#D1D0DD;}
	.st13{fill:#868499;}
	.st14{fill:#5D5C70;}
	.st15{fill:#35343F;}
	.st16{fill:#E5E0AA;}
	.st17{fill:#2F5622;}
	.st18{fill:#EA1854;}
</style>
<rect x="0" class="st4" width="500" height="500"/>
<g>
	<path class="st5" d="M404.6,233.8C377.5,95.9,250,102.1,250,102.1S122.5,95.9,95.4,233.8C75.6,334.6,89.8,500,89.8,500h320.5
		C410.2,500,424.4,334.6,404.6,233.8z"/>
	<circle class="st6" cx="342.6" cy="404.6" r="13.5"/>
	<circle class="st6" cx="371.6" cy="443.5" r="6.8"/>
	<circle class="st6" cx="291.4" cy="141.2" r="6.8"/>
	<circle class="st6" cx="198.4" cy="462.2" r="6.8"/>
	<circle class="st6" cx="118.5" cy="371.2" r="6.8"/>
	<g>
		<path class="st7" d="M248.5,177c-56.7,0.8-102.2,47.6-101.4,104.4c0.8,56.7,47.6,102.2,104.4,101.4
			c56.7-0.8,102.2-47.6,101.4-104.4C352.1,221.7,305.3,176.2,248.5,177z"/>
	</g>
	<path class="st2" d="M342.1,234.1c-26.4,9.7-57.4,15.6-90.6,16c-34.6,0.5-66.9-4.9-94.3-14.6c-6.7,13.9-10.3,29.4-10.1,45.8
		c0.8,56.7,47.6,102.2,104.4,101.4c56.7-0.8,102.2-47.6,101.4-104.4C352.7,262.5,348.8,247.5,342.1,234.1z"/>
	<path class="st6" d="M220.8,307.9l-2.8,3.7c-0.9,1.2-1.2,2.6-1,4c0.2,1.4,0.9,2.7,2.1,3.5c1.3,1,3,1.3,4.6,0.9c1.2-0.3,2.2-1,3-2
		l1.2-1.7c4.9,4.5,10.7,7.4,17,8.4l0,3.7c0,1.4,0.5,2.8,1.5,3.8c1,1,2.4,1.6,3.8,1.6c0.5,0,0.9-0.1,1.4-0.2c2.4-0.6,4-2.7,4.1-5.2
		l0-3.9c0.7-0.1,1.5-0.3,2.2-0.5c5.8-1.5,11.1-4.5,15.5-8.9l3.5,3.8c1.3,1.5,3.4,2.1,5.3,1.6c0.9-0.2,1.7-0.6,2.3-1.2
		c1.1-1,1.7-2.3,1.8-3.7c0.1-1.4-0.4-2.8-1.4-3.9l-4.8-5.3c3.4-6.1,5.2-13.2,5.1-20.4c0-2.9-2.3-5.2-5.2-5.4c-0.1,0-0.2,0-0.3,0
		c-3,0-5.4,2.4-5.4,5.4c0,7.6-2.5,14.7-7.2,20c-4.6,5.3-10.7,8.2-17.1,8.2c-6.4,0-12.5-2.9-17.1-8.1c-4.7-5.3-7.3-12.4-7.3-20
		c0-1.4-0.6-2.8-1.6-3.8c-1-1-2.4-1.6-3.8-1.6c-3,0-5.4,2.4-5.4,5.4C214.9,294.1,217,301.5,220.8,307.9z"/>
</g>
<g>
	<g>
		<polygon class="st11" points="277.3,124.6 222.7,124.6 213.4,66.3 286.6,66.3 		"/>
		<path class="st5" d="M279.7,127.4h-59.4l-10.1-63.8h79.6L279.7,127.4z M225,121.8H275l8.4-52.8h-66.7L225,121.8z"/>
	</g>
	<g>
		<path class="st11" d="M302,21.1h-14.5c-3.8,0-7.3,1.2-10.2,3.3c-4-5.9-10.7-9.7-18.3-9.7H241c-7.6,0-14.3,3.9-18.3,9.7
			c-2.9-2.1-6.4-3.3-10.2-3.3H198c-9.6,0-17.3,7.8-17.3,17.3V53c0,9.6,7.8,17.3,17.3,17.3h14.5c3.8,0,7.3-1.2,10.2-3.3
			c4,5.9,10.7,9.7,18.3,9.7H259c7.6,0,14.3-3.9,18.3-9.7c2.9,2.1,6.4,3.3,10.2,3.3H302c9.6,0,17.3-7.8,17.3-17.3V38.5
			C319.3,28.9,311.6,21.1,302,21.1z"/>
		<path class="st5" d="M259,79.5H241c-7.3,0-14.2-3.2-18.9-8.8c-2.9,1.6-6.1,2.4-9.5,2.4H198c-11.1,0-20.1-9-20.1-20.1V38.5
			c0-11.1,9-20.1,20.1-20.1h14.5c3.3,0,6.6,0.8,9.5,2.4c4.7-5.6,11.6-8.8,18.9-8.8H259c7.3,0,14.2,3.2,18.9,8.8
			c2.9-1.6,6.1-2.4,9.5-2.4H302c11.1,0,20.1,9,20.1,20.1V53c0,11.1-9,20.1-20.1,20.1h-14.5c-3.3,0-6.6-0.8-9.5-2.4
			C273.3,76.3,266.4,79.5,259,79.5z M223.4,63.1l1.6,2.4c3.6,5.3,9.6,8.5,16,8.5H259c6.4,0,12.4-3.2,16-8.5l1.6-2.4l2.3,1.7
			c2.5,1.8,5.5,2.8,8.5,2.8H302c8,0,14.6-6.5,14.6-14.6V38.5c0-8-6.5-14.6-14.6-14.6h-14.5c-3.1,0-6,1-8.5,2.8l-2.3,1.7l-1.6-2.4
			c-3.6-5.3-9.6-8.5-16-8.5H241c-6.4,0-12.4,3.2-16,8.5l-1.6,2.4l-2.3-1.7c-2.5-1.8-5.5-2.8-8.5-2.8H198c-8,0-14.6,6.5-14.6,14.6V53
			c0,8,6.5,14.6,14.6,14.6h14.5c3.1,0,6-1,8.5-2.8L223.4,63.1z"/>
	</g>
	<g>
		<path class="st11" d="M267.3,146.5h-34.6c-5.4,0-9.9-4.4-9.9-9.9v-12h54.3v12C277.2,142.1,272.7,146.5,267.3,146.5z"/>
		<path class="st5" d="M268.1,149.2h-36.2c-6.5,0-11.8-5.3-11.8-11.8v-15.6h59.8v15.6C279.9,143.9,274.6,149.2,268.1,149.2z
			 M225.6,127.4v10c0,3.5,2.8,6.3,6.3,6.3h36.2c3.5,0,6.3-2.8,6.3-6.3v-10H225.6z"/>
	</g>
</g>
<path class="st6" d="M291.5,177.8c-6.9-4.7-14-8.5-21.5-11c-7.5-2.5-15.3-3.8-23.1-3.8c-7.8,0-15.6,1.4-23.1,4
	c-7.5,2.6-14.6,6.6-21.2,11.6l-0.7-0.7c5-6.8,11.9-12.4,19.7-16.2c7.8-3.8,16.5-5.9,25.3-6c8.8-0.1,17.6,1.7,25.5,5.4
	c7.9,3.7,14.9,9.2,19.9,16.1L291.5,177.8z"/>
<g>
	<path class="st11" d="M413.9,500v-64.5l-52.6,5.8c-10.4,1.2-19.5-7-19.5-17.5c0-12.9-10.4-23.3-23.3-23.3H181.5
		c-12.9,0-23.3,10.4-23.3,23.3c0,10.5-9.1,18.6-19.5,17.5l-52.6-5.8V500H413.9z"/>
	<path class="st5" d="M89.1,500v-61.1l49.3,5.5c5.8,0.6,11.6-1.2,16-5.1c4.4-3.9,6.8-9.5,6.8-15.3c0-11.2,9.1-20.3,20.3-20.3h136.9
		c11.2,0,20.3,9.1,20.3,20.3c0,5.8,2.5,11.4,6.8,15.3c4.4,3.9,10.2,5.8,16,5.1l49.3-5.5V500h6v-67.8l-55.9,6.2
		c-4.1,0.5-8.2-0.9-11.3-3.6c-3.1-2.8-4.8-6.7-4.8-10.8c0-14.5-11.8-26.3-26.3-26.3H181.5c-14.5,0-26.3,11.8-26.3,26.3
		c0,4.1-1.8,8.1-4.8,10.8c-3.1,2.8-7.2,4.1-11.3,3.6l-55.9-6.2V500H89.1z"/>
</g>
<g>
	<path class="st18" d="M277.4,465.7c-8,2.3-17.9-6.1-20.4-14.6c-1.4-5-0.5-7.4,12.9-11.3c13.4-3.9,15.5-2.3,16.9,2.6
		C289.3,450.9,285.4,463.4,277.4,465.7z"/>
	<path class="st18" d="M243.1,485.6c-8.3,0-15.5-10.9-15.5-19.7c0-5.2,1.6-7.2,15.5-7.2s15.5,2.1,15.5,7.2
		C258.6,474.7,251.4,485.6,243.1,485.6z"/>
	<path class="st17" d="M272.7,440.6c-2.1-4.2-8.4-16.8-23.4-22.6c-0.6-0.2-1.2-0.1-1.7,0.3c-0.5,0.4-0.7,1-0.6,1.6
		c1.8,9.4,2.5,23.9-4.9,40.3l-0.4,0.9l3,1.4l0.4-0.9c7-15.6,7.1-29.7,5.6-39.3c11.9,5.7,17.1,16.2,18.9,19.8l0.4,0.9l3-1.5
		L272.7,440.6z"/>
	<path class="st17" d="M210.1,442c3.3-7.3,8.9-14,16-18.3c7.1-4.4,15.1-6.1,23.1-5.8C243.1,433.3,226.7,443.5,210.1,442z"/>
</g>
</svg>
