<?xml version="1.0" standalone="no"?>
<svg version="1.2" overflow="visible" preserveAspectRatio="none" viewBox="0 0 222 222" xml:space="preserve" y="0px" x="0px" xmlns:xlink="http://www.w3.org/1999/xlink" xmlns="http://www.w3.org/2000/svg" id="Camada_1_1548958884286" width="220" height="220"><g transform="translate(1, 1)"><style type="text/css">
	.st0{clip-path:url(#SVGID_2__1548958884286);fill:url(#SVGID_3__1548958884286);}
	.st1_1548958884286{clip-path:url(#SVGID_2__1548958884286);}
	.st2{fill:#C85E76;}
	.st3{opacity:0.5;}
	.st4{fill:none;stroke:#FFFFFF;stroke-width:0.25;stroke-miterlimit:10;}
	.st5{fill:url(#SVGID_4__1548958884286);}
	.st6{opacity:0.9;fill:url(#SVGID_5__1548958884286);enable-background:new    ;}
	.st7{fill:#E7E6D0;}
	.st8{fill:url(#SVGID_6__1548958884286);}
	.st9{fill:url(#SVGID_7__1548958884286);}
	.st10{fill:url(#SVGID_8__1548958884286);}
	.st11{fill:url(#SVGID_9__1548958884286);}
	.st12{fill:#BE4CE4;}
	.st13{fill:#943AB9;}
	.st14{fill:#998CF6;}
	.st15{fill:#7958EC;}
	.st16_1548958884286{fill:#FFFFFF;}
	.st17{fill:#F7F7F7;}
	.st18{fill:#5B3CCD;}
	.st19_1548958884286{clip-path:url(#SVGID_11__1548958884286);}
	.st20{clip-path:url(#SVGID_13__1548958884286);fill:url(#SVGID_14__1548958884286);}
	.st21{opacity:0.8;clip-path:url(#SVGID_16__1548958884286);fill:url(#SVGID_17__1548958884286);enable-background:new    ;}
	.st22{clip-path:url(#SVGID_19__1548958884286);fill:url(#SVGID_20__1548958884286);}
	.st23{clip-path:url(#SVGID_24__1548958884286);}
	.st24_1548958884286{fill:#BF4CE5;}
	.st25_1548958884286{fill:#953ABA;}
	.st26_1548958884286{fill:#9A8DF7;}
	.st27_1548958884286{fill:#7958ED;}
	.st28_1548958884286{fill:#F8F8F8;}
	.st29_1548958884286{fill:#5B3CCE;}
	.st30_1548958884286{clip-path:url(#SVGID_26__1548958884286);}
	.st31_1548958884286{fill:#2886F7;}
	.st32_1548958884286{fill:#0C5ED7;}
	.st33_1548958884286{fill:#164F93;}
	.st34_1548958884286{fill:url(#SVGID_27__1548958884286);}
	.st35{clip-path:url(#SVGID_29_);}
	.st36{fill:url(#SVGID_30_);}
	.st37{fill:url(#SVGID_31_);}
	.st38{clip-path:url(#SVGID_33_);}
	.st39{fill:url(#SVGID_34_);}
	.st40{fill:url(#SVGID_35_);}
	.st41{clip-path:url(#SVGID_37_);}
	.st42{fill:url(#SVGID_38_);}
	.st43{clip-path:url(#SVGID_40_);fill:url(#SVGID_41_);}
	.st44{clip-path:url(#SVGID_40_);}
	.st45{clip-path:url(#SVGID_43_);}
	.st46{opacity:0.6;fill:#57CEB7;enable-background:new    ;}
	.st47{opacity:0.9;fill:#57CEB7;enable-background:new    ;}
	.st48{opacity:0.1;fill:#020202;enable-background:new    ;}
	.st49{fill:#FDFFFF;}
	.st50{fill:#FF4C06;}
	.st51{fill:#564039;}
	.st52{fill:#EAEAEA;}
	.st53{fill:#DCDEE2;}
	.st54{fill:none;stroke:#DCDEE2;stroke-width:3;stroke-miterlimit:10;}
	.st55{fill:#988BF5;}
	.st56{fill:#7958EB;}
	.st57{opacity:0.5;fill:#CACAF9;enable-background:new    ;}
	.st58{fill:#E5E5E5;}
	.st59{fill:#DB825E;}
	.st60{fill:#B75B42;}
	.st61{fill:#E29874;}
	.st62{fill:#919191;}
	.st63{opacity:0.1;fill-rule:evenodd;clip-rule:evenodd;fill:#020202;enable-background:new    ;}
</style><g>
	<defs>
		<rect height="220" width="220" id="SVGID_10__1548958884286" vector-effect="non-scaling-stroke"/>
	</defs>
	<clipPath id="SVGID_2__1548958884286" vector-effect="non-scaling-stroke">
		<use style="overflow:visible;" xmlns:xlink="http://www.w3.org/1999/xlink" xlink:href="#SVGID_10__1548958884286" vector-effect="non-scaling-stroke"/>
	</clipPath>
	<g class="st1_1548958884286">
		<g>
			<defs>
				<rect height="222.7" width="414.5" y="-1.4" x="-97.3" id="SVGID_12__1548958884286" vector-effect="non-scaling-stroke"/>
			</defs>
			<clipPath id="SVGID_3__1548958884286" vector-effect="non-scaling-stroke">
				<use style="overflow:visible;" xmlns:xlink="http://www.w3.org/1999/xlink" xlink:href="#SVGID_12__1548958884286" vector-effect="non-scaling-stroke"/>
			</clipPath>
			
				<linearGradient gradientTransform="matrix(1 0 0 -1 0 222)" y2="112" x2="317.2622" y1="112" x1="-97.2622" gradientUnits="userSpaceOnUse" id="SVGID_4__1548958884286" vector-effect="non-scaling-stroke">
				<stop style="stop-color:#002A57" offset="3.720238e-04" vector-effect="non-scaling-stroke"/>
				<stop style="stop-color:#113066" offset="0.1424" vector-effect="non-scaling-stroke"/>
				<stop style="stop-color:#393F89" offset="0.5192" vector-effect="non-scaling-stroke"/>
				<stop style="stop-color:#52489F" offset="0.818" vector-effect="non-scaling-stroke"/>
				<stop style="stop-color:#5B4CA7" offset="0.9996" vector-effect="non-scaling-stroke"/>
			</linearGradient>
			<rect height="222.7" width="414.5" style="clip-path:url(#SVGID_3__1548958884286);fill:url(#SVGID_4__1548958884286);" y="-1.4" x="-97.3" vector-effect="non-scaling-stroke"/>
		</g>
		<g>
			<defs>
				<rect height="222.7" width="414.5" y="-1.4" x="-97.3" id="SVGID_15__1548958884286" vector-effect="non-scaling-stroke"/>
			</defs>
			<clipPath id="SVGID_5__1548958884286" vector-effect="non-scaling-stroke">
				<use style="overflow:visible;" xmlns:xlink="http://www.w3.org/1999/xlink" xlink:href="#SVGID_15__1548958884286" vector-effect="non-scaling-stroke"/>
			</clipPath>
			
				<linearGradient gradientTransform="matrix(1 0 0 -1 0 222)" y2="218.2836" x2="261.8483" y1="92.6113" x1="44.1774" gradientUnits="userSpaceOnUse" id="SVGID_6__1548958884286" vector-effect="non-scaling-stroke">
				<stop style="stop-color:#6D9AF6;stop-opacity:0" offset="0" vector-effect="non-scaling-stroke"/>
				<stop style="stop-color:#8FFFFF;stop-opacity:0.9" offset="0.9989" vector-effect="non-scaling-stroke"/>
			</linearGradient>
			<path d="M1.8,42.1&#10;&#9;&#9;&#9;&#9;c0,0,82.7-82.3,189.2-63.1C286.1-4,287.9,53.1,284,80.6c-3.9,27.3-43.2,74.5-103.9,64c-67.3-11.7-119.6,13-119.6,13" style="opacity:0.8;clip-path:url(#SVGID_5__1548958884286);fill:url(#SVGID_6__1548958884286);enable-background:new    ;" vector-effect="non-scaling-stroke"/>
		</g>
		<g>
			<defs>
				<rect height="222.7" width="414.5" y="-1.4" x="-97.3" id="SVGID_18__1548958884286" vector-effect="non-scaling-stroke"/>
			</defs>
			<clipPath id="SVGID_7__1548958884286" vector-effect="non-scaling-stroke">
				<use style="overflow:visible;" xmlns:xlink="http://www.w3.org/1999/xlink" xlink:href="#SVGID_18__1548958884286" vector-effect="non-scaling-stroke"/>
			</clipPath>
			
				<linearGradient gradientTransform="matrix(0.9478 0.3189 -0.3189 0.9478 -310.435 2266.2717)" y2="-2046.228" x2="-286.5424" y1="-2138.7825" x1="-438.1621" gradientUnits="userSpaceOnUse" id="SVGID_8__1548958884286" vector-effect="non-scaling-stroke">
				<stop style="stop-color:#9A57E5;stop-opacity:0" offset="0" vector-effect="non-scaling-stroke"/>
				<stop style="stop-color:#9A57E5;stop-opacity:0.7" offset="0.9982" vector-effect="non-scaling-stroke"/>
			</linearGradient>
			<path d="M-93,150c0,0,36.9,73.7,112.6,84.9c67.6,10,81.7-27.9,85.2-47.1&#10;&#9;&#9;&#9;&#9;s-12.2-59.7-55.1-66.3C2,114.2-27.6,85.9-27.6,85.9" style="clip-path:url(#SVGID_7__1548958884286);fill:url(#SVGID_8__1548958884286);" vector-effect="non-scaling-stroke"/>
		</g>
		<g>
			<defs>
				<rect height="222.7" width="414.5" y="-1.4" x="-97.3" id="SVGID_21__1548958884286" vector-effect="non-scaling-stroke"/>
			</defs>
			<clipPath id="SVGID_9__1548958884286" vector-effect="non-scaling-stroke">
				<use style="overflow:visible;" xmlns:xlink="http://www.w3.org/1999/xlink" xlink:href="#SVGID_21__1548958884286" vector-effect="non-scaling-stroke"/>
			</clipPath>
		</g>
		<g>
			<defs>
				<rect height="222.7" width="414.5" y="-1.4" x="-97.3" id="SVGID_23__1548958884286" vector-effect="non-scaling-stroke"/>
			</defs>
			<clipPath id="SVGID_11__1548958884286" vector-effect="non-scaling-stroke">
				<use style="overflow:visible;" xmlns:xlink="http://www.w3.org/1999/xlink" xlink:href="#SVGID_23__1548958884286" vector-effect="non-scaling-stroke"/>
			</clipPath>
			<g class="st19_1548958884286">
				<g>
					<g>
						<path d="M115.3,132.7L115.3,132.7L115.3,132.7L115.3,132.7L115.3,132.7L115.3,132.7L115.3,132.7&#10;&#9;&#9;&#9;&#9;&#9;&#9;&#9;c-0.1,0-0.1,0.1-0.2,0.1c-0.1,0.1-0.1,0.2-0.2,0.4c-0.1,0.3-0.3,0.5-0.4,0.8c-0.3,0.6-0.5,1.1-0.8,1.7&#10;&#9;&#9;&#9;&#9;&#9;&#9;&#9;c-0.5,1.1-0.9,2.4-1.2,3.7c-0.8,2.6-1.2,5.2-1.4,7.9c-0.2,2.7-0.2,5.5,0.2,8.2v0.1c0.3,2.2-2.5,3.7-3.7,1.9c0,0,0-0.1-0.1-0.1&#10;&#9;&#9;&#9;&#9;&#9;&#9;&#9;c-1.6-2.5-3-5.1-4.1-8.1c-1.1-2.9-1.9-6.1-2.4-9.3c-0.3-1.6-0.4-3.3-0.5-5c0-0.9,0-1.7,0-2.7c0-0.5,0-0.9,0.1-1.4&#10;&#9;&#9;&#9;&#9;&#9;&#9;&#9;c0-0.3,0-0.5,0.1-0.8c0-0.1,0-0.3,0-0.4v-0.1v-0.1v-0.1l0,0v-0.1v-0.1L115.3,132.7z" class="st24_1548958884286" vector-effect="non-scaling-stroke"/>
						<path d="M103.1,132.7L103.1,132.7L103.1,132.7L103.1,132.7L103.1,132.7L103.1,132.7L103.1,132.7&#10;&#9;&#9;&#9;&#9;&#9;&#9;&#9;c0.1,0,0.1,0.1,0.2,0.1c0.1,0.1,0.1,0.2,0.2,0.4c0.1,0.3,0.3,0.5,0.4,0.8c0.3,0.6,0.5,1.1,0.8,1.7c0.5,1.1,0.9,2.4,1.2,3.7&#10;&#9;&#9;&#9;&#9;&#9;&#9;&#9;c0.8,2.6,1.2,5.2,1.4,7.9c0.2,2.7,0.2,5.5-0.2,8.2v0.1c-0.3,2.2,2.5,3.7,3.7,1.9c0,0,0-0.1,0.1-0.1c1.6-2.5,3-5.1,4.1-8.1&#10;&#9;&#9;&#9;&#9;&#9;&#9;&#9;c1.1-2.9,1.9-6.1,2.4-9.3c0.3-1.6,0.4-3.3,0.5-5c0-0.9,0-1.7,0-2.7c0-0.5,0-0.9-0.1-1.4c0-0.3,0-0.5-0.1-0.8&#10;&#9;&#9;&#9;&#9;&#9;&#9;&#9;c0-0.1,0-0.3,0-0.4v-0.1v-0.1v-0.1l0,0v-0.1v-0.1L103.1,132.7z" class="st24_1548958884286" vector-effect="non-scaling-stroke"/>
						<circle r="0.9" cy="137.3" cx="104.3" class="st25_1548958884286" vector-effect="non-scaling-stroke"/>
						<circle r="1.6" cy="143.2" cx="109.7" class="st25_1548958884286" vector-effect="non-scaling-stroke"/>
					</g>
					<g>
						<path d="M130.5,127.8L130.5,127.8L130.5,127.8L130.5,127.8L130.5,127.8C130.5,127.7,130.5,127.7,130.5,127.8&#10;&#9;&#9;&#9;&#9;&#9;&#9;&#9;L130.5,127.8c-0.1,0-0.1,0.1-0.2,0.1c-0.1,0.1-0.1,0.2-0.2,0.4c-0.1,0.3-0.3,0.5-0.4,0.8c-0.3,0.6-0.5,1.1-0.8,1.7&#10;&#9;&#9;&#9;&#9;&#9;&#9;&#9;c-0.5,1.1-0.9,2.4-1.2,3.7c-0.8,2.6-1.2,5.2-1.4,7.9c-0.2,2.7-0.2,5.5,0.2,8.2v0.1c0.3,2.2-2.5,3.7-3.7,1.9c0,0,0-0.1-0.1-0.1&#10;&#9;&#9;&#9;&#9;&#9;&#9;&#9;c-1.6-2.5-3-5.1-4.1-8.1c-1.1-2.9-1.9-6.1-2.4-9.3c-0.3-1.6-0.4-3.3-0.5-5c0-0.9,0-1.7,0-2.7c0-0.5,0-0.9,0.1-1.4&#10;&#9;&#9;&#9;&#9;&#9;&#9;&#9;c0-0.3,0-0.5,0.1-0.8c0-0.1,0-0.3,0-0.4v-0.1v-0.1v-0.1l0,0v-0.1v-0.1L130.5,127.8z" class="st24_1548958884286" vector-effect="non-scaling-stroke"/>
						<path d="M118.2,127.8L118.2,127.8L118.2,127.8L118.2,127.8L118.2,127.8C118.2,127.7,118.2,127.7,118.2,127.8&#10;&#9;&#9;&#9;&#9;&#9;&#9;&#9;L118.2,127.8c0.1,0,0.1,0.1,0.2,0.1c0.1,0.1,0.1,0.2,0.2,0.4c0.1,0.3,0.3,0.5,0.4,0.8c0.3,0.6,0.5,1.1,0.8,1.7&#10;&#9;&#9;&#9;&#9;&#9;&#9;&#9;c0.5,1.1,0.9,2.4,1.2,3.7c0.8,2.6,1.2,5.2,1.4,7.9c0.2,2.7,0.2,5.5-0.2,8.2v0.1c-0.3,2.2,2.5,3.7,3.7,1.9c0,0,0-0.1,0.1-0.1&#10;&#9;&#9;&#9;&#9;&#9;&#9;&#9;c1.6-2.5,3-5.1,4.1-8.1c1.1-2.9,1.9-6.1,2.4-9.3c0.3-1.6,0.4-3.3,0.5-5c0-0.9,0-1.7,0-2.7c0-0.5,0-0.9-0.1-1.4&#10;&#9;&#9;&#9;&#9;&#9;&#9;&#9;c0-0.3,0-0.5-0.1-0.8c0-0.1,0-0.3,0-0.4v-0.1v-0.1v-0.1l0,0v-0.1v-0.1L118.2,127.8z" class="st24_1548958884286" vector-effect="non-scaling-stroke"/>
						<circle r="0.9" cy="140.8" cx="123.2" class="st25_1548958884286" vector-effect="non-scaling-stroke"/>
						<circle r="0.6" cy="135.3" cx="128.2" class="st25_1548958884286" vector-effect="non-scaling-stroke"/>
					</g>
					<g>
						<path d="M101.8,127.8L101.8,127.8L101.8,127.8L101.8,127.8L101.8,127.8C101.8,127.7,101.7,127.7,101.8,127.8&#10;&#9;&#9;&#9;&#9;&#9;&#9;&#9;L101.8,127.8c-0.1,0-0.1,0.1-0.2,0.1c-0.1,0.1-0.1,0.2-0.2,0.4c-0.1,0.3-0.3,0.5-0.4,0.8c-0.3,0.6-0.5,1.1-0.8,1.7&#10;&#9;&#9;&#9;&#9;&#9;&#9;&#9;c-0.5,1.1-0.9,2.4-1.2,3.7c-0.8,2.6-1.2,5.2-1.4,7.9c-0.2,2.7-0.2,5.5,0.2,8.2v0.1c0.3,2.2-2.5,3.7-3.7,1.9c0,0,0-0.1-0.1-0.1&#10;&#9;&#9;&#9;&#9;&#9;&#9;&#9;c-1.6-2.5-3-5.1-4.1-8.1c-1.1-2.9-1.9-6.1-2.4-9.3c-0.3-1.6-0.4-3.3-0.5-5c0-0.9,0-1.7,0-2.7c0-0.5,0-0.9,0.1-1.4&#10;&#9;&#9;&#9;&#9;&#9;&#9;&#9;c0-0.3,0-0.5,0.1-0.8c0-0.1,0-0.3,0-0.4v-0.1v-0.1v-0.1l0,0v-0.1v-0.1L101.8,127.8z" class="st24_1548958884286" vector-effect="non-scaling-stroke"/>
						<path d="M89.4,127.8L89.4,127.8L89.4,127.8L89.4,127.8L89.4,127.8C89.5,127.7,89.5,127.7,89.4,127.8L89.4,127.8&#10;&#9;&#9;&#9;&#9;&#9;&#9;&#9;c0.1,0,0.1,0.1,0.2,0.1c0.1,0.1,0.1,0.2,0.2,0.4c0.1,0.3,0.3,0.5,0.4,0.8c0.3,0.6,0.5,1.1,0.8,1.7c0.5,1.1,0.9,2.4,1.2,3.7&#10;&#9;&#9;&#9;&#9;&#9;&#9;&#9;c0.8,2.6,1.2,5.2,1.4,7.9c0.2,2.7,0.2,5.5-0.2,8.2v0.1c-0.3,2.2,2.5,3.7,3.7,1.9c0,0,0-0.1,0.1-0.1c1.6-2.5,3-5.1,4.1-8.1&#10;&#9;&#9;&#9;&#9;&#9;&#9;&#9;c1.1-2.9,1.9-6.1,2.4-9.3c0.3-1.6,0.4-3.3,0.5-5c0-0.9,0-1.7,0-2.7c0-0.5,0-0.9-0.1-1.4c0-0.3,0-0.5-0.1-0.8&#10;&#9;&#9;&#9;&#9;&#9;&#9;&#9;c0-0.1,0-0.3,0-0.4v-0.1v-0.1v-0.1l0,0v-0.1v-0.1L89.4,127.8z" class="st24_1548958884286" vector-effect="non-scaling-stroke"/>
						<circle r="0.9" cy="141.5" cx="96.7" class="st25_1548958884286" vector-effect="non-scaling-stroke"/>
					</g>
				</g>
				<g>
					<circle r="34.4" cy="97.9" cx="110" class="st26_1548958884286" vector-effect="non-scaling-stroke"/>
					<path d="M87.7,123.5c0,0-4.5-40.2,11.3-47.3c16.7-7.5,33.9,2.6,32.8,22c-0.9,15.9-3.8,19-1.3,22.5l-3.1,7.8&#10;&#9;&#9;&#9;&#9;&#9;&#9;l-13.1,4l-14.7-1.1l-9.5-4.8L87.7,123.5z" class="st27_1548958884286" vector-effect="non-scaling-stroke"/>
					<path d="M132.6,123.5c0,0,4.5-40.2-11.3-47.3c-16.7-7.5-33.9,2.6-32.8,22c0.9,15.9,2.4,20.1-0.1,23.6l4.5,6.6&#10;&#9;&#9;&#9;&#9;&#9;&#9;l13.1,4l14.7-1.1l9.5-4.8L132.6,123.5z" class="st27_1548958884286" vector-effect="non-scaling-stroke"/>
					<g>
						<path d="M110,134c-9.5,0-18.4-3.6-25.1-10.2c-6.9-6.6-10.8-15.6-11-25.3c-0.1-9.7,3.5-18.8,10.2-25.7&#10;&#9;&#9;&#9;&#9;&#9;&#9;&#9;c6.7-6.9,15.7-10.8,25.4-10.9c9.7-0.2,18.8,3.5,25.7,10.2c6.9,6.7,10.8,15.7,10.9,25.4l0,0c0.3,19.9-15.6,36.3-35.5,36.6&#10;&#9;&#9;&#9;&#9;&#9;&#9;&#9;C110.4,134,110.2,134,110,134z M110,65.2c-0.2,0-0.3,0-0.5,0c-8.7,0.1-16.9,3.6-23,9.9c-6.1,6.3-9.3,14.5-9.2,23.2&#10;&#9;&#9;&#9;&#9;&#9;&#9;&#9;c0.1,8.7,3.6,16.9,9.9,23c6.2,6,14.2,9.3,22.7,9.3c0.2,0,0.3,0,0.5,0c18-0.3,32.5-15.2,32.2-33.2l0,0&#10;&#9;&#9;&#9;&#9;&#9;&#9;&#9;c-0.1-8.7-3.6-16.9-9.9-23C126.7,68.5,118.5,65.2,110,65.2z" class="st16_1548958884286" vector-effect="non-scaling-stroke"/>
					</g>
					<g>
						<path d="M109.8,83.6c-8,0.1-14.3,6.6-14.1,14.6c0.1,8,6.6,14.3,14.6,14.1c8-0.1,14.3-6.6,14.1-14.6&#10;&#9;&#9;&#9;&#9;&#9;&#9;&#9;C124.2,89.8,117.7,83.5,109.8,83.6z" class="st28_1548958884286" vector-effect="non-scaling-stroke"/>
					</g>
					
						<ellipse ry="4.2" rx="8.3" cy="82.5" cx="90.3" class="st16_1548958884286" transform="matrix(0.5666 -0.824 0.824 0.5666 -28.8761 110.1917)" vector-effect="non-scaling-stroke"/>
					<circle r="1.9" cy="115.3" cx="122.9" class="st29_1548958884286" vector-effect="non-scaling-stroke"/>
					<circle r="0.9" cy="120.7" cx="127" class="st29_1548958884286" vector-effect="non-scaling-stroke"/>
					<circle r="0.9" cy="78.6" cx="115.8" class="st29_1548958884286" vector-effect="non-scaling-stroke"/>
					<circle r="0.9" cy="123.4" cx="102.8" class="st29_1548958884286" vector-effect="non-scaling-stroke"/>
					<circle r="0.9" cy="110.7" cx="91.6" class="st29_1548958884286" vector-effect="non-scaling-stroke"/>
					<g>
						<path d="M109.9,92.1c-3.2,0-5.8,2.7-5.7,5.9c0,3.2,2.7,5.8,5.9,5.7c3.2,0,5.8-2.7,5.7-5.9&#10;&#9;&#9;&#9;&#9;&#9;&#9;&#9;C115.8,94.7,113.1,92.1,109.9,92.1z" class="st29_1548958884286" vector-effect="non-scaling-stroke"/>
					</g>
				</g>
			</g>
		</g>
		<g>
			<defs>
				<rect height="222.7" width="414.5" y="-1.4" x="-97.3" id="SVGID_25__1548958884286" vector-effect="non-scaling-stroke"/>
			</defs>
			<clipPath id="SVGID_13__1548958884286" vector-effect="non-scaling-stroke">
				<use style="overflow:visible;" xmlns:xlink="http://www.w3.org/1999/xlink" xlink:href="#SVGID_25__1548958884286" vector-effect="non-scaling-stroke"/>
			</clipPath>
			<g style="clip-path:url(#SVGID_13__1548958884286);">
				<polygon points="61,10.3 6.8,74.6 79.9,78.2 137.1,14.5" class="st31_1548958884286" vector-effect="non-scaling-stroke"/>
				<g>
					
						<rect height="34.8" width="59.5" class="st32_1548958884286" transform="matrix(0.8983 -0.4393 0.4393 0.8983 -18.4742 41.7735)" y="43.4" x="51.3" vector-effect="non-scaling-stroke"/>
					
						<ellipse ry="8.6" rx="29.7" cy="76.4" cx="88.6" class="st33_1548958884286" transform="matrix(0.8983 -0.4393 0.4393 0.8983 -24.552 46.7087)" vector-effect="non-scaling-stroke"/>
					
						<ellipse ry="8.6" rx="29.7" cy="45.2" cx="73.4" class="st32_1548958884286" transform="matrix(0.8983 -0.4393 0.4393 0.8983 -12.3963 36.8382)" vector-effect="non-scaling-stroke"/>
				</g>
				<path d="M29.2,74.6c-1.1-1.9-2.3-3.9-3.2-5.8c-3.2-6-3.2-9.9-2.6-12.2c0.6-2.3,1.9-3.4,1.9-3.4l0.3-0.2L25,52&#10;&#9;&#9;&#9;&#9;&#9;l-0.5,0.2c-0.3,0.2-6.3,4.9,0.3,17.1c1.1,2.1,2.3,4.1,3.4,5.8c5.4,9.1,9.9,17.1,5.7,25.7l-0.2,0.3l1.1,0.5l0.2-0.3&#10;&#9;&#9;&#9;&#9;&#9;C39.4,92.3,34.7,84.2,29.2,74.6z" class="st16_1548958884286" vector-effect="non-scaling-stroke"/>
				
					<linearGradient gradientTransform="matrix(-0.9661 -0.2581 -0.2581 0.9661 4617.9971 2197.9658)" y2="-837.9756" x2="4976.9058" y1="-837.9756" x1="4961.1899" gradientUnits="userSpaceOnUse" id="SVGID_14__1548958884286" vector-effect="non-scaling-stroke">
					<stop style="stop-color:#E5F1FC" offset="0" vector-effect="non-scaling-stroke"/>
					<stop style="stop-color:#AFCAEB" offset="0.172" vector-effect="non-scaling-stroke"/>
					<stop style="stop-color:#2969C2" offset="0.5646" vector-effect="non-scaling-stroke"/>
					<stop style="stop-color:#0D55B9" offset="0.6435" vector-effect="non-scaling-stroke"/>
					<stop style="stop-color:#003086" offset="0.9996" vector-effect="non-scaling-stroke"/>
				</linearGradient>
				<circle r="7.8" cy="105.8" cx="33.4" style="fill:url(#SVGID_14__1548958884286);" vector-effect="non-scaling-stroke"/>
				<g>
					<g>
						<defs>
							<circle r="7.8" cy="105.8" cx="33.4" id="SVGID_28__1548958884286" vector-effect="non-scaling-stroke"/>
						</defs>
						<clipPath id="SVGID_16__1548958884286" vector-effect="non-scaling-stroke">
							<use style="overflow:visible;" xmlns:xlink="http://www.w3.org/1999/xlink" xlink:href="#SVGID_28__1548958884286" vector-effect="non-scaling-stroke"/>
						</clipPath>
						<g style="clip-path:url(#SVGID_16__1548958884286);">
							
								<linearGradient gradientTransform="matrix(-0.9661 -0.2581 -0.2581 0.9661 4617.9971 2197.9658)" y2="-831.0418" x2="4980.0278" y1="-831.0418" x1="4957.6772" gradientUnits="userSpaceOnUse" id="SVGID_17__1548958884286" vector-effect="non-scaling-stroke">
								<stop style="stop-color:#FDFCFB" offset="3.808571e-02" vector-effect="non-scaling-stroke"/>
								<stop style="stop-color:#F6F8FA" offset="0.1723" vector-effect="non-scaling-stroke"/>
								<stop style="stop-color:#E4EEF6" offset="0.3636" vector-effect="non-scaling-stroke"/>
								<stop style="stop-color:#C5DDF1" offset="0.5893" vector-effect="non-scaling-stroke"/>
								<stop style="stop-color:#9AC5E9" offset="0.839" vector-effect="non-scaling-stroke"/>
								<stop style="stop-color:#7BB4E3" offset="1" vector-effect="non-scaling-stroke"/>
							</linearGradient>
							<path d="M34.4,101.8c7.3,1.8,9.3,9.6,7.8,15.4c-1.5,5.8-7,7.6-13,6.2&#10;&#9;&#9;&#9;&#9;&#9;&#9;&#9;&#9;c-6-1.5-10.2-5.5-8.8-11.5C21.9,106,27.1,99.8,34.4,101.8z" style="fill:url(#SVGID_17__1548958884286);" vector-effect="non-scaling-stroke"/>
						</g>
					</g>
				</g>
			</g>
			<g style="clip-path:url(#SVGID_13__1548958884286);">
				<polygon points="191.3,109.2 150.3,110 172.4,137.7 213.9,138.2" class="st31_1548958884286" vector-effect="non-scaling-stroke"/>
				<g>
					
						<rect height="28.8" width="16.8" class="st32_1548958884286" transform="matrix(0.3867 -0.9222 0.9222 0.3867 -12.5546 246.4722)" y="118.3" x="170.6" vector-effect="non-scaling-stroke"/>
					
						<ellipse ry="14.3" rx="4.2" cy="140.4" cx="175.9" class="st33_1548958884286" transform="matrix(0.3867 -0.9222 0.9222 0.3867 -21.5905 248.2516)" vector-effect="non-scaling-stroke"/>
					
						<ellipse ry="14.3" rx="4.2" cy="124.8" cx="182.3" class="st32_1548958884286" transform="matrix(0.3867 -0.9222 0.9222 0.3867 -3.2597 244.6964)" vector-effect="non-scaling-stroke"/>
				</g>
				<path d="M157.4,118.1c0.4-1.1,0.7-2,1.1-3.1c1.1-3.1,2.5-4.3,3.6-4.9c1.1-0.5,1.8-0.4,1.8-0.4h0.2l0.2-0.5h-0.2&#10;&#9;&#9;&#9;&#9;&#9;c-0.2,0-3.8-0.7-6.2,5.6c-0.4,1.1-0.7,2.2-1.1,3.1c-1.6,4.9-3.1,9.1-7.4,10.3h-0.2l0.2,0.5h0.2&#10;&#9;&#9;&#9;&#9;&#9;C154.3,127.5,155.8,123.2,157.4,118.1z" class="st16_1548958884286" vector-effect="non-scaling-stroke"/>
				
					<linearGradient gradientTransform="matrix(-0.4421 -0.897 -0.897 0.4421 1372.1125 5129.1196)" y2="-1111.6422" x2="5029.7808" y1="-1111.6422" x1="5022.1621" gradientUnits="userSpaceOnUse" id="SVGID_19__1548958884286" vector-effect="non-scaling-stroke">
					<stop style="stop-color:#E5F1FC" offset="0" vector-effect="non-scaling-stroke"/>
					<stop style="stop-color:#AFCAEB" offset="0.172" vector-effect="non-scaling-stroke"/>
					<stop style="stop-color:#2969C2" offset="0.5646" vector-effect="non-scaling-stroke"/>
					<stop style="stop-color:#0D55B9" offset="0.6435" vector-effect="non-scaling-stroke"/>
					<stop style="stop-color:#003086" offset="0.9996" vector-effect="non-scaling-stroke"/>
				</linearGradient>
				<circle r="3.8" cy="129.7" cx="147.4" style="fill:url(#SVGID_19__1548958884286);" vector-effect="non-scaling-stroke"/>
				<g>
					<g>
						<defs>
							<circle r="3.8" cy="129.7" cx="147.4" id="SVGID_32__1548958884286" vector-effect="non-scaling-stroke"/>
						</defs>
						<clipPath id="SVGID_20__1548958884286" vector-effect="non-scaling-stroke">
							<use style="overflow:visible;" xmlns:xlink="http://www.w3.org/1999/xlink" xlink:href="#SVGID_32__1548958884286" vector-effect="non-scaling-stroke"/>
						</clipPath>
						<g style="clip-path:url(#SVGID_20__1548958884286);">
							
								<linearGradient gradientTransform="matrix(-0.4421 -0.897 -0.897 0.4421 1372.1125 5129.1196)" y2="-1108.3186" x2="5031.2939" y1="-1108.3186" x1="5020.4595" gradientUnits="userSpaceOnUse" id="SVGID_22__1548958884286" vector-effect="non-scaling-stroke">
								<stop style="stop-color:#FDFCFB" offset="3.808571e-02" vector-effect="non-scaling-stroke"/>
								<stop style="stop-color:#F6F8FA" offset="0.1723" vector-effect="non-scaling-stroke"/>
								<stop style="stop-color:#E4EEF6" offset="0.3636" vector-effect="non-scaling-stroke"/>
								<stop style="stop-color:#C5DDF1" offset="0.5893" vector-effect="non-scaling-stroke"/>
								<stop style="stop-color:#9AC5E9" offset="0.839" vector-effect="non-scaling-stroke"/>
								<stop style="stop-color:#7BB4E3" offset="1" vector-effect="non-scaling-stroke"/>
							</linearGradient>
							<path d="M149.3,128.6c1.6,3.3-0.5,6.3-3.3,7.8c-2.7,1.4-5.1-0.2-6.3-2.7&#10;&#9;&#9;&#9;&#9;&#9;&#9;&#9;&#9;c-1.4-2.7-1.3-5.4,1.4-6.9C143.8,125.5,147.6,125.4,149.3,128.6z" style="fill:url(#SVGID_22__1548958884286);" vector-effect="non-scaling-stroke"/>
						</g>
					</g>
				</g>
			</g>
			<g style="clip-path:url(#SVGID_13__1548958884286);">
				<polygon points="67.7,157.6 47.2,172.8 68.6,178.9 89.8,164.2" class="st31_1548958884286" vector-effect="non-scaling-stroke"/>
				<g>
					
						<rect height="10.6" width="18.1" class="st32_1548958884286" transform="matrix(0.975 -0.2222 0.2222 0.975 -36.8831 19.9248)" y="168.6" x="61.1" vector-effect="non-scaling-stroke"/>
					
						<ellipse ry="2.6" rx="8.9" cy="179.1" cx="71.3" class="st33_1548958884286" transform="matrix(0.975 -0.2222 0.2222 0.975 -37.9999 20.3131)" vector-effect="non-scaling-stroke"/>
					
						<ellipse ry="2.6" rx="8.9" cy="168.8" cx="68.8" class="st32_1548958884286" transform="matrix(0.975 -0.2222 0.2222 0.975 -35.7813 19.4935)" vector-effect="non-scaling-stroke"/>
				</g>
				<path d="M53.8,174.3c-0.1-0.6-0.4-1.4-0.5-2c-0.5-2-0.3-3.2,0-3.7c0.3-0.7,0.9-1,0.9-1l0,0l-0.1-0.4l0,0&#10;&#9;&#9;&#9;&#9;&#9;c0,0-2.3,1-1,5.1c0.1,0.6,0.4,1.4,0.5,2c0.9,3.1,1.8,5.7-0.1,8l0,0l0.2,0.2l0,0C55.7,180.4,54.8,177.7,53.8,174.3z" class="st16_1548958884286" vector-effect="non-scaling-stroke"/>
				
					<linearGradient gradientTransform="matrix(-0.8815 -0.4722 -0.4722 0.8815 3982.1206 3177.2881)" y2="-783.0342" x2="4879.3584" y1="-783.0342" x1="4874.5889" gradientUnits="userSpaceOnUse" id="SVGID_24__1548958884286" vector-effect="non-scaling-stroke">
					<stop style="stop-color:#E5F1FC" offset="0" vector-effect="non-scaling-stroke"/>
					<stop style="stop-color:#AFCAEB" offset="0.172" vector-effect="non-scaling-stroke"/>
					<stop style="stop-color:#2969C2" offset="0.5646" vector-effect="non-scaling-stroke"/>
					<stop style="stop-color:#0D55B9" offset="0.6435" vector-effect="non-scaling-stroke"/>
					<stop style="stop-color:#003086" offset="0.9996" vector-effect="non-scaling-stroke"/>
				</linearGradient>
				<circle r="2.4" cy="184" cx="52.8" style="fill:url(#SVGID_24__1548958884286);" vector-effect="non-scaling-stroke"/>
				<g>
					<g>
						<defs>
							<circle r="2.4" cy="184" cx="52.8" id="SVGID_36__1548958884286" vector-effect="non-scaling-stroke"/>
						</defs>
						<clipPath id="SVGID_26__1548958884286" vector-effect="non-scaling-stroke">
							<use style="overflow:visible;" xmlns:xlink="http://www.w3.org/1999/xlink" xlink:href="#SVGID_36__1548958884286" vector-effect="non-scaling-stroke"/>
						</clipPath>
						<g class="st30_1548958884286">
							
								<linearGradient gradientTransform="matrix(-0.8815 -0.4722 -0.4722 0.8815 3982.1206 3177.2881)" y2="-780.9219" x2="4880.3062" y1="-780.9219" x1="4873.5234" gradientUnits="userSpaceOnUse" id="SVGID_27__1548958884286" vector-effect="non-scaling-stroke">
								<stop style="stop-color:#FDFCFB" offset="3.808571e-02" vector-effect="non-scaling-stroke"/>
								<stop style="stop-color:#F6F8FA" offset="0.1723" vector-effect="non-scaling-stroke"/>
								<stop style="stop-color:#E4EEF6" offset="0.3636" vector-effect="non-scaling-stroke"/>
								<stop style="stop-color:#C5DDF1" offset="0.5893" vector-effect="non-scaling-stroke"/>
								<stop style="stop-color:#9AC5E9" offset="0.839" vector-effect="non-scaling-stroke"/>
								<stop style="stop-color:#7BB4E3" offset="1" vector-effect="non-scaling-stroke"/>
							</linearGradient>
							<path d="M53.4,182.9c2,1.1,2,3.4,1.3,5.1c-0.7,1.8-2.6,1.9-4.4,0.9c-1.6-0.8-2.6-2.2-1.7-4&#10;&#9;&#9;&#9;&#9;&#9;&#9;&#9;&#9;C49.5,183.1,51.4,181.7,53.4,182.9z" class="st34_1548958884286" vector-effect="non-scaling-stroke"/>
						</g>
					</g>
				</g>
			</g>
		</g>
	</g>
</g></g></svg>