<?xml version="1.0" standalone="no"?>
<svg version="1.2" overflow="visible" preserveAspectRatio="none" viewBox="0 0 32 32" xml:space="preserve" y="0px" x="0px" xmlns:xlink="http://www.w3.org/1999/xlink" xmlns="http://www.w3.org/2000/svg" id="Camada_1_1548343431391" width="36" height="36"><g transform="translate(1, 1)"><style type="text/css">
	.st0{fill:#BF4CE5;}
	.st1{fill:#953ABA;}
	.st2{fill:#9A8DF7;}
	.st3{fill:#7958ED;}
	.st4{fill:#FFFFFF;}
	.st5{fill:#F8F8F8;}
	.st6{fill:#5B3CCE;}
</style><g>
	<g>
		<g>
			<path d="M6.8,23.2C4.6,21,3.3,18,3.4,14.9c0-3.1,1.2-6,3.4-8.1l1.1,1.1c-1.9,1.9-3,4.4-3,7.1c0,2.7,1,5.3,3,7.2L6.8,23.2z" vector-effect="non-scaling-stroke" style="fill: rgb(255, 255, 255);"/>
		</g>
		<g>
			<path d="M23.2,23.2l-1.1-1.1c1.9-1.9,3-4.4,3-7.1c0-2.7-1-5.3-3-7.2l1.1-1.1c2.2,2.2,3.4,5.2,3.4,8.3&#10;&#9;&#9;&#9;&#9;C26.6,18.2,25.4,21,23.2,23.2z" vector-effect="non-scaling-stroke" style="fill: rgb(255, 255, 255);"/>
		</g>
		<g>
			<path d="M9.9,20.2c-2.8-2.8-2.8-7.4,0-10.2l1.1,1.1c-2.2,2.2-2.2,5.9,0,8.1L9.9,20.2z" vector-effect="non-scaling-stroke" style="fill: rgb(255, 255, 255);"/>
		</g>
		<g>
			<path d="M20.1,20.1L19.1,19c2.2-2.2,2.2-5.9,0-8.1l1.1-1.1C22.9,12.7,22.9,17.3,20.1,20.1z" vector-effect="non-scaling-stroke" style="fill: rgb(255, 255, 255);"/>
		</g>
		<g>
			<path d="M18.6,15c0-2-1.6-3.6-3.6-3.6S11.4,13,11.4,15s1.6,3.6,3.6,3.6S18.6,17,18.6,15z M12.9,15c0-1.2,0.9-2.2,2.2-2.2&#10;&#9;&#9;&#9;&#9;s2.2,0.9,2.2,2.2s-0.9,2.2-2.2,2.2S12.9,16.2,12.9,15z" vector-effect="non-scaling-stroke" style="fill: rgb(255, 255, 255);"/>
		</g>
	</g>
</g></g></svg>