<?xml version="1.0" encoding="utf-8"?>
<!-- Generator: Adobe Illustrator 23.0.1, SVG Export Plug-In . SVG Version: 6.00 Build 0)  -->
<svg version="1.1" id="Camada_1" xmlns="http://www.w3.org/2000/svg" xmlns:xlink="http://www.w3.org/1999/xlink" x="0px" y="0px"
	 viewBox="0 0 255 255" style="enable-background:new 0 0 255 255;" xml:space="preserve">
<style type="text/css">
	.st0{fill:#BE4CE4;}
	.st1{fill:#943AB9;}
	.st2{fill:#9D96F6;}
	.st3{fill:#7958EC;}
	.st4{fill:#FFFFFF;}
	.st5{fill:#F7F7F7;}
	.st6{fill:#5B3CCD;}
</style>
<g>
	<g>
		<g>
			<path class="st0" d="M137.3,174l0-0.1l0-0.1l0,0l-0.1,0c0,0,0,0-0.1,0.1l-0.1,0.1c-0.1,0.1-0.2,0.3-0.2,0.5
				c-0.2,0.3-0.3,0.7-0.5,1.1c-0.3,0.8-0.6,1.7-0.8,2.5c-0.5,1.8-1,3.6-1.4,5.4c-0.8,3.7-1.3,7.5-1.7,11.4c-0.6,7.7-0.3,15.4,1.1,23
				c1.4,7.6,3.9,15,7.4,22.2c0,0.1,0.1,0.1,0.1,0.2c2.9,5.7-6.2,12.7-12.1,9.3c-0.1-0.1-0.2-0.1-0.3-0.2c-8-4.8-15.4-10.6-21.8-17.3
				c-6.5-6.7-12-14.3-16.5-22.6c-2.2-4.2-4.2-8.6-5.9-13.2c-0.8-2.3-1.6-4.7-2.3-7.2c-0.3-1.2-0.6-2.5-0.9-3.9
				c-0.1-0.7-0.3-1.3-0.4-2.1c-0.1-0.3-0.1-0.7-0.2-1.1l0-0.3l0-0.4l0-0.4l0-0.1l0-0.2l0-0.3L137.3,174z"/>
			<path class="st0" d="M102.8,166.6l0-0.1l0-0.1l0,0l-0.1,0c0,0,0,0-0.1,0l-0.1,0.1c-0.1,0.1-0.3,0.2-0.4,0.3
				c-0.3,0.2-0.6,0.5-0.9,0.8c-0.6,0.6-1.3,1.2-1.9,1.9c-1.3,1.3-2.5,2.8-3.7,4.2c-2.4,3-4.6,6.1-6.6,9.4c-4,6.6-7.2,13.6-9.4,21.1
				c-2.2,7.4-3.3,15.2-3.4,23.1c0,0.1,0,0.2,0,0.2c0.1,6.4-11.2,8.6-14.9,2.9c-0.1-0.1-0.1-0.2-0.2-0.3c-5-7.9-9-16.3-11.7-25.2
				c-2.8-8.9-4.3-18.2-4.6-27.6c-0.1-4.7,0.1-9.5,0.6-14.4c0.3-2.4,0.7-4.9,1.2-7.4c0.3-1.3,0.6-2.5,0.9-3.9c0.2-0.7,0.4-1.3,0.6-2
				c0.1-0.3,0.2-0.7,0.4-1.1l0.1-0.3l0.1-0.3l0.1-0.3l0-0.1l0.1-0.1l0.1-0.3L102.8,166.6z"/>
			<path class="st0" d="M168.5,156.9l-0.1-0.1l0-0.1l0,0l0,0.1c0,0,0,0,0,0.1l0,0.1c0,0.2,0,0.3,0,0.5c0,0.4,0,0.8,0,1.2
				c0,0.9,0.1,1.8,0.2,2.7c0.2,1.8,0.5,3.7,0.9,5.5c0.7,3.7,1.8,7.4,3,11.1c2.5,7.3,5.9,14.3,10.2,20.7c4.3,6.4,9.5,12.2,15.6,17.4
				c0.1,0.1,0.1,0.1,0.2,0.2c5,4.1-0.6,14.1-7.4,13.3c-0.1,0-0.2,0-0.3,0c-9.2-1.2-18.3-3.6-26.9-7.2c-8.6-3.6-16.7-8.3-24.2-14.2
				c-3.7-2.9-7.3-6.2-10.7-9.7c-1.7-1.8-3.3-3.7-4.9-5.7c-0.8-1-1.6-2.1-2.4-3.2c-0.4-0.6-0.8-1.1-1.2-1.8c-0.2-0.3-0.4-0.6-0.6-1
				l-0.2-0.3l-0.2-0.3l-0.2-0.3l0-0.1l-0.1-0.1l-0.1-0.3L168.5,156.9z"/>
			<circle class="st1" cx="170.1" cy="204.5" r="2.6"/>
			<circle class="st1" cx="149.1" cy="203.1" r="1.5"/>
			<circle class="st1" cx="69.7" cy="201.1" r="2.6"/>
			<circle class="st1" cx="93.2" cy="201" r="2.6"/>
			<circle class="st1" cx="112.5" cy="212.5" r="4.6"/>
		</g>
		<g>
			<circle class="st2" cx="127.5" cy="102" r="97.6"/>
			<path class="st3" d="M47.1,154.5c0,0,18.9-113.2,67.2-120.3c51.2-7.5,90.7,33,72.5,85.1c-15,42.8-15.2,54.8-11.2,66.4l-24.3,12.7
				l-38.9,0.8l-39.2-14.4l-22-20.3L47.1,154.5z"/>
			<g>
				<path class="st4" d="M127.7,204.1c-8.8,0-17.7-1.2-26.5-3.5c-26.3-7-48.4-23.9-62-47.5S21.9,102,28.9,75.7
					C43.4,21.3,99.5-11.1,153.8,3.4c26.3,7,48.4,23.9,62,47.5c13.7,23.6,17.3,51.1,10.3,77.4c-7,26.3-23.9,48.4-47.5,62
					C162.9,199.5,145.4,204.1,127.7,204.1z M127.5,9C86.4,9,48.7,36.5,37.6,78c-6.4,24-3.1,49.1,9.4,70.6
					c12.4,21.5,32.5,36.9,56.5,43.3s49.1,3.1,70.6-9.4c21.5-12.4,36.9-32.5,43.3-56.5l0,0c6.4-24,3.1-49.1-9.4-70.6
					c-12.4-21.5-32.5-36.9-56.5-43.3C143.5,10,135.4,9,127.5,9z"/>
			</g>
			<g>
				<path class="st5" d="M138,62.7c-21.7-5.8-44.1,7.1-49.8,28.8c-5.8,21.7,7.1,44.1,28.8,49.8c21.7,5.8,44.1-7.1,49.8-28.8
					C172.6,90.8,159.7,68.5,138,62.7z"/>
				<g>
					<path class="st6" d="M140.3,112.3c-0.3,0-0.6,0-0.8-0.1c-1.7-0.5-2.7-2.2-2.3-3.9c0.8-2.8,0.4-5.8-1.1-8.3
						c-1.5-2.5-3.8-4.4-6.7-5.1c-2.8-0.8-5.8-0.4-8.3,1.1c-2.5,1.5-4.4,3.8-5.1,6.7c-0.5,1.7-2.2,2.7-3.9,2.3
						c-1.7-0.5-2.7-2.2-2.3-3.9c1.2-4.5,4.1-8.3,8.1-10.6c4-2.3,8.7-3,13.2-1.8c9.3,2.5,14.8,12.1,12.3,21.3
						C143.1,111.4,141.8,112.3,140.3,112.3z"/>
				</g>
			</g>
			
				<ellipse transform="matrix(0.7691 -0.6391 0.6391 0.7691 -8.868 65.0712)" class="st4" cx="85.6" cy="44.8" rx="23.6" ry="11.8"/>
			<circle class="st6" cx="149.3" cy="159.5" r="5.4"/>
			<circle class="st6" cx="156.2" cy="177.4" r="2.7"/>
			<circle class="st6" cx="158.2" cy="53.6" r="2.7"/>
			<circle class="st6" cx="88.3" cy="165.9" r="2.7"/>
			<circle class="st6" cx="67.6" cy="122.7" r="2.7"/>
		</g>
	</g>
</g>
</svg>
