<svg version="1.2" xmlns="http://www.w3.org/2000/svg" xmlns:xlink="http://www.w3.org/1999/xlink" overflow="visible" preserveAspectRatio="none" viewBox="0 0 503.79998779296875 134.60000610351562" xml:space="preserve" y="0px" x="0px" id="Camada_1_1552993213779" width="166" height="44"><g transform="translate(1, 1)"><style type="text/css">
	.st0_1552993213779{fill:#FFFFFF;}
</style><g>
	<g>
		<g>
			<path d="M3.9,75.1V5.6h23.8c17.1,0,29.7,4.4,29.7,17.9c0,5.7-2.9,11.3-8.8,14.3c8,2.4,12.4,8.1,12.4,16.3&#10;&#9;&#9;&#9;&#9;c0,14.5-12.6,21-31.1,21H3.9z M19.4,32.8h7.2c10.7,0,14.2-2.9,14.2-7.8c0-4.6-3.7-6.7-14-6.7h-7.4V32.8z M19.4,62.3h8.9&#10;&#9;&#9;&#9;&#9;c11.7,0,17-3.1,17-9.2c0-5.4-5-8.3-17-8.3h-8.9V62.3z" class="st0_1552993213779" vector-effect="non-scaling-stroke"/>
			<path d="M67.1,49c0-17.2,12.5-27.4,28-27.4s28.1,10.2,28.1,27.4c0,17.1-12.5,27.3-28.1,27.3&#10;&#9;&#9;&#9;&#9;C79.7,76.3,67.1,66.1,67.1,49z M83.2,49c0,9,4.8,14.1,11.9,14.1s12-5.1,12-14.1c0-9.1-4.9-14.2-12-14.2S83.2,39.9,83.2,49z" class="st0_1552993213779" vector-effect="non-scaling-stroke"/>
			<path d="M134.9,57.3V35.7h-7.4V23.5l8.2-0.5l1.5-14.3H153v14.2h13.9v12.9H153v20.8c0,5.1,2.2,6.8,6.4,6.8&#10;&#9;&#9;&#9;&#9;c1.5,0,3.5-0.5,4.8-1.1l1.8-0.7l2.9,12.3l-1.4,0.4c-3,1-6.8,2-11.2,2C139.9,76.3,134.9,68.2,134.9,57.3z" class="st0_1552993213779" vector-effect="non-scaling-stroke"/>
			<path d="M172,64.7l9.2-10.8l1.3,1.2c5,4.5,12.1,7.4,18.6,7.4c8.3,0,11.7-2.9,11.7-6.9c0-4.4-3.6-5.6-10.8-8.3&#10;&#9;&#9;&#9;&#9;l-10.6-3.9c-7.7-2.8-15.6-8.4-15.6-18.9c0-11.5,10.8-20.1,26.7-20.1c9.5,0,18.2,3.5,23.9,9.2l1.1,1.1l-8.2,10.2l-1.3-1&#10;&#9;&#9;&#9;&#9;c-4.6-3.6-9.4-5.6-15.5-5.6c-6.9,0-10.4,2.6-10.4,6.3c0,3.9,4.6,5.5,11.3,7.9l10.5,3.7c8.7,3.4,15.3,8.9,15.3,19.2&#10;&#9;&#9;&#9;&#9;c0,11.7-10.3,21-28.2,21c-10.8,0-20.9-3.8-27.8-10.6L172,64.7z" class="st0_1552993213779" vector-effect="non-scaling-stroke"/>
			<path d="M234.5,49c0-17.3,13.1-27.4,30.1-27.4c8,0,13.5,2.9,17.2,6.5l1.1,1l-7.8,10.3l-1.3-1.2&#10;&#9;&#9;&#9;&#9;c-2.6-2.3-5.2-3.4-8.5-3.4c-8.5,0-14.7,5.3-14.7,14.2c0,8.8,6.1,14.1,14.2,14.1c4.2,0,7.9-1.9,10.6-4.1l1.3-1.1l6.9,10.4&#10;&#9;&#9;&#9;&#9;l-1.1,0.8c-5.2,4.6-11.8,7.1-19.1,7.1C246.2,76.3,234.5,66.1,234.5,49z" class="st0_1552993213779" vector-effect="non-scaling-stroke"/>
			<path d="M291.3,75.1v-75h15.4V21l-0.3,6.4c4.8-3.3,10.4-5.7,17.7-5.7c12.6,0,18.1,8.3,18.1,21v32.4h-15.4V44.8&#10;&#9;&#9;&#9;&#9;c0-7.7-2.3-9.5-7.9-9.5c-4.5,0-7.4,1.5-12.2,5.1V75L291.3,75.1L291.3,75.1z" class="st0_1552993213779" vector-effect="non-scaling-stroke"/>
			<path d="M351.4,49c0-17.2,12.5-27.4,28-27.4s28.1,10.2,28.1,27.4c0,17.1-12.5,27.3-28.1,27.3&#10;&#9;&#9;&#9;&#9;C364,76.3,351.4,66.1,351.4,49z M367.5,49c0,9,4.8,14.1,11.9,14.1s12-5.1,12-14.1c0-9.1-4.9-14.2-12-14.2S367.5,39.9,367.5,49z" class="st0_1552993213779" vector-effect="non-scaling-stroke"/>
			<path d="M414,49c0-17.2,12.5-27.4,28-27.4s28.1,10.2,28.1,27.4c0,17.1-12.5,27.3-28.1,27.3&#10;&#9;&#9;&#9;&#9;C426.6,76.3,414,66.1,414,49z M430.1,49c0,9,4.8,14.1,11.9,14.1c7.1,0,12-5.1,12-14.1c0-9.1-4.9-14.2-12-14.2&#10;&#9;&#9;&#9;&#9;C434.8,34.8,430.1,39.9,430.1,49z" class="st0_1552993213779" vector-effect="non-scaling-stroke"/>
			<path d="M480,60.7V0h15.4v60.8c0,2.3,1,2.3,1.1,2.3c0.5,0,0.7,0,1.6-0.2l1.6-0.3l2.1,12l-1.2,0.5&#10;&#9;&#9;&#9;&#9;c-1.8,0.7-4.1,1.2-7.1,1.2C483.7,76.3,480,69.8,480,60.7z" class="st0_1552993213779" vector-effect="non-scaling-stroke"/>
		</g>
	</g>
	<g>
		<g>
			<path d="M20.8,104.1l-8.7,21.3H8.7L0,104.1h3c0.3,0,0.6,0.1,0.8,0.2c0.2,0.2,0.3,0.3,0.4,0.5l5.4,13.7&#10;&#9;&#9;&#9;&#9;c0.2,0.5,0.3,1,0.4,1.5c0.1,0.5,0.2,1,0.4,1.5c0.1-0.5,0.2-1,0.4-1.5s0.3-1,0.5-1.5l5.5-13.7c0.1-0.2,0.2-0.4,0.4-0.6&#10;&#9;&#9;&#9;&#9;c0.2-0.1,0.4-0.2,0.7-0.2h2.9V104.1z" class="st0_1552993213779" vector-effect="non-scaling-stroke"/>
			<path d="M29,97.4c0,0.4-0.1,0.7-0.2,1c-0.1,0.3-0.3,0.6-0.6,0.8s-0.5,0.4-0.9,0.6c-0.3,0.1-0.7,0.2-1,0.2&#10;&#9;&#9;&#9;&#9;c-0.4,0-0.7-0.1-1-0.2c-0.3-0.1-0.6-0.3-0.8-0.6s-0.4-0.5-0.6-0.8s-0.2-0.7-0.2-1s0.1-0.7,0.2-1s0.3-0.6,0.6-0.9s0.5-0.4,0.8-0.6&#10;&#9;&#9;&#9;&#9;s0.7-0.2,1-0.2c0.4,0,0.7,0.1,1,0.2s0.6,0.3,0.9,0.6s0.4,0.5,0.6,0.9C28.9,96.7,29,97,29,97.4z M28.2,104.1v21.3h-3.7v-21.3H28.2&#10;&#9;&#9;&#9;&#9;z" class="st0_1552993213779" vector-effect="non-scaling-stroke"/>
			<path d="M37.9,108.4c0.7-1.5,1.5-2.6,2.5-3.4c1-0.8,2.2-1.2,3.6-1.2c0.4,0,0.9,0,1.3,0.1s0.8,0.3,1.1,0.5l-0.3,2.8&#10;&#9;&#9;&#9;&#9;c-0.1,0.4-0.3,0.5-0.6,0.5c-0.2,0-0.5,0-0.9-0.1s-0.8-0.1-1.3-0.1c-0.7,0-1.3,0.1-1.8,0.3s-1,0.5-1.4,0.9s-0.8,0.9-1.1,1.4&#10;&#9;&#9;&#9;&#9;c-0.3,0.6-0.6,1.2-0.9,1.9v13.4h-3.8v-21.3h2.1c0.4,0,0.7,0.1,0.8,0.2c0.2,0.2,0.3,0.4,0.3,0.8L37.9,108.4z" class="st0_1552993213779" vector-effect="non-scaling-stroke"/>
			<path d="M56.2,125.7c-1.7,0-3-0.5-3.9-1.4s-1.4-2.3-1.4-4.1v-13h-2.6c-0.2,0-0.4-0.1-0.6-0.2&#10;&#9;&#9;&#9;&#9;c-0.2-0.1-0.2-0.3-0.2-0.6v-1.5l3.5-0.4l0.9-6.6c0-0.2,0.1-0.4,0.3-0.5s0.3-0.2,0.6-0.2h1.9v7.3h6.2v2.7h-6.2V120&#10;&#9;&#9;&#9;&#9;c0,0.9,0.2,1.6,0.7,2c0.4,0.4,1,0.7,1.7,0.7c0.4,0,0.7-0.1,1-0.2c0.3-0.1,0.5-0.2,0.7-0.3s0.4-0.2,0.5-0.3s0.3-0.2,0.4-0.2&#10;&#9;&#9;&#9;&#9;c0.2,0,0.4,0.1,0.5,0.4l1.1,1.8c-0.6,0.6-1.4,1.1-2.3,1.4S57.2,125.7,56.2,125.7z" class="st0_1552993213779" vector-effect="non-scaling-stroke"/>
			<path d="M82.2,104.1v21.3H80c-0.5,0-0.9-0.3-1-0.8l-0.3-2.3c-0.9,1-2,1.8-3.1,2.5c-1.1,0.6-2.5,0.9-4,0.9&#10;&#9;&#9;&#9;&#9;c-1.2,0-2.2-0.2-3.1-0.6c-0.9-0.4-1.6-0.9-2.2-1.6c-0.6-0.7-1.1-1.5-1.4-2.5s-0.5-2.1-0.5-3.3v-13.6h3.7v13.6&#10;&#9;&#9;&#9;&#9;c0,1.6,0.4,2.9,1.1,3.7c0.7,0.9,1.9,1.3,3.4,1.3c1.1,0,2.1-0.3,3.1-0.8s1.8-1.3,2.7-2.2V104h3.8V104.1z" class="st0_1552993213779" vector-effect="non-scaling-stroke"/>
			<path d="M87.6,107.1c1.2-1.1,2.4-2,3.8-2.5s2.9-0.8,4.5-0.8c1.2,0,2.2,0.2,3.2,0.6c0.9,0.4,1.7,0.9,2.3,1.6&#10;&#9;&#9;&#9;&#9;c0.6,0.7,1.1,1.5,1.4,2.5s0.5,2.1,0.5,3.3v13.6h-1.7c-0.4,0-0.6-0.1-0.8-0.2c-0.2-0.1-0.3-0.4-0.5-0.7l-0.4-2&#10;&#9;&#9;&#9;&#9;c-0.6,0.5-1.1,1-1.6,1.4s-1.1,0.7-1.7,1s-1.2,0.5-1.9,0.6c-0.7,0.1-1.4,0.2-2.2,0.2c-0.8,0-1.6-0.1-2.3-0.3&#10;&#9;&#9;&#9;&#9;c-0.7-0.2-1.4-0.6-1.9-1s-1-1-1.3-1.8c-0.3-0.7-0.5-1.5-0.5-2.5c0-0.8,0.2-1.7,0.7-2.4c0.5-0.8,1.2-1.5,2.2-2.1s2.4-1.1,4.1-1.5&#10;&#9;&#9;&#9;&#9;s3.7-0.6,6.1-0.7v-1.7c0-1.7-0.4-2.9-1.1-3.8s-1.8-1.3-3.1-1.3c-0.9,0-1.7,0.1-2.3,0.3c-0.6,0.2-1.2,0.5-1.6,0.8&#10;&#9;&#9;&#9;&#9;c-0.5,0.3-0.8,0.5-1.2,0.8c-0.3,0.2-0.7,0.3-1,0.3s-0.5-0.1-0.7-0.2c-0.2-0.1-0.3-0.3-0.5-0.5L87.6,107.1z M99.7,115.8&#10;&#9;&#9;&#9;&#9;c-1.7,0.1-3.2,0.2-4.4,0.4c-1.2,0.2-2.2,0.5-3,0.9s-1.3,0.8-1.7,1.2s-0.5,1-0.5,1.6s0.1,1,0.3,1.5c0.2,0.4,0.4,0.7,0.7,1&#10;&#9;&#9;&#9;&#9;c0.3,0.3,0.7,0.4,1.1,0.6c0.4,0.1,0.9,0.2,1.4,0.2c0.7,0,1.3-0.1,1.8-0.2s1.1-0.3,1.5-0.6c0.5-0.3,0.9-0.6,1.4-0.9&#10;&#9;&#9;&#9;&#9;s0.9-0.8,1.3-1.2v-4.5H99.7z" class="st0_1552993213779" vector-effect="non-scaling-stroke"/>
			<path d="M112.9,94.4v31h-3.7v-31H112.9z" class="st0_1552993213779" vector-effect="non-scaling-stroke"/>
			<path d="M129.2,107.1c1.2-1.1,2.4-2,3.8-2.5s2.9-0.8,4.5-0.8c1.2,0,2.2,0.2,3.2,0.6c0.9,0.4,1.7,0.9,2.3,1.6&#10;&#9;&#9;&#9;&#9;c0.6,0.7,1.1,1.5,1.4,2.5s0.5,2.1,0.5,3.3v13.6h-1.7c-0.4,0-0.6-0.1-0.8-0.2c-0.2-0.1-0.3-0.4-0.5-0.7l-0.4-2&#10;&#9;&#9;&#9;&#9;c-0.6,0.5-1.1,1-1.6,1.4s-1.1,0.7-1.7,1s-1.2,0.5-1.9,0.6c-0.7,0.1-1.4,0.2-2.2,0.2c-0.8,0-1.6-0.1-2.3-0.3&#10;&#9;&#9;&#9;&#9;c-0.7-0.2-1.4-0.6-1.9-1s-1-1-1.3-1.8c-0.3-0.7-0.5-1.5-0.5-2.5c0-0.8,0.2-1.7,0.7-2.4c0.5-0.8,1.2-1.5,2.2-2.1s2.4-1.1,4.1-1.5&#10;&#9;&#9;&#9;&#9;s3.7-0.6,6.1-0.7v-1.7c0-1.7-0.4-2.9-1.1-3.8s-1.8-1.3-3.1-1.3c-0.9,0-1.7,0.1-2.3,0.3c-0.6,0.2-1.2,0.5-1.6,0.8&#10;&#9;&#9;&#9;&#9;c-0.5,0.3-0.8,0.5-1.2,0.8c-0.3,0.2-0.7,0.3-1,0.3s-0.5-0.1-0.7-0.2c-0.2-0.1-0.3-0.3-0.5-0.5L129.2,107.1z M141.3,115.8&#10;&#9;&#9;&#9;&#9;c-1.7,0.1-3.2,0.2-4.4,0.4c-1.2,0.2-2.2,0.5-3,0.9s-1.3,0.8-1.7,1.2s-0.5,1-0.5,1.6s0.1,1,0.3,1.5c0.2,0.4,0.4,0.7,0.7,1&#10;&#9;&#9;&#9;&#9;c0.3,0.3,0.7,0.4,1.1,0.6c0.4,0.1,0.9,0.2,1.4,0.2c0.7,0,1.3-0.1,1.8-0.2s1.1-0.3,1.5-0.6c0.5-0.3,0.9-0.6,1.4-0.9&#10;&#9;&#9;&#9;&#9;s0.9-0.8,1.3-1.2v-4.5H141.3z" class="st0_1552993213779" vector-effect="non-scaling-stroke"/>
			<path d="M163,107.6c-0.2,0.3-0.4,0.5-0.8,0.5c-0.2,0-0.4-0.1-0.7-0.2c-0.3-0.2-0.6-0.3-1-0.5s-0.8-0.4-1.4-0.5&#10;&#9;&#9;&#9;&#9;c-0.5-0.2-1.2-0.2-1.9-0.2c-0.6,0-1.2,0.1-1.7,0.2c-0.5,0.2-0.9,0.4-1.3,0.7s-0.6,0.6-0.8,1c-0.2,0.4-0.3,0.8-0.3,1.2&#10;&#9;&#9;&#9;&#9;c0,0.5,0.2,1,0.5,1.4s0.7,0.7,1.2,0.9c0.5,0.3,1.1,0.5,1.8,0.7s1.3,0.4,2,0.7c0.7,0.2,1.4,0.5,2,0.8c0.7,0.3,1.2,0.6,1.8,1.1&#10;&#9;&#9;&#9;&#9;c0.5,0.4,0.9,0.9,1.2,1.5s0.5,1.3,0.5,2.2c0,1-0.2,1.9-0.5,2.7s-0.9,1.6-1.6,2.2c-0.7,0.6-1.5,1.1-2.5,1.4&#10;&#9;&#9;&#9;&#9;c-1,0.4-2.1,0.5-3.4,0.5c-1.5,0-2.8-0.2-4-0.7s-2.2-1.1-3.1-1.9l0.9-1.4c0.1-0.2,0.2-0.3,0.4-0.4c0.2-0.1,0.3-0.1,0.6-0.1&#10;&#9;&#9;&#9;&#9;c0.3,0,0.5,0.1,0.8,0.3s0.6,0.4,1,0.7c0.4,0.2,0.9,0.5,1.5,0.7s1.3,0.3,2.1,0.3c0.7,0,1.4-0.1,1.9-0.3s1-0.4,1.4-0.8&#10;&#9;&#9;&#9;&#9;c0.4-0.3,0.6-0.7,0.8-1.1c0.2-0.4,0.3-0.9,0.3-1.3c0-0.6-0.2-1.1-0.5-1.5s-0.7-0.7-1.2-1s-1.1-0.5-1.8-0.7&#10;&#9;&#9;&#9;&#9;c-0.7-0.2-1.3-0.4-2-0.6c-0.7-0.2-1.4-0.5-2-0.8c-0.7-0.3-1.3-0.6-1.8-1.1c-0.5-0.4-0.9-1-1.2-1.6c-0.3-0.6-0.5-1.4-0.5-2.3&#10;&#9;&#9;&#9;&#9;c0-0.8,0.2-1.6,0.5-2.3c0.3-0.8,0.8-1.4,1.5-2s1.4-1,2.4-1.4c0.9-0.3,2-0.5,3.2-0.5c1.4,0,2.7,0.2,3.8,0.7c1.1,0.4,2.1,1,2.9,1.8&#10;&#9;&#9;&#9;&#9;L163,107.6z" class="st0_1552993213779" vector-effect="non-scaling-stroke"/>
			<path d="M181.2,107.6c-0.2,0.3-0.4,0.5-0.8,0.5c-0.2,0-0.4-0.1-0.7-0.2c-0.3-0.2-0.6-0.3-1-0.5s-0.8-0.4-1.4-0.5&#10;&#9;&#9;&#9;&#9;c-0.5-0.2-1.2-0.2-1.9-0.2c-0.6,0-1.2,0.1-1.7,0.2c-0.5,0.2-0.9,0.4-1.3,0.7s-0.6,0.6-0.8,1c-0.2,0.4-0.3,0.8-0.3,1.2&#10;&#9;&#9;&#9;&#9;c0,0.5,0.2,1,0.5,1.4s0.7,0.7,1.2,0.9c0.5,0.3,1.1,0.5,1.8,0.7s1.3,0.4,2,0.7c0.7,0.2,1.4,0.5,2,0.8c0.7,0.3,1.2,0.6,1.8,1.1&#10;&#9;&#9;&#9;&#9;c0.5,0.4,0.9,0.9,1.2,1.5s0.5,1.3,0.5,2.2c0,1-0.2,1.9-0.5,2.7s-0.9,1.6-1.6,2.2c-0.7,0.6-1.5,1.1-2.5,1.4&#10;&#9;&#9;&#9;&#9;c-1,0.4-2.1,0.5-3.4,0.5c-1.5,0-2.8-0.2-4-0.7s-2.2-1.1-3.1-1.9l0.9-1.4c0.1-0.2,0.2-0.3,0.4-0.4c0.2-0.1,0.3-0.1,0.6-0.1&#10;&#9;&#9;&#9;&#9;c0.3,0,0.5,0.1,0.8,0.3s0.6,0.4,1,0.7c0.4,0.2,0.9,0.5,1.5,0.7s1.3,0.3,2.1,0.3c0.7,0,1.4-0.1,1.9-0.3s1-0.4,1.4-0.8&#10;&#9;&#9;&#9;&#9;c0.4-0.3,0.6-0.7,0.8-1.1c0.2-0.4,0.3-0.9,0.3-1.3c0-0.6-0.2-1.1-0.5-1.5s-0.7-0.7-1.2-1s-1.1-0.5-1.8-0.7&#10;&#9;&#9;&#9;&#9;c-0.7-0.2-1.3-0.4-2-0.6c-0.7-0.2-1.4-0.5-2-0.8c-0.7-0.3-1.3-0.6-1.8-1.1c-0.5-0.4-0.9-1-1.2-1.6c-0.3-0.6-0.5-1.4-0.5-2.3&#10;&#9;&#9;&#9;&#9;c0-0.8,0.2-1.6,0.5-2.3c0.3-0.8,0.8-1.4,1.5-2s1.4-1,2.4-1.4c0.9-0.3,2-0.5,3.2-0.5c1.4,0,2.7,0.2,3.8,0.7c1.1,0.4,2.1,1,2.9,1.8&#10;&#9;&#9;&#9;&#9;L181.2,107.6z" class="st0_1552993213779" vector-effect="non-scaling-stroke"/>
			<path d="M191.8,97.4c0,0.4-0.1,0.7-0.2,1s-0.3,0.6-0.6,0.8c-0.2,0.2-0.5,0.4-0.9,0.6c-0.3,0.1-0.7,0.2-1,0.2&#10;&#9;&#9;&#9;&#9;s-0.7-0.1-1-0.2c-0.3-0.1-0.6-0.3-0.8-0.6s-0.4-0.5-0.6-0.8c-0.1-0.3-0.2-0.7-0.2-1s0.1-0.7,0.2-1s0.3-0.6,0.6-0.9&#10;&#9;&#9;&#9;&#9;s0.5-0.4,0.8-0.6c0.3-0.1,0.7-0.2,1-0.2s0.7,0.1,1,0.2c0.3,0.1,0.6,0.3,0.9,0.6c0.2,0.2,0.4,0.5,0.6,0.9S191.8,97,191.8,97.4z&#10;&#9;&#9;&#9;&#9; M191,104.1v21.3h-3.7v-21.3H191z" class="st0_1552993213779" vector-effect="non-scaling-stroke"/>
			<path d="M209.5,107.6c-0.2,0.3-0.4,0.5-0.8,0.5c-0.2,0-0.4-0.1-0.7-0.2s-0.6-0.3-1-0.5s-0.8-0.4-1.4-0.5&#10;&#9;&#9;&#9;&#9;s-1.2-0.2-1.9-0.2c-0.6,0-1.2,0.1-1.7,0.2s-0.9,0.4-1.3,0.7s-0.6,0.6-0.8,1c-0.2,0.4-0.3,0.8-0.3,1.2c0,0.5,0.2,1,0.5,1.4&#10;&#9;&#9;&#9;&#9;s0.7,0.7,1.2,0.9c0.5,0.3,1.1,0.5,1.8,0.7c0.7,0.2,1.3,0.4,2,0.7s1.4,0.5,2,0.8c0.7,0.3,1.2,0.6,1.8,1.1c0.5,0.4,0.9,0.9,1.2,1.5&#10;&#9;&#9;&#9;&#9;c0.3,0.6,0.5,1.3,0.5,2.2c0,1-0.2,1.9-0.5,2.7c-0.4,0.8-0.9,1.6-1.6,2.2c-0.7,0.6-1.5,1.1-2.5,1.4c-1,0.4-2.1,0.5-3.4,0.5&#10;&#9;&#9;&#9;&#9;c-1.5,0-2.8-0.2-4-0.7s-2.2-1.1-3.1-1.9l0.9-1.4c0.1-0.2,0.2-0.3,0.4-0.4c0.2-0.1,0.3-0.1,0.6-0.1c0.3,0,0.5,0.1,0.8,0.3&#10;&#9;&#9;&#9;&#9;s0.6,0.4,1,0.7c0.4,0.2,0.9,0.5,1.5,0.7s1.3,0.3,2.1,0.3c0.7,0,1.4-0.1,1.9-0.3s1-0.4,1.4-0.8c0.4-0.3,0.6-0.7,0.8-1.1&#10;&#9;&#9;&#9;&#9;c0.2-0.4,0.3-0.9,0.3-1.3c0-0.6-0.2-1.1-0.5-1.5s-0.7-0.7-1.3-1c-0.5-0.3-1.1-0.5-1.8-0.7s-1.3-0.4-2-0.6c-0.7-0.2-1.4-0.5-2-0.8&#10;&#9;&#9;&#9;&#9;c-0.7-0.3-1.3-0.6-1.8-1.1c-0.5-0.4-0.9-1-1.2-1.6c-0.3-0.6-0.5-1.4-0.5-2.3c0-0.8,0.2-1.6,0.5-2.3c0.3-0.8,0.8-1.4,1.5-2&#10;&#9;&#9;&#9;&#9;c0.6-0.6,1.4-1,2.4-1.4c0.9-0.3,2-0.5,3.2-0.5c1.4,0,2.7,0.2,3.8,0.7s2.1,1,2.9,1.8L209.5,107.6z" class="st0_1552993213779" vector-effect="non-scaling-stroke"/>
			<path d="M221.8,125.7c-1.7,0-3-0.5-3.9-1.4s-1.4-2.3-1.4-4.1v-13h-2.6c-0.2,0-0.4-0.1-0.6-0.2&#10;&#9;&#9;&#9;&#9;c-0.2-0.1-0.2-0.3-0.2-0.6v-1.5l3.5-0.4l0.9-6.6c0-0.2,0.1-0.4,0.3-0.5s0.3-0.2,0.6-0.2h1.9v7.3h6.2v2.7h-6.2V120&#10;&#9;&#9;&#9;&#9;c0,0.9,0.2,1.6,0.7,2c0.4,0.4,1,0.7,1.7,0.7c0.4,0,0.7-0.1,1-0.2s0.5-0.2,0.7-0.3s0.4-0.2,0.5-0.3s0.3-0.2,0.4-0.2&#10;&#9;&#9;&#9;&#9;c0.2,0,0.4,0.1,0.5,0.4l1.1,1.8c-0.6,0.6-1.4,1.1-2.3,1.4S222.8,125.7,221.8,125.7z" class="st0_1552993213779" vector-effect="non-scaling-stroke"/>
			<path d="M229.8,107.1c1.2-1.1,2.4-2,3.8-2.5c1.4-0.6,2.9-0.8,4.5-0.8c1.2,0,2.2,0.2,3.2,0.6c0.9,0.4,1.7,0.9,2.3,1.6&#10;&#9;&#9;&#9;&#9;c0.6,0.7,1.1,1.5,1.4,2.5s0.5,2.1,0.5,3.3v13.6h-1.7c-0.4,0-0.6-0.1-0.8-0.2c-0.2-0.1-0.4-0.4-0.5-0.7l-0.4-2&#10;&#9;&#9;&#9;&#9;c-0.6,0.5-1.1,1-1.6,1.4s-1.1,0.7-1.7,1s-1.2,0.5-1.9,0.6c-0.7,0.1-1.4,0.2-2.2,0.2c-0.8,0-1.6-0.1-2.3-0.3&#10;&#9;&#9;&#9;&#9;c-0.7-0.2-1.4-0.6-1.9-1c-0.5-0.5-1-1-1.3-1.8c-0.3-0.7-0.5-1.5-0.5-2.5c0-0.8,0.2-1.7,0.7-2.4c0.5-0.8,1.2-1.5,2.2-2.1&#10;&#9;&#9;&#9;&#9;s2.4-1.1,4.1-1.5s3.7-0.6,6.1-0.7v-1.7c0-1.7-0.4-2.9-1.1-3.8s-1.8-1.3-3.1-1.3c-0.9,0-1.7,0.1-2.3,0.3s-1.2,0.5-1.6,0.8&#10;&#9;&#9;&#9;&#9;c-0.5,0.3-0.8,0.5-1.2,0.8c-0.3,0.2-0.7,0.3-1,0.3s-0.5-0.1-0.7-0.2c-0.2-0.1-0.3-0.3-0.5-0.5L229.8,107.1z M241.9,115.8&#10;&#9;&#9;&#9;&#9;c-1.7,0.1-3.2,0.2-4.4,0.4c-1.2,0.2-2.2,0.5-3,0.9s-1.3,0.8-1.7,1.2c-0.3,0.5-0.5,1-0.5,1.6s0.1,1,0.3,1.5s0.4,0.7,0.7,1&#10;&#9;&#9;&#9;&#9;c0.3,0.3,0.7,0.4,1.1,0.6c0.4,0.1,0.9,0.2,1.4,0.2c0.7,0,1.3-0.1,1.8-0.2c0.5-0.1,1.1-0.3,1.5-0.6c0.5-0.3,0.9-0.6,1.4-0.9&#10;&#9;&#9;&#9;&#9;s0.9-0.8,1.3-1.2v-4.5H241.9z" class="st0_1552993213779" vector-effect="non-scaling-stroke"/>
			<path d="M254.8,107.2c0.5-0.5,1-1,1.5-1.4c0.5-0.4,1.1-0.8,1.6-1.1c0.6-0.3,1.2-0.5,1.8-0.7c0.7-0.2,1.4-0.2,2.1-0.2&#10;&#9;&#9;&#9;&#9;c1.2,0,2.2,0.2,3.1,0.6c0.9,0.4,1.6,0.9,2.2,1.6c0.6,0.7,1,1.6,1.4,2.6c0.3,1,0.5,2.1,0.5,3.3v13.5h-3.8v-13.6&#10;&#9;&#9;&#9;&#9;c0-1.6-0.4-2.9-1.1-3.8c-0.7-0.9-1.9-1.3-3.4-1.3c-1.1,0-2.1,0.3-3.1,0.8s-1.8,1.3-2.7,2.2v15.7h-3.8v-21.3h2.2&#10;&#9;&#9;&#9;&#9;c0.5,0,0.9,0.3,1,0.8L254.8,107.2z" class="st0_1552993213779" vector-effect="non-scaling-stroke"/>
			<path d="M280.9,125.7c-1.7,0-3-0.5-3.9-1.4c-0.9-0.9-1.4-2.3-1.4-4.1v-13H273c-0.2,0-0.4-0.1-0.6-0.2&#10;&#9;&#9;&#9;&#9;c-0.2-0.1-0.2-0.3-0.2-0.6v-1.5l3.5-0.4l0.9-6.6c0-0.2,0.1-0.4,0.3-0.5c0.1-0.1,0.3-0.2,0.6-0.2h1.9v7.3h6.2v2.7h-6.1V120&#10;&#9;&#9;&#9;&#9;c0,0.9,0.2,1.6,0.7,2c0.4,0.4,1,0.7,1.7,0.7c0.4,0,0.7-0.1,1-0.2s0.5-0.2,0.7-0.3s0.4-0.2,0.5-0.3c0.1-0.1,0.3-0.2,0.4-0.2&#10;&#9;&#9;&#9;&#9;c0.2,0,0.4,0.1,0.5,0.4l1.1,1.8c-0.6,0.6-1.4,1.1-2.3,1.4C282.9,125.5,281.9,125.7,280.9,125.7z" class="st0_1552993213779" vector-effect="non-scaling-stroke"/>
			<path d="M303.8,107.4c0.9-1.1,1.9-2,3.1-2.7c1.2-0.7,2.5-1,4-1c1.2,0,2.3,0.2,3.3,0.7s1.8,1.2,2.5,2.1&#10;&#9;&#9;&#9;&#9;c0.7,0.9,1.2,2.1,1.6,3.4c0.4,1.4,0.6,2.9,0.6,4.7c0,1.6-0.2,3-0.6,4.4c-0.4,1.4-1,2.5-1.8,3.5s-1.8,1.8-2.9,2.3&#10;&#9;&#9;&#9;&#9;c-1.1,0.6-2.4,0.9-3.9,0.9c-1.3,0-2.4-0.2-3.4-0.7s-1.8-1.1-2.5-1.8v9.4H300v-28.5h2.2c0.5,0,0.9,0.3,1,0.8L303.8,107.4z&#10;&#9;&#9;&#9;&#9; M304,120.3c0.7,0.9,1.4,1.6,2.2,2s1.7,0.6,2.7,0.6c2,0,3.5-0.7,4.6-2.1c1.1-1.4,1.6-3.4,1.6-6.1c0-1.4-0.1-2.6-0.4-3.6&#10;&#9;&#9;&#9;&#9;c-0.2-1-0.6-1.8-1.1-2.4c-0.5-0.6-1-1.1-1.7-1.4c-0.7-0.3-1.4-0.4-2.3-0.4c-1.2,0-2.3,0.3-3.2,0.8c-0.9,0.6-1.8,1.4-2.5,2.4v10.2&#10;&#9;&#9;&#9;&#9;H304z" class="st0_1552993213779" vector-effect="non-scaling-stroke"/>
			<path d="M327.7,94.4v31H324v-31H327.7z" class="st0_1552993213779" vector-effect="non-scaling-stroke"/>
			<path d="M333.2,107.1c1.2-1.1,2.4-2,3.8-2.5c1.4-0.6,2.9-0.8,4.5-0.8c1.2,0,2.2,0.2,3.2,0.6c0.9,0.4,1.7,0.9,2.3,1.6&#10;&#9;&#9;&#9;&#9;c0.6,0.7,1.1,1.5,1.4,2.5c0.3,1,0.5,2.1,0.5,3.3v13.6h-1.7c-0.4,0-0.6-0.1-0.8-0.2c-0.2-0.1-0.4-0.4-0.5-0.7l-0.4-2&#10;&#9;&#9;&#9;&#9;c-0.6,0.5-1.1,1-1.6,1.4s-1.1,0.7-1.7,1s-1.2,0.5-1.9,0.6s-1.4,0.2-2.2,0.2s-1.6-0.1-2.3-0.3s-1.4-0.6-1.9-1&#10;&#9;&#9;&#9;&#9;c-0.5-0.5-1-1-1.3-1.8c-0.3-0.7-0.5-1.5-0.5-2.5c0-0.8,0.2-1.7,0.7-2.4c0.5-0.8,1.2-1.5,2.2-2.1s2.4-1.1,4.1-1.5&#10;&#9;&#9;&#9;&#9;c1.7-0.4,3.7-0.6,6.1-0.7v-1.7c0-1.7-0.4-2.9-1.1-3.8s-1.8-1.3-3.1-1.3c-0.9,0-1.7,0.1-2.3,0.3s-1.2,0.5-1.6,0.8&#10;&#9;&#9;&#9;&#9;c-0.5,0.3-0.8,0.5-1.2,0.8c-0.3,0.2-0.7,0.3-1,0.3s-0.5-0.1-0.7-0.2c-0.2-0.1-0.3-0.3-0.5-0.5L333.2,107.1z M345.3,115.8&#10;&#9;&#9;&#9;&#9;c-1.7,0.1-3.2,0.2-4.4,0.4s-2.2,0.5-3,0.9s-1.3,0.8-1.7,1.2c-0.3,0.5-0.5,1-0.5,1.6s0.1,1,0.3,1.5s0.4,0.7,0.7,1s0.7,0.4,1.1,0.6&#10;&#9;&#9;&#9;&#9;c0.4,0.1,0.9,0.2,1.4,0.2c0.7,0,1.3-0.1,1.8-0.2c0.5-0.1,1.1-0.3,1.5-0.6c0.5-0.3,0.9-0.6,1.4-0.9s0.9-0.8,1.3-1.2v-4.5H345.3z" class="st0_1552993213779" vector-effect="non-scaling-stroke"/>
			<path d="M369.9,125.4v-18.2h-10.5V120c0,0.9,0.2,1.6,0.7,2c0.4,0.4,1,0.7,1.7,0.7c0.4,0,0.7-0.1,1-0.2&#10;&#9;&#9;&#9;&#9;s0.5-0.2,0.7-0.3s0.4-0.2,0.5-0.3s0.3-0.2,0.4-0.2c0.2,0,0.4,0.1,0.5,0.4l1.1,1.8c-0.6,0.6-1.4,1.1-2.3,1.4s-1.8,0.5-2.8,0.5&#10;&#9;&#9;&#9;&#9;c-1.7,0-3-0.5-3.9-1.4s-1.4-2.3-1.4-4.1v-13H353c-0.2,0-0.4-0.1-0.6-0.2c-0.2-0.1-0.2-0.3-0.2-0.6V105l3.5-0.4l0.9-6.6&#10;&#9;&#9;&#9;&#9;c0-0.2,0.1-0.4,0.3-0.5s0.3-0.2,0.6-0.2h1.9v7.3h10.5v-2.1c0-1.2,0.2-2.3,0.5-3.2s0.8-1.7,1.5-2.4s1.4-1.1,2.3-1.5&#10;&#9;&#9;&#9;&#9;c0.9-0.3,1.9-0.5,3-0.5c0.9,0,1.8,0.1,2.6,0.4l-0.1,1.9c0,0.3-0.2,0.5-0.6,0.5c-0.3,0-0.8,0-1.4,0c-0.6,0-1.2,0.1-1.8,0.3&#10;&#9;&#9;&#9;&#9;s-1,0.4-1.4,0.8c-0.4,0.4-0.7,0.9-0.9,1.5s-0.3,1.4-0.3,2.3v2h6.1v2.7h-6v18.1H369.9z" class="st0_1552993213779" vector-effect="non-scaling-stroke"/>
			<path d="M391.5,103.8c1.6,0,3,0.3,4.2,0.8s2.3,1.3,3.2,2.2c0.9,1,1.6,2.1,2,3.5c0.5,1.4,0.7,2.9,0.7,4.5&#10;&#9;&#9;&#9;&#9;c0,1.7-0.2,3.2-0.7,4.5s-1.1,2.5-2,3.4c-0.9,1-1.9,1.7-3.2,2.2c-1.2,0.5-2.6,0.8-4.2,0.8c-1.6,0-3-0.3-4.2-0.8&#10;&#9;&#9;&#9;&#9;c-1.3-0.5-2.3-1.2-3.2-2.2s-1.6-2.1-2-3.4c-0.5-1.3-0.7-2.9-0.7-4.5c0-1.7,0.2-3.2,0.7-4.5c0.5-1.4,1.1-2.5,2-3.5s2-1.7,3.2-2.2&#10;&#9;&#9;&#9;&#9;C388.5,104,389.9,103.8,391.5,103.8z M391.5,122.8c2.1,0,3.7-0.7,4.7-2.1s1.6-3.4,1.6-5.9s-0.5-4.5-1.6-5.9&#10;&#9;&#9;&#9;&#9;c-1-1.4-2.6-2.1-4.7-2.1c-1.1,0-2,0.2-2.8,0.5c-0.8,0.4-1.4,0.9-2,1.6c-0.5,0.7-0.9,1.5-1.2,2.5s-0.4,2.1-0.4,3.4&#10;&#9;&#9;&#9;&#9;c0,2.5,0.5,4.5,1.6,5.9C387.8,122,389.4,122.8,391.5,122.8z" class="st0_1552993213779" vector-effect="non-scaling-stroke"/>
			<path d="M409.9,108.4c0.7-1.5,1.5-2.6,2.5-3.4s2.2-1.2,3.6-1.2c0.4,0,0.9,0,1.3,0.1c0.4,0.1,0.8,0.3,1.1,0.5&#10;&#9;&#9;&#9;&#9;l-0.3,2.8c-0.1,0.4-0.3,0.5-0.6,0.5c-0.2,0-0.5,0-0.9-0.1s-0.8-0.1-1.3-0.1c-0.7,0-1.3,0.1-1.8,0.3s-1,0.5-1.4,0.9&#10;&#9;&#9;&#9;&#9;s-0.8,0.9-1.1,1.4c-0.3,0.6-0.6,1.2-0.9,1.9v13.4h-3.8v-21.3h2.1c0.4,0,0.7,0.1,0.8,0.2c0.2,0.2,0.3,0.4,0.3,0.8L409.9,108.4z" class="st0_1552993213779" vector-effect="non-scaling-stroke"/>
			<path d="M421.7,125.4v-21.3h2.2c0.5,0,0.9,0.3,1,0.8l0.3,2.2c0.8-1,1.7-1.8,2.6-2.4c1-0.6,2.1-0.9,3.4-0.9&#10;&#9;&#9;&#9;&#9;c1.4,0,2.6,0.4,3.5,1.2s1.5,1.9,1.9,3.2c0.3-0.8,0.7-1.4,1.2-2s1-1,1.6-1.4s1.2-0.6,1.9-0.8s1.4-0.3,2.1-0.3c1.1,0,2.1,0.2,3,0.5&#10;&#9;&#9;&#9;&#9;s1.6,0.9,2.2,1.6s1.1,1.5,1.4,2.5c0.3,1,0.5,2.1,0.5,3.4v13.7h-3.8v-13.6c0-1.7-0.4-2.9-1.1-3.8c-0.7-0.9-1.8-1.3-3.2-1.3&#10;&#9;&#9;&#9;&#9;c-0.6,0-1.2,0.1-1.8,0.3s-1,0.5-1.5,1c-0.4,0.4-0.8,0.9-1,1.6c-0.2,0.6-0.4,1.4-0.4,2.2v13.6h-3.8v-13.6c0-1.7-0.3-3-1-3.8&#10;&#9;&#9;&#9;&#9;s-1.7-1.3-3-1.3c-0.9,0-1.8,0.2-2.6,0.7s-1.5,1.2-2.2,2v16H421.7z" class="st0_1552993213779" vector-effect="non-scaling-stroke"/>
		</g>
	</g>
</g></g></svg>