<svg version="1.2" xmlns="http://www.w3.org/2000/svg" xmlns:xlink="http://www.w3.org/1999/xlink" overflow="visible" preserveAspectRatio="none" viewBox="0 0 32 32" xml:space="preserve" y="0px" x="0px" id="Camada_1_1553279423020" width="24" height="24"><g transform="translate(1, 1)"><style type="text/css">
	.st0{fill:#BF4CE5;}
	.st1{fill:#953ABA;}
	.st2{fill:#9A8DF7;}
	.st3{fill:#7958ED;}
	.st4{fill:#FFFFFF;}
	.st5{fill:#F8F8F8;}
	.st6{fill:#5B3CCE;}
	.st7{fill:#211915;}
	.st8{fill:#606060;}
	.st9{fill:#070707;}
</style><g>
	<path d="M15,4.4C9.1,4.4,4.4,9.1,4.4,15c0,5.9,4.8,10.6,10.6,10.6S25.6,20.9,25.6,15C25.6,9.1,20.9,4.4,15,4.4z M15,24.1&#10;&#9;&#9;c-5,0-9.1-4.1-9.1-9.1c0-5,4.1-9.1,9.1-9.1s9.1,4.1,9.1,9.1C24.1,20,20,24.1,15,24.1z" vector-effect="non-scaling-stroke" style="fill: rgb(255, 255, 255);"/>
	<path d="M23.2,12.2L21.9,12c-1.1-2.5-3.5-4.3-6.3-4.5L15,6.3l-0.6,1.2c-2.8,0.2-5.2,2-6.3,4.5l-1.3,0.2l0.9,0.9&#10;&#9;&#9;c-0.2,0.6-0.2,1.2-0.2,1.9c0,2.3,1,4.3,2.6,5.7L10,21.8l1-0.5c1.2,0.8,2.6,1.2,4,1.2c1.5,0,2.9-0.4,4-1.2l1,0.5l-0.2-1.1&#10;&#9;&#9;c1.6-1.4,2.6-3.4,2.6-5.7c0-0.6-0.1-1.3-0.2-1.9L23.2,12.2z M20.7,11.9l-3.2-0.5l-1.4-2.8C18.1,9,19.8,10.2,20.7,11.9z M13.9,8.6&#10;&#9;&#9;l-1.4,2.8l-3.2,0.5C10.2,10.2,11.9,9,13.9,8.6z M8.5,15c0-0.4,0-0.7,0.1-1l2.3,2.3l-0.6,3.3C9.2,18.4,8.5,16.8,8.5,15z M15,21.5&#10;&#9;&#9;c-1.1,0-2.1-0.3-3-0.7l3-1.6l3,1.6C17.1,21.2,16.1,21.5,15,21.5z M21.5,15c0,1.8-0.7,3.4-1.8,4.5l-0.6-3.3l2.3-2.3&#10;&#9;&#9;C21.5,14.3,21.5,14.6,21.5,15z" vector-effect="non-scaling-stroke" style="fill: rgb(255, 255, 255);"/>
</g></g></svg>