<?xml version="1.0" standalone="no"?>
<svg version="1.2" overflow="visible" preserveAspectRatio="none" viewBox="0 0 32 32" xml:space="preserve" y="0px" x="0px" xmlns:xlink="http://www.w3.org/1999/xlink" xmlns="http://www.w3.org/2000/svg" id="Camada_1_1548343400083" width="36" height="36"><g transform="translate(1, 1)"><style type="text/css">
	.st0{fill:#BF4CE5;}
	.st1{fill:#953ABA;}
	.st2{fill:#9A8DF7;}
	.st3{fill:#7958ED;}
	.st4{fill:#FFFFFF;}
	.st5{fill:#F8F8F8;}
	.st6{fill:#5B3CCE;}
</style><g>
	<path d="M25.5,10.1l-1.1,1.1c0.5,1.2,0.8,2.5,0.7,3.8c0,2.7-1.1,5.2-3,7.1l1.1,1.1c2.2-2.2,3.4-5,3.4-8.1&#10;&#9;&#9;C26.6,13.3,26.3,11.6,25.5,10.1z" vector-effect="non-scaling-stroke" style="fill: rgb(255, 255, 255);"/>
	<path d="M22.1,13.5l-1.4,1.3c0,1.5-0.5,3-1.7,4.2l1.1,1.1C21.9,18.3,22.6,15.8,22.1,13.5z" vector-effect="non-scaling-stroke" style="fill: rgb(255, 255, 255);"/>
	<path d="M24.5,4.6L17,12c-0.6-0.4-1.2-0.6-1.9-0.6c-2,0-3.6,1.6-3.6,3.6c0,0.7,0.2,1.4,0.6,1.9l-1.5,1.5C8.8,16.2,8.9,13,10.9,11&#10;&#9;&#9;L9.9,9.9c-2.6,2.6-2.8,6.8-0.5,9.6l-2,2c-1.6-1.8-2.5-4.2-2.5-6.6c0-2.7,1.1-5.2,3-7.1L6.8,6.8c-2.2,2.2-3.4,5-3.4,8.1&#10;&#9;&#9;c0,2.8,1,5.5,2.9,7.7l-1.8,1.8l1.1,1.1l20-19.8L24.5,4.6z M12.9,15c0-1.2,0.9-2.2,2.2-2.2c0.3,0,0.6,0.1,0.9,0.2l-2.9,2.8&#10;&#9;&#9;C12.9,15.6,12.9,15.3,12.9,15z" vector-effect="non-scaling-stroke" style="fill: rgb(255, 255, 255);"/>
</g></g></svg>