<?xml version="1.0" encoding="utf-8"?>
<!-- Generator: Adobe Illustrator 23.0.1, SVG Export Plug-In . SVG Version: 6.00 Build 0)  -->
<svg version="1.1" id="Camada_1" xmlns="http://www.w3.org/2000/svg" xmlns:xlink="http://www.w3.org/1999/xlink" x="0px" y="0px"
	 viewBox="0 0 500 500" style="enable-background:new 0 0 500 500;" xml:space="preserve">
<style type="text/css">
	.st0{fill:#B6CCAC;}
	.st1{fill:#4C9936;}
	.st2{fill:#F8F8F8;}
	.st3{fill:#3C662D;}
	.st4{fill:#9A8DF7;}
	.st5{fill:#7958ED;}
	.st6{fill:#5B3CCE;}
	.st7{fill:#FFFFFF;}
	.st8{fill:#D1D0DD;}
	.st9{fill:#868499;}
	.st10{fill:#5D5C70;}
	.st11{fill:#35343F;}
	.st12{fill:#E5E0AA;}
	.st13{fill:#2F5622;}
</style>
<rect x="0" class="st0" width="500" height="500"/>
<g>
	<path class="st1" d="M415.3,208.8C385.9,59.3,247.7,66,247.7,66S109.4,59.3,80,208.8C58.6,318.1,73.9,500,73.9,500h347.6
		C421.5,500,436.8,318.1,415.3,208.8z"/>
	<g>
		<path class="st2" d="M246.1,147.2c-61.5,0.9-110.9,51.7-110,113.2c0.9,61.5,51.7,110.9,113.2,110c61.5-0.9,110.9-51.7,110-113.2
			C358.4,195.7,307.6,146.4,246.1,147.2z"/>
	</g>
	<circle class="st3" cx="348.1" cy="394" r="14.7"/>
	<circle class="st3" cx="379.5" cy="436.2" r="7.3"/>
	<circle class="st3" cx="292.5" cy="108.3" r="7.3"/>
	<circle class="st3" cx="191.7" cy="456.5" r="7.3"/>
	<circle class="st3" cx="105.1" cy="357.9" r="7.3"/>
</g>
<g>
	<path class="st13" d="M283,59h-39.3v-5.4c0-20.6,16.7-37.4,37.4-37.4h39.3v5.4C320.4,42.3,303.7,59,283,59z"/>
	<path class="st13" d="M212.3,80.4h39.3V75c0-20.6-16.7-37.4-37.4-37.4h-39.3V43C174.9,63.7,191.7,80.4,212.3,80.4z"/>
	<g>
		<path class="st13" d="M248.5,115.6L248.5,115.6c-2.7,0-4.9-2.2-4.9-4.9v-54c0-2.7,2.2-4.9,4.9-4.9h0c2.7,0,4.9,2.2,4.9,4.9v54
			C253.4,113.4,251.2,115.6,248.5,115.6z"/>
	</g>
</g>
<g>
	<path class="st13" d="M118,335.4h-14.9v-0.3c0-10,8.1-18.1,18.1-18.1h14.9v0.3C136.1,327.3,128,335.4,118,335.4z"/>
	<path class="st13" d="M91.6,344.6h14.9v-0.3c0-10-8.1-18.1-18.1-18.1H73.6v0.3C73.6,336.5,81.7,344.6,91.6,344.6z"/>
	<g>
		<path class="st13" d="M105.2,359.7L105.2,359.7c-1.2,0-2.1-0.9-2.1-2.1v-23.2c0-1.2,0.9-2.1,2.1-2.1h0c1.2,0,2.1,0.9,2.1,2.1v23.2
			C107.3,358.8,106.3,359.7,105.2,359.7z"/>
	</g>
</g>
<g>
	<path class="st13" d="M373,363.7h-27.9v-7.5c0-10,8.1-18.1,18.1-18.1H391v7.5C391,355.6,382.9,363.7,373,363.7z"/>
	<path class="st13" d="M322,376.5h27.9V369c0-10-8.1-18.1-18.1-18.1h-27.9v7.5C303.9,368.4,312,376.5,322,376.5z"/>
	<g>
		<path class="st13" d="M348,397.6L348,397.6c-1.6,0-2.9-1.3-2.9-2.9v-32.3c0-1.6,1.3-2.9,2.9-2.9l0,0c1.6,0,2.9,1.3,2.9,2.9v32.3
			C350.9,396.2,349.6,397.6,348,397.6z"/>
	</g>
</g>
<path class="st3" d="M289.8,244.9l3.8-5c1.2-1.5,1.6-3.4,1.4-5.3s-1.3-3.6-2.8-4.7c-1.7-1.3-4-1.8-6.1-1.2c-1.6,0.4-3,1.3-4,2.7
	l-1.7,2.2c-6.6-6-14.4-9.8-22.7-11.2l0.1-4.9c0-1.9-0.7-3.7-2.1-5.1c-1.3-1.4-3.2-2.1-5.1-2.2c-0.6,0-1.3,0.1-1.8,0.2
	c-3.2,0.8-5.4,3.6-5.4,6.9l-0.1,5.2c-1,0.2-2,0.4-3,0.6c-7.7,1.9-14.8,6.1-20.8,12l-4.6-5.1c-1.8-2-4.5-2.8-7.1-2.1
	c-1.1,0.3-2.2,0.9-3.1,1.7c-1.4,1.3-2.3,3.1-2.3,5c-0.1,1.9,0.6,3.8,1.9,5.2l6.4,7.1c-4.5,8.2-6.9,17.6-6.9,27.3
	c0,3.9,3.1,7,6.9,7.2c0.1,0,0.2,0,0.3,0c4,0,7.2-3.3,7.2-7.2c0-10.1,3.4-19.6,9.6-26.8c6.1-7.1,14.2-11,22.9-11
	c8.5,0,16.8,3.8,22.9,10.8c6.3,7.1,9.7,16.6,9.7,26.7c0,1.9,0.8,3.7,2.1,5.1c1.4,1.4,3.2,2.2,5.1,2.1c4,0,7.2-3.2,7.2-7.2
	C297.6,263.3,294.9,253.4,289.8,244.9z"/>
</svg>
