<?xml version="1.0" encoding="utf-8"?>
<!-- Generator: Adobe Illustrator 23.0.1, SVG Export Plug-In . SVG Version: 6.00 Build 0)  -->
<svg version="1.1" id="Camada_1" xmlns="http://www.w3.org/2000/svg" xmlns:xlink="http://www.w3.org/1999/xlink" x="0px" y="0px"
	 viewBox="0 0 255 137" style="enable-background:new 0 0 255 137;" xml:space="preserve">
<style type="text/css">
	.st0{fill:url(#SVGID_1_);}
	.st1{fill:url(#SVGID_2_);}
	.st2{fill:#C85E76;}
	.st3{opacity:0.5;}
	.st4{fill:none;stroke:#FFFFFF;stroke-width:0.25;stroke-miterlimit:10;}
	.st5{fill:url(#SVGID_3_);}
	.st6{opacity:0.9;fill:url(#SVGID_4_);enable-background:new    ;}
	.st7{fill:#E7E6D0;}
	.st8{fill:url(#SVGID_5_);}
	.st9{fill:url(#SVGID_6_);}
	.st10{fill:url(#SVGID_7_);}
	.st11{fill:url(#SVGID_8_);}
	.st12{fill:#BE4CE4;}
	.st13{fill:#943AB9;}
	.st14{fill:#998CF6;}
	.st15{fill:#7958EC;}
	.st16{fill:#FFFFFF;}
	.st17{fill:#F7F7F7;}
	.st18{fill:#5B3CCD;}
	.st19{fill:url(#SVGID_9_);}
	.st20{clip-path:url(#SVGID_11_);}
	.st21{opacity:0.6;fill:#57CEB7;}
	.st22{opacity:0.9;fill:#57CEB7;}
	.st23{opacity:0.1;fill:#020202;}
	.st24{fill:#FDFFFF;}
	.st25{fill:#FF4C06;}
	.st26{fill:#564039;}
	.st27{fill:#EAEAEA;}
	.st28{fill:#DCDEE2;}
	.st29{fill:none;stroke:#DCDEE2;stroke-width:3;stroke-miterlimit:10;}
	.st30{fill:#988BF5;}
	.st31{fill:#7958EB;}
	.st32{opacity:0.5;fill:#CACAF9;}
	.st33{fill:#E5E5E5;}
	.st34{fill:#DB825E;}
	.st35{fill:#B75B42;}
	.st36{fill:#E29874;}
	.st37{fill:#919191;}
	.st38{opacity:0.1;fill-rule:evenodd;clip-rule:evenodd;fill:#020202;}
	.st39{clip-path:url(#SVGID_13_);fill:url(#SVGID_14_);}
	.st40{clip-path:url(#SVGID_13_);}
	.st41{fill:url(#SVGID_15_);}
	.st42{opacity:0.2;clip-path:url(#SVGID_13_);}
	.st43{fill:url(#SVGID_16_);}
	.st44{fill:#9A8DF7;}
	.st45{fill:#7958ED;}
	.st46{fill:#F8F8F8;}
	.st47{fill:#5B3CCE;}
	.st48{fill:#02101D;}
	.st49{fill:#4C4C4C;}
	.st50{fill:#CCCCCC;}
	.st51{fill:#3B588C;}
	.st52{fill:#020202;}
	.st53{fill:#E2E2E2;}
	.st54{clip-path:url(#SVGID_18_);fill:url(#SVGID_19_);}
	.st55{opacity:0.8;clip-path:url(#SVGID_18_);fill:url(#SVGID_20_);}
	.st56{clip-path:url(#SVGID_18_);fill:url(#SVGID_21_);}
	.st57{clip-path:url(#SVGID_18_);}
	.st58{fill:#2886F7;}
	.st59{fill:#0C5ED7;}
	.st60{fill:#164F93;}
	.st61{fill:url(#SVGID_22_);}
	.st62{clip-path:url(#SVGID_26_);}
	.st63{fill:url(#SVGID_27_);}
	.st64{fill:url(#SVGID_28_);}
	.st65{clip-path:url(#SVGID_32_);}
	.st66{fill:url(#SVGID_33_);}
	.st67{fill:#BF4CE5;}
	.st68{fill:#953ABA;}
	.st69{fill:url(#SVGID_36_);}
	.st70{clip-path:url(#SVGID_40_);}
	.st71{fill:url(#SVGID_41_);}
</style>
<g>
	<defs>
		<rect id="SVGID_17_" width="255" height="137"/>
	</defs>
	<clipPath id="SVGID_1_">
		<use xlink:href="#SVGID_17_"  style="overflow:visible;"/>
	</clipPath>
	<linearGradient id="SVGID_2_" gradientUnits="userSpaceOnUse" x1="0" y1="68.5" x2="255" y2="68.5">
		<stop  offset="3.720238e-04" style="stop-color:#002A57"/>
		<stop  offset="0.1424" style="stop-color:#113066"/>
		<stop  offset="0.5192" style="stop-color:#393F89"/>
		<stop  offset="0.818" style="stop-color:#52489F"/>
		<stop  offset="0.9996" style="stop-color:#5B4CA7"/>
	</linearGradient>
	<rect style="clip-path:url(#SVGID_1_);fill:url(#SVGID_2_);" width="255" height="137"/>
	<linearGradient id="SVGID_3_" gradientUnits="userSpaceOnUse" x1="130.117" y1="80.3783" x2="263.9667" y2="3.1002">
		<stop  offset="0" style="stop-color:#6D9AF6;stop-opacity:0"/>
		<stop  offset="0.9989" style="stop-color:#8FFFFF;stop-opacity:0.9"/>
	</linearGradient>
	<path style="opacity:0.8;clip-path:url(#SVGID_1_);fill:url(#SVGID_3_);" d="M104,26.7c0,0,50.9-50.6,116.4-38.8
		c58.5,10.5,59.6,45.6,57.2,62.5c-2.4,16.8-26.6,45.8-63.9,39.4c-41.4-7.2-73.6,8-73.6,8"/>
	
		<linearGradient id="SVGID_4_" gradientUnits="userSpaceOnUse" x1="-374.0616" y1="2301.6743" x2="-270.6414" y2="2238.5427" gradientTransform="matrix(0.9478 0.3189 0.3189 -0.9478 -362.73 2363.6589)">
		<stop  offset="0" style="stop-color:#9A57E5;stop-opacity:0"/>
		<stop  offset="0.9982" style="stop-color:#9A57E5;stop-opacity:0.7"/>
	</linearGradient>
	<path style="clip-path:url(#SVGID_1_);fill:url(#SVGID_4_);" d="M-16.8,97.4c0,0,25.2,50.3,76.8,57.9c46.1,6.8,55.7-19,58.1-32.1
		c2.4-13.1-8.3-40.7-37.6-45.2C48,73,27.8,53.7,27.8,53.7"/>
	<g style="clip-path:url(#SVGID_1_);">
		<polygon class="st58" points="208.1,70.8 185.5,71.2 197.7,86.5 220.6,86.8 		"/>
		<g>
			
				<rect x="193.4" y="79.1" transform="matrix(0.9222 0.3867 -0.3867 0.9222 48.0386 -71.3624)" class="st59" width="15.9" height="9.3"/>
			
				<ellipse transform="matrix(0.3867 -0.9222 0.9222 0.3867 41.2428 238.0173)" class="st60" cx="199.6" cy="88" rx="2.3" ry="7.9"/>
			
				<ellipse transform="matrix(0.3867 -0.9222 0.9222 0.3867 51.366 236.0726)" class="st59" cx="203.2" cy="79.4" rx="2.3" ry="7.9"/>
		</g>
		<path class="st16" d="M189.4,75.7c0.2-0.6,0.4-1.1,0.6-1.7c0.6-1.7,1.4-2.4,2-2.7c0.6-0.3,1-0.2,1-0.2l0.1,0l0.1-0.3l-0.1,0
			c-0.1,0-2.1-0.4-3.4,3.1c-0.2,0.6-0.4,1.2-0.6,1.7c-0.9,2.7-1.7,5-4.1,5.7l-0.1,0l0.1,0.3l0.1,0C187.7,80.9,188.5,78.5,189.4,75.7
			z"/>
		
			<linearGradient id="SVGID_5_" gradientUnits="userSpaceOnUse" x1="5551.6812" y1="1073.4543" x2="5555.8872" y2="1073.4543" gradientTransform="matrix(-0.4421 -0.897 0.897 -0.4421 1676.176 5538.2593)">
			<stop  offset="0" style="stop-color:#E5F1FC"/>
			<stop  offset="0.172" style="stop-color:#AFCAEB"/>
			<stop  offset="0.5646" style="stop-color:#2969C2"/>
			<stop  offset="0.6435" style="stop-color:#0D55B9"/>
			<stop  offset="0.9996" style="stop-color:#003086"/>
		</linearGradient>
		<circle class="st8" cx="183.9" cy="82.1" r="2.1"/>
		<g>
			<defs>
				<circle id="SVGID_23_" cx="183.9" cy="82.1" r="2.1"/>
			</defs>
			<clipPath id="SVGID_6_">
				<use xlink:href="#SVGID_23_"  style="overflow:visible;"/>
			</clipPath>
		</g>
		<g>
			<defs>
				<circle id="SVGID_25_" cx="183.9" cy="82.1" r="2.1"/>
			</defs>
			<clipPath id="SVGID_7_">
				<use xlink:href="#SVGID_25_"  style="overflow:visible;"/>
			</clipPath>
			<g style="clip-path:url(#SVGID_7_);">
				
					<linearGradient id="SVGID_8_" gradientUnits="userSpaceOnUse" x1="5550.7412" y1="1071.6188" x2="5556.7227" y2="1071.6188" gradientTransform="matrix(-0.4421 -0.897 0.897 -0.4421 1676.176 5538.2593)">
					<stop  offset="3.808571e-02" style="stop-color:#FDFCFB"/>
					<stop  offset="0.1723" style="stop-color:#F6F8FA"/>
					<stop  offset="0.3636" style="stop-color:#E4EEF6"/>
					<stop  offset="0.5893" style="stop-color:#C5DDF1"/>
					<stop  offset="0.839" style="stop-color:#9AC5E9"/>
					<stop  offset="1" style="stop-color:#7BB4E3"/>
				</linearGradient>
				<path class="st11" d="M184.9,81.5c0.9,1.8-0.3,3.5-1.8,4.3c-1.5,0.8-2.8-0.1-3.5-1.5c-0.8-1.5-0.7-3,0.8-3.8
					C181.9,79.8,184,79.7,184.9,81.5z"/>
			</g>
		</g>
	</g>
	<g style="clip-path:url(#SVGID_1_);">
		<polygon class="st58" points="75,92 63.8,97.7 73.7,102.4 85.2,97 		"/>
		<g>
			
				<rect x="70.4" y="97.5" transform="matrix(0.9983 -5.911758e-02 5.911758e-02 0.9983 -5.7876 4.5972)" class="st59" width="8.9" height="5.2"/>
			
				<ellipse transform="matrix(0.9983 -5.911758e-02 5.911758e-02 0.9983 -5.9408 4.6109)" class="st60" cx="75" cy="102.7" rx="4.4" ry="1.3"/>
			
				<ellipse transform="matrix(0.9983 -5.911758e-02 5.911758e-02 0.9983 -5.6345 4.5836)" class="st59" cx="74.6" cy="97.5" rx="4.4" ry="1.3"/>
		</g>
		<path class="st16" d="M66.9,99c0-0.3-0.1-0.7-0.1-1c-0.1-1,0.1-1.6,0.3-1.8c0.2-0.3,0.5-0.4,0.5-0.4l0,0l0-0.2l0,0
			c0,0-1.2,0.3-0.9,2.4c0,0.3,0.1,0.7,0.1,1c0.2,1.6,0.4,2.9-0.7,3.9l0,0l0.1,0.1l0,0C67.3,102.1,67.1,100.7,66.9,99z"/>
		
			<linearGradient id="SVGID_9_" gradientUnits="userSpaceOnUse" x1="5537.5552" y1="862.591" x2="5539.9043" y2="862.591" gradientTransform="matrix(-0.792 -0.6105 0.6105 -0.792 3925.8547 4168.1157)">
			<stop  offset="0" style="stop-color:#E5F1FC"/>
			<stop  offset="0.172" style="stop-color:#AFCAEB"/>
			<stop  offset="0.5646" style="stop-color:#2969C2"/>
			<stop  offset="0.6435" style="stop-color:#0D55B9"/>
			<stop  offset="0.9996" style="stop-color:#003086"/>
		</linearGradient>
		<circle class="st19" cx="65.6" cy="103.6" r="1.2"/>
		<g>
			<defs>
				<circle id="SVGID_29_" cx="65.6" cy="103.6" r="1.2"/>
			</defs>
			<clipPath id="SVGID_11_">
				<use xlink:href="#SVGID_29_"  style="overflow:visible;"/>
			</clipPath>
		</g>
		<g>
			<defs>
				<circle id="SVGID_31_" cx="65.6" cy="103.6" r="1.2"/>
			</defs>
			<clipPath id="SVGID_13_">
				<use xlink:href="#SVGID_31_"  style="overflow:visible;"/>
			</clipPath>
			<g class="st40">
				
					<linearGradient id="SVGID_14_" gradientUnits="userSpaceOnUse" x1="5537.0303" y1="861.5657" x2="5540.3711" y2="861.5657" gradientTransform="matrix(-0.792 -0.6105 0.6105 -0.792 3925.8547 4168.1157)">
					<stop  offset="3.808571e-02" style="stop-color:#FDFCFB"/>
					<stop  offset="0.1723" style="stop-color:#F6F8FA"/>
					<stop  offset="0.3636" style="stop-color:#E4EEF6"/>
					<stop  offset="0.5893" style="stop-color:#C5DDF1"/>
					<stop  offset="0.839" style="stop-color:#9AC5E9"/>
					<stop  offset="1" style="stop-color:#7BB4E3"/>
				</linearGradient>
				<path style="fill:url(#SVGID_14_);" d="M66,103.1c0.9,0.7,0.7,1.8,0.2,2.6s-1.4,0.7-2.2,0.1c-0.7-0.5-1.1-1.3-0.5-2.1
					C64.1,102.9,65.1,102.4,66,103.1z"/>
			</g>
		</g>
	</g>
	<g style="clip-path:url(#SVGID_1_);">
		<g>
			<g>
				<path class="st67" d="M133.1,92.4L133.1,92.4L133.1,92.4L133.1,92.4L133.1,92.4C133.1,92.4,133.1,92.4,133.1,92.4L133.1,92.4
					c-0.1,0-0.1,0.1-0.2,0.1c-0.1,0.1-0.1,0.2-0.2,0.4c-0.1,0.3-0.3,0.5-0.4,0.8c-0.3,0.6-0.5,1.2-0.8,1.8c-0.5,1.2-0.9,2.5-1.3,3.9
					c-0.8,2.7-1.3,5.5-1.5,8.3c-0.2,2.9-0.2,5.8,0.2,8.7c0,0,0,0.1,0,0.1c0.3,2.3-2.6,3.9-3.9,2c0,0,0-0.1-0.1-0.1
					c-1.7-2.6-3.2-5.4-4.3-8.5c-1.2-3.1-2-6.4-2.5-9.8c-0.3-1.7-0.4-3.5-0.5-5.3c0-0.9,0-1.8,0-2.8c0-0.5,0-1,0.1-1.5
					c0-0.3,0-0.5,0.1-0.8c0-0.1,0-0.3,0-0.4l0-0.1l0-0.1l0-0.1l0,0l0-0.1l0-0.1L133.1,92.4z"/>
				<path class="st67" d="M120.2,92.4L120.2,92.4L120.2,92.4L120.2,92.4L120.2,92.4C120.2,92.4,120.2,92.4,120.2,92.4L120.2,92.4
					c0.1,0,0.1,0.1,0.2,0.1c0.1,0.1,0.1,0.2,0.2,0.4c0.1,0.3,0.3,0.5,0.4,0.8c0.3,0.6,0.5,1.2,0.8,1.8c0.5,1.2,0.9,2.5,1.3,3.9
					c0.8,2.7,1.3,5.5,1.5,8.3c0.2,2.9,0.2,5.8-0.2,8.7c0,0,0,0.1,0,0.1c-0.3,2.3,2.6,3.9,3.9,2c0,0,0-0.1,0.1-0.1
					c1.7-2.6,3.2-5.4,4.3-8.5c1.2-3.1,2-6.4,2.5-9.8c0.3-1.7,0.4-3.5,0.5-5.3c0-0.9,0-1.8,0-2.8c0-0.5,0-1-0.1-1.5
					c0-0.3,0-0.5-0.1-0.8c0-0.1,0-0.3,0-0.4l0-0.1l0-0.1l0-0.1l0,0l0-0.1l0-0.1L120.2,92.4z"/>
				<circle class="st68" cx="121.5" cy="97.3" r="1"/>
				<circle class="st68" cx="127.2" cy="103.5" r="1.7"/>
			</g>
			<g>
				<path class="st67" d="M149.1,87.3L149.1,87.3L149.1,87.3L149.1,87.3L149.1,87.3C149.1,87.2,149.1,87.2,149.1,87.3L149.1,87.3
					c-0.1,0-0.1,0.1-0.2,0.1c-0.1,0.1-0.1,0.2-0.2,0.4c-0.1,0.3-0.3,0.5-0.4,0.8c-0.3,0.6-0.5,1.2-0.8,1.8c-0.5,1.2-0.9,2.5-1.3,3.9
					c-0.8,2.7-1.3,5.5-1.5,8.3c-0.2,2.9-0.2,5.8,0.2,8.7c0,0,0,0.1,0,0.1c0.3,2.3-2.6,3.9-3.9,2c0,0,0-0.1-0.1-0.1
					c-1.7-2.6-3.2-5.4-4.3-8.5c-1.2-3.1-2-6.4-2.5-9.8c-0.3-1.7-0.4-3.5-0.5-5.3c0-0.9,0-1.8,0-2.8c0-0.5,0-1,0.1-1.5
					c0-0.3,0-0.5,0.1-0.8c0-0.1,0-0.3,0-0.4l0-0.1l0-0.1l0-0.1l0,0l0-0.1l0-0.1L149.1,87.3z"/>
				<path class="st67" d="M136.2,87.3L136.2,87.3L136.2,87.3L136.2,87.3L136.2,87.3C136.2,87.2,136.2,87.2,136.2,87.3L136.2,87.3
					c0.1,0,0.1,0.1,0.2,0.1c0.1,0.1,0.1,0.2,0.2,0.4c0.1,0.3,0.3,0.5,0.4,0.8c0.3,0.6,0.5,1.2,0.8,1.8c0.5,1.2,0.9,2.5,1.3,3.9
					c0.8,2.7,1.3,5.5,1.5,8.3c0.2,2.9,0.2,5.8-0.2,8.7c0,0,0,0.1,0,0.1c-0.3,2.3,2.6,3.9,3.9,2c0,0,0-0.1,0.1-0.1
					c1.7-2.6,3.2-5.4,4.3-8.5c1.2-3.1,2-6.4,2.5-9.8c0.3-1.7,0.4-3.5,0.5-5.3c0-0.9,0-1.8,0-2.8c0-0.5,0-1-0.1-1.5
					c0-0.3,0-0.5-0.1-0.8c0-0.1,0-0.3,0-0.4l0-0.1l0-0.1l0-0.1l0,0l0-0.1l0-0.1L136.2,87.3z"/>
				<circle class="st68" cx="141.4" cy="101" r="1"/>
				<circle class="st68" cx="146.7" cy="95.2" r="0.6"/>
			</g>
			<g>
				<path class="st67" d="M118.8,87.3L118.8,87.3L118.8,87.3L118.8,87.3L118.8,87.3C118.8,87.2,118.7,87.2,118.8,87.3L118.8,87.3
					c-0.1,0-0.1,0.1-0.2,0.1c-0.1,0.1-0.1,0.2-0.2,0.4c-0.1,0.3-0.3,0.5-0.4,0.8c-0.3,0.6-0.5,1.2-0.8,1.8c-0.5,1.2-0.9,2.5-1.3,3.9
					c-0.8,2.7-1.3,5.5-1.5,8.3c-0.2,2.9-0.2,5.8,0.2,8.7c0,0,0,0.1,0,0.1c0.3,2.3-2.6,3.9-3.9,2c0,0,0-0.1-0.1-0.1
					c-1.7-2.6-3.2-5.4-4.3-8.5c-1.2-3.1-2-6.4-2.5-9.8c-0.3-1.7-0.4-3.5-0.5-5.3c0-0.9,0-1.8,0-2.8c0-0.5,0-1,0.1-1.5
					c0-0.3,0-0.5,0.1-0.8c0-0.1,0-0.3,0-0.4l0-0.1l0-0.1l0-0.1l0,0l0-0.1l0-0.1L118.8,87.3z"/>
				<path class="st67" d="M105.8,87.3L105.8,87.3L105.8,87.3L105.8,87.3L105.8,87.3C105.9,87.2,105.9,87.2,105.8,87.3L105.8,87.3
					c0.1,0,0.1,0.1,0.2,0.1c0.1,0.1,0.1,0.2,0.2,0.4c0.1,0.3,0.3,0.5,0.4,0.8c0.3,0.6,0.5,1.2,0.8,1.8c0.5,1.2,0.9,2.5,1.3,3.9
					c0.8,2.7,1.3,5.5,1.5,8.3c0.2,2.9,0.2,5.8-0.2,8.7c0,0,0,0.1,0,0.1c-0.3,2.3,2.6,3.9,3.9,2c0,0,0-0.1,0.1-0.1
					c1.7-2.6,3.2-5.4,4.3-8.5c1.2-3.1,2-6.4,2.5-9.8c0.3-1.7,0.4-3.5,0.5-5.3c0-0.9,0-1.8,0-2.8c0-0.5,0-1-0.1-1.5
					c0-0.3,0-0.5-0.1-0.8c0-0.1,0-0.3,0-0.4l0-0.1l0-0.1l0-0.1l0,0l0-0.1l0-0.1L105.8,87.3z"/>
				<circle class="st68" cx="113.5" cy="101.7" r="1"/>
			</g>
		</g>
		<g>
			<circle class="st44" cx="127.5" cy="55.7" r="36.3"/>
			<g>
				<defs>
					<circle id="SVGID_34_" cx="127.5" cy="55.7" r="36.3"/>
				</defs>
				<clipPath id="SVGID_15_">
					<use xlink:href="#SVGID_34_"  style="overflow:visible;"/>
				</clipPath>
			</g>
			<path class="st45" d="M104,82.7c0,0-4.7-42.4,11.9-49.9c17.6-7.9,35.8,2.7,34.6,23.2c-1,16.8-4,20-1.4,23.7l-3.3,8.2l-13.8,4.2
				l-15.5-1.2l-10-5.1L104,82.7z"/>
			<path class="st45" d="M151.4,82.7c0,0,4.7-42.4-11.9-49.9c-17.6-7.9-35.8,2.7-34.6,23.2c1,16.8,2.5,21.2-0.1,24.9l4.8,7l13.8,4.2
				l15.5-1.2l10-5.1L151.4,82.7z"/>
			<g>
				<path class="st16" d="M127.5,93.8c-10,0-19.4-3.8-26.5-10.8C93.7,76,89.6,66.5,89.4,56.3c-0.1-10.2,3.7-19.8,10.8-27.1
					c7.1-7.3,16.6-11.4,26.8-11.5c10.2-0.2,19.8,3.7,27.1,10.8c7.3,7.1,11.4,16.6,11.5,26.8l0,0c0.3,21-16.5,38.3-37.5,38.6
					C127.9,93.8,127.7,93.8,127.5,93.8z M127.5,21.2c-0.2,0-0.3,0-0.5,0c-9.2,0.1-17.8,3.8-24.3,10.5C96.3,38.3,92.9,47,93,56.2
					c0.1,9.2,3.8,17.8,10.5,24.3c6.5,6.3,15,9.8,24,9.8c0.2,0,0.3,0,0.5,0c19-0.3,34.3-16,34-35l0,0c-0.1-9.2-3.8-17.8-10.5-24.3
					C145.1,24.7,136.5,21.2,127.5,21.2z"/>
			</g>
			<g>
				<path class="st46" d="M127.3,40.6c-8.4,0.1-15.1,7-14.9,15.4c0.1,8.4,7,15.1,15.4,14.9c8.4-0.1,15.1-7,14.9-15.4
					C142.5,47.2,135.6,40.5,127.3,40.6z"/>
			</g>
			
				<ellipse transform="matrix(0.5666 -0.824 0.824 0.5666 13.7179 105.0559)" class="st16" cx="106.7" cy="39.5" rx="8.8" ry="4.4"/>
			<circle class="st47" cx="141.1" cy="74.1" r="2"/>
			<circle class="st47" cx="145.4" cy="79.8" r="1"/>
			<circle class="st47" cx="133.6" cy="35.3" r="1"/>
			<circle class="st47" cx="119.9" cy="82.6" r="1"/>
			<circle class="st47" cx="108.1" cy="69.2" r="1"/>
			<g>
				<path class="st47" d="M127.4,49.6c-3.4,0-6.1,2.8-6,6.2c0,3.4,2.8,6.1,6.2,6c3.4,0,6.1-2.8,6-6.2
					C133.6,52.3,130.8,49.6,127.4,49.6z"/>
			</g>
		</g>
	</g>
	<g style="clip-path:url(#SVGID_1_);">
		<polygon class="st58" points="44.3,10.2 10.9,49.8 55.9,52 91.1,12.8 		"/>
		<g>
			
				<rect x="38.3" y="30.6" transform="matrix(0.8983 -0.4393 0.4393 0.8983 -12.3911 29.0538)" class="st59" width="36.6" height="21.4"/>
			
				<ellipse transform="matrix(0.8983 -0.4393 0.4393 0.8983 -16.1374 32.0971)" class="st60" cx="61.3" cy="50.9" rx="18.3" ry="5.3"/>
			
				<ellipse transform="matrix(0.8983 -0.4393 0.4393 0.8983 -8.6449 26.0104)" class="st59" cx="51.9" cy="31.7" rx="18.3" ry="5.3"/>
		</g>
		<path class="st16" d="M24.7,49.8c-0.7-1.2-1.4-2.4-2-3.6c-2-3.7-2-6.1-1.6-7.5c0.4-1.4,1.2-2.1,1.2-2.1l0.2-0.1l-0.4-0.6L21.8,36
			c-0.2,0.1-3.9,3,0.2,10.5c0.7,1.3,1.4,2.5,2.1,3.6c3.3,5.6,6.1,10.5,3.5,15.8l-0.1,0.2l0.7,0.3l0.1-0.2
			C31,60.7,28.1,55.7,24.7,49.8z"/>
		
			<linearGradient id="SVGID_16_" gradientUnits="userSpaceOnUse" x1="5664.3032" y1="1002.3425" x2="5673.9775" y2="1002.3425" gradientTransform="matrix(-0.9661 -0.2581 0.2581 -0.9661 5245.7729 2500.3733)">
			<stop  offset="0" style="stop-color:#E5F1FC"/>
			<stop  offset="0.172" style="stop-color:#AFCAEB"/>
			<stop  offset="0.5646" style="stop-color:#2969C2"/>
			<stop  offset="0.6435" style="stop-color:#0D55B9"/>
			<stop  offset="0.9996" style="stop-color:#003086"/>
		</linearGradient>
		<circle class="st43" cx="27.3" cy="69" r="4.8"/>
		<g>
			<defs>
				<circle id="SVGID_37_" cx="27.3" cy="69" r="4.8"/>
			</defs>
			<clipPath id="SVGID_18_">
				<use xlink:href="#SVGID_37_"  style="overflow:visible;"/>
			</clipPath>
		</g>
		<g>
			<defs>
				<circle id="SVGID_39_" cx="27.3" cy="69" r="4.8"/>
			</defs>
			<clipPath id="SVGID_19_">
				<use xlink:href="#SVGID_39_"  style="overflow:visible;"/>
			</clipPath>
			<g style="clip-path:url(#SVGID_19_);">
				
					<linearGradient id="SVGID_20_" gradientUnits="userSpaceOnUse" x1="5662.1411" y1="998.1205" x2="5675.8994" y2="998.1205" gradientTransform="matrix(-0.9661 -0.2581 0.2581 -0.9661 5245.7729 2500.3733)">
					<stop  offset="3.808571e-02" style="stop-color:#FDFCFB"/>
					<stop  offset="0.1723" style="stop-color:#F6F8FA"/>
					<stop  offset="0.3636" style="stop-color:#E4EEF6"/>
					<stop  offset="0.5893" style="stop-color:#C5DDF1"/>
					<stop  offset="0.839" style="stop-color:#9AC5E9"/>
					<stop  offset="1" style="stop-color:#7BB4E3"/>
				</linearGradient>
				<path style="fill:url(#SVGID_20_);" d="M27.9,66.5c4.5,1.1,5.7,5.9,4.8,9.5s-4.3,4.7-8,3.8c-3.7-0.9-6.3-3.4-5.4-7.1
					C20.2,69.1,23.4,65.3,27.9,66.5z"/>
			</g>
		</g>
	</g>
</g>
</svg>
