<svg version="1.2" xmlns="http://www.w3.org/2000/svg" xmlns:xlink="http://www.w3.org/1999/xlink" overflow="visible" preserveAspectRatio="none" viewBox="0 0 32 32" xml:space="preserve" y="0px" x="0px" id="Camada_1_1553279423021" width="22" height="22"><g transform="translate(1, 1)"><style type="text/css">
	.st0{fill:#BF4CE5;}
	.st1{fill:#953ABA;}
	.st2{fill:#9A8DF7;}
	.st3{fill:#7958ED;}
	.st4{fill:#FFFFFF;}
	.st5{fill:#F8F8F8;}
	.st6{fill:#5B3CCE;}
	.st7_1553279423021{fill:#211915;}
	.st8{fill:#606060;}
</style><g>
	<path d="M15,2.7C8.2,2.7,2.7,8.2,2.7,15S8.2,27.3,15,27.3S27.3,21.8,27.3,15S21.8,2.7,15,2.7z M15,25.8&#10;&#9;&#9;C9,25.8,4.2,21,4.2,15S9,4.2,15,4.2S25.8,9,25.8,15S21,25.8,15,25.8z" class="st7_1553279423021" vector-effect="non-scaling-stroke" style="fill: rgb(255, 255, 255);"/>
	<polygon points="13.6,19.3 8.4,14.7 7.5,15.9 13.7,21.4 22.6,10.3 21.5,9.4" class="st7_1553279423021" vector-effect="non-scaling-stroke" style="fill: rgb(255, 255, 255);"/>
</g></g></svg>