<?xml version="1.0" standalone="no"?>
<svg version="1.2" overflow="visible" preserveAspectRatio="none" viewBox="0 0 32 32" xml:space="preserve" y="0px" x="0px" xmlns:xlink="http://www.w3.org/1999/xlink" xmlns="http://www.w3.org/2000/svg" id="Camada_1_1548180573257" width="35" height="35"><g transform="translate(1, 1)"><style type="text/css">
	.st0{fill:none;stroke:#000000;stroke-width:3;stroke-miterlimit:10;}
	.st1{fill:none;stroke:#444444;stroke-width:2;stroke-linejoin:round;stroke-miterlimit:10;}
	.st2_1548180573257{fill:#444444;}
	.st3{fill:#FFFFFF;}
	.st4{fill:none;stroke:#444444;stroke-linejoin:round;stroke-miterlimit:10;}
	.st5{fill:none;stroke:#444444;stroke-miterlimit:10;}
	.st6{fill:#FFFFFF;stroke:#444444;stroke-miterlimit:10;}
	.st7{fill:#444444;stroke:#444444;stroke-miterlimit:10;}
	.st8{fill:url(#SVGID_1_);}
	.st9{fill:url(#SVGID_2_);}
	.st10{fill:url(#SVGID_3_);}
	.st11{fill:url(#SVGID_4_);}
	.st12{fill:url(#SVGID_5_);}
	.st13{fill:url(#SVGID_6_);}
	.st14{fill:url(#SVGID_7_);}
	.st15{fill:url(#SVGID_8_);}
	.st16{fill:url(#SVGID_9_);}
	.st17{fill:url(#SVGID_10_);}
	.st18{fill:url(#SVGID_11_);}
	.st19{fill:url(#SVGID_12_);}
	.st20{fill:url(#SVGID_13_);}
	.st21{fill:url(#SVGID_14_);}
	.st22{fill:url(#SVGID_15_);}
	.st23{fill:url(#SVGID_16_);}
	.st24{fill:url(#SVGID_17_);}
	.st25{fill:#F5F5F5;}
	.st26{fill:#FDE14C;}
	.st27{fill:#ED3833;}
	.st28{fill:#70F7BA;}
	.st29{enable-background:new    ;}
</style><path d="M22.4,21.2l-4.3-4.3l0,0l0,0l-0.8-0.1l-0.4-0.4c0.9-1,1.4-2.3,1.4-3.7c0-1.5-0.6-2.9-1.6-4&#10;&#9;c-2.2-2.2-5.7-2.2-7.9,0c-2.2,2.2-2.2,5.7,0,7.9c1.1,1.1,2.5,1.6,4,1.6c1.4,0,2.7-0.5,3.7-1.4l0.4,0.4l0.1,0.8l0,0l0,0l4.3,4.3&#10;&#9;c0.2,0.2,0.4,0.2,0.6,0l0.6-0.6C22.5,21.7,22.5,21.4,22.4,21.2z M12.7,17.3c-1.2,0-2.4-0.5-3.2-1.3c-1.8-1.8-1.8-4.7,0-6.5&#10;&#9;c0.9-0.9,2.1-1.3,3.2-1.3s2.3,0.4,3.2,1.3c0.9,0.9,1.3,2,1.3,3.2s-0.5,2.4-1.3,3.2C15.1,16.8,13.9,17.3,12.7,17.3z" class="st2_1548180573257" vector-effect="non-scaling-stroke" style="fill: rgb(255, 255, 255);"/></g></svg>