<?xml version="1.0" standalone="no"?>
<svg version="1.2" overflow="visible" preserveAspectRatio="none" viewBox="0 0 32 32" xml:space="preserve" y="0px" x="0px" xmlns:xlink="http://www.w3.org/1999/xlink" xmlns="http://www.w3.org/2000/svg" id="Camada_1_1548264693382" width="40" height="40"><g transform="translate(1, 1)"><style type="text/css">
	.st0{fill:#BF4CE5;}
	.st1{fill:#953ABA;}
	.st2{fill:#9A8DF7;}
	.st3{fill:#7958ED;}
	.st4{fill:#FFFFFF;}
	.st5{fill:#F8F8F8;}
	.st6{fill:#5B3CCE;}
</style><g>
	<path d="M25.4,11.4c0-2.8-1.2-5.4-3.2-7.3c-2-1.9-4.6-3-7.4-2.9c-2.8,0-5.4,1.2-7.3,3.2c-1.9,2-3,4.6-2.9,7.4&#10;&#9;&#9;c0,2.8,1.2,5.4,3.2,7.3c0.2,0.2,0.5,0.4,0.7,0.6c0,0.9,0.1,2.3,0.3,3.4c0.3,1.8,1.5,4.4,2.1,4.4c0.6,0,1.8-2.8,1.8-2.8&#10;&#9;&#9;s1.4,4.3,2.3,4.3c0.9,0,2.3-4.3,2.3-4.3s1.2,2.8,1.8,2.8c0.6,0,1.8-2.6,2.1-4.4c0.2-1.1,0.3-2.5,0.3-3.4&#10;&#9;&#9;C23.9,17.7,25.5,14.7,25.4,11.4z M9.4,15.2c0-0.2,0.1-0.3,0.3-0.3c0.2,0,0.3,0.1,0.3,0.3c0,0.2-0.1,0.3-0.3,0.3&#10;&#9;&#9;C9.6,15.5,9.4,15.3,9.4,15.2z M19.1,11.5c0,2.3-1.8,4.2-4.1,4.2c-2.3,0-4.2-1.8-4.2-4.1c0-2.3,1.8-4.2,4.1-4.2&#10;&#9;&#9;C17.2,7.3,19.1,9.2,19.1,11.5z M16.4,5.9c0-0.2,0.1-0.3,0.3-0.3c0.2,0,0.3,0.1,0.3,0.3c0,0.2-0.1,0.3-0.3,0.3&#10;&#9;&#9;C16.5,6.2,16.4,6.1,16.4,5.9z M19.6,18.1c0-0.2,0.1-0.3,0.3-0.3c0.2,0,0.3,0.1,0.3,0.3c0,0.2-0.1,0.3-0.3,0.3&#10;&#9;&#9;C19.7,18.4,19.6,18.3,19.6,18.1z M18.7,17.1c-0.3,0-0.5-0.2-0.6-0.5c0-0.3,0.2-0.5,0.5-0.6s0.5,0.2,0.6,0.5&#10;&#9;&#9;C19.3,16.8,19,17.1,18.7,17.1z M13.2,18.9c0,0.2-0.1,0.3-0.3,0.3s-0.3-0.1-0.3-0.3c0-0.2,0.1-0.3,0.3-0.3&#10;&#9;&#9;C13.1,18.6,13.2,18.7,13.2,18.9z M11.4,24.2c-0.1,0.1-0.2,0.2-0.4,0.1S10.9,24.1,11,24s0.2-0.2,0.4-0.1S11.5,24.1,11.4,24.2z&#10;&#9;&#9; M13.6,23c-0.1,0.1-0.2,0.2-0.4,0.1s-0.2-0.2-0.1-0.4s0.2-0.2,0.4-0.1S13.7,22.9,13.6,23z M15.3,24.8c-0.1,0.2-0.4,0.3-0.6,0.2&#10;&#9;&#9;s-0.3-0.4-0.2-0.6c0.1-0.2,0.4-0.3,0.6-0.2S15.4,24.6,15.3,24.8z M19,24c-0.1,0.1-0.2,0.2-0.4,0.1c-0.1-0.1-0.2-0.2-0.1-0.4&#10;&#9;&#9;s0.2-0.2,0.4-0.1C19.1,23.7,19.1,23.9,19,24z M20.4,22.4c0,0.1-0.1,0.1-0.2,0.1c-0.1,0-0.1-0.1-0.1-0.2s0.1-0.1,0.2-0.1&#10;&#9;&#9;C20.4,22.2,20.4,22.3,20.4,22.4z M21.6,18.3c0.1-1.6,0.3-9.1-1.6-11.6c-1.7-2.3-5-2.2-5-2.2v0c-0.5,0-3.3,0.1-4.9,2.2&#10;&#9;&#9;c-1.9,2.5-1.7,10-1.6,11.6c0,0,0,0,0,0c-1.8-1.8-2.8-4.1-2.9-6.6c0-2.5,0.9-4.9,2.7-6.7c1.8-1.8,4.1-2.8,6.6-2.9c0,0,0.1,0,0.1,0&#10;&#9;&#9;c2.5,0,4.8,0.9,6.6,2.7c1.8,1.8,2.8,4.1,2.9,6.6C24.5,14.1,23.4,16.5,21.6,18.3z" vector-effect="non-scaling-stroke" style="fill: rgb(165, 65, 198);"/>
	<path d="M13.3,11.5c0,0.9,0.8,1.7,1.7,1.6c0.9,0,1.7-0.8,1.6-1.7c0-0.9-0.8-1.7-1.7-1.6S13.3,10.6,13.3,11.5z" vector-effect="non-scaling-stroke" style="fill: rgb(165, 65, 198);"/>
</g></g></svg>