<?xml version="1.0" standalone="no"?>
<svg version="1.2" overflow="visible" preserveAspectRatio="none" viewBox="0 0 32 32" xml:space="preserve" y="0px" x="0px" xmlns:xlink="http://www.w3.org/1999/xlink" xmlns="http://www.w3.org/2000/svg" id="Camada_1" width="40" height="40"><g transform="translate(1, 1)"><style type="text/css">
	.st0{fill:#BF4CE5;}
	.st1{fill:#953ABA;}
	.st2{fill:#9A8DF7;}
	.st3{fill:#7958ED;}
	.st4{fill:#FFFFFF;}
	.st5{fill:#F8F8F8;}
	.st6{fill:#5B3CCE;}
</style><g>
	<g>
		<polygon points="21.7,20.8 21.7,23.5 8.3,23.5 8.3,6.4 21.7,6.4 21.7,8.3 23.3,5.1 23.3,4.8 6.7,4.8 6.7,25.1 23.3,25.1 &#10;&#9;&#9;&#9;23.3,17.6" vector-effect="non-scaling-stroke" style="fill: rgb(255, 255, 255);"/>
		<g>
			<rect height="1.6" width="9.3" y="8.8" x="10.4" vector-effect="non-scaling-stroke" style="fill: rgb(255, 255, 255);"/>
		</g>
		<g>
			<rect height="1.6" width="9.3" y="12" x="10.4" vector-effect="non-scaling-stroke" style="fill: rgb(255, 255, 255);"/>
		</g>
		<g>
			<rect height="1.6" width="4.6" y="15.1" x="10.4" vector-effect="non-scaling-stroke" style="fill: rgb(255, 255, 255);"/>
		</g>
		<g>
			<rect height="1.6" width="3.3" y="19.7" x="14" vector-effect="non-scaling-stroke" style="fill: rgb(255, 255, 255);"/>
		</g>
	</g>
	<path d="M20.6,19.9l5.8-12.1L26,7.6l0.8-1.7l-0.8-0.4l-0.8,1.7L24.8,7l-0.4,0.8l-0.8-0.4l-1.9,3.9c-0.2,0-0.3,0.1-0.4,0.3&#10;&#9;&#9;c-0.1,0.2,0,0.5,0.2,0.7c0.2,0.1,0.5,0,0.7-0.2c0.1-0.2,0.1-0.4-0.1-0.5L23.9,8l0.3,0.2L19,19.1l0,2.2L20.6,19.9L20.6,19.9z" vector-effect="non-scaling-stroke" style="fill: rgb(255, 255, 255);"/>
</g></g></svg>