<?xml version="1.0" encoding="utf-8"?>
<!-- Generator: Adobe Illustrator 23.0.1, SVG Export Plug-In . SVG Version: 6.00 Build 0)  -->
<svg version="1.1" id="Camada_1" xmlns="http://www.w3.org/2000/svg" xmlns:xlink="http://www.w3.org/1999/xlink" x="0px" y="0px"
	 viewBox="0 0 255 137" style="enable-background:new 0 0 255 137;" xml:space="preserve">
<style type="text/css">
	.st0{fill:url(#SVGID_1_);}
	.st1{fill:#C85E76;}
	.st2{opacity:0.5;}
	.st3{fill:none;stroke:#FFFFFF;stroke-width:0.25;stroke-miterlimit:10;}
	.st4{fill:url(#SVGID_2_);}
	.st5{opacity:0.9;fill:url(#SVGID_3_);enable-background:new    ;}
	.st6{fill:#E7E6D0;}
	.st7{fill:url(#SVGID_4_);}
	.st8{fill:url(#SVGID_5_);}
	.st9{fill:url(#SVGID_6_);}
	.st10{fill:url(#SVGID_7_);}
	.st11{fill:#BE4CE4;}
	.st12{fill:#943AB9;}
	.st13{fill:#998CF6;}
	.st14{fill:#7958EC;}
	.st15{fill:#FFFFFF;}
	.st16{fill:#F7F7F7;}
	.st17{fill:#5B3CCD;}
	.st18{fill:url(#SVGID_8_);}
	.st19{clip-path:url(#SVGID_10_);}
	.st20{opacity:0.6;fill:#57CEB7;}
	.st21{opacity:0.9;fill:#57CEB7;}
	.st22{opacity:0.1;fill:#020202;}
	.st23{fill:#FDFFFF;}
	.st24{fill:#FF4C06;}
	.st25{fill:#564039;}
	.st26{fill:#EAEAEA;}
	.st27{fill:#DCDEE2;}
	.st28{fill:none;stroke:#DCDEE2;stroke-width:3;stroke-miterlimit:10;}
	.st29{fill:#988BF5;}
	.st30{fill:#7958EB;}
	.st31{opacity:0.5;fill:#CACAF9;}
	.st32{fill:#E5E5E5;}
	.st33{fill:#DB825E;}
	.st34{fill:#B75B42;}
	.st35{fill:#E29874;}
	.st36{fill:#919191;}
	.st37{opacity:0.1;fill-rule:evenodd;clip-rule:evenodd;fill:#020202;}
	.st38{clip-path:url(#SVGID_12_);fill:url(#SVGID_13_);}
	.st39{clip-path:url(#SVGID_12_);}
	.st40{fill:url(#SVGID_14_);}
	.st41{opacity:0.2;clip-path:url(#SVGID_12_);}
	.st42{fill:url(#SVGID_15_);}
	.st43{fill:#9A8DF7;}
	.st44{fill:#7958ED;}
	.st45{fill:#F8F8F8;}
	.st46{fill:#5B3CCE;}
	.st47{fill:#02101D;}
	.st48{fill:#4C4C4C;}
	.st49{fill:#CCCCCC;}
	.st50{fill:#3B588C;}
	.st51{fill:#020202;}
	.st52{fill:#E2E2E2;}
	.st53{clip-path:url(#SVGID_17_);fill:url(#SVGID_18_);}
	.st54{opacity:0.8;clip-path:url(#SVGID_17_);fill:url(#SVGID_19_);}
	.st55{clip-path:url(#SVGID_17_);fill:url(#SVGID_20_);}
	.st56{clip-path:url(#SVGID_17_);}
	.st57{fill:#2886F7;}
	.st58{fill:#0C5ED7;}
	.st59{fill:#164F93;}
	.st60{fill:url(#SVGID_21_);}
	.st61{clip-path:url(#SVGID_25_);}
	.st62{fill:url(#SVGID_26_);}
	.st63{fill:url(#SVGID_27_);}
	.st64{clip-path:url(#SVGID_31_);}
	.st65{fill:url(#SVGID_32_);}
	.st66{fill:#BF4CE5;}
	.st67{fill:#953ABA;}
	.st68{fill:url(#SVGID_35_);}
	.st69{clip-path:url(#SVGID_39_);}
	.st70{fill:url(#SVGID_40_);}
	.st71{clip-path:url(#SVGID_42_);fill:url(#SVGID_43_);}
	.st72{clip-path:url(#SVGID_42_);fill:url(#SVGID_44_);}
	.st73{clip-path:url(#SVGID_42_);fill:url(#SVGID_45_);}
	.st74{clip-path:url(#SVGID_42_);fill:url(#SVGID_46_);}
	.st75{clip-path:url(#SVGID_42_);fill:#343A84;}
	.st76{clip-path:url(#SVGID_42_);}
	.st77{fill:#EFEFBF;}
	.st78{fill:#ADA98C;}
	.st79{fill:url(#SVGID_47_);}
	.st80{fill:url(#SVGID_48_);}
	.st81{fill:url(#SVGID_49_);}
	.st82{opacity:0.1;}
	.st83{fill:url(#SVGID_50_);}
	.st84{fill:url(#SVGID_51_);}
	.st85{fill:url(#SVGID_52_);}
	.st86{fill:#000002;}
	.st87{fill:#2525BF;}
	.st88{fill:#DDC55F;}
	.st89{fill:#D4DCFC;}
	.st90{fill:url(#SVGID_53_);}
	.st91{fill:#C1BF91;}
	.st92{fill:#353534;}
</style>
<g>
	<defs>
		<rect id="SVGID_41_" width="255" height="137"/>
	</defs>
	<clipPath id="SVGID_1_">
		<use xlink:href="#SVGID_41_"  style="overflow:visible;"/>
	</clipPath>
	<linearGradient id="SVGID_2_" gradientUnits="userSpaceOnUse" x1="0" y1="68.5" x2="255" y2="68.5">
		<stop  offset="0" style="stop-color:#357CDE"/>
		<stop  offset="1" style="stop-color:#5C18BF"/>
	</linearGradient>
	<rect style="clip-path:url(#SVGID_1_);fill:url(#SVGID_2_);" width="255" height="137"/>
	<linearGradient id="SVGID_3_" gradientUnits="userSpaceOnUse" x1="-24.4525" y1="57.3629" x2="128.6609" y2="57.3629">
		<stop  offset="1.157407e-03" style="stop-color:#FFFFFF;stop-opacity:0.15"/>
		<stop  offset="0.9992" style="stop-color:#FFFFFF;stop-opacity:0"/>
	</linearGradient>
	<path style="clip-path:url(#SVGID_1_);fill:url(#SVGID_3_);" d="M-24.5,42.6c0,0,17.5-7.2,37.1-21.2S37.7,0,37.7,0h91
		c0,0-13.3,43.9-72.6,68.1c-50.3,20.5-80.5,46.6-80.5,46.6V42.6z"/>
	
		<linearGradient id="SVGID_4_" gradientUnits="userSpaceOnUse" x1="92.9231" y1="66.3326" x2="249.3868" y2="66.3326" gradientTransform="matrix(0.9978 -6.579079e-02 6.579079e-02 0.9978 -0.3665 11.5236)">
		<stop  offset="0" style="stop-color:#FFFFFF;stop-opacity:0.1"/>
		<stop  offset="0.9976" style="stop-color:#FFFFFF;stop-opacity:0.1"/>
	</linearGradient>
	<path style="clip-path:url(#SVGID_1_);fill:url(#SVGID_4_);" d="M225.6,140.4c2.3-10.1,7.2-35.4,6.3-73.2
		c-1.1-45.7,15.8-84.8,15.8-84.8l-48.9,3.2c-3.5,2-34.2,50.7-44,79.7c-11.6,34.3-40.7,70.9-52.8,85.1
		C101.9,150.5,221.1,141.1,225.6,140.4z"/>
	<path style="clip-path:url(#SVGID_1_);fill:#343A84;" d="M213.4,0c-3,58.5-35.7,109.1-83.3,137H255V0H213.4z"/>
	<g style="clip-path:url(#SVGID_1_);">
		<g>
			<path class="st11" d="M73.9,87L73.9,87l0-0.1L73.9,87L73.9,87C73.9,86.9,73.9,86.9,73.9,87l0.1,0c0.1,0.1,0.1,0.1,0.2,0.2
				c0.1,0.2,0.2,0.4,0.4,0.6c0.2,0.4,0.5,0.9,0.7,1.3c0.4,0.9,0.9,1.9,1.2,2.9c0.8,2,1.4,4.1,1.9,6.2c1,4.2,1.5,8.5,1.4,12.9
				c-0.1,4.3-0.8,8.7-2.2,13c0,0,0,0.1,0,0.1c-1.1,3.4,4.5,6.5,7.5,4.1c0,0,0.1-0.1,0.1-0.1c4-3.4,7.6-7.2,10.6-11.5
				c3-4.3,5.4-9,7.2-14c0.9-2.5,1.6-5.1,2.2-7.8c0.3-1.4,0.5-2.7,0.6-4.2c0.1-0.7,0.1-1.5,0.2-2.2c0-0.4,0-0.8,0-1.2
				c0-0.2,0-0.4,0-0.6l0-0.2l0-0.2l0-0.2l0-0.1l0-0.1l0-0.2L73.9,87z"/>
			<circle class="st12" cx="87.8" cy="120.6" r="1.4"/>
		</g>
		<g>
			<path class="st11" d="M50.5,86.4L50.5,86.4l0-0.1l0,0L50.5,86.4C50.6,86.3,50.6,86.3,50.5,86.4l0.1,0c0.1,0.1,0.1,0.1,0.2,0.2
				c0.1,0.2,0.3,0.4,0.4,0.6c0.3,0.4,0.5,0.9,0.8,1.3c0.5,0.9,1,1.9,1.4,2.9c0.9,2,1.6,4.1,2.2,6.2c1.2,4.3,1.9,8.7,2,13.1
				c0.1,4.5-0.5,8.9-1.7,13.3c0,0,0,0.1,0,0.1c-1,3.5,4.9,6.5,7.8,3.9c0,0,0.1-0.1,0.1-0.1c4-3.6,7.5-7.7,10.4-12.2
				c2.9-4.5,5.2-9.4,6.8-14.6c0.8-2.6,1.4-5.3,1.9-8.1c0.2-1.4,0.4-2.8,0.5-4.3c0-0.7,0.1-1.5,0.1-2.3c0-0.4,0-0.8,0-1.2
				c0-0.2,0-0.4,0-0.7l0-0.2l0-0.2l0-0.2l0-0.1l0-0.1l0-0.2L50.5,86.4z"/>
			<circle class="st12" cx="64.1" cy="120" r="1.5"/>
			<circle class="st12" cx="61.7" cy="113.4" r="0.9"/>
		</g>
		<g>
			<path class="st12" d="M50.6,86.3L50.6,86.3L50.6,86.3L50.6,86.3L50.6,86.3L50.6,86.3L50.6,86.3C50.6,86.3,50.6,86.3,50.6,86.3z"
				/>
			<path class="st12" d="M66.6,92.5c0-0.1-0.1-0.1-0.1-0.1L66.3,92c-1.1-2.4-2.7-4.6-4.6-6.6l-11.1,0.9l0,0c0.1,0.1,0.1,0.1,0.2,0.2
				c0.1,0.2,0.3,0.4,0.4,0.6c0.3,0.4,0.5,0.9,0.8,1.3c0.5,0.9,1,1.9,1.4,2.9c0.9,2,1.6,4.1,2.2,6.2c0.9,3,1.4,6.1,1.7,9.3
				c0.9,0.9,1.8,1.7,2.8,2.5c4.9,3.8,9.8,5.3,13.6,5.9c0.1,0,0.2,0.1,0.4,0.1c0.1,0,0.3,0,0.4,0c2.8-4.4,5-9.1,6.5-14.2
				c0.8-2.6,1.4-5.3,1.9-8.1c0-0.1,0-0.3,0.1-0.4C77.4,92.9,71.7,92.9,66.6,92.5z"/>
		</g>
		<path class="st12" d="M105.7,90.7c0-0.3,0-0.7,0.1-1c-1.1-0.1-2.3,0-3.7,0.5c-0.1,0-0.1,0-0.2,0.1c-3.9,1.2-14.6,2.3-25.3,2.4
			c0.7,1.8,1.2,3.7,1.7,5.6c1,4.2,1.5,8.5,1.4,12.9c0,1.3-0.1,2.5-0.3,3.8c2.4-0.2,4.9-0.6,7.4-1.4c6.8-2.6,6.5-2.4,11.6-5.7
			c1.3-0.8,2.5-1.7,3.6-2.7c0.3-0.8,0.6-1.6,0.9-2.4c0.9-2.5,1.6-5.1,2.2-7.8C105.4,93.5,105.6,92.1,105.7,90.7z"/>
		<path class="st11" d="M78.2,112.2c0,0-9.2,1.4-18.1-5.5S48,89.6,49.7,76.5l5,3.5c5.1,2.5,9,6.4,11.1,10.9l0.2,0.4
			C66,91.3,74.7,109.1,78.2,112.2z"/>
		<g>
			<g>
				<circle class="st29" cx="78.1" cy="51.5" r="41.2"/>
				<g>
					<path class="st30" d="M50.6,44.3c0.4-5.1,1.9-9.6,4.2-13.4c2.1-4,4.9-7.2,8.6-8.9c4.1-1.9,8.3-3,12.3-3.3c0.1,0,0.2,0,0.3,0
						c0.2,0,0.3,0,0.5,0c0.2,0,0.3,0,0.5,0c0.2,0,0.3,0,0.5,0s0.3,0,0.5,0c0.2,0,0.3,0,0.5,0c0.2,0,0.3,0,0.5,0c0.1,0,0.2,0,0.3,0
						c4,0.2,8.2,1.1,12.4,2.9c3.7,1.6,6.6,4.7,8.8,8.7c2.4,3.7,4.1,8.1,4.6,13.2c3.6,17.1,1.7,37.5,1.7,37.5l-2.9,3.8l-3.2,1.7
						l-0.5,0.8L97.5,88L92,91l-5,0.5l-3.4,1.1l-5-0.3l-5,0.5l-3.4-1l-5-0.3l-5.7-2.8l-2.5-0.7l-0.3-0.6l-3.5-1.7l-3-3.7
						C50.1,81.8,47.5,61.5,50.6,44.3z"/>
					<g>
						<path class="st16" d="M83.4,31.1c8.8,0,16,8.1,16.1,18.1c0,10-7.2,18.1-16,18.1s-16-8.1-16.1-18.1
							C67.4,39.2,74.6,31.1,83.4,31.1z"/>
					</g>
					<circle class="st17" cx="62.1" cy="71.4" r="2.4"/>
					<circle class="st17" cx="57.1" cy="78.3" r="1.2"/>
					<circle class="st17" cx="70.5" cy="24.9" r="1.2"/>
					<circle class="st17" cx="87.6" cy="81.1" r="1.2"/>
					<circle class="st17" cx="101.4" cy="64.9" r="1.2"/>
					<path class="st17" d="M91.9,46.1l0.7-1c0.2-0.3,0.3-0.7,0.2-1.1s-0.3-0.7-0.6-0.9c-0.4-0.3-0.8-0.3-1.2-0.2
						c-0.3,0.1-0.6,0.3-0.8,0.6l-0.3,0.5c-1.4-1.2-3-1.9-4.7-2.1l0-1c0-0.4-0.2-0.7-0.5-1s-0.7-0.4-1-0.4c-0.1,0-0.3,0-0.4,0.1
						c-0.6,0.2-1.1,0.8-1,1.4l0,1c-0.2,0-0.4,0.1-0.6,0.2c-1.5,0.5-2.9,1.3-4.1,2.6l-1-1c-0.4-0.4-0.9-0.5-1.4-0.4
						c-0.2,0.1-0.4,0.2-0.6,0.4c-0.3,0.3-0.4,0.6-0.4,1c0,0.4,0.1,0.8,0.4,1l1.4,1.4c-0.8,1.7-1.2,3.6-1.1,5.5
						c0,0.8,0.7,1.4,1.4,1.4c0,0,0,0,0.1,0c0.8,0,1.4-0.7,1.4-1.5c-0.1-2,0.5-4,1.7-5.5c1.2-1.5,2.8-2.3,4.5-2.4
						c1.7-0.1,3.4,0.6,4.7,2c1.3,1.4,2.1,3.3,2.2,5.3c0,0.4,0.2,0.7,0.5,1c0.3,0.3,0.7,0.4,1,0.4c0.8,0,1.4-0.7,1.4-1.5
						C93.7,49.7,93,47.8,91.9,46.1z"/>
				</g>
				<g>
					<path class="st15" d="M82,94.5c-11.3,1-22.3-2.3-31.1-9.5c-9-7.3-14.6-17.6-15.8-29.1c-1.2-11.5,2.1-22.8,9.4-31.7
						c7.3-9,17.6-14.6,29.1-15.8c11.5-1.2,22.8,2.1,31.7,9.4c9,7.3,14.6,17.6,15.8,29.1l0,0c2.5,23.7-14.8,45-38.5,47.5
						C82.4,94.5,82.2,94.5,82,94.5z M74.6,12.5c-0.2,0-0.4,0-0.6,0.1c-10.4,1.1-19.8,6.2-26.3,14.3c-6.6,8.1-9.6,18.3-8.5,28.7
						c1.1,10.4,6.2,19.8,14.3,26.3c8,6.5,18,9.5,28.2,8.6c0.2,0,0.4,0,0.6-0.1c21.5-2.3,37.1-21.6,34.8-43.1l0,0
						C116,37,110.9,27.6,102.8,21C94.8,14.6,84.8,11.5,74.6,12.5z"/>
				</g>
				<ellipse transform="matrix(0.2506 -0.9681 0.9681 0.2506 -3.6407 79.6835)" class="st15" cx="49.6" cy="42.2" rx="10" ry="5"/>
			</g>
		</g>
		<path class="st77" d="M150.8,116l-45,16.8l-2.3-4.4c-9-17.5-15.9-35.9-20.6-55l-1.2-4.8l46.1-12l0,0c4.7,19.1,11.6,37.5,20.6,55
			L150.8,116z"/>
		<path class="st78" d="M142.4,102.3H140c-3.5-1.6-5.2-0.2-8.6,2c-0.2,2.6-0.6,9-2.4,11.1l-0.6,1.8l0.3,0.5l1.3-0.5
			c2.7-0.5,5.4-0.2,7.7,1c1.7-3.3,4.4-6,7.6-7.9l1-0.6l0.9-0.5c-0.8-1.6-1.6-3.3-2.3-4.9L142.4,102.3z"/>
		<path class="st78" d="M148.5,111.5c-1.1-2.1-2.1-4.3-3.2-6.4l-0.4,3.7c-0.2,1.5,0.1,3,0.7,4.4l1.3,2.8c0.2,0.4,0.4,0.8,0.7,1.1
			l3.2-1.2L148.5,111.5z"/>
		<linearGradient id="SVGID_5_" gradientUnits="userSpaceOnUse" x1="175.3113" y1="100.0401" x2="194.3031" y2="100.0401">
			<stop  offset="0.1955" style="stop-color:#FFD9DD"/>
			<stop  offset="0.3742" style="stop-color:#F3CDE0"/>
			<stop  offset="0.6977" style="stop-color:#D5ADE7"/>
			<stop  offset="1" style="stop-color:#B389EE"/>
		</linearGradient>
		<path class="st8" d="M176.7,89.7l-1.3,7c-0.4,2.1,0.3,4.2,1.8,5.7l5.9,6c2.6,2.6,6.9,2.6,9.5-0.2v0c1.9-2.1,2.3-5.1,0.9-7.6v0
			c-0.8-1.5-1-3.4-0.4-5l1.2-3.4L176.7,89.7z"/>
		<linearGradient id="SVGID_6_" gradientUnits="userSpaceOnUse" x1="161.3064" y1="100.0394" x2="179.3222" y2="100.0394">
			<stop  offset="0.1955" style="stop-color:#FFD9DD"/>
			<stop  offset="0.3742" style="stop-color:#F3CDE0"/>
			<stop  offset="0.6977" style="stop-color:#D5ADE7"/>
			<stop  offset="1" style="stop-color:#B389EE"/>
		</linearGradient>
		<path class="st9" d="M161.3,93.8l1.4,6.2c0.5,2.1,1.5,4,3,5.5l3.1,3.1c2.2,2.2,5.8,2.4,8.2,0.4l0,0c2.3-1.9,2.9-5.1,1.5-7.7
			l-1.6-3c-1.1-2.1-1.4-4.6-0.7-6.9l0.5-1.6L161.3,93.8z"/>
		<linearGradient id="SVGID_7_" gradientUnits="userSpaceOnUse" x1="150.5592" y1="96.3795" x2="168.5751" y2="96.3795">
			<stop  offset="0.1955" style="stop-color:#FFD9DD"/>
			<stop  offset="0.3742" style="stop-color:#F3CDE0"/>
			<stop  offset="0.6977" style="stop-color:#D5ADE7"/>
			<stop  offset="1" style="stop-color:#B389EE"/>
		</linearGradient>
		<path class="st10" d="M150.6,90.2l1.4,6.2c0.5,2.1,1.5,4,3,5.5l3.1,3.1c2.2,2.2,5.8,2.4,8.2,0.4l0,0c2.3-1.9,2.9-5.1,1.5-7.7
			l-1.6-3c-1.1-2.1-1.4-4.6-0.7-6.9l0.5-1.6L150.6,90.2z"/>
		<path class="st82" d="M194.3,92.3l-17.6-2.5l-11.3,3c-0.5-1.6-0.5-3.4,0-5l0.5-1.6l-15.4,4.1l1.4,6.2c0.5,2.1,1.5,4,3,5.5l1.5,1.5
			c1.4-0.6,2.7-1.2,4-2c5.1-3.2,11-4.9,17-4.9l2.2,0l0,0c4.3,0.8,8.7,1.3,13.1,1.3c0-0.7,0.1-1.4,0.3-2.1L194.3,92.3z"/>
		<linearGradient id="SVGID_8_" gradientUnits="userSpaceOnUse" x1="149.67" y1="82.2604" x2="161.5857" y2="61.6218">
			<stop  offset="0" style="stop-color:#E8C0E2"/>
			<stop  offset="0.4517" style="stop-color:#CDA3E8"/>
			<stop  offset="1" style="stop-color:#A77BF1"/>
		</linearGradient>
		<polygon class="st18" points="146.7,80.6 145.3,70.9 151.5,55.8 168,73.8 		"/>
		<linearGradient id="SVGID_10_" gradientUnits="userSpaceOnUse" x1="141.7836" y1="59.7117" x2="281.0911" y2="59.7117">
			<stop  offset="0.1955" style="stop-color:#FFD9DD"/>
			<stop  offset="0.306" style="stop-color:#F4CDE0"/>
			<stop  offset="0.5069" style="stop-color:#D5ACE7"/>
			<stop  offset="0.7738" style="stop-color:#A478F1"/>
			<stop  offset="0.7852" style="stop-color:#A276F2"/>
		</linearGradient>
		<path style="fill:url(#SVGID_10_);" d="M141.8,42.3l9.5,15.1l27.6,35.5h0c18.7,3.6,28,0.4,44.2-9.5l3-1.8c2.8-1.7,6-2.6,9.2-2.5
			l45.9-0.2V44.7l-50.3,2.8c-6,0.3-11.9-1.1-17.2-3.9l-26.9-16.3c-5.9-3.1-13.1-2.9-18.8,0.6L141.8,42.3z"/>
		<linearGradient id="SVGID_12_" gradientUnits="userSpaceOnUse" x1="124.1128" y1="76.1119" x2="157.1781" y2="57.0216">
			<stop  offset="0.1007" style="stop-color:#BF95EB"/>
			<stop  offset="0.265" style="stop-color:#D5ADE6"/>
			<stop  offset="0.5249" style="stop-color:#F4CDE0"/>
			<stop  offset="0.6685" style="stop-color:#FFD9DD"/>
		</linearGradient>
		<path style="fill:url(#SVGID_12_);" d="M133.6,55.5L131,86.4c-0.1,2.6,1.7,4.9,4.2,5.4h0c2.5,0.5,5.1-0.9,6-3.3l10-31l-4.2-18
			l-5.3,2.9C136.9,45,133.8,50,133.6,55.5z"/>
		<g>
			<polygon class="st86" points="146.7,93.5 140.1,89.8 185.3,4.3 196.8,10.8 			"/>
			<polygon class="st87" points="191,7.5 185.3,4.3 140.1,89.8 143.4,91.7 			"/>
			<path class="st88" d="M145.9,94.9l0.8-1.4l-3.3-1.9l-3.3-1.9l-0.8,1.4c-2.6,4.6-6.4,8.4-11,10.8c1.6,3.3,2.1,7.1,1.4,10.8
				l-1.2,4.1l0.7,0.4l2.9-3.1c2.8-2.5,6.4-4.1,10-4.3C142,104.7,143.3,99.5,145.9,94.9z"/>
			<circle class="st86" cx="136.2" cy="104.4" r="1.8"/>
			<g>
				
					<rect x="125.7" y="111.2" transform="matrix(0.4927 -0.8702 0.8702 0.4927 -30.0485 171.5659)" class="st86" width="12.9" height="0.7"/>
			</g>
			<ellipse transform="matrix(0.4927 -0.8702 0.8702 0.4927 90.3578 170.0525)" class="st89" cx="191" cy="7.5" rx="2.3" ry="6.6"/>
		</g>
		<linearGradient id="SVGID_13_" gradientUnits="userSpaceOnUse" x1="132.7372" y1="86.8873" x2="178.8432" y2="86.8873">
			<stop  offset="0" style="stop-color:#C79EE9"/>
			<stop  offset="0.1363" style="stop-color:#D5ADE6"/>
			<stop  offset="0.4791" style="stop-color:#F3CDE0"/>
			<stop  offset="0.6685" style="stop-color:#FFD9DD"/>
		</linearGradient>
		<path style="fill:url(#SVGID_13_);" d="M178.8,92.9l-2.2,0c-6-0.1-11.9,1.6-17,4.9l0,0c-5.8,3.7-13,4.8-19.7,2.8l-1.3-0.4
			c-2.7-0.8-4.8-2.9-5.6-5.5v0c-1-3.4,0.2-7.1,3.2-9.1l0,0c7-4.9,15-8.1,23.5-9.3h0c0.7-0.1,1.4-0.4,2-1l3.3-3L178.8,92.9z"/>
		<path class="st82" d="M143.6,81.2l0.6-1.9c-2.9,1.4-5.7,3-8.4,4.8c-2,1.4-3.2,3.6-3.5,5.9c0.2,0.2,0.4,0.4,0.6,0.6
			c0.4-2,1.6-3.9,3.3-5.1C138.6,83.9,141,82.5,143.6,81.2z"/>
		<g>
			<path class="st91" d="M91.2,77.4c-0.4,0-0.8-0.3-1-0.7c-0.1-0.5,0.2-1.1,0.7-1.2l34.7-9.4c0.5-0.1,1.1,0.2,1.2,0.7
				c0.1,0.5-0.2,1.1-0.7,1.2l-34.7,9.4C91.4,77.3,91.3,77.4,91.2,77.4z"/>
		</g>
		<g>
			<path class="st91" d="M93.4,87.9c-0.4,0-0.8-0.3-1-0.7c-0.2-0.5,0.1-1.1,0.7-1.2l34.5-10.1c0.5-0.2,1.1,0.1,1.2,0.7
				c0.2,0.5-0.1,1.1-0.7,1.2L93.6,87.9C93.6,87.9,93.5,87.9,93.4,87.9z"/>
		</g>
		<g>
			
				<rect x="119" y="118.5" transform="matrix(0.9392 -0.3434 0.3434 0.9392 -33.275 49.8396)" class="st92" width="10.2" height="0.8"/>
		</g>
		<g>
			<path class="st91" d="M97.5,98.6c-0.4,0-0.8-0.3-1-0.7c-0.2-0.5,0.1-1.1,0.7-1.3l21.9-6.9c0.5-0.2,1.1,0.1,1.3,0.7
				c0.2,0.5-0.1,1.1-0.7,1.3l-21.9,6.9C97.7,98.6,97.6,98.6,97.5,98.6z"/>
		</g>
		<g>
			<path class="st11" d="M58.6,91.3c-0.1-0.3-0.3-0.9,5.4-0.1c12.4,1.2,30.3-0.3,35.4-1.8c0.1,0,0.1,0,0.2,0c6-2,9.4,2.5,6.7,6.5
				c0,0-0.1,0.1-0.1,0.2c-1.6,2.1-5.2,6.7-10,9.8c-4.7,3-4.5,2.9-10.8,5.3c-4.3,1.4-8.4,1.6-12.5,1.1c-9.1-3.4-6.4-3.2-6.1-3
				L58.6,91.3z"/>
			<circle class="st12" cx="84.9" cy="100.2" r="3.1"/>
			<circle class="st12" cx="75.1" cy="108.3" r="1.8"/>
		</g>
	</g>
</g>
</svg>
