<?xml version="1.0" encoding="utf-8"?>
<!-- Generator: Adobe Illustrator 23.0.1, SVG Export Plug-In . SVG Version: 6.00 Build 0)  -->
<svg version="1.1" id="Camada_1" xmlns="http://www.w3.org/2000/svg" xmlns:xlink="http://www.w3.org/1999/xlink" x="0px" y="0px"
	 viewBox="0 0 540 304" style="enable-background:new 0 0 540 304;" xml:space="preserve">
<style type="text/css">
	.st0{fill:url(#SVGID_1_);}
	.st1{fill:url(#SVGID_2_);}
	.st2{fill:#C85E76;}
	.st3{opacity:0.5;}
	.st4{fill:none;stroke:#FFFFFF;stroke-width:0.25;stroke-miterlimit:10;}
	.st5{fill:url(#SVGID_3_);}
	.st6{opacity:0.9;fill:url(#SVGID_4_);enable-background:new    ;}
	.st7{fill:#E7E6D0;}
	.st8{fill:url(#SVGID_5_);}
	.st9{fill:url(#SVGID_6_);}
	.st10{fill:url(#SVGID_7_);}
	.st11{fill:url(#SVGID_8_);}
	.st12{fill:#BE4CE4;}
	.st13{fill:#943AB9;}
	.st14{fill:#998CF6;}
	.st15{fill:#7958EC;}
	.st16{fill:#FFFFFF;}
	.st17{fill:#F7F7F7;}
	.st18{fill:#5B3CCD;}
	.st19{fill:url(#SVGID_9_);}
	.st20{opacity:0.9;fill:url(#SVGID_10_);enable-background:new    ;}
	.st21{fill:url(#SVGID_11_);}
	.st22{fill:url(#SVGID_12_);}
	.st23{fill:url(#SVGID_13_);}
	.st24{fill:url(#SVGID_14_);}
	.st25{fill:url(#SVGID_15_);}
	.st26{fill:url(#SVGID_16_);}
	.st27{fill:url(#SVGID_17_);}
	.st28{opacity:0.9;fill:url(#SVGID_18_);enable-background:new    ;}
	.st29{fill:url(#SVGID_19_);}
	.st30{fill:url(#SVGID_20_);}
	.st31{fill:url(#SVGID_21_);}
	.st32{fill:url(#SVGID_22_);}
	.st33{fill:url(#SVGID_23_);}
	.st34{fill:#9A8DF7;}
	.st35{fill:#7958ED;}
	.st36{fill:#F8F8F8;}
	.st37{fill:#5B3CCE;}
	.st38{clip-path:url(#SVGID_25_);}
	.st39{opacity:0.5;fill:#57CEB7;}
	.st40{opacity:0.8;fill:#57CEB7;}
	.st41{opacity:0.1;fill:#020202;}
	.st42{fill:#FDFFFF;}
	.st43{fill:#FF4C06;}
	.st44{fill:#564039;}
	.st45{fill:#EAEAEA;}
	.st46{fill:#DCDEE2;}
	.st47{fill:none;stroke:#DCDEE2;stroke-width:3;stroke-miterlimit:10;}
	.st48{fill:#988BF5;}
	.st49{fill:#7958EB;}
	.st50{opacity:0.5;fill:#CACAF9;}
	.st51{fill:#E5E5E5;}
	.st52{fill:#DB825E;}
	.st53{fill:#B75B42;}
	.st54{fill:#E29874;}
	.st55{fill:#919191;}
	.st56{opacity:0.1;fill-rule:evenodd;clip-rule:evenodd;fill:#020202;}
</style>
<linearGradient id="SVGID_1_" gradientUnits="userSpaceOnUse" x1="0" y1="152" x2="540" y2="152">
	<stop  offset="0" style="stop-color:#003E88"/>
	<stop  offset="0.1421" style="stop-color:#11418E"/>
	<stop  offset="0.5191" style="stop-color:#39479B"/>
	<stop  offset="0.818" style="stop-color:#524AA4"/>
	<stop  offset="0.9996" style="stop-color:#5B4CA7"/>
</linearGradient>
<rect class="st0" width="540" height="304"/>
<g>
	<circle class="st2" cx="214.7" cy="110.9" r="2.8"/>
	<circle class="st2" cx="333.5" cy="286.1" r="5"/>
	<g class="st3">
		<ellipse transform="matrix(0.2887 -0.9574 0.9574 0.2887 2.1419 157.3758)" class="st4" cx="107" cy="77.2" rx="4.9" ry="15.6"/>
		<ellipse transform="matrix(0.2887 -0.9574 0.9574 0.2887 2.1419 157.3758)" class="st4" cx="107" cy="77.2" rx="9" ry="27.9"/>
		<ellipse transform="matrix(0.2887 -0.9574 0.9574 0.2887 2.1419 157.3758)" class="st4" cx="107" cy="77.2" rx="13.2" ry="40.7"/>
		<ellipse transform="matrix(0.2887 -0.9574 0.9574 0.2887 2.1419 157.3758)" class="st4" cx="107" cy="77.2" rx="18.3" ry="56.5"/>
	</g>
	<g class="st3">
		
			<ellipse transform="matrix(0.9716 -0.2368 0.2368 0.9716 -40.5418 65.6523)" class="st4" cx="253" cy="201.6" rx="54.2" ry="17.6"/>
		
			<ellipse transform="matrix(0.9716 -0.2368 0.2368 0.9716 -40.5418 65.6523)" class="st4" cx="253" cy="201.6" rx="97.2" ry="31.5"/>
		
			<ellipse transform="matrix(0.9716 -0.2368 0.2368 0.9716 -40.5418 65.6523)" class="st4" cx="253" cy="201.6" rx="141.6" ry="45.9"/>
		
			<ellipse transform="matrix(0.9716 -0.2368 0.2368 0.9716 -40.5418 65.6523)" class="st4" cx="253" cy="201.6" rx="196.8" ry="63.7"/>
	</g>
	<g>
		
			<linearGradient id="SVGID_2_" gradientUnits="userSpaceOnUse" x1="7.2962" y1="-22.379" x2="54.7291" y2="-22.379" gradientTransform="matrix(0.9247 -0.3807 -0.3807 -0.9247 157.2042 266.7675)">
			<stop  offset="0" style="stop-color:#357CDE"/>
			<stop  offset="0.9985" style="stop-color:#9A00B7"/>
		</linearGradient>
		<circle class="st1" cx="194.4" cy="275.6" r="23.7"/>
		
			<linearGradient id="SVGID_3_" gradientUnits="userSpaceOnUse" x1="-2.3119" y1="-22.379" x2="64.4297" y2="-22.379" gradientTransform="matrix(0.9247 -0.3807 -0.3807 -0.9247 157.2042 266.7675)">
			<stop  offset="0" style="stop-color:#35CADE"/>
			<stop  offset="0.9985" style="stop-color:#CD6EB7"/>
		</linearGradient>
		<path style="opacity:0.9;fill:url(#SVGID_3_);enable-background:new    ;" d="M222.4,269.8l-51.9,21.4c-2.7,1.1-5.8-0.2-6.9-2.9
			l0,0c-1.1-2.7,0.2-5.8,2.9-6.9l51.9-21.4c2.7-1.1,5.8,0.2,6.9,2.9l0,0C226.4,265.7,225.1,268.7,222.4,269.8z"/>
	</g>
	<g>
		<circle class="st7" cx="522.3" cy="213.4" r="3.9"/>
		<circle class="st7" cx="421.8" cy="246" r="2"/>
		<circle class="st7" cx="184.1" cy="41.9" r="2"/>
		<circle class="st7" cx="53.8" cy="61.8" r="2"/>
	</g>
	<g>
		<circle class="st7" cx="261" cy="217" r="3.5"/>
		<circle class="st7" cx="89.4" cy="204" r="3.5"/>
		<circle class="st7" cx="373.9" cy="197.9" r="1.8"/>
		<circle class="st2" cx="122" cy="94.1" r="1.8"/>
	</g>
	<g>
		
			<linearGradient id="SVGID_4_" gradientUnits="userSpaceOnUse" x1="2397.0884" y1="-1531.5944" x2="2397.0884" y2="-1403.8544" gradientTransform="matrix(-0.6509 -0.7592 0.7592 -0.6509 2971.3398 1076.3997)">
			<stop  offset="0.2081" style="stop-color:#F7E921;stop-opacity:0"/>
			<stop  offset="1" style="stop-color:#EC0024"/>
		</linearGradient>
		<polygon style="fill:url(#SVGID_4_);" points="248.3,253.6 323.6,145.3 366.8,195.8 		"/>
		
			<linearGradient id="SVGID_5_" gradientUnits="userSpaceOnUse" x1="2374.3376" y1="-1478.1796" x2="2374.3376" y2="-1451.4432" gradientTransform="matrix(-0.6509 -0.7592 0.7592 -0.6509 2971.3398 1076.3997)">
			<stop  offset="0.2081" style="stop-color:#F7E921;stop-opacity:0"/>
			<stop  offset="1" style="stop-color:#EC0024"/>
		</linearGradient>
		<polygon class="st8" points="303.7,236.1 319.4,213.4 328.5,224 		"/>
		
			<linearGradient id="SVGID_6_" gradientUnits="userSpaceOnUse" x1="2402.0342" y1="-1504.887" x2="2402.0342" y2="-1478.1506" gradientTransform="matrix(-0.6509 -0.7592 0.7592 -0.6509 2971.3398 1076.3997)">
			<stop  offset="0.2081" style="stop-color:#F7E921;stop-opacity:0"/>
			<stop  offset="1" style="stop-color:#EC0024"/>
		</linearGradient>
		<polygon class="st9" points="265.4,232.4 281.1,209.8 290.2,220.3 		"/>
		
			<linearGradient id="SVGID_7_" gradientUnits="userSpaceOnUse" x1="2416.8716" y1="-1468.2878" x2="2416.8716" y2="-1441.5516" gradientTransform="matrix(-0.6509 -0.7592 0.7592 -0.6509 2971.3398 1076.3997)">
			<stop  offset="0.2081" style="stop-color:#F7E921;stop-opacity:0"/>
			<stop  offset="1" style="stop-color:#EC0024"/>
		</linearGradient>
		<polygon class="st10" points="283.5,197.4 299.3,174.7 308.3,185.3 		"/>
		<g>
			<g>
				<g>
					<path class="st12" d="M368.1,173.1L368.1,173.1l0.1-0.1l0,0l-0.1,0c0,0,0,0-0.1,0l-0.1,0c-0.1,0-0.3,0-0.4,0
						c-0.3,0-0.7,0.1-1,0.2c-0.7,0.1-1.5,0.3-2.2,0.5c-1.5,0.4-3.1,0.9-4.6,1.4c-3.1,1.1-6.3,2.3-9.4,3.8
						c-6.3,2.9-12.4,6.4-18.1,10.6c-5.8,4.2-11.1,9-16,14.4c0,0.1-0.1,0.1-0.1,0.2c-3.9,4.4-11.5,1.3-10-4c0-0.1,0-0.2,0.1-0.2
						c2.1-7.3,5-14.7,9-21.9c3.9-7.2,8.7-14.1,14.4-20.7c2.8-3.3,5.9-6.5,9.2-9.6c1.7-1.5,3.4-3.1,5.2-4.6c0.9-0.8,1.9-1.5,2.9-2.3
						c0.5-0.4,1-0.8,1.6-1.1c0.3-0.2,0.6-0.4,0.9-0.6l0.2-0.2l0.3-0.2l0.3-0.2l0.1,0l0.1-0.1l0.3-0.1L368.1,173.1z"/>
					<path class="st12" d="M347.2,148.8L347.2,148.8l0.1-0.1l0,0l0,0.1c0,0,0,0,0,0.1l0,0.1c0,0.1-0.1,0.3-0.1,0.4
						c-0.1,0.3-0.2,0.6-0.3,1c-0.2,0.7-0.5,1.4-0.9,2.1c-0.6,1.4-1.3,2.9-2.1,4.4c-1.5,2.9-3.3,5.9-5.2,8.7
						c-3.8,5.7-8.2,11.2-13.2,16.3c-5,5.1-10.6,9.6-16.7,13.7c-0.1,0-0.1,0.1-0.2,0.1c-4.9,3.2-3.1,11.1,2.5,10.5c0.1,0,0.2,0,0.2,0
						c7.6-0.9,15.3-2.7,23-5.5c7.7-2.8,15.3-6.5,22.6-11.1c3.7-2.3,7.3-4.8,10.9-7.6c1.8-1.4,3.5-2.9,5.3-4.5
						c0.9-0.8,1.8-1.6,2.7-2.5c0.4-0.4,0.9-0.9,1.4-1.4c0.2-0.2,0.5-0.5,0.7-0.8l0.2-0.2l0.2-0.2l0.2-0.2l0.1-0.1l0.1-0.1l0.2-0.2
						L347.2,148.8z"/>
					<circle class="st13" cx="340.1" cy="159.2" r="2.4"/>
					<circle class="st13" cx="337.6" cy="179.8" r="4.3"/>
				</g>
				<g>
					<path class="st12" d="M402.3,193.3L402.3,193.3l0.1-0.1l0,0l-0.1,0c0,0,0,0-0.1,0l-0.1,0c-0.1,0-0.3,0-0.4,0
						c-0.3,0-0.7,0.1-1,0.2c-0.7,0.1-1.5,0.3-2.2,0.5c-1.5,0.4-3.1,0.9-4.6,1.4c-3.1,1.1-6.3,2.3-9.4,3.8
						c-6.3,2.9-12.4,6.4-18.1,10.6c-5.8,4.2-11.1,9-16,14.4c0,0.1-0.1,0.1-0.1,0.2c-3.9,4.4-11.5,1.3-10-4c0-0.1,0-0.2,0.1-0.2
						c2.1-7.3,5-14.7,9-21.9c3.9-7.2,8.7-14.1,14.4-20.7c2.8-3.3,5.9-6.5,9.2-9.6c1.7-1.5,3.4-3.1,5.2-4.6c0.9-0.8,1.9-1.5,2.9-2.3
						c0.5-0.4,1-0.8,1.6-1.1c0.3-0.2,0.6-0.4,0.9-0.6l0.2-0.2l0.3-0.2l0.3-0.2l0.1,0l0.1-0.1l0.3-0.1L402.3,193.3z"/>
					<path class="st12" d="M381.4,168.9L381.4,168.9l0.1-0.1l0,0l0,0.1c0,0,0,0,0,0.1l0,0.1c0,0.1-0.1,0.3-0.1,0.4
						c-0.1,0.3-0.2,0.6-0.3,1c-0.2,0.7-0.5,1.4-0.9,2.1c-0.6,1.4-1.3,2.9-2.1,4.4c-1.5,2.9-3.3,5.9-5.2,8.7
						c-3.8,5.7-8.2,11.2-13.2,16.3c-5,5.1-10.6,9.6-16.7,13.7c-0.1,0-0.1,0.1-0.2,0.1c-4.9,3.2-3.1,11.1,2.5,10.5c0.1,0,0.2,0,0.2,0
						c7.6-0.9,15.3-2.7,23-5.5c7.7-2.8,15.3-6.5,22.6-11.1c3.7-2.3,7.3-4.8,10.9-7.6c1.8-1.4,3.5-2.9,5.3-4.5
						c0.9-0.8,1.8-1.6,2.7-2.5c0.4-0.4,0.9-0.9,1.4-1.4c0.2-0.2,0.5-0.5,0.7-0.8l0.2-0.2l0.2-0.2l0.2-0.2l0.1-0.1l0.1-0.1l0.2-0.2
						L381.4,168.9z"/>
					<circle class="st13" cx="364.2" cy="200.9" r="2.4"/>
					<circle class="st13" cx="383.5" cy="201.7" r="1.4"/>
				</g>
				<g>
					<path class="st12" d="M353.4,136.2L353.4,136.2l0.1-0.1l0,0l-0.1,0c0,0,0,0-0.1,0l-0.1,0c-0.1,0-0.3,0-0.4,0
						c-0.3,0-0.7,0.1-1,0.2c-0.7,0.1-1.5,0.3-2.2,0.5c-1.5,0.4-3.1,0.9-4.6,1.4c-3.1,1.1-6.3,2.3-9.4,3.8
						c-6.3,2.9-12.4,6.4-18.1,10.6c-5.8,4.2-11.1,9-16,14.4c0,0.1-0.1,0.1-0.1,0.2c-3.9,4.4-11.5,1.3-10-4c0-0.1,0-0.2,0.1-0.2
						c2.1-7.3,5-14.7,9-21.9c3.9-7.2,8.7-14.1,14.4-20.7c2.8-3.3,5.9-6.5,9.2-9.6c1.7-1.5,3.4-3.1,5.2-4.6c0.9-0.8,1.9-1.5,2.9-2.3
						c0.5-0.4,1-0.8,1.6-1.1c0.3-0.2,0.6-0.4,0.9-0.6l0.2-0.2l0.3-0.2l0.3-0.2l0.1,0l0.1-0.1l0.3-0.1L353.4,136.2z"/>
					<path class="st12" d="M332.5,111.8L332.5,111.8l0.1-0.1l0,0l0,0.1c0,0,0,0,0,0.1l0,0.1c0,0.1-0.1,0.3-0.1,0.4
						c-0.1,0.3-0.2,0.6-0.3,1c-0.2,0.7-0.5,1.4-0.9,2.1c-0.6,1.4-1.3,2.9-2.1,4.4c-1.5,2.9-3.3,5.9-5.2,8.7
						c-3.8,5.7-8.2,11.2-13.2,16.3c-5,5.1-10.6,9.6-16.7,13.7c-0.1,0-0.1,0.1-0.2,0.1c-4.9,3.2-3.1,11.1,2.5,10.5c0.1,0,0.2,0,0.2,0
						c7.6-0.9,15.3-2.7,23-5.5c7.7-2.8,15.3-6.5,22.6-11.1c3.7-2.3,7.3-4.8,10.9-7.6c1.8-1.4,3.5-2.9,5.3-4.5
						c0.9-0.8,1.8-1.6,2.7-2.5c0.4-0.4,0.9-0.9,1.4-1.4c0.2-0.2,0.5-0.5,0.7-0.8l0.2-0.2l0.2-0.2l0.2-0.2l0.1-0.1l0.1-0.1l0.2-0.2
						L332.5,111.8z"/>
					<circle class="st13" cx="317.7" cy="149.7" r="2.4"/>
				</g>
			</g>
			<g>
				<circle class="st14" cx="418.5" cy="108.8" r="90"/>
				<path class="st15" d="M329.9,108.1c0,0,72.3-77.3,113.1-58.1c43.2,20.4,52.8,71.7,12.2,102.4c-33.4,25.2-44,24.7-46.8,35.6
					l-20.9,7l-30.3-19.3l-22.8-31.1l-6.5-26.9L329.9,108.1z"/>
				<path class="st15" d="M406.4,197.2c0,0,87.5-59.7,74.7-102.9c-13.5-45.8-62.8-63.1-99.4-27.7c-30,29.1-35.8,38.9-47,40
					l-5.4,20.4l14.4,32.8l27.2,27.2l25.6,10.6L406.4,197.2z"/>
				<g>
					<path class="st16" d="M404,202.2c-21.1-3.3-41.1-13.6-56.3-30.8c-16.7-18.9-25-43.2-23.5-68.4c1.6-25.2,12.9-48.2,31.8-64.9
						c18.9-16.7,43.2-25,68.4-23.5c25.2,1.6,48.2,12.9,64.9,31.8s25,43.2,23.5,68.4c-1.6,25.2-12.9,48.2-31.8,64.9
						C459.2,199,430.8,206.3,404,202.2z M431.8,24.3c-2.6-0.4-5.2-0.7-7.9-0.9C401,22,379,29.6,361.9,44.7
						c-17.1,15.1-27.4,36-28.8,58.8c-1.4,22.8,6.1,44.8,21.2,61.9c31.2,35.4,85.4,38.7,120.8,7.5c17.1-15.1,27.4-36,28.8-58.8
						c1.4-22.8-6.1-44.8-21.2-61.9C469.3,37.1,451.5,27.4,431.8,24.3z"/>
				</g>
				<g>
					<path class="st17" d="M446.7,84c-13.7-15.5-37.5-17-53-3.3c-15.5,13.7-17,37.5-3.3,53c13.7,15.5,37.5,17,53,3.3
						C458.9,123.3,460.4,99.5,446.7,84z"/>
					<path class="st18" d="M409.4,99.4c-5,4.8-5.4,12.9-0.8,18.2c4.6,5.2,12.5,5.9,17.9,1.6C419.8,113.7,413.9,107,409.4,99.4z"/>
					<g>
						<path class="st18" d="M428.4,122.5c-9.3-6.8-17-15.8-22.3-26.1l2.6-1.4c5.1,9.8,12.6,18.5,21.5,25L428.4,122.5z"/>
					</g>
				</g>
				
					<ellipse transform="matrix(0.9943 -0.1063 0.1063 0.9943 -2.2685 44.4082)" class="st16" cx="415.6" cy="43.5" rx="21.8" ry="10.9"/>
				<circle class="st18" cx="406" cy="164.1" r="4.9"/>
				<circle class="st18" cx="402.1" cy="181.4" r="2.5"/>
				<circle class="st18" cx="466.8" cy="87.3" r="2.5"/>
				<circle class="st18" cx="355.7" cy="137.9" r="2.5"/>
				<circle class="st18" cx="362" cy="94.1" r="2.5"/>
			</g>
		</g>
	</g>
</g>
</svg>
